<?xml version="1.0" encoding="utf-8"?>
<!-- Generator: Adobe Illustrator 18.1.0, SVG Export Plug-In . SVG Version: 6.00 Build 0)  -->
<!DOCTYPE svg PUBLIC "-//W3C//DTD SVG 1.1//EN" "http://www.w3.org/Graphics/SVG/1.1/DTD/svg11.dtd">
<svg version="1.1" id="Laag_1" xmlns:sketch="http://www.bohemiancoding.com/sketch/ns"
	 xmlns="http://www.w3.org/2000/svg" xmlns:xlink="http://www.w3.org/1999/xlink" x="0px" y="0px"
	 viewBox="-4194.9 5150.6 1500 1500" enable-background="new -4194.9 5150.6 1500 1500" xml:space="preserve">
<g>
	<path id="Icon-Frame_26_" sketch:type="MSShapeGroup" stroke="#FFFFFF" stroke-width="16.35" stroke-miterlimit="10" d="
		M-3444.9,5246.6L-3444.9,5246.6c361.2,0,654,292.8,654,654v0c0,361.2-292.8,654-654,654h0c-361.2,0-654-292.8-654-654v0
		C-4098.9,5539.4-3806.1,5246.6-3444.9,5246.6z"/>
	<path fill="#FFFFFF" d="M-3375.7,5694.9h-88.3v-65.4l-98.1,98.1l98.1,98.1v-65.4h88.3c0,0,75.2,0,114.4,52.3
		C-3261.3,5694.9-3375.7,5694.9-3375.7,5694.9z"/>
	<path fill="#FFFFFF" d="M-3356.1,6071l-98.1-98.1v65.4h-88.3c0,0-75.2,0-114.4-52.3c0,117.7,114.4,117.7,114.4,117.7h88.3v65.4
		L-3356.1,6071z"/>
	<g>
		<circle fill="none" cx="-3174.5" cy="5605.3" r="7.8"/>
		<path fill="none" d="M-3237.9,5884.4c-15.1-33.8-37.9-59.8-66-77.3v331.3h258.7v-478.2h-258.7v30.3
			C-3242.7,5723.9-3226.7,5793.3-3237.9,5884.4z"/>
		<path fill="none" d="M-3149,5628.8h-50.9c-3.3,0-5.9,2.6-5.9,5.9c0,3.2,2.6,5.9,5.9,5.9h50.9c3.3,0,5.9-2.6,5.9-5.9
			C-3143.1,5631.4-3145.7,5628.8-3149,5628.8z"/>
		<path fill="#FFFFFF" d="M-3076.5,5558.3h-196c-32.5,0-58.8,26.3-58.8,58.8v61.9c10,3.2,19.2,7,27.4,11.5v-30.3h258.7v478.2h-258.7
			v-331.3c-8.7-5.4-17.8-10-27.4-13.7v388.1c0,32.5,26.3,58.8,58.8,58.8h196c32.5,0,58.8-26.3,58.8-58.8v-564.4
			C-3017.7,5584.6-3044,5558.3-3076.5,5558.3z M-3174.5,5597.5c4.3,0,7.8,3.5,7.8,7.8c0,4.3-3.5,7.8-7.8,7.8c-4.3,0-7.8-3.5-7.8-7.8
			C-3182.3,5601-3178.8,5597.5-3174.5,5597.5z M-3149,5640.6h-50.9c-3.3,0-5.9-2.6-5.9-5.9c0-3.3,2.6-5.9,5.9-5.9h50.9
			c3.3,0,5.9,2.6,5.9,5.9C-3143.1,5638-3145.8,5640.6-3149,5640.6z"/>
	</g>
	<g>
		<path fill="none" d="M-3656.9,5708.8h-202.5c-33.9,0-61.4,27.5-61.4,61.4v261.3c0,33.9,27.5,61.4,61.4,61.4h202.5
			c4.8,0,9.4-0.6,13.8-1.6c-41.3-37.6-52.2-99.7-42.8-178.3c17.1,42.3,43.7,75.1,90.3,91.4v-234.2
			C-3595.6,5736.2-3623,5708.8-3656.9,5708.8z"/>
		<path fill="#FFFFFF" d="M-3656.9,6092.8h-202.5c-33.9,0-61.4-27.5-61.4-61.4v-261.3c0-33.9,27.5-61.4,61.4-61.4h202.5
			c33.9,0,61.4,27.5,61.4,61.4v234.2c7.1,2.5,14.6,4.6,22.7,6.2v-97.9h-5.8v-55.7c1.7,1,3.7,1.5,5.8,1.5c6.5,0,11.8-5.3,11.8-11.8
			v-49.1c0-6.5-5.3-11.8-11.8-11.8c-2.1,0-4.1,0.6-5.8,1.5v-28.1c0-26.5-15-49.5-37-61c-4.6-4.1-9.4-8.5-14.7-13.8
			c-5.4-7.1-12.5-18.4-17-41.6c-8.3-42.3-6.8-65.1-12.5-70.7c-11.9-11.7-97.5-17.6-137.4-11.4l0,0.2c-27.5,2.2-51.5,6.6-57.4,12.3
			c-5.7,5.6-4.2,28.4-12.5,70.7c-4.6,23.2-11.6,34.5-17,41.6c-3.6,3.6-7,6.8-10.2,9.8c-25.3,10.1-43.2,34.9-43.2,63.8V6044
			c0,30.7,20.1,56.7,47.9,65.5c1.8,1.7,3.6,3.5,5.5,5.4c5.4,7.1,12.5,18.4,17,41.6c8.3,42.3,6.8,65.1,12.5,70.7
			c5.9,5.8,29.9,10.2,57.4,12.3l0,0.2c39.9,6.2,125.5,0.3,137.4-11.4c5.7-5.6,4.2-28.4,12.5-70.7c4.6-23.2,11.6-34.5,17-41.6
			c3-3,5.8-5.7,8.6-8.3c0.3-0.1,0.6-0.3,0.9-0.4c-8.2-4.7-15.6-10.1-22.2-16.1C-3647.5,6092.3-3652.1,6092.8-3656.9,6092.8z"/>
	</g>
</g>
</svg>
