<!-- Generator: Adobe Illustrator 18.1.0, SVG Export Plug-In  -->
<svg version="1.1"
	 xmlns="http://www.w3.org/2000/svg" xmlns:xlink="http://www.w3.org/1999/xlink" xmlns:a="http://ns.adobe.com/AdobeSVGViewerExtensions/3.0/"
	 x="0px" y="0px" width="402px" height="402px" viewBox="0 0 402 402" enable-background="new 0 0 402 402" xml:space="preserve">
<defs>
</defs>
<linearGradient id="Icon-Frame_2_" gradientUnits="userSpaceOnUse" x1="200.9941" y1="0" x2="200.9941" y2="401.9883">
	<stop  offset="7.712850e-03" style="stop-color:#1DC600"/>
	<stop  offset="0.2922" style="stop-color:#1AA200"/>
	<stop  offset="0.5708" style="stop-color:#188700"/>
	<stop  offset="0.8156" style="stop-color:#167600"/>
	<stop  offset="1" style="stop-color:#167000"/>
</linearGradient>
<path id="Icon-Frame_1_" sketch:type="MSShapeGroup" fill="url(#Icon-Frame_2_)" d="M201,0L201,0c111,0,201,90,201,201v0
	c0,111-90,201-201,201h0C90,402,0,312,0,201v0C0,90,90,0,201,0z"/>
<path fill="#FFFFFF" d="M270.6,155.9c-0.8,0-1.6,0.2-2.3,0.6l0.1-11c0.1-10.4-5.7-19.4-14.3-24c-1.8-1.6-3.6-3.4-5.7-5.4
	c-2.1-2.8-4.8-7.2-6.6-16.3c-3.1-16.6-2.5-25.5-4.7-27.7c-4.6-4.6-38.1-7.2-53.7-4.8l0,0.1c-10.8,0.8-20.2,2.4-22.5,4.7
	c-2.2,2.2-1.7,11.1-5.1,27.6c-1.9,9.1-4.6,13.5-6.8,16.2c-1.4,1.4-2.8,2.6-4,3.8c-9.9,3.9-17,13.5-17.1,24.8l-0.8,111.4
	c-0.1,12,7.7,22.2,18.6,25.8c0.7,0.7,1.4,1.4,2.1,2.1c2.1,2.8,4.8,7.2,6.6,16.3c3.1,16.6,2.5,25.5,4.7,27.7c2.3,2.3,11.7,4.1,22.4,5
	l0,0.1c15.6,2.6,49.1,0.5,53.8-4.1c2.2-2.2,1.7-11.1,5.1-27.6c1.9-9.1,4.6-13.5,6.8-16.2c1.2-1.2,2.3-2.2,3.4-3.2
	c9.9-3.9,16.9-13.5,17-24.8l0.1-9.8l2.3,0l0.3-41.6l-2.3,0l0.2-21.8c0.7,0.4,1.4,0.6,2.3,0.6c2.5,0,4.6-2,4.6-4.6l0.1-19.2
	C275.2,158,273.2,155.9,270.6,155.9z M261.1,252c-0.1,13.3-10.9,23.9-24.2,23.8l-79.2-0.6c-13.3-0.1-23.9-10.9-23.8-24.2l0.7-102.3
	c0.1-13.3,10.9-23.9,24.2-23.8l79.2,0.6c13.3,0.1,23.9,10.9,23.8,24.2L261.1,252z"/>
<path fill="none" stroke="#FFFFFF" stroke-width="2.5592" stroke-miterlimit="10" d="M148.5,71.9c-0.2,7-0.9,12.8-1.5,17
	c-1.5,10.3-2.3,15.6-5.8,20.8c-3.5,5.3-8.2,8.2-11.4,9.8"/>
<path fill="none" stroke="#FFFFFF" stroke-width="2.5592" stroke-miterlimit="10" d="M247.5,329.2c0.2-7,0.9-12.8,1.5-17
	c1.5-10.3,2.3-15.6,5.8-20.8c3.5-5.3,8.2-8.2,11.4-9.8"/>
<path opacity="0.5" fill="#FFFFFF" d="M268.4,152.6c-0.8,0-1.6,0.3-2.2,0.7l-0.5-11c-0.4-10.4-6.7-19.1-15.5-23.2
	c-1.9-1.5-3.8-3.2-6-5.2c-2.2-2.7-5.2-7-7.3-16c-3.9-16.4-3.7-25.3-6-27.4c-4.9-4.4-38.4-5.3-53.9-2.2l0,0.1
	c-10.7,1.3-20,3.4-22.2,5.8c-2.1,2.3-1.2,11.2-3.8,27.8c-1.4,9.1-4,13.7-6,16.5c-1.4,1.5-2.6,2.8-3.8,4
	c-9.7,4.4-16.3,14.3-15.8,25.6l4.6,111.3c0.5,12,8.8,21.8,19.8,24.8c0.7,0.6,1.5,1.3,2.2,2c2.2,2.7,5.2,7,7.3,16
	c3.9,16.4,3.7,25.3,6,27.4c2.4,2.2,11.8,3.5,22.6,3.9l0,0.1c15.7,1.8,49.1-1.9,53.5-6.7c2.1-2.3,1.2-11.2,3.8-27.8
	c1.4-9.1,4-13.7,6-16.5c1.1-1.2,2.2-2.3,3.2-3.4c9.7-4.4,16.3-14.3,15.8-25.6l-0.4-9.8l2.3-0.1l-1.7-41.6l-2.3,0.1l-0.9-21.8
	c0.7,0.4,1.5,0.5,2.3,0.5c2.5-0.1,4.5-2.3,4.4-4.8l-0.8-19.2C273.1,154.5,270.9,152.5,268.4,152.6z M263.5,249
	c0.6,13.3-9.7,24.4-23,25l-79.2,3.3c-13.3,0.6-24.4-9.7-25-23l-4.2-102.2c-0.6-13.3,9.7-24.4,23-25l79.2-3.3
	c13.3-0.6,24.4,9.7,25,23L263.5,249z"/>
</svg>
