<!-- Generator: Adobe Illustrator 18.1.0, SVG Export Plug-In  -->
<svg version="1.1"
	 xmlns="http://www.w3.org/2000/svg" xmlns:xlink="http://www.w3.org/1999/xlink" xmlns:a="http://ns.adobe.com/AdobeSVGViewerExtensions/3.0/"
	 x="0px" y="0px" width="86.5px" height="86.5px" viewBox="0 0 86.5 86.5" enable-background="new 0 0 86.5 86.5"
	 xml:space="preserve">
<defs>
</defs>
<circle fill="#F49938" cx="43.2" cy="43.2" r="43.2"/>
<path fill="#010202" d="M61,25.6c-7.9-7.9-20.6-7.9-28.5,0c-7.9,7.9-7.9,20.6,0,28.4l-7,7c7.9,7.9,20.6,7.9,28.5,0
	c7.9-7.9,7.9-20.6,0-28.4L61,25.6z"/>
<path fill="#010202" d="M43.2,3.3c-22.1,0-40,17.9-40,40c0,22.1,17.9,40,40,40c22.1,0,40-17.9,40-40C83.2,21.2,65.3,3.3,43.2,3.3z
	 M43.2,80C23,80,6.5,63.5,6.5,43.2C6.5,23,23,6.5,43.2,6.5S80,23,80,43.2C80,63.5,63.5,80,43.2,80z"/>
</svg>
