<?xml version="1.0" encoding="utf-8"?>
<!-- Generator: Adobe Illustrator 18.1.0, SVG Export Plug-In . SVG Version: 6.00 Build 0)  -->
<!DOCTYPE svg PUBLIC "-//W3C//DTD SVG 1.1//EN" "http://www.w3.org/Graphics/SVG/1.1/DTD/svg11.dtd">
<svg version="1.1" id="Laag_1" xmlns:sketch="http://www.bohemiancoding.com/sketch/ns"
	 xmlns="http://www.w3.org/2000/svg" xmlns:xlink="http://www.w3.org/1999/xlink" x="0px" y="0px"
	 viewBox="-1037.7 5150.6 1500 1500" enable-background="new -1037.7 5150.6 1500 1500" xml:space="preserve">
<g>
	<path id="Icon-Frame_29_" sketch:type="MSShapeGroup" stroke="#FFFFFF" stroke-width="16.3399" stroke-miterlimit="10" d="
		M-292.8,5245.7L-292.8,5245.7c362.8,0,656.8,294.1,656.8,656.8v0c0,362.8-294.1,656.8-656.8,656.8h0
		c-362.8,0-656.8-294.1-656.8-656.8v0C-949.6,5539.8-655.5,5245.7-292.8,5245.7z"/>
	<path fill="#FFFFFF" d="M-65.2,5755.2c-2.7,0-5.2,0.7-7.4,1.9l0.3-35.9c0.2-33.9-18.7-63.4-46.7-78.3c-5.9-5.3-11.9-11-18.6-17.8
		c-6.9-9.1-15.8-23.7-21.4-53.4c-10.3-54.2-8.1-83.3-15.4-90.5c-15.1-15-124.5-23.4-175.6-15.8l0,0.3c-35.2,2.6-65.9,7.9-73.5,15.3
		c-7.4,7.1-5.6,36.3-16.7,90.3c-6.1,29.6-15.1,44-22.2,53.1c-4.7,4.6-9,8.6-13.2,12.4c-32.4,12.8-55.5,44.2-55.8,81.2L-534,6082
		c-0.3,39.3,25.2,72.7,60.7,84.2c2.3,2.2,4.6,4.5,7,6.9c6.9,9.1,15.8,23.7,21.4,53.4c10.3,54.2,8.1,83.3,15.4,90.5
		c7.5,7.4,38.1,13.3,73.3,16.3l0,0.3c51,8.3,160.4,1.5,175.8-13.3c7.4-7.1,5.6-36.3,16.7-90.3c6.1-29.6,15.1-44,22.2-53.1
		c3.9-3.8,7.5-7.3,11.1-10.5c32.4-12.8,55.4-44.2,55.6-81.1l0.2-32l7.4,0.1l1-135.9l-7.4-0.1l0.5-71.2c2.2,1.3,4.7,2,7.4,2
		c8.3,0.1,15.1-6.7,15.2-15l0.4-62.8C-50.1,5762-56.9,5755.2-65.2,5755.2z M-96.4,6069.2c-0.3,43.3-35.7,78.2-79,77.9l-258.9-1.8
		c-43.3-0.3-78.2-35.7-77.9-79l2.4-334.2c0.3-43.3,35.7-78.2,79-77.9l258.9,1.8c43.3,0.3,78.2,35.7,77.9,79L-96.4,6069.2z"/>
	<path fill="none" stroke="#FFFFFF" stroke-width="8.3635" stroke-miterlimit="10" d="M-464.2,5480.5c-0.7,22.9-2.8,41.9-4.7,55.7
		c-4.8,33.7-7.4,50.9-18.8,67.9c-11.6,17.2-26.9,26.8-37.2,32.1"/>
	<path fill="none" stroke="#FFFFFF" stroke-width="8.3635" stroke-miterlimit="10" d="M-140.7,6321.6c0.7-22.9,2.8-41.9,4.7-55.7
		c4.8-33.7,7.4-50.9,18.8-67.9c11.6-17.2,26.9-26.8,37.2-32.1"/>
	<path opacity="0.3" fill="#FFFFFF" d="M-91.4,5719.6c-2.6,0.4-5,1.6-6.9,3.2l-6-35.4c-5.6-33.4-29.5-59.2-59.6-69
		c-6.7-4.2-13.7-8.7-21.4-14.3c-8.4-7.8-19.7-20.6-30.4-48.8c-19.5-51.6-22.5-80.6-30.9-86.5c-17.5-12.2-126.7-1.5-175.7,14.9l0,0.3
		c-34.2,8.6-63.5,19.3-69.7,27.8c-6,8.3,0.8,36.7-0.7,91.8c-0.8,30.2-7.3,46-12.6,56.1c-3.8,5.3-7.4,10.1-10.8,14.5
		c-29.7,18.2-47,53.2-40.8,89.6l60.7,359c6.5,38.7,37.5,67.2,74.4,72.4c2.6,1.8,5.3,3.6,8.1,5.6c8.4,7.8,19.7,20.6,30.4,48.8
		c19.5,51.6,22.5,80.6,30.9,86.5c8.7,6,39.8,6.4,75,3.3l0.1,0.3c51.6-0.6,158.3-26.4,170.8-43.7c6-8.3-0.8-36.7,0.7-91.8
		c0.8-30.2,7.3-46,12.6-56.1c3.1-4.4,6.1-8.5,9.1-12.3c29.7-18.2,46.9-53.2,40.7-89.6l-5.3-31.6l7.3-1.2l-22.7-134l-7.3,1.2
		l-11.9-70.2c2.4,0.9,5,1.1,7.6,0.7c8.2-1.4,13.7-9.2,12.3-17.4l-10.5-62C-75.4,5723.8-83.2,5718.3-91.4,5719.6z M-67.6,6034.3
		c7.2,42.7-21.6,83.2-64.3,90.5l-255.3,43.2c-42.7,7.2-83.2-21.6-90.5-64.3l-55.7-329.5c-7.2-42.7,21.6-83.2,64.3-90.5l255.3-43.2
		c42.7-7.2,83.2,21.6,90.5,64.3L-67.6,6034.3z"/>
	<path opacity="0.3" fill="#FFFFFF" d="M-41.4,5802c-2.6-0.5-5.2-0.2-7.6,0.6l6.5-35.3c6.1-33.3-7.5-65.7-32.4-85.2
		c-4.9-6.3-9.8-12.9-15.3-20.7c-5.2-10.2-11.4-26-11.8-56.3c-0.7-55.1,6.5-83.5,0.6-91.8c-12.3-17.4-118.5-44.7-170.2-46.1l-0.1,0.3
		c-35.1-3.6-66.3-3.6-75,2.3c-8.5,5.7-11.8,34.8-32.1,86c-11.1,28.1-22.6,40.7-31.1,48.4c-5.4,3.7-10.4,7-15.2,10
		c-34.2,6.9-62.3,33.9-69,70.3l-65.8,358.1c-7.1,38.6,12.2,76,45.1,93.5c1.8,2.5,3.7,5.2,5.7,8c5.2,10.2,11.4,26,11.8,56.3
		c0.7,55.1-6.5,83.5-0.6,91.8c6.1,8.6,35.2,19.7,69.3,28.8l0,0.3c48.8,17.1,157.7,29.3,175.4,17.4c8.5-5.7,11.8-34.8,32.1-86
		c11.1-28.1,22.6-40.7,31.1-48.4c4.5-3.1,8.7-5.8,12.7-8.4c34.1-7,62.2-33.9,68.9-70.2l5.8-31.5l7.3,1.3l24.5-133.7l-7.3-1.3
		l12.9-70c1.9,1.6,4.3,2.8,6.9,3.3c8.2,1.5,16-3.9,17.5-12.1l11.3-61.8C-27.8,5811.4-33.2,5803.5-41.4,5802z M-126.7,6105.8
		c-7.8,42.6-48.7,70.8-91.4,63l-254.6-46.8c-42.6-7.8-70.8-48.7-63-91.4l60.4-328.7c7.8-42.6,48.7-70.8,91.4-63l254.6,46.8
		c42.6,7.8,70.8,48.7,63,91.4L-126.7,6105.8z"/>
</g>
</svg>
