<!-- Generator: Adobe Illustrator 18.1.0, SVG Export Plug-In  -->
<svg version="1.1"
	 xmlns="http://www.w3.org/2000/svg" xmlns:xlink="http://www.w3.org/1999/xlink" xmlns:a="http://ns.adobe.com/AdobeSVGViewerExtensions/3.0/"
	 x="0px" y="0px" width="1113.3px" height="475.5px" viewBox="0 0 1113.3 475.5" enable-background="new 0 0 1113.3 475.5"
	 xml:space="preserve">
<defs>
</defs>
<path fill="none" stroke="#E8E8E8" stroke-miterlimit="10" d="M54.7,194.8l7.8-7.4c-4.2-4.2-10.1-6.9-16.6-6.9
	c-8.4,0-15.8,4.4-19.9,11.1c-2.2,3.6-3.5,7.8-3.5,12.3c0,6,2.3,11.5,6,15.6l-7.8,7.4c4.3,4.9,10.6,8.1,17.7,8.1
	c8.4,0,15.8-4.4,19.9-11.1c2.2-3.6,3.5-7.8,3.5-12.3C61.8,205,59.1,199,54.7,194.8z"/>
<path fill="none" stroke="#E8E8E8" stroke-miterlimit="10" d="M104.7,194.8l7.8-7.4c-4.2-4.2-10.1-6.9-16.6-6.9
	c-8.4,0-15.8,4.4-19.9,11.1c-2.2,3.6-3.5,7.8-3.5,12.3c0,6,2.3,11.5,6,15.6l-7.8,7.4c4.3,4.9,10.6,8.1,17.7,8.1
	c8.4,0,15.8-4.4,19.9-11.1c2.2-3.6,3.5-7.8,3.5-12.3C111.8,205,109.1,199,104.7,194.8z"/>
<path fill="none" stroke="#E8E8E8" stroke-miterlimit="10" d="M154.7,194.8l7.8-7.4c-4.2-4.2-10.1-6.9-16.6-6.9
	c-8.4,0-15.8,4.4-19.9,11.1c-2.2,3.6-3.5,7.8-3.5,12.3c0,6,2.3,11.5,6,15.6l-7.8,7.4c4.3,4.9,10.6,8.1,17.7,8.1
	c8.4,0,15.8-4.4,19.9-11.1c2.2-3.6,3.5-7.8,3.5-12.3C161.8,205,159.1,199,154.7,194.8z"/>
<path fill="none" stroke="#E8E8E8" stroke-miterlimit="10" d="M204.7,194.8l7.8-7.4c-4.2-4.2-10.1-6.9-16.6-6.9
	c-8.4,0-15.8,4.4-19.9,11.1c-2.2,3.6-3.5,7.8-3.5,12.3c0,6,2.3,11.5,6,15.6l-7.8,7.4c4.3,4.9,10.6,8.1,17.7,8.1
	c8.4,0,15.8-4.4,19.9-11.1c2.2-3.6,3.5-7.8,3.5-12.3C211.8,205,209.1,199,204.7,194.8z"/>
<path fill="none" stroke="#E8E8E8" stroke-miterlimit="10" d="M34.7,134.8l7.8-7.4c-4.2-4.2-10.1-6.9-16.6-6.9
	c-8.4,0-15.8,4.4-19.9,11.1c-2.2,3.6-3.5,7.8-3.5,12.3c0,6,2.3,11.5,6,15.6l-7.8,7.4c4.3,4.9,10.6,8.1,17.7,8.1
	c8.4,0,15.8-4.4,19.9-11.1c2.2-3.6,3.5-7.8,3.5-12.3C41.8,145,39.1,139,34.7,134.8z"/>
<path fill="none" stroke="#E8E8E8" stroke-miterlimit="10" d="M84.7,134.8l7.8-7.4c-4.2-4.2-10.1-6.9-16.6-6.9
	c-8.4,0-15.8,4.4-19.9,11.1c-2.2,3.6-3.5,7.8-3.5,12.3c0,6,2.3,11.5,6,15.6l-7.8,7.4c4.3,4.9,10.6,8.1,17.7,8.1
	c8.4,0,15.8-4.4,19.9-11.1c2.2-3.6,3.5-7.8,3.5-12.3C91.8,145,89.1,139,84.7,134.8z"/>
<path fill="none" stroke="#E8E8E8" stroke-miterlimit="10" d="M134.7,134.8l7.8-7.4c-4.2-4.2-10.1-6.9-16.6-6.9
	c-8.4,0-15.8,4.4-19.9,11.1c-2.2,3.6-3.5,7.8-3.5,12.3c0,6,2.3,11.5,6,15.6l-7.8,7.4c4.3,4.9,10.6,8.1,17.7,8.1
	c8.4,0,15.8-4.4,19.9-11.1c2.2-3.6,3.5-7.8,3.5-12.3C141.8,145,139.1,139,134.7,134.8z"/>
<path fill="none" stroke="#E8E8E8" stroke-miterlimit="10" d="M184.7,134.8l7.8-7.4c-4.2-4.2-10.1-6.9-16.6-6.9
	c-8.4,0-15.8,4.4-19.9,11.1c-2.2,3.6-3.5,7.8-3.5,12.3c0,6,2.3,11.5,6,15.6l-7.8,7.4c4.3,4.9,10.6,8.1,17.7,8.1
	c8.4,0,15.8-4.4,19.9-11.1c2.2-3.6,3.5-7.8,3.5-12.3C191.8,145,189.1,139,184.7,134.8z"/>
<path fill="none" stroke="#E8E8E8" stroke-miterlimit="10" d="M54.7,74.8l7.8-7.4c-4.2-4.2-10.1-6.9-16.6-6.9
	c-8.4,0-15.8,4.4-19.9,11.1c-2.2,3.6-3.5,7.8-3.5,12.3c0,6,2.3,11.5,6,15.6l-7.8,7.4c4.3,4.9,10.6,8.1,17.7,8.1
	c8.4,0,15.8-4.4,19.9-11.1c2.2-3.6,3.5-7.8,3.5-12.3C61.8,85,59.1,79,54.7,74.8z"/>
<path fill="none" stroke="#E8E8E8" stroke-miterlimit="10" d="M104.7,74.8l7.8-7.4c-4.2-4.2-10.1-6.9-16.6-6.9
	c-8.4,0-15.8,4.4-19.9,11.1c-2.2,3.6-3.5,7.8-3.5,12.3c0,6,2.3,11.5,6,15.6l-7.8,7.4c4.3,4.9,10.6,8.1,17.7,8.1
	c8.4,0,15.8-4.4,19.9-11.1c2.2-3.6,3.5-7.8,3.5-12.3C111.8,85,109.1,79,104.7,74.8z"/>
<path fill="none" stroke="#E8E8E8" stroke-miterlimit="10" d="M154.7,74.8l7.8-7.4c-4.2-4.2-10.1-6.9-16.6-6.9
	c-8.4,0-15.8,4.4-19.9,11.1c-2.2,3.6-3.5,7.8-3.5,12.3c0,6,2.3,11.5,6,15.6l-7.8,7.4c4.3,4.9,10.6,8.1,17.7,8.1
	c8.4,0,15.8-4.4,19.9-11.1c2.2-3.6,3.5-7.8,3.5-12.3C161.8,85,159.1,79,154.7,74.8z"/>
<path fill="none" stroke="#E8E8E8" stroke-miterlimit="10" d="M204.7,74.8l7.8-7.4c-4.2-4.2-10.1-6.9-16.6-6.9
	c-8.4,0-15.8,4.4-19.9,11.1c-2.2,3.6-3.5,7.8-3.5,12.3c0,6,2.3,11.5,6,15.6l-7.8,7.4c4.3,4.9,10.6,8.1,17.7,8.1
	c8.4,0,15.8-4.4,19.9-11.1c2.2-3.6,3.5-7.8,3.5-12.3C211.8,85,209.1,79,204.7,74.8z"/>
<path fill="none" stroke="#E8E8E8" stroke-miterlimit="10" d="M34.7,14.8l7.8-7.4C38.3,3.1,32.5,0.5,26,0.5
	c-8.4,0-15.8,4.4-19.9,11.1c-2.2,3.6-3.5,7.8-3.5,12.3c0,6,2.3,11.5,6,15.6l-7.8,7.4C5,51.9,11.3,55,18.4,55
	c8.4,0,15.8-4.4,19.9-11.1c2.2-3.6,3.5-7.8,3.5-12.3C41.8,25,39.1,19,34.7,14.8z"/>
<path fill="none" stroke="#E8E8E8" stroke-miterlimit="10" d="M84.7,14.8l7.8-7.4C88.3,3.1,82.5,0.5,76,0.5
	c-8.4,0-15.8,4.4-19.9,11.1c-2.2,3.6-3.5,7.8-3.5,12.3c0,6,2.3,11.5,6,15.6l-7.8,7.4C55,51.9,61.3,55,68.4,55
	c8.4,0,15.8-4.4,19.9-11.1c2.2-3.6,3.5-7.8,3.5-12.3C91.8,25,89.1,19,84.7,14.8z"/>
<path fill="none" stroke="#E8E8E8" stroke-miterlimit="10" d="M134.7,14.8l7.8-7.4c-4.2-4.2-10.1-6.9-16.6-6.9
	c-8.4,0-15.8,4.4-19.9,11.1c-2.2,3.6-3.5,7.8-3.5,12.3c0,6,2.3,11.5,6,15.6l-7.8,7.4c4.3,4.9,10.6,8.1,17.7,8.1
	c8.4,0,15.8-4.4,19.9-11.1c2.2-3.6,3.5-7.8,3.5-12.3C141.8,25,139.1,19,134.7,14.8z"/>
<path fill="none" stroke="#E8E8E8" stroke-miterlimit="10" d="M184.7,14.8l7.8-7.4c-4.2-4.2-10.1-6.9-16.6-6.9
	c-8.4,0-15.8,4.4-19.9,11.1c-2.2,3.6-3.5,7.8-3.5,12.3c0,6,2.3,11.5,6,15.6l-7.8,7.4c4.3,4.9,10.6,8.1,17.7,8.1
	c8.4,0,15.8-4.4,19.9-11.1c2.2-3.6,3.5-7.8,3.5-12.3C191.8,25,189.1,19,184.7,14.8z"/>
<path fill="none" stroke="#E8E8E8" stroke-miterlimit="10" d="M54.7,434.8l7.8-7.4c-4.2-4.2-10.1-6.9-16.6-6.9
	c-8.4,0-15.8,4.4-19.9,11.1c-2.2,3.6-3.5,7.8-3.5,12.3c0,6,2.3,11.5,6,15.6l-7.8,7.4c4.3,4.9,10.6,8.1,17.7,8.1
	c8.4,0,15.8-4.4,19.9-11.1c2.2-3.6,3.5-7.8,3.5-12.3C61.8,445,59.1,439,54.7,434.8z"/>
<path fill="none" stroke="#E8E8E8" stroke-miterlimit="10" d="M104.7,434.8l7.8-7.4c-4.2-4.2-10.1-6.9-16.6-6.9
	c-8.4,0-15.8,4.4-19.9,11.1c-2.2,3.6-3.5,7.8-3.5,12.3c0,6,2.3,11.5,6,15.6l-7.8,7.4c4.3,4.9,10.6,8.1,17.7,8.1
	c8.4,0,15.8-4.4,19.9-11.1c2.2-3.6,3.5-7.8,3.5-12.3C111.8,445,109.1,439,104.7,434.8z"/>
<path fill="none" stroke="#E8E8E8" stroke-miterlimit="10" d="M154.7,434.8l7.8-7.4c-4.2-4.2-10.1-6.9-16.6-6.9
	c-8.4,0-15.8,4.4-19.9,11.1c-2.2,3.6-3.5,7.8-3.5,12.3c0,6,2.3,11.5,6,15.6l-7.8,7.4c4.3,4.9,10.6,8.1,17.7,8.1
	c8.4,0,15.8-4.4,19.9-11.1c2.2-3.6,3.5-7.8,3.5-12.3C161.8,445,159.1,439,154.7,434.8z"/>
<path fill="none" stroke="#E8E8E8" stroke-miterlimit="10" d="M204.7,434.8l7.8-7.4c-4.2-4.2-10.1-6.9-16.6-6.9
	c-8.4,0-15.8,4.4-19.9,11.1c-2.2,3.6-3.5,7.8-3.5,12.3c0,6,2.3,11.5,6,15.6l-7.8,7.4c4.3,4.9,10.6,8.1,17.7,8.1
	c8.4,0,15.8-4.4,19.9-11.1c2.2-3.6,3.5-7.8,3.5-12.3C211.8,445,209.1,439,204.7,434.8z"/>
<path fill="none" stroke="#E8E8E8" stroke-miterlimit="10" d="M34.7,374.8l7.8-7.4c-4.2-4.2-10.1-6.9-16.6-6.9
	c-8.4,0-15.8,4.4-19.9,11.1c-2.2,3.6-3.5,7.8-3.5,12.3c0,6,2.3,11.5,6,15.6l-7.8,7.4c4.3,4.9,10.6,8.1,17.7,8.1
	c8.4,0,15.8-4.4,19.9-11.1c2.2-3.6,3.5-7.8,3.5-12.3C41.8,385,39.1,379,34.7,374.8z"/>
<path fill="none" stroke="#E8E8E8" stroke-miterlimit="10" d="M84.7,374.8l7.8-7.4c-4.2-4.2-10.1-6.9-16.6-6.9
	c-8.4,0-15.8,4.4-19.9,11.1c-2.2,3.6-3.5,7.8-3.5,12.3c0,6,2.3,11.5,6,15.6l-7.8,7.4c4.3,4.9,10.6,8.1,17.7,8.1
	c8.4,0,15.8-4.4,19.9-11.1c2.2-3.6,3.5-7.8,3.5-12.3C91.8,385,89.1,379,84.7,374.8z"/>
<path fill="none" stroke="#E8E8E8" stroke-miterlimit="10" d="M134.7,374.8l7.8-7.4c-4.2-4.2-10.1-6.9-16.6-6.9
	c-8.4,0-15.8,4.4-19.9,11.1c-2.2,3.6-3.5,7.8-3.5,12.3c0,6,2.3,11.5,6,15.6l-7.8,7.4c4.3,4.9,10.6,8.1,17.7,8.1
	c8.4,0,15.8-4.4,19.9-11.1c2.2-3.6,3.5-7.8,3.5-12.3C141.8,385,139.1,379,134.7,374.8z"/>
<path fill="none" stroke="#E8E8E8" stroke-miterlimit="10" d="M184.7,374.8l7.8-7.4c-4.2-4.2-10.1-6.9-16.6-6.9
	c-8.4,0-15.8,4.4-19.9,11.1c-2.2,3.6-3.5,7.8-3.5,12.3c0,6,2.3,11.5,6,15.6l-7.8,7.4c4.3,4.9,10.6,8.1,17.7,8.1
	c8.4,0,15.8-4.4,19.9-11.1c2.2-3.6,3.5-7.8,3.5-12.3C191.8,385,189.1,379,184.7,374.8z"/>
<path fill="none" stroke="#E8E8E8" stroke-miterlimit="10" d="M54.7,314.8l7.8-7.4c-4.2-4.2-10.1-6.9-16.6-6.9
	c-8.4,0-15.8,4.4-19.9,11.1c-2.2,3.6-3.5,7.8-3.5,12.3c0,6,2.3,11.5,6,15.6l-7.8,7.4c4.3,4.9,10.6,8.1,17.7,8.1
	c8.4,0,15.8-4.4,19.9-11.1c2.2-3.6,3.5-7.8,3.5-12.3C61.8,325,59.1,319,54.7,314.8z"/>
<path fill="none" stroke="#E8E8E8" stroke-miterlimit="10" d="M104.7,314.8l7.8-7.4c-4.2-4.2-10.1-6.9-16.6-6.9
	c-8.4,0-15.8,4.4-19.9,11.1c-2.2,3.6-3.5,7.8-3.5,12.3c0,6,2.3,11.5,6,15.6l-7.8,7.4c4.3,4.9,10.6,8.1,17.7,8.1
	c8.4,0,15.8-4.4,19.9-11.1c2.2-3.6,3.5-7.8,3.5-12.3C111.8,325,109.1,319,104.7,314.8z"/>
<path fill="none" stroke="#E8E8E8" stroke-miterlimit="10" d="M154.7,314.8l7.8-7.4c-4.2-4.2-10.1-6.9-16.6-6.9
	c-8.4,0-15.8,4.4-19.9,11.1c-2.2,3.6-3.5,7.8-3.5,12.3c0,6,2.3,11.5,6,15.6l-7.8,7.4c4.3,4.9,10.6,8.1,17.7,8.1
	c8.4,0,15.8-4.4,19.9-11.1c2.2-3.6,3.5-7.8,3.5-12.3C161.8,325,159.1,319,154.7,314.8z"/>
<path fill="none" stroke="#E8E8E8" stroke-miterlimit="10" d="M204.7,314.8l7.8-7.4c-4.2-4.2-10.1-6.9-16.6-6.9
	c-8.4,0-15.8,4.4-19.9,11.1c-2.2,3.6-3.5,7.8-3.5,12.3c0,6,2.3,11.5,6,15.6l-7.8,7.4c4.3,4.9,10.6,8.1,17.7,8.1
	c8.4,0,15.8-4.4,19.9-11.1c2.2-3.6,3.5-7.8,3.5-12.3C211.8,325,209.1,319,204.7,314.8z"/>
<path fill="none" stroke="#E8E8E8" stroke-miterlimit="10" d="M34.7,254.8l7.8-7.4c-4.2-4.2-10.1-6.9-16.6-6.9
	c-8.4,0-15.8,4.4-19.9,11.1c-2.2,3.6-3.5,7.8-3.5,12.3c0,6,2.3,11.5,6,15.6l-7.8,7.4c4.3,4.9,10.6,8.1,17.7,8.1
	c8.4,0,15.8-4.4,19.9-11.1c2.2-3.6,3.5-7.8,3.5-12.3C41.8,265,39.1,259,34.7,254.8z"/>
<path fill="none" stroke="#E8E8E8" stroke-miterlimit="10" d="M84.7,254.8l7.8-7.4c-4.2-4.2-10.1-6.9-16.6-6.9
	c-8.4,0-15.8,4.4-19.9,11.1c-2.2,3.6-3.5,7.8-3.5,12.3c0,6,2.3,11.5,6,15.6l-7.8,7.4c4.3,4.9,10.6,8.1,17.7,8.1
	c8.4,0,15.8-4.4,19.9-11.1c2.2-3.6,3.5-7.8,3.5-12.3C91.8,265,89.1,259,84.7,254.8z"/>
<path fill="none" stroke="#E8E8E8" stroke-miterlimit="10" d="M134.7,254.8l7.8-7.4c-4.2-4.2-10.1-6.9-16.6-6.9
	c-8.4,0-15.8,4.4-19.9,11.1c-2.2,3.6-3.5,7.8-3.5,12.3c0,6,2.3,11.5,6,15.6l-7.8,7.4c4.3,4.9,10.6,8.1,17.7,8.1
	c8.4,0,15.8-4.4,19.9-11.1c2.2-3.6,3.5-7.8,3.5-12.3C141.8,265,139.1,259,134.7,254.8z"/>
<path fill="none" stroke="#E8E8E8" stroke-miterlimit="10" d="M184.7,254.8l7.8-7.4c-4.2-4.2-10.1-6.9-16.6-6.9
	c-8.4,0-15.8,4.4-19.9,11.1c-2.2,3.6-3.5,7.8-3.5,12.3c0,6,2.3,11.5,6,15.6l-7.8,7.4c4.3,4.9,10.6,8.1,17.7,8.1
	c8.4,0,15.8-4.4,19.9-11.1c2.2-3.6,3.5-7.8,3.5-12.3C191.8,265,189.1,259,184.7,254.8z"/>
<path fill="none" stroke="#E8E8E8" stroke-miterlimit="10" d="M254.7,194.8l7.8-7.4c-4.2-4.2-10.1-6.9-16.6-6.9
	c-8.4,0-15.8,4.4-19.9,11.1c-2.2,3.6-3.5,7.8-3.5,12.3c0,6,2.3,11.5,6,15.6l-7.8,7.4c4.3,4.9,10.6,8.1,17.7,8.1
	c8.4,0,15.8-4.4,19.9-11.1c2.2-3.6,3.5-7.8,3.5-12.3C261.8,205,259.1,199,254.7,194.8z"/>
<path fill="none" stroke="#E8E8E8" stroke-miterlimit="10" d="M304.7,194.8l7.8-7.4c-4.2-4.2-10.1-6.9-16.6-6.9
	c-8.4,0-15.8,4.4-19.9,11.1c-2.2,3.6-3.5,7.8-3.5,12.3c0,6,2.3,11.5,6,15.6l-7.8,7.4c4.3,4.9,10.6,8.1,17.7,8.1
	c8.4,0,15.8-4.4,19.9-11.1c2.2-3.6,3.5-7.8,3.5-12.3C311.8,205,309.1,199,304.7,194.8z"/>
<path fill="none" stroke="#E8E8E8" stroke-miterlimit="10" d="M354.7,194.8l7.8-7.4c-4.2-4.2-10.1-6.9-16.6-6.9
	c-8.4,0-15.8,4.4-19.9,11.1c-2.2,3.6-3.5,7.8-3.5,12.3c0,6,2.3,11.5,6,15.6l-7.8,7.4c4.3,4.9,10.6,8.1,17.7,8.1
	c8.4,0,15.8-4.4,19.9-11.1c2.2-3.6,3.5-7.8,3.5-12.3C361.8,205,359.1,199,354.7,194.8z"/>
<path fill="none" stroke="#E8E8E8" stroke-miterlimit="10" d="M404.7,194.8l7.8-7.4c-4.2-4.2-10.1-6.9-16.6-6.9
	c-8.4,0-15.8,4.4-19.9,11.1c-2.2,3.6-3.5,7.8-3.5,12.3c0,6,2.3,11.5,6,15.6l-7.8,7.4c4.3,4.9,10.6,8.1,17.7,8.1
	c8.4,0,15.8-4.4,19.9-11.1c2.2-3.6,3.5-7.8,3.5-12.3C411.8,205,409.1,199,404.7,194.8z"/>
<path fill="none" stroke="#E8E8E8" stroke-miterlimit="10" d="M234.7,134.8l7.8-7.4c-4.2-4.2-10.1-6.9-16.6-6.9
	c-8.4,0-15.8,4.4-19.9,11.1c-2.2,3.6-3.5,7.8-3.5,12.3c0,6,2.3,11.5,6,15.6l-7.8,7.4c4.3,4.9,10.6,8.1,17.7,8.1
	c8.4,0,15.8-4.4,19.9-11.1c2.2-3.6,3.5-7.8,3.5-12.3C241.8,145,239.1,139,234.7,134.8z"/>
<path fill="none" stroke="#E8E8E8" stroke-miterlimit="10" d="M284.7,134.8l7.8-7.4c-4.2-4.2-10.1-6.9-16.6-6.9
	c-8.4,0-15.8,4.4-19.9,11.1c-2.2,3.6-3.5,7.8-3.5,12.3c0,6,2.3,11.5,6,15.6l-7.8,7.4c4.3,4.9,10.6,8.1,17.7,8.1
	c8.4,0,15.8-4.4,19.9-11.1c2.2-3.6,3.5-7.8,3.5-12.3C291.8,145,289.1,139,284.7,134.8z"/>
<path fill="none" stroke="#E8E8E8" stroke-miterlimit="10" d="M334.7,134.8l7.8-7.4c-4.2-4.2-10.1-6.9-16.6-6.9
	c-8.4,0-15.8,4.4-19.9,11.1c-2.2,3.6-3.5,7.8-3.5,12.3c0,6,2.3,11.5,6,15.6l-7.8,7.4c4.3,4.9,10.6,8.1,17.7,8.1
	c8.4,0,15.8-4.4,19.9-11.1c2.2-3.6,3.5-7.8,3.5-12.3C341.8,145,339.1,139,334.7,134.8z"/>
<path fill="none" stroke="#E8E8E8" stroke-miterlimit="10" d="M384.7,134.8l7.8-7.4c-4.2-4.2-10.1-6.9-16.6-6.9
	c-8.4,0-15.8,4.4-19.9,11.1c-2.2,3.6-3.5,7.8-3.5,12.3c0,6,2.3,11.5,6,15.6l-7.8,7.4c4.3,4.9,10.6,8.1,17.7,8.1
	c8.4,0,15.8-4.4,19.9-11.1c2.2-3.6,3.5-7.8,3.5-12.3C391.8,145,389.1,139,384.7,134.8z"/>
<path fill="none" stroke="#E8E8E8" stroke-miterlimit="10" d="M254.7,74.8l7.8-7.4c-4.2-4.2-10.1-6.9-16.6-6.9
	c-8.4,0-15.8,4.4-19.9,11.1c-2.2,3.6-3.5,7.8-3.5,12.3c0,6,2.3,11.5,6,15.6l-7.8,7.4c4.3,4.9,10.6,8.1,17.7,8.1
	c8.4,0,15.8-4.4,19.9-11.1c2.2-3.6,3.5-7.8,3.5-12.3C261.8,85,259.1,79,254.7,74.8z"/>
<path fill="none" stroke="#E8E8E8" stroke-miterlimit="10" d="M304.7,74.8l7.8-7.4c-4.2-4.2-10.1-6.9-16.6-6.9
	c-8.4,0-15.8,4.4-19.9,11.1c-2.2,3.6-3.5,7.8-3.5,12.3c0,6,2.3,11.5,6,15.6l-7.8,7.4c4.3,4.9,10.6,8.1,17.7,8.1
	c8.4,0,15.8-4.4,19.9-11.1c2.2-3.6,3.5-7.8,3.5-12.3C311.8,85,309.1,79,304.7,74.8z"/>
<path fill="none" stroke="#E8E8E8" stroke-miterlimit="10" d="M354.7,74.8l7.8-7.4c-4.2-4.2-10.1-6.9-16.6-6.9
	c-8.4,0-15.8,4.4-19.9,11.1c-2.2,3.6-3.5,7.8-3.5,12.3c0,6,2.3,11.5,6,15.6l-7.8,7.4c4.3,4.9,10.6,8.1,17.7,8.1
	c8.4,0,15.8-4.4,19.9-11.1c2.2-3.6,3.5-7.8,3.5-12.3C361.8,85,359.1,79,354.7,74.8z"/>
<path fill="none" stroke="#E8E8E8" stroke-miterlimit="10" d="M404.7,74.8l7.8-7.4c-4.2-4.2-10.1-6.9-16.6-6.9
	c-8.4,0-15.8,4.4-19.9,11.1c-2.2,3.6-3.5,7.8-3.5,12.3c0,6,2.3,11.5,6,15.6l-7.8,7.4c4.3,4.9,10.6,8.1,17.7,8.1
	c8.4,0,15.8-4.4,19.9-11.1c2.2-3.6,3.5-7.8,3.5-12.3C411.8,85,409.1,79,404.7,74.8z"/>
<path fill="none" stroke="#E8E8E8" stroke-miterlimit="10" d="M234.7,14.8l7.8-7.4c-4.2-4.2-10.1-6.9-16.6-6.9
	c-8.4,0-15.8,4.4-19.9,11.1c-2.2,3.6-3.5,7.8-3.5,12.3c0,6,2.3,11.5,6,15.6l-7.8,7.4c4.3,4.9,10.6,8.1,17.7,8.1
	c8.4,0,15.8-4.4,19.9-11.1c2.2-3.6,3.5-7.8,3.5-12.3C241.8,25,239.1,19,234.7,14.8z"/>
<path fill="none" stroke="#E8E8E8" stroke-miterlimit="10" d="M284.7,14.8l7.8-7.4c-4.2-4.2-10.1-6.9-16.6-6.9
	c-8.4,0-15.8,4.4-19.9,11.1c-2.2,3.6-3.5,7.8-3.5,12.3c0,6,2.3,11.5,6,15.6l-7.8,7.4c4.3,4.9,10.6,8.1,17.7,8.1
	c8.4,0,15.8-4.4,19.9-11.1c2.2-3.6,3.5-7.8,3.5-12.3C291.8,25,289.1,19,284.7,14.8z"/>
<path fill="none" stroke="#E8E8E8" stroke-miterlimit="10" d="M334.7,14.8l7.8-7.4c-4.2-4.2-10.1-6.9-16.6-6.9
	c-8.4,0-15.8,4.4-19.9,11.1c-2.2,3.6-3.5,7.8-3.5,12.3c0,6,2.3,11.5,6,15.6l-7.8,7.4c4.3,4.9,10.6,8.1,17.7,8.1
	c8.4,0,15.8-4.4,19.9-11.1c2.2-3.6,3.5-7.8,3.5-12.3C341.8,25,339.1,19,334.7,14.8z"/>
<path fill="none" stroke="#E8E8E8" stroke-miterlimit="10" d="M384.7,14.8l7.8-7.4c-4.2-4.2-10.1-6.9-16.6-6.9
	c-8.4,0-15.8,4.4-19.9,11.1c-2.2,3.6-3.5,7.8-3.5,12.3c0,6,2.3,11.5,6,15.6l-7.8,7.4c4.3,4.9,10.6,8.1,17.7,8.1
	c8.4,0,15.8-4.4,19.9-11.1c2.2-3.6,3.5-7.8,3.5-12.3C391.8,25,389.1,19,384.7,14.8z"/>
<path fill="none" stroke="#E8E8E8" stroke-miterlimit="10" d="M254.7,434.8l7.8-7.4c-4.2-4.2-10.1-6.9-16.6-6.9
	c-8.4,0-15.8,4.4-19.9,11.1c-2.2,3.6-3.5,7.8-3.5,12.3c0,6,2.3,11.5,6,15.6l-7.8,7.4c4.3,4.9,10.6,8.1,17.7,8.1
	c8.4,0,15.8-4.4,19.9-11.1c2.2-3.6,3.5-7.8,3.5-12.3C261.8,445,259.1,439,254.7,434.8z"/>
<path fill="none" stroke="#E8E8E8" stroke-miterlimit="10" d="M304.7,434.8l7.8-7.4c-4.2-4.2-10.1-6.9-16.6-6.9
	c-8.4,0-15.8,4.4-19.9,11.1c-2.2,3.6-3.5,7.8-3.5,12.3c0,6,2.3,11.5,6,15.6l-7.8,7.4c4.3,4.9,10.6,8.1,17.7,8.1
	c8.4,0,15.8-4.4,19.9-11.1c2.2-3.6,3.5-7.8,3.5-12.3C311.8,445,309.1,439,304.7,434.8z"/>
<path fill="none" stroke="#E8E8E8" stroke-miterlimit="10" d="M354.7,434.8l7.8-7.4c-4.2-4.2-10.1-6.9-16.6-6.9
	c-8.4,0-15.8,4.4-19.9,11.1c-2.2,3.6-3.5,7.8-3.5,12.3c0,6,2.3,11.5,6,15.6l-7.8,7.4c4.3,4.9,10.6,8.1,17.7,8.1
	c8.4,0,15.8-4.4,19.9-11.1c2.2-3.6,3.5-7.8,3.5-12.3C361.8,445,359.1,439,354.7,434.8z"/>
<path fill="none" stroke="#E8E8E8" stroke-miterlimit="10" d="M404.7,434.8l7.8-7.4c-4.2-4.2-10.1-6.9-16.6-6.9
	c-8.4,0-15.8,4.4-19.9,11.1c-2.2,3.6-3.5,7.8-3.5,12.3c0,6,2.3,11.5,6,15.6l-7.8,7.4c4.3,4.9,10.6,8.1,17.7,8.1
	c8.4,0,15.8-4.4,19.9-11.1c2.2-3.6,3.5-7.8,3.5-12.3C411.8,445,409.1,439,404.7,434.8z"/>
<path fill="none" stroke="#E8E8E8" stroke-miterlimit="10" d="M234.7,374.8l7.8-7.4c-4.2-4.2-10.1-6.9-16.6-6.9
	c-8.4,0-15.8,4.4-19.9,11.1c-2.2,3.6-3.5,7.8-3.5,12.3c0,6,2.3,11.5,6,15.6l-7.8,7.4c4.3,4.9,10.6,8.1,17.7,8.1
	c8.4,0,15.8-4.4,19.9-11.1c2.2-3.6,3.5-7.8,3.5-12.3C241.8,385,239.1,379,234.7,374.8z"/>
<path fill="none" stroke="#E8E8E8" stroke-miterlimit="10" d="M284.7,374.8l7.8-7.4c-4.2-4.2-10.1-6.9-16.6-6.9
	c-8.4,0-15.8,4.4-19.9,11.1c-2.2,3.6-3.5,7.8-3.5,12.3c0,6,2.3,11.5,6,15.6l-7.8,7.4c4.3,4.9,10.6,8.1,17.7,8.1
	c8.4,0,15.8-4.4,19.9-11.1c2.2-3.6,3.5-7.8,3.5-12.3C291.8,385,289.1,379,284.7,374.8z"/>
<path fill="none" stroke="#E8E8E8" stroke-miterlimit="10" d="M334.7,374.8l7.8-7.4c-4.2-4.2-10.1-6.9-16.6-6.9
	c-8.4,0-15.8,4.4-19.9,11.1c-2.2,3.6-3.5,7.8-3.5,12.3c0,6,2.3,11.5,6,15.6l-7.8,7.4c4.3,4.9,10.6,8.1,17.7,8.1
	c8.4,0,15.8-4.4,19.9-11.1c2.2-3.6,3.5-7.8,3.5-12.3C341.8,385,339.1,379,334.7,374.8z"/>
<path fill="none" stroke="#E8E8E8" stroke-miterlimit="10" d="M384.7,374.8l7.8-7.4c-4.2-4.2-10.1-6.9-16.6-6.9
	c-8.4,0-15.8,4.4-19.9,11.1c-2.2,3.6-3.5,7.8-3.5,12.3c0,6,2.3,11.5,6,15.6l-7.8,7.4c4.3,4.9,10.6,8.1,17.7,8.1
	c8.4,0,15.8-4.4,19.9-11.1c2.2-3.6,3.5-7.8,3.5-12.3C391.8,385,389.1,379,384.7,374.8z"/>
<path fill="none" stroke="#E8E8E8" stroke-miterlimit="10" d="M254.7,314.8l7.8-7.4c-4.2-4.2-10.1-6.9-16.6-6.9
	c-8.4,0-15.8,4.4-19.9,11.1c-2.2,3.6-3.5,7.8-3.5,12.3c0,6,2.3,11.5,6,15.6l-7.8,7.4c4.3,4.9,10.6,8.1,17.7,8.1
	c8.4,0,15.8-4.4,19.9-11.1c2.2-3.6,3.5-7.8,3.5-12.3C261.8,325,259.1,319,254.7,314.8z"/>
<path fill="none" stroke="#E8E8E8" stroke-miterlimit="10" d="M304.7,314.8l7.8-7.4c-4.2-4.2-10.1-6.9-16.6-6.9
	c-8.4,0-15.8,4.4-19.9,11.1c-2.2,3.6-3.5,7.8-3.5,12.3c0,6,2.3,11.5,6,15.6l-7.8,7.4c4.3,4.9,10.6,8.1,17.7,8.1
	c8.4,0,15.8-4.4,19.9-11.1c2.2-3.6,3.5-7.8,3.5-12.3C311.8,325,309.1,319,304.7,314.8z"/>
<path fill="none" stroke="#E8E8E8" stroke-miterlimit="10" d="M354.7,314.8l7.8-7.4c-4.2-4.2-10.1-6.9-16.6-6.9
	c-8.4,0-15.8,4.4-19.9,11.1c-2.2,3.6-3.5,7.8-3.5,12.3c0,6,2.3,11.5,6,15.6l-7.8,7.4c4.3,4.9,10.6,8.1,17.7,8.1
	c8.4,0,15.8-4.4,19.9-11.1c2.2-3.6,3.5-7.8,3.5-12.3C361.8,325,359.1,319,354.7,314.8z"/>
<path fill="none" stroke="#E8E8E8" stroke-miterlimit="10" d="M404.7,314.8l7.8-7.4c-4.2-4.2-10.1-6.9-16.6-6.9
	c-8.4,0-15.8,4.4-19.9,11.1c-2.2,3.6-3.5,7.8-3.5,12.3c0,6,2.3,11.5,6,15.6l-7.8,7.4c4.3,4.9,10.6,8.1,17.7,8.1
	c8.4,0,15.8-4.4,19.9-11.1c2.2-3.6,3.5-7.8,3.5-12.3C411.8,325,409.1,319,404.7,314.8z"/>
<path fill="none" stroke="#E8E8E8" stroke-miterlimit="10" d="M234.7,254.8l7.8-7.4c-4.2-4.2-10.1-6.9-16.6-6.9
	c-8.4,0-15.8,4.4-19.9,11.1c-2.2,3.6-3.5,7.8-3.5,12.3c0,6,2.3,11.5,6,15.6l-7.8,7.4c4.3,4.9,10.6,8.1,17.7,8.1
	c8.4,0,15.8-4.4,19.9-11.1c2.2-3.6,3.5-7.8,3.5-12.3C241.8,265,239.1,259,234.7,254.8z"/>
<path fill="none" stroke="#E8E8E8" stroke-miterlimit="10" d="M284.7,254.8l7.8-7.4c-4.2-4.2-10.1-6.9-16.6-6.9
	c-8.4,0-15.8,4.4-19.9,11.1c-2.2,3.6-3.5,7.8-3.5,12.3c0,6,2.3,11.5,6,15.6l-7.8,7.4c4.3,4.9,10.6,8.1,17.7,8.1
	c8.4,0,15.8-4.4,19.9-11.1c2.2-3.6,3.5-7.8,3.5-12.3C291.8,265,289.1,259,284.7,254.8z"/>
<path fill="none" stroke="#E8E8E8" stroke-miterlimit="10" d="M334.7,254.8l7.8-7.4c-4.2-4.2-10.1-6.9-16.6-6.9
	c-8.4,0-15.8,4.4-19.9,11.1c-2.2,3.6-3.5,7.8-3.5,12.3c0,6,2.3,11.5,6,15.6l-7.8,7.4c4.3,4.9,10.6,8.1,17.7,8.1
	c8.4,0,15.8-4.4,19.9-11.1c2.2-3.6,3.5-7.8,3.5-12.3C341.8,265,339.1,259,334.7,254.8z"/>
<path fill="none" stroke="#E8E8E8" stroke-miterlimit="10" d="M384.7,254.8l7.8-7.4c-4.2-4.2-10.1-6.9-16.6-6.9
	c-8.4,0-15.8,4.4-19.9,11.1c-2.2,3.6-3.5,7.8-3.5,12.3c0,6,2.3,11.5,6,15.6l-7.8,7.4c4.3,4.9,10.6,8.1,17.7,8.1
	c8.4,0,15.8-4.4,19.9-11.1c2.2-3.6,3.5-7.8,3.5-12.3C391.8,265,389.1,259,384.7,254.8z"/>
<path fill="none" stroke="#E8E8E8" stroke-miterlimit="10" d="M454.7,194.8l7.8-7.4c-4.2-4.2-10.1-6.9-16.6-6.9
	c-8.4,0-15.8,4.4-19.9,11.1c-2.2,3.6-3.5,7.8-3.5,12.3c0,6,2.3,11.5,6,15.6l-7.8,7.4c4.3,4.9,10.6,8.1,17.7,8.1
	c8.4,0,15.8-4.4,19.9-11.1c2.2-3.6,3.5-7.8,3.5-12.3C461.8,205,459.1,199,454.7,194.8z"/>
<path fill="none" stroke="#E8E8E8" stroke-miterlimit="10" d="M504.7,194.8l7.8-7.4c-4.2-4.2-10.1-6.9-16.6-6.9
	c-8.4,0-15.8,4.4-19.9,11.1c-2.2,3.6-3.5,7.8-3.5,12.3c0,6,2.3,11.5,6,15.6l-7.8,7.4c4.3,4.9,10.6,8.1,17.7,8.1
	c8.4,0,15.8-4.4,19.9-11.1c2.2-3.6,3.5-7.8,3.5-12.3C511.8,205,509.1,199,504.7,194.8z"/>
<path fill="none" stroke="#E8E8E8" stroke-miterlimit="10" d="M554.7,194.8l7.8-7.4c-4.2-4.2-10.1-6.9-16.6-6.9
	c-8.4,0-15.8,4.4-19.9,11.1c-2.2,3.6-3.5,7.8-3.5,12.3c0,6,2.3,11.5,6,15.6l-7.8,7.4c4.3,4.9,10.6,8.1,17.7,8.1
	c8.4,0,15.8-4.4,19.9-11.1c2.2-3.6,3.5-7.8,3.5-12.3C561.8,205,559.1,199,554.7,194.8z"/>
<path fill="none" stroke="#E8E8E8" stroke-miterlimit="10" d="M604.7,194.8l7.8-7.4c-4.2-4.2-10.1-6.9-16.6-6.9
	c-8.4,0-15.8,4.4-19.9,11.1c-2.2,3.6-3.5,7.8-3.5,12.3c0,6,2.3,11.5,6,15.6l-7.8,7.4c4.3,4.9,10.6,8.1,17.7,8.1
	c8.4,0,15.8-4.4,19.9-11.1c2.2-3.6,3.5-7.8,3.5-12.3C611.8,205,609.1,199,604.7,194.8z"/>
<path fill="none" stroke="#E8E8E8" stroke-miterlimit="10" d="M434.7,134.8l7.8-7.4c-4.2-4.2-10.1-6.9-16.6-6.9
	c-8.4,0-15.8,4.4-19.9,11.1c-2.2,3.6-3.5,7.8-3.5,12.3c0,6,2.3,11.5,6,15.6l-7.8,7.4c4.3,4.9,10.6,8.1,17.7,8.1
	c8.4,0,15.8-4.4,19.9-11.1c2.2-3.6,3.5-7.8,3.5-12.3C441.8,145,439.1,139,434.7,134.8z"/>
<path fill="none" stroke="#E8E8E8" stroke-miterlimit="10" d="M484.7,134.8l7.8-7.4c-4.2-4.2-10.1-6.9-16.6-6.9
	c-8.4,0-15.8,4.4-19.9,11.1c-2.2,3.6-3.5,7.8-3.5,12.3c0,6,2.3,11.5,6,15.6l-7.8,7.4c4.3,4.9,10.6,8.1,17.7,8.1
	c8.4,0,15.8-4.4,19.9-11.1c2.2-3.6,3.5-7.8,3.5-12.3C491.8,145,489.1,139,484.7,134.8z"/>
<path fill="none" stroke="#E8E8E8" stroke-miterlimit="10" d="M534.7,134.8l7.8-7.4c-4.2-4.2-10.1-6.9-16.6-6.9
	c-8.4,0-15.8,4.4-19.9,11.1c-2.2,3.6-3.5,7.8-3.5,12.3c0,6,2.3,11.5,6,15.6l-7.8,7.4c4.3,4.9,10.6,8.1,17.7,8.1
	c8.4,0,15.8-4.4,19.9-11.1c2.2-3.6,3.5-7.8,3.5-12.3C541.8,145,539.1,139,534.7,134.8z"/>
<path fill="none" stroke="#E8E8E8" stroke-miterlimit="10" d="M584.7,134.8l7.8-7.4c-4.2-4.2-10.1-6.9-16.6-6.9
	c-8.4,0-15.8,4.4-19.9,11.1c-2.2,3.6-3.5,7.8-3.5,12.3c0,6,2.3,11.5,6,15.6l-7.8,7.4c4.3,4.9,10.6,8.1,17.7,8.1
	c8.4,0,15.8-4.4,19.9-11.1c2.2-3.6,3.5-7.8,3.5-12.3C591.8,145,589.1,139,584.7,134.8z"/>
<path fill="none" stroke="#E8E8E8" stroke-miterlimit="10" d="M454.7,74.8l7.8-7.4c-4.2-4.2-10.1-6.9-16.6-6.9
	c-8.4,0-15.8,4.4-19.9,11.1c-2.2,3.6-3.5,7.8-3.5,12.3c0,6,2.3,11.5,6,15.6l-7.8,7.4c4.3,4.9,10.6,8.1,17.7,8.1
	c8.4,0,15.8-4.4,19.9-11.1c2.2-3.6,3.5-7.8,3.5-12.3C461.8,85,459.1,79,454.7,74.8z"/>
<path fill="none" stroke="#E8E8E8" stroke-miterlimit="10" d="M504.7,74.8l7.8-7.4c-4.2-4.2-10.1-6.9-16.6-6.9
	c-8.4,0-15.8,4.4-19.9,11.1c-2.2,3.6-3.5,7.8-3.5,12.3c0,6,2.3,11.5,6,15.6l-7.8,7.4c4.3,4.9,10.6,8.1,17.7,8.1
	c8.4,0,15.8-4.4,19.9-11.1c2.2-3.6,3.5-7.8,3.5-12.3C511.8,85,509.1,79,504.7,74.8z"/>
<path fill="none" stroke="#E8E8E8" stroke-miterlimit="10" d="M554.7,74.8l7.8-7.4c-4.2-4.2-10.1-6.9-16.6-6.9
	c-8.4,0-15.8,4.4-19.9,11.1c-2.2,3.6-3.5,7.8-3.5,12.3c0,6,2.3,11.5,6,15.6l-7.8,7.4c4.3,4.9,10.6,8.1,17.7,8.1
	c8.4,0,15.8-4.4,19.9-11.1c2.2-3.6,3.5-7.8,3.5-12.3C561.8,85,559.1,79,554.7,74.8z"/>
<path fill="none" stroke="#E8E8E8" stroke-miterlimit="10" d="M604.7,74.8l7.8-7.4c-4.2-4.2-10.1-6.9-16.6-6.9
	c-8.4,0-15.8,4.4-19.9,11.1c-2.2,3.6-3.5,7.8-3.5,12.3c0,6,2.3,11.5,6,15.6l-7.8,7.4c4.3,4.9,10.6,8.1,17.7,8.1
	c8.4,0,15.8-4.4,19.9-11.1c2.2-3.6,3.5-7.8,3.5-12.3C611.8,85,609.1,79,604.7,74.8z"/>
<path fill="none" stroke="#E8E8E8" stroke-miterlimit="10" d="M434.7,14.8l7.8-7.4c-4.2-4.2-10.1-6.9-16.6-6.9
	c-8.4,0-15.8,4.4-19.9,11.1c-2.2,3.6-3.5,7.8-3.5,12.3c0,6,2.3,11.5,6,15.6l-7.8,7.4c4.3,4.9,10.6,8.1,17.7,8.1
	c8.4,0,15.8-4.4,19.9-11.1c2.2-3.6,3.5-7.8,3.5-12.3C441.8,25,439.1,19,434.7,14.8z"/>
<path fill="none" stroke="#E8E8E8" stroke-miterlimit="10" d="M484.7,14.8l7.8-7.4c-4.2-4.2-10.1-6.9-16.6-6.9
	c-8.4,0-15.8,4.4-19.9,11.1c-2.2,3.6-3.5,7.8-3.5,12.3c0,6,2.3,11.5,6,15.6l-7.8,7.4c4.3,4.9,10.6,8.1,17.7,8.1
	c8.4,0,15.8-4.4,19.9-11.1c2.2-3.6,3.5-7.8,3.5-12.3C491.8,25,489.1,19,484.7,14.8z"/>
<path fill="none" stroke="#E8E8E8" stroke-miterlimit="10" d="M534.7,14.8l7.8-7.4c-4.2-4.2-10.1-6.9-16.6-6.9
	c-8.4,0-15.8,4.4-19.9,11.1c-2.2,3.6-3.5,7.8-3.5,12.3c0,6,2.3,11.5,6,15.6l-7.8,7.4c4.3,4.9,10.6,8.1,17.7,8.1
	c8.4,0,15.8-4.4,19.9-11.1c2.2-3.6,3.5-7.8,3.5-12.3C541.8,25,539.1,19,534.7,14.8z"/>
<path fill="none" stroke="#E8E8E8" stroke-miterlimit="10" d="M584.7,14.8l7.8-7.4c-4.2-4.2-10.1-6.9-16.6-6.9
	c-8.4,0-15.8,4.4-19.9,11.1c-2.2,3.6-3.5,7.8-3.5,12.3c0,6,2.3,11.5,6,15.6l-7.8,7.4c4.3,4.9,10.6,8.1,17.7,8.1
	c8.4,0,15.8-4.4,19.9-11.1c2.2-3.6,3.5-7.8,3.5-12.3C591.8,25,589.1,19,584.7,14.8z"/>
<path fill="none" stroke="#E8E8E8" stroke-miterlimit="10" d="M454.7,434.8l7.8-7.4c-4.2-4.2-10.1-6.9-16.6-6.9
	c-8.4,0-15.8,4.4-19.9,11.1c-2.2,3.6-3.5,7.8-3.5,12.3c0,6,2.3,11.5,6,15.6l-7.8,7.4c4.3,4.9,10.6,8.1,17.7,8.1
	c8.4,0,15.8-4.4,19.9-11.1c2.2-3.6,3.5-7.8,3.5-12.3C461.8,445,459.1,439,454.7,434.8z"/>
<path fill="none" stroke="#E8E8E8" stroke-miterlimit="10" d="M504.7,434.8l7.8-7.4c-4.2-4.2-10.1-6.9-16.6-6.9
	c-8.4,0-15.8,4.4-19.9,11.1c-2.2,3.6-3.5,7.8-3.5,12.3c0,6,2.3,11.5,6,15.6l-7.8,7.4c4.3,4.9,10.6,8.1,17.7,8.1
	c8.4,0,15.8-4.4,19.9-11.1c2.2-3.6,3.5-7.8,3.5-12.3C511.8,445,509.1,439,504.7,434.8z"/>
<path fill="none" stroke="#E8E8E8" stroke-miterlimit="10" d="M554.7,434.8l7.8-7.4c-4.2-4.2-10.1-6.9-16.6-6.9
	c-8.4,0-15.8,4.4-19.9,11.1c-2.2,3.6-3.5,7.8-3.5,12.3c0,6,2.3,11.5,6,15.6l-7.8,7.4c4.3,4.9,10.6,8.1,17.7,8.1
	c8.4,0,15.8-4.4,19.9-11.1c2.2-3.6,3.5-7.8,3.5-12.3C561.8,445,559.1,439,554.7,434.8z"/>
<path fill="none" stroke="#E8E8E8" stroke-miterlimit="10" d="M604.7,434.8l7.8-7.4c-4.2-4.2-10.1-6.9-16.6-6.9
	c-8.4,0-15.8,4.4-19.9,11.1c-2.2,3.6-3.5,7.8-3.5,12.3c0,6,2.3,11.5,6,15.6l-7.8,7.4c4.3,4.9,10.6,8.1,17.7,8.1
	c8.4,0,15.8-4.4,19.9-11.1c2.2-3.6,3.5-7.8,3.5-12.3C611.8,445,609.1,439,604.7,434.8z"/>
<path fill="none" stroke="#E8E8E8" stroke-miterlimit="10" d="M434.7,374.8l7.8-7.4c-4.2-4.2-10.1-6.9-16.6-6.9
	c-8.4,0-15.8,4.4-19.9,11.1c-2.2,3.6-3.5,7.8-3.5,12.3c0,6,2.3,11.5,6,15.6l-7.8,7.4c4.3,4.9,10.6,8.1,17.7,8.1
	c8.4,0,15.8-4.4,19.9-11.1c2.2-3.6,3.5-7.8,3.5-12.3C441.8,385,439.1,379,434.7,374.8z"/>
<path fill="none" stroke="#E8E8E8" stroke-miterlimit="10" d="M484.7,374.8l7.8-7.4c-4.2-4.2-10.1-6.9-16.6-6.9
	c-8.4,0-15.8,4.4-19.9,11.1c-2.2,3.6-3.5,7.8-3.5,12.3c0,6,2.3,11.5,6,15.6l-7.8,7.4c4.3,4.9,10.6,8.1,17.7,8.1
	c8.4,0,15.8-4.4,19.9-11.1c2.2-3.6,3.5-7.8,3.5-12.3C491.8,385,489.1,379,484.7,374.8z"/>
<path fill="none" stroke="#E8E8E8" stroke-miterlimit="10" d="M534.7,374.8l7.8-7.4c-4.2-4.2-10.1-6.9-16.6-6.9
	c-8.4,0-15.8,4.4-19.9,11.1c-2.2,3.6-3.5,7.8-3.5,12.3c0,6,2.3,11.5,6,15.6l-7.8,7.4c4.3,4.9,10.6,8.1,17.7,8.1
	c8.4,0,15.8-4.4,19.9-11.1c2.2-3.6,3.5-7.8,3.5-12.3C541.8,385,539.1,379,534.7,374.8z"/>
<path fill="none" stroke="#E8E8E8" stroke-miterlimit="10" d="M584.7,374.8l7.8-7.4c-4.2-4.2-10.1-6.9-16.6-6.9
	c-8.4,0-15.8,4.4-19.9,11.1c-2.2,3.6-3.5,7.8-3.5,12.3c0,6,2.3,11.5,6,15.6l-7.8,7.4c4.3,4.9,10.6,8.1,17.7,8.1
	c8.4,0,15.8-4.4,19.9-11.1c2.2-3.6,3.5-7.8,3.5-12.3C591.8,385,589.1,379,584.7,374.8z"/>
<path fill="none" stroke="#E8E8E8" stroke-miterlimit="10" d="M454.7,314.8l7.8-7.4c-4.2-4.2-10.1-6.9-16.6-6.9
	c-8.4,0-15.8,4.4-19.9,11.1c-2.2,3.6-3.5,7.8-3.5,12.3c0,6,2.3,11.5,6,15.6l-7.8,7.4c4.3,4.9,10.6,8.1,17.7,8.1
	c8.4,0,15.8-4.4,19.9-11.1c2.2-3.6,3.5-7.8,3.5-12.3C461.8,325,459.1,319,454.7,314.8z"/>
<path fill="none" stroke="#E8E8E8" stroke-miterlimit="10" d="M504.7,314.8l7.8-7.4c-4.2-4.2-10.1-6.9-16.6-6.9
	c-8.4,0-15.8,4.4-19.9,11.1c-2.2,3.6-3.5,7.8-3.5,12.3c0,6,2.3,11.5,6,15.6l-7.8,7.4c4.3,4.9,10.6,8.1,17.7,8.1
	c8.4,0,15.8-4.4,19.9-11.1c2.2-3.6,3.5-7.8,3.5-12.3C511.8,325,509.1,319,504.7,314.8z"/>
<path fill="none" stroke="#E8E8E8" stroke-miterlimit="10" d="M554.7,314.8l7.8-7.4c-4.2-4.2-10.1-6.9-16.6-6.9
	c-8.4,0-15.8,4.4-19.9,11.1c-2.2,3.6-3.5,7.8-3.5,12.3c0,6,2.3,11.5,6,15.6l-7.8,7.4c4.3,4.9,10.6,8.1,17.7,8.1
	c8.4,0,15.8-4.4,19.9-11.1c2.2-3.6,3.5-7.8,3.5-12.3C561.8,325,559.1,319,554.7,314.8z"/>
<path fill="none" stroke="#E8E8E8" stroke-miterlimit="10" d="M604.7,314.8l7.8-7.4c-4.2-4.2-10.1-6.9-16.6-6.9
	c-8.4,0-15.8,4.4-19.9,11.1c-2.2,3.6-3.5,7.8-3.5,12.3c0,6,2.3,11.5,6,15.6l-7.8,7.4c4.3,4.9,10.6,8.1,17.7,8.1
	c8.4,0,15.8-4.4,19.9-11.1c2.2-3.6,3.5-7.8,3.5-12.3C611.8,325,609.1,319,604.7,314.8z"/>
<path fill="none" stroke="#E8E8E8" stroke-miterlimit="10" d="M434.7,254.8l7.8-7.4c-4.2-4.2-10.1-6.9-16.6-6.9
	c-8.4,0-15.8,4.4-19.9,11.1c-2.2,3.6-3.5,7.8-3.5,12.3c0,6,2.3,11.5,6,15.6l-7.8,7.4c4.3,4.9,10.6,8.1,17.7,8.1
	c8.4,0,15.8-4.4,19.9-11.1c2.2-3.6,3.5-7.8,3.5-12.3C441.8,265,439.1,259,434.7,254.8z"/>
<path fill="none" stroke="#E8E8E8" stroke-miterlimit="10" d="M484.7,254.8l7.8-7.4c-4.2-4.2-10.1-6.9-16.6-6.9
	c-8.4,0-15.8,4.4-19.9,11.1c-2.2,3.6-3.5,7.8-3.5,12.3c0,6,2.3,11.5,6,15.6l-7.8,7.4c4.3,4.9,10.6,8.1,17.7,8.1
	c8.4,0,15.8-4.4,19.9-11.1c2.2-3.6,3.5-7.8,3.5-12.3C491.8,265,489.1,259,484.7,254.8z"/>
<path fill="none" stroke="#E8E8E8" stroke-miterlimit="10" d="M534.7,254.8l7.8-7.4c-4.2-4.2-10.1-6.9-16.6-6.9
	c-8.4,0-15.8,4.4-19.9,11.1c-2.2,3.6-3.5,7.8-3.5,12.3c0,6,2.3,11.5,6,15.6l-7.8,7.4c4.3,4.9,10.6,8.1,17.7,8.1
	c8.4,0,15.8-4.4,19.9-11.1c2.2-3.6,3.5-7.8,3.5-12.3C541.8,265,539.1,259,534.7,254.8z"/>
<path fill="none" stroke="#E8E8E8" stroke-miterlimit="10" d="M584.7,254.8l7.8-7.4c-4.2-4.2-10.1-6.9-16.6-6.9
	c-8.4,0-15.8,4.4-19.9,11.1c-2.2,3.6-3.5,7.8-3.5,12.3c0,6,2.3,11.5,6,15.6l-7.8,7.4c4.3,4.9,10.6,8.1,17.7,8.1
	c8.4,0,15.8-4.4,19.9-11.1c2.2-3.6,3.5-7.8,3.5-12.3C591.8,265,589.1,259,584.7,254.8z"/>
<path fill="none" stroke="#E8E8E8" stroke-miterlimit="10" d="M654.7,194.8l7.8-7.4c-4.2-4.2-10.1-6.9-16.6-6.9
	c-8.4,0-15.8,4.4-19.9,11.1c-2.2,3.6-3.5,7.8-3.5,12.3c0,6,2.3,11.5,6,15.6l-7.8,7.4c4.3,4.9,10.6,8.1,17.7,8.1
	c8.4,0,15.8-4.4,19.9-11.1c2.2-3.6,3.5-7.8,3.5-12.3C661.8,205,659.1,199,654.7,194.8z"/>
<path fill="none" stroke="#E8E8E8" stroke-miterlimit="10" d="M704.7,194.8l7.8-7.4c-4.2-4.2-10.1-6.9-16.6-6.9
	c-8.4,0-15.8,4.4-19.9,11.1c-2.2,3.6-3.5,7.8-3.5,12.3c0,6,2.3,11.5,6,15.6l-7.8,7.4c4.3,4.9,10.6,8.1,17.7,8.1
	c8.4,0,15.8-4.4,19.9-11.1c2.2-3.6,3.5-7.8,3.5-12.3C711.8,205,709.1,199,704.7,194.8z"/>
<path fill="none" stroke="#E8E8E8" stroke-miterlimit="10" d="M754.7,194.8l7.8-7.4c-4.2-4.2-10.1-6.9-16.6-6.9
	c-8.4,0-15.8,4.4-19.9,11.1c-2.2,3.6-3.5,7.8-3.5,12.3c0,6,2.3,11.5,6,15.6l-7.8,7.4c4.3,4.9,10.6,8.1,17.7,8.1
	c8.4,0,15.8-4.4,19.9-11.1c2.2-3.6,3.5-7.8,3.5-12.3C761.8,205,759.1,199,754.7,194.8z"/>
<path fill="none" stroke="#E8E8E8" stroke-miterlimit="10" d="M804.7,194.8l7.8-7.4c-4.2-4.2-10.1-6.9-16.6-6.9
	c-8.4,0-15.8,4.4-19.9,11.1c-2.2,3.6-3.5,7.8-3.5,12.3c0,6,2.3,11.5,6,15.6l-7.8,7.4c4.3,4.9,10.6,8.1,17.7,8.1
	c8.4,0,15.8-4.4,19.9-11.1c2.2-3.6,3.5-7.8,3.5-12.3C811.8,205,809.1,199,804.7,194.8z"/>
<path fill="none" stroke="#E8E8E8" stroke-miterlimit="10" d="M634.7,134.8l7.8-7.4c-4.2-4.2-10.1-6.9-16.6-6.9
	c-8.4,0-15.8,4.4-19.9,11.1c-2.2,3.6-3.5,7.8-3.5,12.3c0,6,2.3,11.5,6,15.6l-7.8,7.4c4.3,4.9,10.6,8.1,17.7,8.1
	c8.4,0,15.8-4.4,19.9-11.1c2.2-3.6,3.5-7.8,3.5-12.3C641.8,145,639.1,139,634.7,134.8z"/>
<path fill="none" stroke="#E8E8E8" stroke-miterlimit="10" d="M684.7,134.8l7.8-7.4c-4.2-4.2-10.1-6.9-16.6-6.9
	c-8.4,0-15.8,4.4-19.9,11.1c-2.2,3.6-3.5,7.8-3.5,12.3c0,6,2.3,11.5,6,15.6l-7.8,7.4c4.3,4.9,10.6,8.1,17.7,8.1
	c8.4,0,15.8-4.4,19.9-11.1c2.2-3.6,3.5-7.8,3.5-12.3C691.8,145,689.1,139,684.7,134.8z"/>
<path fill="none" stroke="#E8E8E8" stroke-miterlimit="10" d="M734.7,134.8l7.8-7.4c-4.2-4.2-10.1-6.9-16.6-6.9
	c-8.4,0-15.8,4.4-19.9,11.1c-2.2,3.6-3.5,7.8-3.5,12.3c0,6,2.3,11.5,6,15.6l-7.8,7.4c4.3,4.9,10.6,8.1,17.7,8.1
	c8.4,0,15.8-4.4,19.9-11.1c2.2-3.6,3.5-7.8,3.5-12.3C741.8,145,739.1,139,734.7,134.8z"/>
<path fill="none" stroke="#E8E8E8" stroke-miterlimit="10" d="M784.7,134.8l7.8-7.4c-4.2-4.2-10.1-6.9-16.6-6.9
	c-8.4,0-15.8,4.4-19.9,11.1c-2.2,3.6-3.5,7.8-3.5,12.3c0,6,2.3,11.5,6,15.6l-7.8,7.4c4.3,4.9,10.6,8.1,17.7,8.1
	c8.4,0,15.8-4.4,19.9-11.1c2.2-3.6,3.5-7.8,3.5-12.3C791.8,145,789.1,139,784.7,134.8z"/>
<path fill="none" stroke="#E8E8E8" stroke-miterlimit="10" d="M654.7,74.8l7.8-7.4c-4.2-4.2-10.1-6.9-16.6-6.9
	c-8.4,0-15.8,4.4-19.9,11.1c-2.2,3.6-3.5,7.8-3.5,12.3c0,6,2.3,11.5,6,15.6l-7.8,7.4c4.3,4.9,10.6,8.1,17.7,8.1
	c8.4,0,15.8-4.4,19.9-11.1c2.2-3.6,3.5-7.8,3.5-12.3C661.8,85,659.1,79,654.7,74.8z"/>
<path fill="none" stroke="#E8E8E8" stroke-miterlimit="10" d="M704.7,74.8l7.8-7.4c-4.2-4.2-10.1-6.9-16.6-6.9
	c-8.4,0-15.8,4.4-19.9,11.1c-2.2,3.6-3.5,7.8-3.5,12.3c0,6,2.3,11.5,6,15.6l-7.8,7.4c4.3,4.9,10.6,8.1,17.7,8.1
	c8.4,0,15.8-4.4,19.9-11.1c2.2-3.6,3.5-7.8,3.5-12.3C711.8,85,709.1,79,704.7,74.8z"/>
<path fill="none" stroke="#E8E8E8" stroke-miterlimit="10" d="M754.7,74.8l7.8-7.4c-4.2-4.2-10.1-6.9-16.6-6.9
	c-8.4,0-15.8,4.4-19.9,11.1c-2.2,3.6-3.5,7.8-3.5,12.3c0,6,2.3,11.5,6,15.6l-7.8,7.4c4.3,4.9,10.6,8.1,17.7,8.1
	c8.4,0,15.8-4.4,19.9-11.1c2.2-3.6,3.5-7.8,3.5-12.3C761.8,85,759.1,79,754.7,74.8z"/>
<path fill="none" stroke="#E8E8E8" stroke-miterlimit="10" d="M804.7,74.8l7.8-7.4c-4.2-4.2-10.1-6.9-16.6-6.9
	c-8.4,0-15.8,4.4-19.9,11.1c-2.2,3.6-3.5,7.8-3.5,12.3c0,6,2.3,11.5,6,15.6l-7.8,7.4c4.3,4.9,10.6,8.1,17.7,8.1
	c8.4,0,15.8-4.4,19.9-11.1c2.2-3.6,3.5-7.8,3.5-12.3C811.8,85,809.1,79,804.7,74.8z"/>
<path fill="none" stroke="#E8E8E8" stroke-miterlimit="10" d="M634.7,14.8l7.8-7.4c-4.2-4.2-10.1-6.9-16.6-6.9
	c-8.4,0-15.8,4.4-19.9,11.1c-2.2,3.6-3.5,7.8-3.5,12.3c0,6,2.3,11.5,6,15.6l-7.8,7.4c4.3,4.9,10.6,8.1,17.7,8.1
	c8.4,0,15.8-4.4,19.9-11.1c2.2-3.6,3.5-7.8,3.5-12.3C641.8,25,639.1,19,634.7,14.8z"/>
<path fill="none" stroke="#E8E8E8" stroke-miterlimit="10" d="M684.7,14.8l7.8-7.4c-4.2-4.2-10.1-6.9-16.6-6.9
	c-8.4,0-15.8,4.4-19.9,11.1c-2.2,3.6-3.5,7.8-3.5,12.3c0,6,2.3,11.5,6,15.6l-7.8,7.4c4.3,4.9,10.6,8.1,17.7,8.1
	c8.4,0,15.8-4.4,19.9-11.1c2.2-3.6,3.5-7.8,3.5-12.3C691.8,25,689.1,19,684.7,14.8z"/>
<path fill="none" stroke="#E8E8E8" stroke-miterlimit="10" d="M734.7,14.8l7.8-7.4c-4.2-4.2-10.1-6.9-16.6-6.9
	c-8.4,0-15.8,4.4-19.9,11.1c-2.2,3.6-3.5,7.8-3.5,12.3c0,6,2.3,11.5,6,15.6l-7.8,7.4c4.3,4.9,10.6,8.1,17.7,8.1
	c8.4,0,15.8-4.4,19.9-11.1c2.2-3.6,3.5-7.8,3.5-12.3C741.8,25,739.1,19,734.7,14.8z"/>
<path fill="none" stroke="#E8E8E8" stroke-miterlimit="10" d="M784.7,14.8l7.8-7.4c-4.2-4.2-10.1-6.9-16.6-6.9
	c-8.4,0-15.8,4.4-19.9,11.1c-2.2,3.6-3.5,7.8-3.5,12.3c0,6,2.3,11.5,6,15.6l-7.8,7.4c4.3,4.9,10.6,8.1,17.7,8.1
	c8.4,0,15.8-4.4,19.9-11.1c2.2-3.6,3.5-7.8,3.5-12.3C791.8,25,789.1,19,784.7,14.8z"/>
<path fill="none" stroke="#E8E8E8" stroke-miterlimit="10" d="M654.7,434.8l7.8-7.4c-4.2-4.2-10.1-6.9-16.6-6.9
	c-8.4,0-15.8,4.4-19.9,11.1c-2.2,3.6-3.5,7.8-3.5,12.3c0,6,2.3,11.5,6,15.6l-7.8,7.4c4.3,4.9,10.6,8.1,17.7,8.1
	c8.4,0,15.8-4.4,19.9-11.1c2.2-3.6,3.5-7.8,3.5-12.3C661.8,445,659.1,439,654.7,434.8z"/>
<path fill="none" stroke="#E8E8E8" stroke-miterlimit="10" d="M704.7,434.8l7.8-7.4c-4.2-4.2-10.1-6.9-16.6-6.9
	c-8.4,0-15.8,4.4-19.9,11.1c-2.2,3.6-3.5,7.8-3.5,12.3c0,6,2.3,11.5,6,15.6l-7.8,7.4c4.3,4.9,10.6,8.1,17.7,8.1
	c8.4,0,15.8-4.4,19.9-11.1c2.2-3.6,3.5-7.8,3.5-12.3C711.8,445,709.1,439,704.7,434.8z"/>
<path fill="none" stroke="#E8E8E8" stroke-miterlimit="10" d="M754.7,434.8l7.8-7.4c-4.2-4.2-10.1-6.9-16.6-6.9
	c-8.4,0-15.8,4.4-19.9,11.1c-2.2,3.6-3.5,7.8-3.5,12.3c0,6,2.3,11.5,6,15.6l-7.8,7.4c4.3,4.9,10.6,8.1,17.7,8.1
	c8.4,0,15.8-4.4,19.9-11.1c2.2-3.6,3.5-7.8,3.5-12.3C761.8,445,759.1,439,754.7,434.8z"/>
<path fill="none" stroke="#E8E8E8" stroke-miterlimit="10" d="M804.7,434.8l7.8-7.4c-4.2-4.2-10.1-6.9-16.6-6.9
	c-8.4,0-15.8,4.4-19.9,11.1c-2.2,3.6-3.5,7.8-3.5,12.3c0,6,2.3,11.5,6,15.6l-7.8,7.4c4.3,4.9,10.6,8.1,17.7,8.1
	c8.4,0,15.8-4.4,19.9-11.1c2.2-3.6,3.5-7.8,3.5-12.3C811.8,445,809.1,439,804.7,434.8z"/>
<path fill="none" stroke="#E8E8E8" stroke-miterlimit="10" d="M634.7,374.8l7.8-7.4c-4.2-4.2-10.1-6.9-16.6-6.9
	c-8.4,0-15.8,4.4-19.9,11.1c-2.2,3.6-3.5,7.8-3.5,12.3c0,6,2.3,11.5,6,15.6l-7.8,7.4c4.3,4.9,10.6,8.1,17.7,8.1
	c8.4,0,15.8-4.4,19.9-11.1c2.2-3.6,3.5-7.8,3.5-12.3C641.8,385,639.1,379,634.7,374.8z"/>
<path fill="none" stroke="#E8E8E8" stroke-miterlimit="10" d="M684.7,374.8l7.8-7.4c-4.2-4.2-10.1-6.9-16.6-6.9
	c-8.4,0-15.8,4.4-19.9,11.1c-2.2,3.6-3.5,7.8-3.5,12.3c0,6,2.3,11.5,6,15.6l-7.8,7.4c4.3,4.9,10.6,8.1,17.7,8.1
	c8.4,0,15.8-4.4,19.9-11.1c2.2-3.6,3.5-7.8,3.5-12.3C691.8,385,689.1,379,684.7,374.8z"/>
<path fill="none" stroke="#E8E8E8" stroke-miterlimit="10" d="M734.7,374.8l7.8-7.4c-4.2-4.2-10.1-6.9-16.6-6.9
	c-8.4,0-15.8,4.4-19.9,11.1c-2.2,3.6-3.5,7.8-3.5,12.3c0,6,2.3,11.5,6,15.6l-7.8,7.4c4.3,4.9,10.6,8.1,17.7,8.1
	c8.4,0,15.8-4.4,19.9-11.1c2.2-3.6,3.5-7.8,3.5-12.3C741.8,385,739.1,379,734.7,374.8z"/>
<path fill="none" stroke="#E8E8E8" stroke-miterlimit="10" d="M784.7,374.8l7.8-7.4c-4.2-4.2-10.1-6.9-16.6-6.9
	c-8.4,0-15.8,4.4-19.9,11.1c-2.2,3.6-3.5,7.8-3.5,12.3c0,6,2.3,11.5,6,15.6l-7.8,7.4c4.3,4.9,10.6,8.1,17.7,8.1
	c8.4,0,15.8-4.4,19.9-11.1c2.2-3.6,3.5-7.8,3.5-12.3C791.8,385,789.1,379,784.7,374.8z"/>
<path fill="none" stroke="#E8E8E8" stroke-miterlimit="10" d="M654.7,314.8l7.8-7.4c-4.2-4.2-10.1-6.9-16.6-6.9
	c-8.4,0-15.8,4.4-19.9,11.1c-2.2,3.6-3.5,7.8-3.5,12.3c0,6,2.3,11.5,6,15.6l-7.8,7.4c4.3,4.9,10.6,8.1,17.7,8.1
	c8.4,0,15.8-4.4,19.9-11.1c2.2-3.6,3.5-7.8,3.5-12.3C661.8,325,659.1,319,654.7,314.8z"/>
<path fill="none" stroke="#E8E8E8" stroke-miterlimit="10" d="M704.7,314.8l7.8-7.4c-4.2-4.2-10.1-6.9-16.6-6.9
	c-8.4,0-15.8,4.4-19.9,11.1c-2.2,3.6-3.5,7.8-3.5,12.3c0,6,2.3,11.5,6,15.6l-7.8,7.4c4.3,4.9,10.6,8.1,17.7,8.1
	c8.4,0,15.8-4.4,19.9-11.1c2.2-3.6,3.5-7.8,3.5-12.3C711.8,325,709.1,319,704.7,314.8z"/>
<path fill="none" stroke="#E8E8E8" stroke-miterlimit="10" d="M754.7,314.8l7.8-7.4c-4.2-4.2-10.1-6.9-16.6-6.9
	c-8.4,0-15.8,4.4-19.9,11.1c-2.2,3.6-3.5,7.8-3.5,12.3c0,6,2.3,11.5,6,15.6l-7.8,7.4c4.3,4.9,10.6,8.1,17.7,8.1
	c8.4,0,15.8-4.4,19.9-11.1c2.2-3.6,3.5-7.8,3.5-12.3C761.8,325,759.1,319,754.7,314.8z"/>
<path fill="none" stroke="#E8E8E8" stroke-miterlimit="10" d="M804.7,314.8l7.8-7.4c-4.2-4.2-10.1-6.9-16.6-6.9
	c-8.4,0-15.8,4.4-19.9,11.1c-2.2,3.6-3.5,7.8-3.5,12.3c0,6,2.3,11.5,6,15.6l-7.8,7.4c4.3,4.9,10.6,8.1,17.7,8.1
	c8.4,0,15.8-4.4,19.9-11.1c2.2-3.6,3.5-7.8,3.5-12.3C811.8,325,809.1,319,804.7,314.8z"/>
<path fill="none" stroke="#E8E8E8" stroke-miterlimit="10" d="M634.7,254.8l7.8-7.4c-4.2-4.2-10.1-6.9-16.6-6.9
	c-8.4,0-15.8,4.4-19.9,11.1c-2.2,3.6-3.5,7.8-3.5,12.3c0,6,2.3,11.5,6,15.6l-7.8,7.4c4.3,4.9,10.6,8.1,17.7,8.1
	c8.4,0,15.8-4.4,19.9-11.1c2.2-3.6,3.5-7.8,3.5-12.3C641.8,265,639.1,259,634.7,254.8z"/>
<path fill="none" stroke="#E8E8E8" stroke-miterlimit="10" d="M684.7,254.8l7.8-7.4c-4.2-4.2-10.1-6.9-16.6-6.9
	c-8.4,0-15.8,4.4-19.9,11.1c-2.2,3.6-3.5,7.8-3.5,12.3c0,6,2.3,11.5,6,15.6l-7.8,7.4c4.3,4.9,10.6,8.1,17.7,8.1
	c8.4,0,15.8-4.4,19.9-11.1c2.2-3.6,3.5-7.8,3.5-12.3C691.8,265,689.1,259,684.7,254.8z"/>
<path fill="none" stroke="#E8E8E8" stroke-miterlimit="10" d="M734.7,254.8l7.8-7.4c-4.2-4.2-10.1-6.9-16.6-6.9
	c-8.4,0-15.8,4.4-19.9,11.1c-2.2,3.6-3.5,7.8-3.5,12.3c0,6,2.3,11.5,6,15.6l-7.8,7.4c4.3,4.9,10.6,8.1,17.7,8.1
	c8.4,0,15.8-4.4,19.9-11.1c2.2-3.6,3.5-7.8,3.5-12.3C741.8,265,739.1,259,734.7,254.8z"/>
<path fill="none" stroke="#E8E8E8" stroke-miterlimit="10" d="M784.7,254.8l7.8-7.4c-4.2-4.2-10.1-6.9-16.6-6.9
	c-8.4,0-15.8,4.4-19.9,11.1c-2.2,3.6-3.5,7.8-3.5,12.3c0,6,2.3,11.5,6,15.6l-7.8,7.4c4.3,4.9,10.6,8.1,17.7,8.1
	c8.4,0,15.8-4.4,19.9-11.1c2.2-3.6,3.5-7.8,3.5-12.3C791.8,265,789.1,259,784.7,254.8z"/>
<path fill="none" stroke="#E8E8E8" stroke-miterlimit="10" d="M854.7,194.8l7.8-7.4c-4.2-4.2-10.1-6.9-16.6-6.9
	c-8.4,0-15.8,4.4-19.9,11.1c-2.2,3.6-3.5,7.8-3.5,12.3c0,6,2.3,11.5,6,15.6l-7.8,7.4c4.3,4.9,10.6,8.1,17.7,8.1
	c8.4,0,15.8-4.4,19.9-11.1c2.2-3.6,3.5-7.8,3.5-12.3C861.8,205,859.1,199,854.7,194.8z"/>
<path fill="none" stroke="#E8E8E8" stroke-miterlimit="10" d="M904.7,194.8l7.8-7.4c-4.2-4.2-10.1-6.9-16.6-6.9
	c-8.4,0-15.8,4.4-19.9,11.1c-2.2,3.6-3.5,7.8-3.5,12.3c0,6,2.3,11.5,6,15.6l-7.8,7.4c4.3,4.9,10.6,8.1,17.7,8.1
	c8.4,0,15.8-4.4,19.9-11.1c2.2-3.6,3.5-7.8,3.5-12.3C911.8,205,909.1,199,904.7,194.8z"/>
<path fill="none" stroke="#E8E8E8" stroke-miterlimit="10" d="M834.7,134.8l7.8-7.4c-4.2-4.2-10.1-6.9-16.6-6.9
	c-8.4,0-15.8,4.4-19.9,11.1c-2.2,3.6-3.5,7.8-3.5,12.3c0,6,2.3,11.5,6,15.6l-7.8,7.4c4.3,4.9,10.6,8.1,17.7,8.1
	c8.4,0,15.8-4.4,19.9-11.1c2.2-3.6,3.5-7.8,3.5-12.3C841.8,145,839.1,139,834.7,134.8z"/>
<path fill="none" stroke="#E8E8E8" stroke-miterlimit="10" d="M884.7,134.8l7.8-7.4c-4.2-4.2-10.1-6.9-16.6-6.9
	c-8.4,0-15.8,4.4-19.9,11.1c-2.2,3.6-3.5,7.8-3.5,12.3c0,6,2.3,11.5,6,15.6l-7.8,7.4c4.3,4.9,10.6,8.1,17.7,8.1
	c8.4,0,15.8-4.4,19.9-11.1c2.2-3.6,3.5-7.8,3.5-12.3C891.8,145,889.1,139,884.7,134.8z"/>
<path fill="none" stroke="#E8E8E8" stroke-miterlimit="10" d="M854.7,74.8l7.8-7.4c-4.2-4.2-10.1-6.9-16.6-6.9
	c-8.4,0-15.8,4.4-19.9,11.1c-2.2,3.6-3.5,7.8-3.5,12.3c0,6,2.3,11.5,6,15.6l-7.8,7.4c4.3,4.9,10.6,8.1,17.7,8.1
	c8.4,0,15.8-4.4,19.9-11.1c2.2-3.6,3.5-7.8,3.5-12.3C861.8,85,859.1,79,854.7,74.8z"/>
<path fill="none" stroke="#E8E8E8" stroke-miterlimit="10" d="M904.7,74.8l7.8-7.4c-4.2-4.2-10.1-6.9-16.6-6.9
	c-8.4,0-15.8,4.4-19.9,11.1c-2.2,3.6-3.5,7.8-3.5,12.3c0,6,2.3,11.5,6,15.6l-7.8,7.4c4.3,4.9,10.6,8.1,17.7,8.1
	c8.4,0,15.8-4.4,19.9-11.1c2.2-3.6,3.5-7.8,3.5-12.3C911.8,85,909.1,79,904.7,74.8z"/>
<path fill="none" stroke="#E8E8E8" stroke-miterlimit="10" d="M834.7,14.8l7.8-7.4c-4.2-4.2-10.1-6.9-16.6-6.9
	c-8.4,0-15.8,4.4-19.9,11.1c-2.2,3.6-3.5,7.8-3.5,12.3c0,6,2.3,11.5,6,15.6l-7.8,7.4c4.3,4.9,10.6,8.1,17.7,8.1
	c8.4,0,15.8-4.4,19.9-11.1c2.2-3.6,3.5-7.8,3.5-12.3C841.8,25,839.1,19,834.7,14.8z"/>
<path fill="none" stroke="#E8E8E8" stroke-miterlimit="10" d="M884.7,14.8l7.8-7.4c-4.2-4.2-10.1-6.9-16.6-6.9
	c-8.4,0-15.8,4.4-19.9,11.1c-2.2,3.6-3.5,7.8-3.5,12.3c0,6,2.3,11.5,6,15.6l-7.8,7.4c4.3,4.9,10.6,8.1,17.7,8.1
	c8.4,0,15.8-4.4,19.9-11.1c2.2-3.6,3.5-7.8,3.5-12.3C891.8,25,889.1,19,884.7,14.8z"/>
<path fill="none" stroke="#E8E8E8" stroke-miterlimit="10" d="M854.7,434.8l7.8-7.4c-4.2-4.2-10.1-6.9-16.6-6.9
	c-8.4,0-15.8,4.4-19.9,11.1c-2.2,3.6-3.5,7.8-3.5,12.3c0,6,2.3,11.5,6,15.6l-7.8,7.4c4.3,4.9,10.6,8.1,17.7,8.1
	c8.4,0,15.8-4.4,19.9-11.1c2.2-3.6,3.5-7.8,3.5-12.3C861.8,445,859.1,439,854.7,434.8z"/>
<path fill="none" stroke="#E8E8E8" stroke-miterlimit="10" d="M904.7,434.8l7.8-7.4c-4.2-4.2-10.1-6.9-16.6-6.9
	c-8.4,0-15.8,4.4-19.9,11.1c-2.2,3.6-3.5,7.8-3.5,12.3c0,6,2.3,11.5,6,15.6l-7.8,7.4c4.3,4.9,10.6,8.1,17.7,8.1
	c8.4,0,15.8-4.4,19.9-11.1c2.2-3.6,3.5-7.8,3.5-12.3C911.8,445,909.1,439,904.7,434.8z"/>
<path fill="none" stroke="#E8E8E8" stroke-miterlimit="10" d="M834.7,374.8l7.8-7.4c-4.2-4.2-10.1-6.9-16.6-6.9
	c-8.4,0-15.8,4.4-19.9,11.1c-2.2,3.6-3.5,7.8-3.5,12.3c0,6,2.3,11.5,6,15.6l-7.8,7.4c4.3,4.9,10.6,8.1,17.7,8.1
	c8.4,0,15.8-4.4,19.9-11.1c2.2-3.6,3.5-7.8,3.5-12.3C841.8,385,839.1,379,834.7,374.8z"/>
<path fill="none" stroke="#E8E8E8" stroke-miterlimit="10" d="M884.7,374.8l7.8-7.4c-4.2-4.2-10.1-6.9-16.6-6.9
	c-8.4,0-15.8,4.4-19.9,11.1c-2.2,3.6-3.5,7.8-3.5,12.3c0,6,2.3,11.5,6,15.6l-7.8,7.4c4.3,4.9,10.6,8.1,17.7,8.1
	c8.4,0,15.8-4.4,19.9-11.1c2.2-3.6,3.5-7.8,3.5-12.3C891.8,385,889.1,379,884.7,374.8z"/>
<path fill="none" stroke="#E8E8E8" stroke-miterlimit="10" d="M854.7,314.8l7.8-7.4c-4.2-4.2-10.1-6.9-16.6-6.9
	c-8.4,0-15.8,4.4-19.9,11.1c-2.2,3.6-3.5,7.8-3.5,12.3c0,6,2.3,11.5,6,15.6l-7.8,7.4c4.3,4.9,10.6,8.1,17.7,8.1
	c8.4,0,15.8-4.4,19.9-11.1c2.2-3.6,3.5-7.8,3.5-12.3C861.8,325,859.1,319,854.7,314.8z"/>
<path fill="none" stroke="#E8E8E8" stroke-miterlimit="10" d="M904.7,314.8l7.8-7.4c-4.2-4.2-10.1-6.9-16.6-6.9
	c-8.4,0-15.8,4.4-19.9,11.1c-2.2,3.6-3.5,7.8-3.5,12.3c0,6,2.3,11.5,6,15.6l-7.8,7.4c4.3,4.9,10.6,8.1,17.7,8.1
	c8.4,0,15.8-4.4,19.9-11.1c2.2-3.6,3.5-7.8,3.5-12.3C911.8,325,909.1,319,904.7,314.8z"/>
<path fill="none" stroke="#E8E8E8" stroke-miterlimit="10" d="M834.7,254.8l7.8-7.4c-4.2-4.2-10.1-6.9-16.6-6.9
	c-8.4,0-15.8,4.4-19.9,11.1c-2.2,3.6-3.5,7.8-3.5,12.3c0,6,2.3,11.5,6,15.6l-7.8,7.4c4.3,4.9,10.6,8.1,17.7,8.1
	c8.4,0,15.8-4.4,19.9-11.1c2.2-3.6,3.5-7.8,3.5-12.3C841.8,265,839.1,259,834.7,254.8z"/>
<path fill="none" stroke="#E8E8E8" stroke-miterlimit="10" d="M884.7,254.8l7.8-7.4c-4.2-4.2-10.1-6.9-16.6-6.9
	c-8.4,0-15.8,4.4-19.9,11.1c-2.2,3.6-3.5,7.8-3.5,12.3c0,6,2.3,11.5,6,15.6l-7.8,7.4c4.3,4.9,10.6,8.1,17.7,8.1
	c8.4,0,15.8-4.4,19.9-11.1c2.2-3.6,3.5-7.8,3.5-12.3C891.8,265,889.1,259,884.7,254.8z"/>
<path fill="none" stroke="#E8E8E8" stroke-miterlimit="10" d="M954.7,194.8l7.8-7.4c-4.2-4.2-10.1-6.9-16.6-6.9
	c-8.4,0-15.8,4.4-19.9,11.1c-2.2,3.6-3.5,7.8-3.5,12.3c0,6,2.3,11.5,6,15.6l-7.8,7.4c4.3,4.9,10.6,8.1,17.7,8.1
	c8.4,0,15.8-4.4,19.9-11.1c2.2-3.6,3.5-7.8,3.5-12.3C961.8,205,959.1,199,954.7,194.8z"/>
<path fill="none" stroke="#E8E8E8" stroke-miterlimit="10" d="M1004.7,194.8l7.8-7.4c-4.2-4.2-10.1-6.9-16.6-6.9
	c-8.4,0-15.8,4.4-19.9,11.1c-2.2,3.6-3.5,7.8-3.5,12.3c0,6,2.3,11.5,6,15.6l-7.8,7.4c4.3,4.9,10.6,8.1,17.7,8.1
	c8.4,0,15.8-4.4,19.9-11.1c2.2-3.6,3.5-7.8,3.5-12.3C1011.8,205,1009.1,199,1004.7,194.8z"/>
<path fill="none" stroke="#E8E8E8" stroke-miterlimit="10" d="M1054.7,194.8l7.8-7.4c-4.2-4.2-10.1-6.9-16.6-6.9
	c-8.4,0-15.8,4.4-19.9,11.1c-2.2,3.6-3.5,7.8-3.5,12.3c0,6,2.3,11.5,6,15.6l-7.8,7.4c4.3,4.9,10.6,8.1,17.7,8.1
	c8.4,0,15.8-4.4,19.9-11.1c2.2-3.6,3.5-7.8,3.5-12.3C1061.8,205,1059.1,199,1054.7,194.8z"/>
<path fill="none" stroke="#E8E8E8" stroke-miterlimit="10" d="M1104.7,194.8l7.8-7.4c-4.2-4.2-10.1-6.9-16.6-6.9
	c-8.4,0-15.8,4.4-19.9,11.1c-2.2,3.6-3.5,7.8-3.5,12.3c0,6,2.3,11.5,6,15.6l-7.8,7.4c4.3,4.9,10.6,8.1,17.7,8.1
	c8.4,0,15.8-4.4,19.9-11.1c2.2-3.6,3.5-7.8,3.5-12.3C1111.8,205,1109.1,199,1104.7,194.8z"/>
<path fill="none" stroke="#E8E8E8" stroke-miterlimit="10" d="M934.7,134.8l7.8-7.4c-4.2-4.2-10.1-6.9-16.6-6.9
	c-8.4,0-15.8,4.4-19.9,11.1c-2.2,3.6-3.5,7.8-3.5,12.3c0,6,2.3,11.5,6,15.6l-7.8,7.4c4.3,4.9,10.6,8.1,17.7,8.1
	c8.4,0,15.8-4.4,19.9-11.1c2.2-3.6,3.5-7.8,3.5-12.3C941.8,145,939.1,139,934.7,134.8z"/>
<path fill="none" stroke="#E8E8E8" stroke-miterlimit="10" d="M984.7,134.8l7.8-7.4c-4.2-4.2-10.1-6.9-16.6-6.9
	c-8.4,0-15.8,4.4-19.9,11.1c-2.2,3.6-3.5,7.8-3.5,12.3c0,6,2.3,11.5,6,15.6l-7.8,7.4c4.3,4.9,10.6,8.1,17.7,8.1
	c8.4,0,15.8-4.4,19.9-11.1c2.2-3.6,3.5-7.8,3.5-12.3C991.8,145,989.1,139,984.7,134.8z"/>
<path fill="none" stroke="#E8E8E8" stroke-miterlimit="10" d="M1034.7,134.8l7.8-7.4c-4.2-4.2-10.1-6.9-16.6-6.9
	c-8.4,0-15.8,4.4-19.9,11.1c-2.2,3.6-3.5,7.8-3.5,12.3c0,6,2.3,11.5,6,15.6l-7.8,7.4c4.3,4.9,10.6,8.1,17.7,8.1
	c8.4,0,15.8-4.4,19.9-11.1c2.2-3.6,3.5-7.8,3.5-12.3C1041.8,145,1039.1,139,1034.7,134.8z"/>
<path fill="none" stroke="#E8E8E8" stroke-miterlimit="10" d="M1084.7,134.8l7.8-7.4c-4.2-4.2-10.1-6.9-16.6-6.9
	c-8.4,0-15.8,4.4-19.9,11.1c-2.2,3.6-3.5,7.8-3.5,12.3c0,6,2.3,11.5,6,15.6l-7.8,7.4c4.3,4.9,10.6,8.1,17.7,8.1
	c8.4,0,15.8-4.4,19.9-11.1c2.2-3.6,3.5-7.8,3.5-12.3C1091.8,145,1089.1,139,1084.7,134.8z"/>
<path fill="none" stroke="#E8E8E8" stroke-miterlimit="10" d="M954.7,74.8l7.8-7.4c-4.2-4.2-10.1-6.9-16.6-6.9
	c-8.4,0-15.8,4.4-19.9,11.1c-2.2,3.6-3.5,7.8-3.5,12.3c0,6,2.3,11.5,6,15.6l-7.8,7.4c4.3,4.9,10.6,8.1,17.7,8.1
	c8.4,0,15.8-4.4,19.9-11.1c2.2-3.6,3.5-7.8,3.5-12.3C961.8,85,959.1,79,954.7,74.8z"/>
<path fill="none" stroke="#E8E8E8" stroke-miterlimit="10" d="M1004.7,74.8l7.8-7.4c-4.2-4.2-10.1-6.9-16.6-6.9
	c-8.4,0-15.8,4.4-19.9,11.1c-2.2,3.6-3.5,7.8-3.5,12.3c0,6,2.3,11.5,6,15.6l-7.8,7.4c4.3,4.9,10.6,8.1,17.7,8.1
	c8.4,0,15.8-4.4,19.9-11.1c2.2-3.6,3.5-7.8,3.5-12.3C1011.8,85,1009.1,79,1004.7,74.8z"/>
<path fill="none" stroke="#E8E8E8" stroke-miterlimit="10" d="M1054.7,74.8l7.8-7.4c-4.2-4.2-10.1-6.9-16.6-6.9
	c-8.4,0-15.8,4.4-19.9,11.1c-2.2,3.6-3.5,7.8-3.5,12.3c0,6,2.3,11.5,6,15.6l-7.8,7.4c4.3,4.9,10.6,8.1,17.7,8.1
	c8.4,0,15.8-4.4,19.9-11.1c2.2-3.6,3.5-7.8,3.5-12.3C1061.8,85,1059.1,79,1054.7,74.8z"/>
<path fill="none" stroke="#E8E8E8" stroke-miterlimit="10" d="M1104.7,74.8l7.8-7.4c-4.2-4.2-10.1-6.9-16.6-6.9
	c-8.4,0-15.8,4.4-19.9,11.1c-2.2,3.6-3.5,7.8-3.5,12.3c0,6,2.3,11.5,6,15.6l-7.8,7.4c4.3,4.9,10.6,8.1,17.7,8.1
	c8.4,0,15.8-4.4,19.9-11.1c2.2-3.6,3.5-7.8,3.5-12.3C1111.8,85,1109.1,79,1104.7,74.8z"/>
<path fill="none" stroke="#E8E8E8" stroke-miterlimit="10" d="M934.7,14.8l7.8-7.4c-4.2-4.2-10.1-6.9-16.6-6.9
	c-8.4,0-15.8,4.4-19.9,11.1c-2.2,3.6-3.5,7.8-3.5,12.3c0,6,2.3,11.5,6,15.6l-7.8,7.4c4.3,4.9,10.6,8.1,17.7,8.1
	c8.4,0,15.8-4.4,19.9-11.1c2.2-3.6,3.5-7.8,3.5-12.3C941.8,25,939.1,19,934.7,14.8z"/>
<path fill="none" stroke="#E8E8E8" stroke-miterlimit="10" d="M984.7,14.8l7.8-7.4c-4.2-4.2-10.1-6.9-16.6-6.9
	c-8.4,0-15.8,4.4-19.9,11.1c-2.2,3.6-3.5,7.8-3.5,12.3c0,6,2.3,11.5,6,15.6l-7.8,7.4c4.3,4.9,10.6,8.1,17.7,8.1
	c8.4,0,15.8-4.4,19.9-11.1c2.2-3.6,3.5-7.8,3.5-12.3C991.8,25,989.1,19,984.7,14.8z"/>
<path fill="none" stroke="#E8E8E8" stroke-miterlimit="10" d="M1034.7,14.8l7.8-7.4c-4.2-4.2-10.1-6.9-16.6-6.9
	c-8.4,0-15.8,4.4-19.9,11.1c-2.2,3.6-3.5,7.8-3.5,12.3c0,6,2.3,11.5,6,15.6l-7.8,7.4c4.3,4.9,10.6,8.1,17.7,8.1
	c8.4,0,15.8-4.4,19.9-11.1c2.2-3.6,3.5-7.8,3.5-12.3C1041.8,25,1039.1,19,1034.7,14.8z"/>
<path fill="none" stroke="#E8E8E8" stroke-miterlimit="10" d="M1084.7,14.8l7.8-7.4c-4.2-4.2-10.1-6.9-16.6-6.9
	c-8.4,0-15.8,4.4-19.9,11.1c-2.2,3.6-3.5,7.8-3.5,12.3c0,6,2.3,11.5,6,15.6l-7.8,7.4c4.3,4.9,10.6,8.1,17.7,8.1
	c8.4,0,15.8-4.4,19.9-11.1c2.2-3.6,3.5-7.8,3.5-12.3C1091.8,25,1089.1,19,1084.7,14.8z"/>
<path fill="none" stroke="#E8E8E8" stroke-miterlimit="10" d="M954.7,434.8l7.8-7.4c-4.2-4.2-10.1-6.9-16.6-6.9
	c-8.4,0-15.8,4.4-19.9,11.1c-2.2,3.6-3.5,7.8-3.5,12.3c0,6,2.3,11.5,6,15.6l-7.8,7.4c4.3,4.9,10.6,8.1,17.7,8.1
	c8.4,0,15.8-4.4,19.9-11.1c2.2-3.6,3.5-7.8,3.5-12.3C961.8,445,959.1,439,954.7,434.8z"/>
<path fill="none" stroke="#E8E8E8" stroke-miterlimit="10" d="M1004.7,434.8l7.8-7.4c-4.2-4.2-10.1-6.9-16.6-6.9
	c-8.4,0-15.8,4.4-19.9,11.1c-2.2,3.6-3.5,7.8-3.5,12.3c0,6,2.3,11.5,6,15.6l-7.8,7.4c4.3,4.9,10.6,8.1,17.7,8.1
	c8.4,0,15.8-4.4,19.9-11.1c2.2-3.6,3.5-7.8,3.5-12.3C1011.8,445,1009.1,439,1004.7,434.8z"/>
<path fill="none" stroke="#E8E8E8" stroke-miterlimit="10" d="M1054.7,434.8l7.8-7.4c-4.2-4.2-10.1-6.9-16.6-6.9
	c-8.4,0-15.8,4.4-19.9,11.1c-2.2,3.6-3.5,7.8-3.5,12.3c0,6,2.3,11.5,6,15.6l-7.8,7.4c4.3,4.9,10.6,8.1,17.7,8.1
	c8.4,0,15.8-4.4,19.9-11.1c2.2-3.6,3.5-7.8,3.5-12.3C1061.8,445,1059.1,439,1054.7,434.8z"/>
<path fill="none" stroke="#E8E8E8" stroke-miterlimit="10" d="M1104.7,434.8l7.8-7.4c-4.2-4.2-10.1-6.9-16.6-6.9
	c-8.4,0-15.8,4.4-19.9,11.1c-2.2,3.6-3.5,7.8-3.5,12.3c0,6,2.3,11.5,6,15.6l-7.8,7.4c4.3,4.9,10.6,8.1,17.7,8.1
	c8.4,0,15.8-4.4,19.9-11.1c2.2-3.6,3.5-7.8,3.5-12.3C1111.8,445,1109.1,439,1104.7,434.8z"/>
<path fill="none" stroke="#E8E8E8" stroke-miterlimit="10" d="M934.7,374.8l7.8-7.4c-4.2-4.2-10.1-6.9-16.6-6.9
	c-8.4,0-15.8,4.4-19.9,11.1c-2.2,3.6-3.5,7.8-3.5,12.3c0,6,2.3,11.5,6,15.6l-7.8,7.4c4.3,4.9,10.6,8.1,17.7,8.1
	c8.4,0,15.8-4.4,19.9-11.1c2.2-3.6,3.5-7.8,3.5-12.3C941.8,385,939.1,379,934.7,374.8z"/>
<path fill="none" stroke="#E8E8E8" stroke-miterlimit="10" d="M984.7,374.8l7.8-7.4c-4.2-4.2-10.1-6.9-16.6-6.9
	c-8.4,0-15.8,4.4-19.9,11.1c-2.2,3.6-3.5,7.8-3.5,12.3c0,6,2.3,11.5,6,15.6l-7.8,7.4c4.3,4.9,10.6,8.1,17.7,8.1
	c8.4,0,15.8-4.4,19.9-11.1c2.2-3.6,3.5-7.8,3.5-12.3C991.8,385,989.1,379,984.7,374.8z"/>
<path fill="none" stroke="#E8E8E8" stroke-miterlimit="10" d="M1034.7,374.8l7.8-7.4c-4.2-4.2-10.1-6.9-16.6-6.9
	c-8.4,0-15.8,4.4-19.9,11.1c-2.2,3.6-3.5,7.8-3.5,12.3c0,6,2.3,11.5,6,15.6l-7.8,7.4c4.3,4.9,10.6,8.1,17.7,8.1
	c8.4,0,15.8-4.4,19.9-11.1c2.2-3.6,3.5-7.8,3.5-12.3C1041.8,385,1039.1,379,1034.7,374.8z"/>
<path fill="none" stroke="#E8E8E8" stroke-miterlimit="10" d="M1084.7,374.8l7.8-7.4c-4.2-4.2-10.1-6.9-16.6-6.9
	c-8.4,0-15.8,4.4-19.9,11.1c-2.2,3.6-3.5,7.8-3.5,12.3c0,6,2.3,11.5,6,15.6l-7.8,7.4c4.3,4.9,10.6,8.1,17.7,8.1
	c8.4,0,15.8-4.4,19.9-11.1c2.2-3.6,3.5-7.8,3.5-12.3C1091.8,385,1089.1,379,1084.7,374.8z"/>
<path fill="none" stroke="#E8E8E8" stroke-miterlimit="10" d="M954.7,314.8l7.8-7.4c-4.2-4.2-10.1-6.9-16.6-6.9
	c-8.4,0-15.8,4.4-19.9,11.1c-2.2,3.6-3.5,7.8-3.5,12.3c0,6,2.3,11.5,6,15.6l-7.8,7.4c4.3,4.9,10.6,8.1,17.7,8.1
	c8.4,0,15.8-4.4,19.9-11.1c2.2-3.6,3.5-7.8,3.5-12.3C961.8,325,959.1,319,954.7,314.8z"/>
<path fill="none" stroke="#E8E8E8" stroke-miterlimit="10" d="M1004.7,314.8l7.8-7.4c-4.2-4.2-10.1-6.9-16.6-6.9
	c-8.4,0-15.8,4.4-19.9,11.1c-2.2,3.6-3.5,7.8-3.5,12.3c0,6,2.3,11.5,6,15.6l-7.8,7.4c4.3,4.9,10.6,8.1,17.7,8.1
	c8.4,0,15.8-4.4,19.9-11.1c2.2-3.6,3.5-7.8,3.5-12.3C1011.8,325,1009.1,319,1004.7,314.8z"/>
<path fill="none" stroke="#E8E8E8" stroke-miterlimit="10" d="M1054.7,314.8l7.8-7.4c-4.2-4.2-10.1-6.9-16.6-6.9
	c-8.4,0-15.8,4.4-19.9,11.1c-2.2,3.6-3.5,7.8-3.5,12.3c0,6,2.3,11.5,6,15.6l-7.8,7.4c4.3,4.9,10.6,8.1,17.7,8.1
	c8.4,0,15.8-4.4,19.9-11.1c2.2-3.6,3.5-7.8,3.5-12.3C1061.8,325,1059.1,319,1054.7,314.8z"/>
<path fill="none" stroke="#E8E8E8" stroke-miterlimit="10" d="M1104.7,314.8l7.8-7.4c-4.2-4.2-10.1-6.9-16.6-6.9
	c-8.4,0-15.8,4.4-19.9,11.1c-2.2,3.6-3.5,7.8-3.5,12.3c0,6,2.3,11.5,6,15.6l-7.8,7.4c4.3,4.9,10.6,8.1,17.7,8.1
	c8.4,0,15.8-4.4,19.9-11.1c2.2-3.6,3.5-7.8,3.5-12.3C1111.8,325,1109.1,319,1104.7,314.8z"/>
<path fill="none" stroke="#E8E8E8" stroke-miterlimit="10" d="M934.7,254.8l7.8-7.4c-4.2-4.2-10.1-6.9-16.6-6.9
	c-8.4,0-15.8,4.4-19.9,11.1c-2.2,3.6-3.5,7.8-3.5,12.3c0,6,2.3,11.5,6,15.6l-7.8,7.4c4.3,4.9,10.6,8.1,17.7,8.1
	c8.4,0,15.8-4.4,19.9-11.1c2.2-3.6,3.5-7.8,3.5-12.3C941.8,265,939.1,259,934.7,254.8z"/>
<path fill="none" stroke="#E8E8E8" stroke-miterlimit="10" d="M984.7,254.8l7.8-7.4c-4.2-4.2-10.1-6.9-16.6-6.9
	c-8.4,0-15.8,4.4-19.9,11.1c-2.2,3.6-3.5,7.8-3.5,12.3c0,6,2.3,11.5,6,15.6l-7.8,7.4c4.3,4.9,10.6,8.1,17.7,8.1
	c8.4,0,15.8-4.4,19.9-11.1c2.2-3.6,3.5-7.8,3.5-12.3C991.8,265,989.1,259,984.7,254.8z"/>
<path fill="none" stroke="#E8E8E8" stroke-miterlimit="10" d="M1034.7,254.8l7.8-7.4c-4.2-4.2-10.1-6.9-16.6-6.9
	c-8.4,0-15.8,4.4-19.9,11.1c-2.2,3.6-3.5,7.8-3.5,12.3c0,6,2.3,11.5,6,15.6l-7.8,7.4c4.3,4.9,10.6,8.1,17.7,8.1
	c8.4,0,15.8-4.4,19.9-11.1c2.2-3.6,3.5-7.8,3.5-12.3C1041.8,265,1039.1,259,1034.7,254.8z"/>
<path fill="none" stroke="#E8E8E8" stroke-miterlimit="10" d="M1084.7,254.8l7.8-7.4c-4.2-4.2-10.1-6.9-16.6-6.9
	c-8.4,0-15.8,4.4-19.9,11.1c-2.2,3.6-3.5,7.8-3.5,12.3c0,6,2.3,11.5,6,15.6l-7.8,7.4c4.3,4.9,10.6,8.1,17.7,8.1
	c8.4,0,15.8-4.4,19.9-11.1c2.2-3.6,3.5-7.8,3.5-12.3C1091.8,265,1089.1,259,1084.7,254.8z"/>
</svg>
