<!-- Generator: Adobe Illustrator 18.1.0, SVG Export Plug-In  -->
<svg version="1.1"
	 xmlns="http://www.w3.org/2000/svg" xmlns:xlink="http://www.w3.org/1999/xlink" xmlns:a="http://ns.adobe.com/AdobeSVGViewerExtensions/3.0/"
	 x="0px" y="0px" width="356.1px" height="360.1px" viewBox="0 0 356.1 360.1" enable-background="new 0 0 356.1 360.1"
	 xml:space="preserve">
<defs>
</defs>
<g>
	<path fill="none" stroke="#F4F4F4" stroke-width="5" stroke-miterlimit="10" d="M76.6,55.8c7.4,19.3,12.3,40.2,22.9,57.6
		c13.6,22.2,26.6,42.7,14,75.5c-4.2-28.6-5-53.8-37.5-64.3c0,33.7-1.8,64.6,0.5,95.2c2.5,33.2-25.8,52.1-48,55.8
		c-7.5,1.2-19.3-2.5-23.4-8.1c-4-5.4-3.1-17.4,0-24.5c8.2-18.7,28.6-28.1,61.6-31c0-51.9,0-104,0-156.1
		C70.1,55.8,73.4,55.8,76.6,55.8z"/>
	<path fill="none" stroke="#F4F4F4" stroke-width="5" stroke-miterlimit="10" d="M311.6,137.6c7.4,19.3,12.3,40.2,22.9,57.6
		c13.6,22.2,26.6,42.7,14,75.5c-4.2-28.6-5-53.8-37.5-64.3c0,33.7-1.8,64.6,0.5,95.2c2.5,33.2-25.8,52.1-48,55.8
		c-7.5,1.2-19.3-2.5-23.4-8.1c-4-5.4-3.1-17.4,0-24.5c8.2-18.7,28.6-28.1,61.6-31c0-51.9,0-104,0-156.1
		C305,137.6,308.3,137.6,311.6,137.6z"/>
	<path fill="none" stroke="#F4F4F4" stroke-width="5" stroke-miterlimit="10" d="M218.5,2.5c7.4,19.3,12.3,40.2,22.9,57.6
		c13.6,22.2,26.6,42.7,14,75.5c-4.2-28.6-5-53.8-37.5-64.3c0,33.7-1.8,64.6,0.5,95.2c2.5,33.2-25.8,52.1-48,55.8
		c-7.5,1.2-19.3-2.5-23.4-8.1c-4-5.4-3.1-17.4,0-24.5c8.2-18.7,28.6-28.1,61.6-31c0-51.9,0-104,0-156.1C212,2.5,215.3,2.5,218.5,2.5
		z"/>
</g>
</svg>
