<!-- Generator: Adobe Illustrator 18.1.0, SVG Export Plug-In  -->
<svg version="1.1"
	 xmlns="http://www.w3.org/2000/svg" xmlns:xlink="http://www.w3.org/1999/xlink" xmlns:a="http://ns.adobe.com/AdobeSVGViewerExtensions/3.0/"
	 x="0px" y="0px" width="2358.5px" height="1007.3px" viewBox="0 0 2358.5 1007.3" enable-background="new 0 0 2358.5 1007.3"
	 xml:space="preserve">
<defs>
</defs>
<path fill="none" stroke="#E8E8E8" stroke-width="2.1184" stroke-miterlimit="10" d="M116,412.6l16.6-15.7c-9-9-21.4-14.6-35.1-14.6
	c-17.8,0-33.5,9.4-42.2,23.6c-4.7,7.6-7.4,16.5-7.4,26.1c0,12.7,4.8,24.3,12.6,33.1l-16.6,15.7c9.1,10.5,22.5,17.1,37.5,17.1
	c17.8,0,33.5-9.4,42.2-23.6c4.7-7.6,7.4-16.5,7.4-26.1C131,434.2,125.2,421.6,116,412.6z"/>
<path fill="none" stroke="#E8E8E8" stroke-width="2.1184" stroke-miterlimit="10" d="M221.9,412.6l16.6-15.7
	c-9-9-21.4-14.6-35.1-14.6c-17.8,0-33.5,9.4-42.2,23.6c-4.7,7.6-7.4,16.5-7.4,26.1c0,12.7,4.8,24.3,12.6,33.1l-16.6,15.7
	c9.1,10.5,22.5,17.1,37.5,17.1c17.8,0,33.5-9.4,42.2-23.6c4.7-7.6,7.4-16.5,7.4-26.1C236.9,434.2,231.1,421.6,221.9,412.6z"/>
<path fill="none" stroke="#E8E8E8" stroke-width="2.1184" stroke-miterlimit="10" d="M327.8,412.6l16.6-15.7
	c-9-9-21.4-14.6-35.1-14.6c-17.8,0-33.5,9.4-42.2,23.6c-4.7,7.6-7.4,16.5-7.4,26.1c0,12.7,4.8,24.3,12.6,33.1l-16.6,15.7
	c9.1,10.5,22.5,17.1,37.5,17.1c17.8,0,33.5-9.4,42.2-23.6c4.7-7.6,7.4-16.5,7.4-26.1C342.8,434.2,337.1,421.6,327.8,412.6z"/>
<path fill="none" stroke="#E8E8E8" stroke-width="2.1184" stroke-miterlimit="10" d="M433.7,412.6l16.6-15.7
	c-9-9-21.4-14.6-35.1-14.6c-17.8,0-33.5,9.4-42.2,23.6c-4.7,7.6-7.4,16.5-7.4,26.1c0,12.7,4.8,24.3,12.6,33.1l-16.6,15.7
	c9.1,10.5,22.5,17.1,37.5,17.1c17.8,0,33.5-9.4,42.2-23.6c4.7-7.6,7.4-16.5,7.4-26.1C448.7,434.2,443,421.6,433.7,412.6z"/>
<path fill="none" stroke="#E8E8E8" stroke-width="2.1184" stroke-miterlimit="10" d="M73.6,285.5l16.6-15.7
	c-9-9-21.4-14.6-35.1-14.6c-17.8,0-33.5,9.4-42.2,23.6c-4.7,7.6-7.4,16.5-7.4,26.1c0,12.7,4.8,24.3,12.6,33.1L1.5,353.6
	c9.1,10.5,22.5,17.1,37.5,17.1c17.8,0,33.5-9.4,42.2-23.6c4.7-7.6,7.4-16.5,7.4-26.1C88.6,307.1,82.8,294.5,73.6,285.5z"/>
<path fill="none" stroke="#E8E8E8" stroke-width="2.1184" stroke-miterlimit="10" d="M179.5,285.5l16.6-15.7
	c-9-9-21.4-14.6-35.1-14.6c-17.8,0-33.5,9.4-42.2,23.6c-4.7,7.6-7.4,16.5-7.4,26.1c0,12.7,4.8,24.3,12.6,33.1l-16.6,15.7
	c9.1,10.5,22.5,17.1,37.5,17.1c17.8,0,33.5-9.4,42.2-23.6c4.7-7.6,7.4-16.5,7.4-26.1C194.5,307.1,188.8,294.5,179.5,285.5z"/>
<path fill="none" stroke="#E8E8E8" stroke-width="2.1184" stroke-miterlimit="10" d="M285.4,285.5l16.6-15.7
	c-9-9-21.4-14.6-35.1-14.6c-17.8,0-33.5,9.4-42.2,23.6c-4.7,7.6-7.4,16.5-7.4,26.1c0,12.7,4.8,24.3,12.6,33.1l-16.6,15.7
	c9.1,10.5,22.5,17.1,37.5,17.1c17.8,0,33.5-9.4,42.2-23.6c4.7-7.6,7.4-16.5,7.4-26.1C300.4,307.1,294.7,294.5,285.4,285.5z"/>
<path fill="none" stroke="#E8E8E8" stroke-width="2.1184" stroke-miterlimit="10" d="M391.4,285.5l16.6-15.7
	c-9-9-21.4-14.6-35.1-14.6c-17.8,0-33.5,9.4-42.2,23.6c-4.7,7.6-7.4,16.5-7.4,26.1c0,12.7,4.8,24.3,12.6,33.1l-16.6,15.7
	c9.1,10.5,22.5,17.1,37.5,17.1c17.8,0,33.5-9.4,42.2-23.6c4.7-7.6,7.4-16.5,7.4-26.1C406.4,307.1,400.6,294.5,391.4,285.5z"/>
<path fill="none" stroke="#E8E8E8" stroke-width="2.1184" stroke-miterlimit="10" d="M116,158.4l16.6-15.7c-9-9-21.4-14.6-35.1-14.6
	c-17.8,0-33.5,9.4-42.2,23.6c-4.7,7.6-7.4,16.5-7.4,26.1c0,12.7,4.8,24.3,12.6,33.1l-16.6,15.7c9.1,10.5,22.5,17.1,37.5,17.1
	c17.8,0,33.5-9.4,42.2-23.6c4.7-7.6,7.4-16.5,7.4-26.1C131,180,125.2,167.4,116,158.4z"/>
<path fill="none" stroke="#E8E8E8" stroke-width="2.1184" stroke-miterlimit="10" d="M221.9,158.4l16.6-15.7
	c-9-9-21.4-14.6-35.1-14.6c-17.8,0-33.5,9.4-42.2,23.6c-4.7,7.6-7.4,16.5-7.4,26.1c0,12.7,4.8,24.3,12.6,33.1l-16.6,15.7
	c9.1,10.5,22.5,17.1,37.5,17.1c17.8,0,33.5-9.4,42.2-23.6c4.7-7.6,7.4-16.5,7.4-26.1C236.9,180,231.1,167.4,221.9,158.4z"/>
<path fill="none" stroke="#E8E8E8" stroke-width="2.1184" stroke-miterlimit="10" d="M327.8,158.4l16.6-15.7
	c-9-9-21.4-14.6-35.1-14.6c-17.8,0-33.5,9.4-42.2,23.6c-4.7,7.6-7.4,16.5-7.4,26.1c0,12.7,4.8,24.3,12.6,33.1l-16.6,15.7
	c9.1,10.5,22.5,17.1,37.5,17.1c17.8,0,33.5-9.4,42.2-23.6c4.7-7.6,7.4-16.5,7.4-26.1C342.8,180,337.1,167.4,327.8,158.4z"/>
<path fill="none" stroke="#E8E8E8" stroke-width="2.1184" stroke-miterlimit="10" d="M433.7,158.4l16.6-15.7
	c-9-9-21.4-14.6-35.1-14.6c-17.8,0-33.5,9.4-42.2,23.6c-4.7,7.6-7.4,16.5-7.4,26.1c0,12.7,4.8,24.3,12.6,33.1l-16.6,15.7
	c9.1,10.5,22.5,17.1,37.5,17.1c17.8,0,33.5-9.4,42.2-23.6c4.7-7.6,7.4-16.5,7.4-26.1C448.7,180,443,167.4,433.7,158.4z"/>
<path fill="none" stroke="#E8E8E8" stroke-width="2.1184" stroke-miterlimit="10" d="M73.6,31.3l16.6-15.7c-9-9-21.4-14.6-35.1-14.6
	c-17.8,0-33.5,9.4-42.2,23.6c-4.7,7.6-7.4,16.5-7.4,26.1c0,12.7,4.8,24.3,12.6,33.1L1.5,99.4c9.1,10.5,22.5,17.1,37.5,17.1
	c17.8,0,33.5-9.4,42.2-23.6c4.7-7.6,7.4-16.5,7.4-26.1C88.6,52.9,82.8,40.3,73.6,31.3z"/>
<path fill="none" stroke="#E8E8E8" stroke-width="2.1184" stroke-miterlimit="10" d="M179.5,31.3l16.6-15.7
	c-9-9-21.4-14.6-35.1-14.6c-17.8,0-33.5,9.4-42.2,23.6c-4.7,7.6-7.4,16.5-7.4,26.1c0,12.7,4.8,24.3,12.6,33.1l-16.6,15.7
	c9.1,10.5,22.5,17.1,37.5,17.1c17.8,0,33.5-9.4,42.2-23.6c4.7-7.6,7.4-16.5,7.4-26.1C194.5,52.9,188.8,40.3,179.5,31.3z"/>
<path fill="none" stroke="#E8E8E8" stroke-width="2.1184" stroke-miterlimit="10" d="M285.4,31.3l16.6-15.7
	c-9-9-21.4-14.6-35.1-14.6c-17.8,0-33.5,9.4-42.2,23.6c-4.7,7.6-7.4,16.5-7.4,26.1c0,12.7,4.8,24.3,12.6,33.1l-16.6,15.7
	c9.1,10.5,22.5,17.1,37.5,17.1c17.8,0,33.5-9.4,42.2-23.6c4.7-7.6,7.4-16.5,7.4-26.1C300.4,52.9,294.7,40.3,285.4,31.3z"/>
<path fill="none" stroke="#E8E8E8" stroke-width="2.1184" stroke-miterlimit="10" d="M391.4,31.3L408,15.6c-9-9-21.4-14.6-35.1-14.6
	c-17.8,0-33.5,9.4-42.2,23.6c-4.7,7.6-7.4,16.5-7.4,26.1c0,12.7,4.8,24.3,12.6,33.1l-16.6,15.7c9.1,10.5,22.5,17.1,37.5,17.1
	c17.8,0,33.5-9.4,42.2-23.6c4.7-7.6,7.4-16.5,7.4-26.1C406.4,52.9,400.6,40.3,391.4,31.3z"/>
<path fill="none" stroke="#E8E8E8" stroke-width="2.1184" stroke-miterlimit="10" d="M116,921.1l16.6-15.7c-9-9-21.4-14.6-35.1-14.6
	c-17.8,0-33.5,9.4-42.2,23.6c-4.7,7.6-7.4,16.5-7.4,26.1c0,12.7,4.8,24.3,12.6,33.1l-16.6,15.7c9.1,10.5,22.5,17.1,37.5,17.1
	c17.8,0,33.5-9.4,42.2-23.6c4.7-7.6,7.4-16.5,7.4-26.1C131,942.7,125.2,930.1,116,921.1z"/>
<path fill="none" stroke="#E8E8E8" stroke-width="2.1184" stroke-miterlimit="10" d="M221.9,921.1l16.6-15.7
	c-9-9-21.4-14.6-35.1-14.6c-17.8,0-33.5,9.4-42.2,23.6c-4.7,7.6-7.4,16.5-7.4,26.1c0,12.7,4.8,24.3,12.6,33.1l-16.6,15.7
	c9.1,10.5,22.5,17.1,37.5,17.1c17.8,0,33.5-9.4,42.2-23.6c4.7-7.6,7.4-16.5,7.4-26.1C236.9,942.7,231.1,930.1,221.9,921.1z"/>
<path fill="none" stroke="#E8E8E8" stroke-width="2.1184" stroke-miterlimit="10" d="M327.8,921.1l16.6-15.7
	c-9-9-21.4-14.6-35.1-14.6c-17.8,0-33.5,9.4-42.2,23.6c-4.7,7.6-7.4,16.5-7.4,26.1c0,12.7,4.8,24.3,12.6,33.1l-16.6,15.7
	c9.1,10.5,22.5,17.1,37.5,17.1c17.8,0,33.5-9.4,42.2-23.6c4.7-7.6,7.4-16.5,7.4-26.1C342.8,942.7,337.1,930.1,327.8,921.1z"/>
<path fill="none" stroke="#E8E8E8" stroke-width="2.1184" stroke-miterlimit="10" d="M433.7,921.1l16.6-15.7
	c-9-9-21.4-14.6-35.1-14.6c-17.8,0-33.5,9.4-42.2,23.6c-4.7,7.6-7.4,16.5-7.4,26.1c0,12.7,4.8,24.3,12.6,33.1l-16.6,15.7
	c9.1,10.5,22.5,17.1,37.5,17.1c17.8,0,33.5-9.4,42.2-23.6c4.7-7.6,7.4-16.5,7.4-26.1C448.7,942.7,443,930.1,433.7,921.1z"/>
<path fill="none" stroke="#E8E8E8" stroke-width="2.1184" stroke-miterlimit="10" d="M73.6,793.9l16.6-15.7
	c-9-9-21.4-14.6-35.1-14.6c-17.8,0-33.5,9.4-42.2,23.6c-4.7,7.6-7.4,16.5-7.4,26.1c0,12.7,4.8,24.3,12.6,33.1L1.5,862.1
	c9.1,10.5,22.5,17.1,37.5,17.1c17.8,0,33.5-9.4,42.2-23.6c4.7-7.6,7.4-16.5,7.4-26.1C88.6,815.6,82.8,803,73.6,793.9z"/>
<path fill="none" stroke="#E8E8E8" stroke-width="2.1184" stroke-miterlimit="10" d="M179.5,793.9l16.6-15.7
	c-9-9-21.4-14.6-35.1-14.6c-17.8,0-33.5,9.4-42.2,23.6c-4.7,7.6-7.4,16.5-7.4,26.1c0,12.7,4.8,24.3,12.6,33.1l-16.6,15.7
	c9.1,10.5,22.5,17.1,37.5,17.1c17.8,0,33.5-9.4,42.2-23.6c4.7-7.6,7.4-16.5,7.4-26.1C194.5,815.6,188.8,803,179.5,793.9z"/>
<path fill="none" stroke="#E8E8E8" stroke-width="2.1184" stroke-miterlimit="10" d="M285.4,793.9l16.6-15.7
	c-9-9-21.4-14.6-35.1-14.6c-17.8,0-33.5,9.4-42.2,23.6c-4.7,7.6-7.4,16.5-7.4,26.1c0,12.7,4.8,24.3,12.6,33.1l-16.6,15.7
	c9.1,10.5,22.5,17.1,37.5,17.1c17.8,0,33.5-9.4,42.2-23.6c4.7-7.6,7.4-16.5,7.4-26.1C300.4,815.6,294.7,803,285.4,793.9z"/>
<path fill="none" stroke="#E8E8E8" stroke-width="2.1184" stroke-miterlimit="10" d="M391.4,793.9l16.6-15.7
	c-9-9-21.4-14.6-35.1-14.6c-17.8,0-33.5,9.4-42.2,23.6c-4.7,7.6-7.4,16.5-7.4,26.1c0,12.7,4.8,24.3,12.6,33.1l-16.6,15.7
	c9.1,10.5,22.5,17.1,37.5,17.1c17.8,0,33.5-9.4,42.2-23.6c4.7-7.6,7.4-16.5,7.4-26.1C406.4,815.6,400.6,803,391.4,793.9z"/>
<path fill="none" stroke="#E8E8E8" stroke-width="2.1184" stroke-miterlimit="10" d="M116,666.8l16.6-15.7c-9-9-21.4-14.6-35.1-14.6
	c-17.8,0-33.5,9.4-42.2,23.6c-4.7,7.6-7.4,16.5-7.4,26.1c0,12.7,4.8,24.3,12.6,33.1L43.8,735c9.1,10.5,22.5,17.1,37.5,17.1
	c17.8,0,33.5-9.4,42.2-23.6c4.7-7.6,7.4-16.5,7.4-26.1C131,688.5,125.2,675.9,116,666.8z"/>
<path fill="none" stroke="#E8E8E8" stroke-width="2.1184" stroke-miterlimit="10" d="M221.9,666.8l16.6-15.7
	c-9-9-21.4-14.6-35.1-14.6c-17.8,0-33.5,9.4-42.2,23.6c-4.7,7.6-7.4,16.5-7.4,26.1c0,12.7,4.8,24.3,12.6,33.1L149.8,735
	c9.1,10.5,22.5,17.1,37.5,17.1c17.8,0,33.5-9.4,42.2-23.6c4.7-7.6,7.4-16.5,7.4-26.1C236.9,688.5,231.1,675.9,221.9,666.8z"/>
<path fill="none" stroke="#E8E8E8" stroke-width="2.1184" stroke-miterlimit="10" d="M327.8,666.8l16.6-15.7
	c-9-9-21.4-14.6-35.1-14.6c-17.8,0-33.5,9.4-42.2,23.6c-4.7,7.6-7.4,16.5-7.4,26.1c0,12.7,4.8,24.3,12.6,33.1L255.7,735
	c9.1,10.5,22.5,17.1,37.5,17.1c17.8,0,33.5-9.4,42.2-23.6c4.7-7.6,7.4-16.5,7.4-26.1C342.8,688.5,337.1,675.9,327.8,666.8z"/>
<path fill="none" stroke="#E8E8E8" stroke-width="2.1184" stroke-miterlimit="10" d="M433.7,666.8l16.6-15.7
	c-9-9-21.4-14.6-35.1-14.6c-17.8,0-33.5,9.4-42.2,23.6c-4.7,7.6-7.4,16.5-7.4,26.1c0,12.7,4.8,24.3,12.6,33.1L361.6,735
	c9.1,10.5,22.5,17.1,37.5,17.1c17.8,0,33.5-9.4,42.2-23.6c4.7-7.6,7.4-16.5,7.4-26.1C448.7,688.5,443,675.9,433.7,666.8z"/>
<path fill="none" stroke="#E8E8E8" stroke-width="2.1184" stroke-miterlimit="10" d="M73.6,539.7L90.2,524c-9-9-21.4-14.6-35.1-14.6
	c-17.8,0-33.5,9.4-42.2,23.6c-4.7,7.6-7.4,16.5-7.4,26.1c0,12.7,4.8,24.3,12.6,33.1L1.5,607.9c9.1,10.5,22.5,17.1,37.5,17.1
	c17.8,0,33.5-9.4,42.2-23.6c4.7-7.6,7.4-16.5,7.4-26.1C88.6,561.3,82.8,548.8,73.6,539.7z"/>
<path fill="none" stroke="#E8E8E8" stroke-width="2.1184" stroke-miterlimit="10" d="M179.5,539.7l16.6-15.7
	c-9-9-21.4-14.6-35.1-14.6c-17.8,0-33.5,9.4-42.2,23.6c-4.7,7.6-7.4,16.5-7.4,26.1c0,12.7,4.8,24.3,12.6,33.1l-16.6,15.7
	c9.1,10.5,22.5,17.1,37.5,17.1c17.8,0,33.5-9.4,42.2-23.6c4.7-7.6,7.4-16.5,7.4-26.1C194.5,561.3,188.8,548.8,179.5,539.7z"/>
<path fill="none" stroke="#E8E8E8" stroke-width="2.1184" stroke-miterlimit="10" d="M285.4,539.7l16.6-15.7
	c-9-9-21.4-14.6-35.1-14.6c-17.8,0-33.5,9.4-42.2,23.6c-4.7,7.6-7.4,16.5-7.4,26.1c0,12.7,4.8,24.3,12.6,33.1l-16.6,15.7
	c9.1,10.5,22.5,17.1,37.5,17.1c17.8,0,33.5-9.4,42.2-23.6c4.7-7.6,7.4-16.5,7.4-26.1C300.4,561.3,294.7,548.8,285.4,539.7z"/>
<path fill="none" stroke="#E8E8E8" stroke-width="2.1184" stroke-miterlimit="10" d="M391.4,539.7L408,524c-9-9-21.4-14.6-35.1-14.6
	c-17.8,0-33.5,9.4-42.2,23.6c-4.7,7.6-7.4,16.5-7.4,26.1c0,12.7,4.8,24.3,12.6,33.1l-16.6,15.7c9.1,10.5,22.5,17.1,37.5,17.1
	c17.8,0,33.5-9.4,42.2-23.6c4.7-7.6,7.4-16.5,7.4-26.1C406.4,561.3,400.6,548.8,391.4,539.7z"/>
<path fill="none" stroke="#E8E8E8" stroke-width="2.1184" stroke-miterlimit="10" d="M539.6,412.6l16.6-15.7
	c-9-9-21.4-14.6-35.1-14.6c-17.8,0-33.5,9.4-42.2,23.6c-4.7,7.6-7.4,16.5-7.4,26.1c0,12.7,4.8,24.3,12.6,33.1l-16.6,15.7
	c9.1,10.5,22.5,17.1,37.5,17.1c17.8,0,33.5-9.4,42.2-23.6c4.7-7.6,7.4-16.5,7.4-26.1C554.6,434.2,548.9,421.6,539.6,412.6z"/>
<path fill="none" stroke="#E8E8E8" stroke-width="2.1184" stroke-miterlimit="10" d="M645.6,412.6l16.6-15.7
	c-9-9-21.4-14.6-35.1-14.6c-17.8,0-33.5,9.4-42.2,23.6c-4.7,7.6-7.4,16.5-7.4,26.1c0,12.7,4.8,24.3,12.6,33.1l-16.6,15.7
	c9.1,10.5,22.5,17.1,37.5,17.1c17.8,0,33.5-9.4,42.2-23.6c4.7-7.6,7.4-16.5,7.4-26.1C660.6,434.2,654.8,421.6,645.6,412.6z"/>
<path fill="none" stroke="#E8E8E8" stroke-width="2.1184" stroke-miterlimit="10" d="M751.5,412.6l16.6-15.7
	c-9-9-21.4-14.6-35.1-14.6c-17.8,0-33.5,9.4-42.2,23.6c-4.7,7.6-7.4,16.5-7.4,26.1c0,12.7,4.8,24.3,12.6,33.1l-16.6,15.7
	c9.1,10.5,22.5,17.1,37.5,17.1c17.8,0,33.5-9.4,42.2-23.6c4.7-7.6,7.4-16.5,7.4-26.1C766.5,434.2,760.7,421.6,751.5,412.6z"/>
<path fill="none" stroke="#E8E8E8" stroke-width="2.1184" stroke-miterlimit="10" d="M857.4,412.6l16.6-15.7
	c-9-9-21.4-14.6-35.1-14.6c-17.8,0-33.5,9.4-42.2,23.6c-4.7,7.6-7.4,16.5-7.4,26.1c0,12.7,4.8,24.3,12.6,33.1l-16.6,15.7
	c9.1,10.5,22.5,17.1,37.5,17.1c17.8,0,33.5-9.4,42.2-23.6c4.7-7.6,7.4-16.5,7.4-26.1C872.4,434.2,866.7,421.6,857.4,412.6z"/>
<path fill="none" stroke="#E8E8E8" stroke-width="2.1184" stroke-miterlimit="10" d="M497.3,285.5l16.6-15.7
	c-9-9-21.4-14.6-35.1-14.6c-17.8,0-33.5,9.4-42.2,23.6c-4.7,7.6-7.4,16.5-7.4,26.1c0,12.7,4.8,24.3,12.6,33.1l-16.6,15.7
	c9.1,10.5,22.5,17.1,37.5,17.1c17.8,0,33.5-9.4,42.2-23.6c4.7-7.6,7.4-16.5,7.4-26.1C512.3,307.1,506.5,294.5,497.3,285.5z"/>
<path fill="none" stroke="#E8E8E8" stroke-width="2.1184" stroke-miterlimit="10" d="M603.2,285.5l16.6-15.7
	c-9-9-21.4-14.6-35.1-14.6c-17.8,0-33.5,9.4-42.2,23.6c-4.7,7.6-7.4,16.5-7.4,26.1c0,12.7,4.8,24.3,12.6,33.1l-16.6,15.7
	c9.1,10.5,22.5,17.1,37.5,17.1c17.8,0,33.5-9.4,42.2-23.6c4.7-7.6,7.4-16.5,7.4-26.1C618.2,307.1,612.5,294.5,603.2,285.5z"/>
<path fill="none" stroke="#E8E8E8" stroke-width="2.1184" stroke-miterlimit="10" d="M709.1,285.5l16.6-15.7
	c-9-9-21.4-14.6-35.1-14.6c-17.8,0-33.5,9.4-42.2,23.6c-4.7,7.6-7.4,16.5-7.4,26.1c0,12.7,4.8,24.3,12.6,33.1L637,353.6
	c9.1,10.5,22.5,17.1,37.5,17.1c17.8,0,33.5-9.4,42.2-23.6c4.7-7.6,7.4-16.5,7.4-26.1C724.1,307.1,718.4,294.5,709.1,285.5z"/>
<path fill="none" stroke="#E8E8E8" stroke-width="2.1184" stroke-miterlimit="10" d="M815,285.5l16.6-15.7c-9-9-21.4-14.6-35.1-14.6
	c-17.8,0-33.5,9.4-42.2,23.6c-4.7,7.6-7.4,16.5-7.4,26.1c0,12.7,4.8,24.3,12.6,33.1l-16.6,15.7c9.1,10.5,22.5,17.1,37.5,17.1
	c17.8,0,33.5-9.4,42.2-23.6c4.7-7.6,7.4-16.5,7.4-26.1C830,307.1,824.3,294.5,815,285.5z"/>
<path fill="none" stroke="#E8E8E8" stroke-width="2.1184" stroke-miterlimit="10" d="M539.6,158.4l16.6-15.7
	c-9-9-21.4-14.6-35.1-14.6c-17.8,0-33.5,9.4-42.2,23.6c-4.7,7.6-7.4,16.5-7.4,26.1c0,12.7,4.8,24.3,12.6,33.1l-16.6,15.7
	c9.1,10.5,22.5,17.1,37.5,17.1c17.8,0,33.5-9.4,42.2-23.6c4.7-7.6,7.4-16.5,7.4-26.1C554.6,180,548.9,167.4,539.6,158.4z"/>
<path fill="none" stroke="#E8E8E8" stroke-width="2.1184" stroke-miterlimit="10" d="M645.6,158.4l16.6-15.7
	c-9-9-21.4-14.6-35.1-14.6c-17.8,0-33.5,9.4-42.2,23.6c-4.7,7.6-7.4,16.5-7.4,26.1c0,12.7,4.8,24.3,12.6,33.1l-16.6,15.7
	c9.1,10.5,22.5,17.1,37.5,17.1c17.8,0,33.5-9.4,42.2-23.6c4.7-7.6,7.4-16.5,7.4-26.1C660.6,180,654.8,167.4,645.6,158.4z"/>
<path fill="none" stroke="#E8E8E8" stroke-width="2.1184" stroke-miterlimit="10" d="M751.5,158.4l16.6-15.7
	c-9-9-21.4-14.6-35.1-14.6c-17.8,0-33.5,9.4-42.2,23.6c-4.7,7.6-7.4,16.5-7.4,26.1c0,12.7,4.8,24.3,12.6,33.1l-16.6,15.7
	c9.1,10.5,22.5,17.1,37.5,17.1c17.8,0,33.5-9.4,42.2-23.6c4.7-7.6,7.4-16.5,7.4-26.1C766.5,180,760.7,167.4,751.5,158.4z"/>
<path fill="none" stroke="#E8E8E8" stroke-width="2.1184" stroke-miterlimit="10" d="M857.4,158.4l16.6-15.7
	c-9-9-21.4-14.6-35.1-14.6c-17.8,0-33.5,9.4-42.2,23.6c-4.7,7.6-7.4,16.5-7.4,26.1c0,12.7,4.8,24.3,12.6,33.1l-16.6,15.7
	c9.1,10.5,22.5,17.1,37.5,17.1c17.8,0,33.5-9.4,42.2-23.6c4.7-7.6,7.4-16.5,7.4-26.1C872.4,180,866.7,167.4,857.4,158.4z"/>
<path fill="none" stroke="#E8E8E8" stroke-width="2.1184" stroke-miterlimit="10" d="M497.3,31.3l16.6-15.7
	c-9-9-21.4-14.6-35.1-14.6c-17.8,0-33.5,9.4-42.2,23.6c-4.7,7.6-7.4,16.5-7.4,26.1c0,12.7,4.8,24.3,12.6,33.1l-16.6,15.7
	c9.1,10.5,22.5,17.1,37.5,17.1c17.8,0,33.5-9.4,42.2-23.6c4.7-7.6,7.4-16.5,7.4-26.1C512.3,52.9,506.5,40.3,497.3,31.3z"/>
<path fill="none" stroke="#E8E8E8" stroke-width="2.1184" stroke-miterlimit="10" d="M603.2,31.3l16.6-15.7
	c-9-9-21.4-14.6-35.1-14.6c-17.8,0-33.5,9.4-42.2,23.6c-4.7,7.6-7.4,16.5-7.4,26.1c0,12.7,4.8,24.3,12.6,33.1l-16.6,15.7
	c9.1,10.5,22.5,17.1,37.5,17.1c17.8,0,33.5-9.4,42.2-23.6c4.7-7.6,7.4-16.5,7.4-26.1C618.2,52.9,612.5,40.3,603.2,31.3z"/>
<path fill="none" stroke="#E8E8E8" stroke-width="2.1184" stroke-miterlimit="10" d="M709.1,31.3l16.6-15.7
	c-9-9-21.4-14.6-35.1-14.6c-17.8,0-33.5,9.4-42.2,23.6c-4.7,7.6-7.4,16.5-7.4,26.1c0,12.7,4.8,24.3,12.6,33.1L637,99.4
	c9.1,10.5,22.5,17.1,37.5,17.1c17.8,0,33.5-9.4,42.2-23.6c4.7-7.6,7.4-16.5,7.4-26.1C724.1,52.9,718.4,40.3,709.1,31.3z"/>
<path fill="none" stroke="#E8E8E8" stroke-width="2.1184" stroke-miterlimit="10" d="M815,31.3l16.6-15.7c-9-9-21.4-14.6-35.1-14.6
	c-17.8,0-33.5,9.4-42.2,23.6c-4.7,7.6-7.4,16.5-7.4,26.1c0,12.7,4.8,24.3,12.6,33.1l-16.6,15.7c9.1,10.5,22.5,17.1,37.5,17.1
	c17.8,0,33.5-9.4,42.2-23.6c4.7-7.6,7.4-16.5,7.4-26.1C830,52.9,824.3,40.3,815,31.3z"/>
<path fill="none" stroke="#E8E8E8" stroke-width="2.1184" stroke-miterlimit="10" d="M539.6,921.1l16.6-15.7
	c-9-9-21.4-14.6-35.1-14.6c-17.8,0-33.5,9.4-42.2,23.6c-4.7,7.6-7.4,16.5-7.4,26.1c0,12.7,4.8,24.3,12.6,33.1l-16.6,15.7
	c9.1,10.5,22.5,17.1,37.5,17.1c17.8,0,33.5-9.4,42.2-23.6c4.7-7.6,7.4-16.5,7.4-26.1C554.6,942.7,548.9,930.1,539.6,921.1z"/>
<path fill="none" stroke="#E8E8E8" stroke-width="2.1184" stroke-miterlimit="10" d="M645.6,921.1l16.6-15.7
	c-9-9-21.4-14.6-35.1-14.6c-17.8,0-33.5,9.4-42.2,23.6c-4.7,7.6-7.4,16.5-7.4,26.1c0,12.7,4.8,24.3,12.6,33.1l-16.6,15.7
	c9.1,10.5,22.5,17.1,37.5,17.1c17.8,0,33.5-9.4,42.2-23.6c4.7-7.6,7.4-16.5,7.4-26.1C660.6,942.7,654.8,930.1,645.6,921.1z"/>
<path fill="none" stroke="#E8E8E8" stroke-width="2.1184" stroke-miterlimit="10" d="M751.5,921.1l16.6-15.7
	c-9-9-21.4-14.6-35.1-14.6c-17.8,0-33.5,9.4-42.2,23.6c-4.7,7.6-7.4,16.5-7.4,26.1c0,12.7,4.8,24.3,12.6,33.1l-16.6,15.7
	c9.1,10.5,22.5,17.1,37.5,17.1c17.8,0,33.5-9.4,42.2-23.6c4.7-7.6,7.4-16.5,7.4-26.1C766.5,942.7,760.7,930.1,751.5,921.1z"/>
<path fill="none" stroke="#E8E8E8" stroke-width="2.1184" stroke-miterlimit="10" d="M857.4,921.1l16.6-15.7
	c-9-9-21.4-14.6-35.1-14.6c-17.8,0-33.5,9.4-42.2,23.6c-4.7,7.6-7.4,16.5-7.4,26.1c0,12.7,4.8,24.3,12.6,33.1l-16.6,15.7
	c9.1,10.5,22.5,17.1,37.5,17.1c17.8,0,33.5-9.4,42.2-23.6c4.7-7.6,7.4-16.5,7.4-26.1C872.4,942.7,866.7,930.1,857.4,921.1z"/>
<path fill="none" stroke="#E8E8E8" stroke-width="2.1184" stroke-miterlimit="10" d="M497.3,793.9l16.6-15.7
	c-9-9-21.4-14.6-35.1-14.6c-17.8,0-33.5,9.4-42.2,23.6c-4.7,7.6-7.4,16.5-7.4,26.1c0,12.7,4.8,24.3,12.6,33.1l-16.6,15.7
	c9.1,10.5,22.5,17.1,37.5,17.1c17.8,0,33.5-9.4,42.2-23.6c4.7-7.6,7.4-16.5,7.4-26.1C512.3,815.6,506.5,803,497.3,793.9z"/>
<path fill="none" stroke="#E8E8E8" stroke-width="2.1184" stroke-miterlimit="10" d="M603.2,793.9l16.6-15.7
	c-9-9-21.4-14.6-35.1-14.6c-17.8,0-33.5,9.4-42.2,23.6c-4.7,7.6-7.4,16.5-7.4,26.1c0,12.7,4.8,24.3,12.6,33.1l-16.6,15.7
	c9.1,10.5,22.5,17.1,37.5,17.1c17.8,0,33.5-9.4,42.2-23.6c4.7-7.6,7.4-16.5,7.4-26.1C618.2,815.6,612.5,803,603.2,793.9z"/>
<path fill="none" stroke="#E8E8E8" stroke-width="2.1184" stroke-miterlimit="10" d="M709.1,793.9l16.6-15.7
	c-9-9-21.4-14.6-35.1-14.6c-17.8,0-33.5,9.4-42.2,23.6c-4.7,7.6-7.4,16.5-7.4,26.1c0,12.7,4.8,24.3,12.6,33.1L637,862.1
	c9.1,10.5,22.5,17.1,37.5,17.1c17.8,0,33.5-9.4,42.2-23.6c4.7-7.6,7.4-16.5,7.4-26.1C724.1,815.6,718.4,803,709.1,793.9z"/>
<path fill="none" stroke="#E8E8E8" stroke-width="2.1184" stroke-miterlimit="10" d="M815,793.9l16.6-15.7c-9-9-21.4-14.6-35.1-14.6
	c-17.8,0-33.5,9.4-42.2,23.6c-4.7,7.6-7.4,16.5-7.4,26.1c0,12.7,4.8,24.3,12.6,33.1l-16.6,15.7c9.1,10.5,22.5,17.1,37.5,17.1
	c17.8,0,33.5-9.4,42.2-23.6c4.7-7.6,7.4-16.5,7.4-26.1C830,815.6,824.3,803,815,793.9z"/>
<path fill="none" stroke="#E8E8E8" stroke-width="2.1184" stroke-miterlimit="10" d="M539.6,666.8l16.6-15.7
	c-9-9-21.4-14.6-35.1-14.6c-17.8,0-33.5,9.4-42.2,23.6c-4.7,7.6-7.4,16.5-7.4,26.1c0,12.7,4.8,24.3,12.6,33.1L467.5,735
	C476.6,745.4,490,752,505,752c17.8,0,33.5-9.4,42.2-23.6c4.7-7.6,7.4-16.5,7.4-26.1C554.6,688.5,548.9,675.9,539.6,666.8z"/>
<path fill="none" stroke="#E8E8E8" stroke-width="2.1184" stroke-miterlimit="10" d="M645.6,666.8l16.6-15.7
	c-9-9-21.4-14.6-35.1-14.6c-17.8,0-33.5,9.4-42.2,23.6c-4.7,7.6-7.4,16.5-7.4,26.1c0,12.7,4.8,24.3,12.6,33.1L573.4,735
	c9.1,10.5,22.5,17.1,37.5,17.1c17.8,0,33.5-9.4,42.2-23.6c4.7-7.6,7.4-16.5,7.4-26.1C660.6,688.5,654.8,675.9,645.6,666.8z"/>
<path fill="none" stroke="#E8E8E8" stroke-width="2.1184" stroke-miterlimit="10" d="M751.5,666.8l16.6-15.7
	c-9-9-21.4-14.6-35.1-14.6c-17.8,0-33.5,9.4-42.2,23.6c-4.7,7.6-7.4,16.5-7.4,26.1c0,12.7,4.8,24.3,12.6,33.1L679.4,735
	c9.1,10.5,22.5,17.1,37.5,17.1c17.8,0,33.5-9.4,42.2-23.6c4.7-7.6,7.4-16.5,7.4-26.1C766.5,688.5,760.7,675.9,751.5,666.8z"/>
<path fill="none" stroke="#E8E8E8" stroke-width="2.1184" stroke-miterlimit="10" d="M857.4,666.8l16.6-15.7
	c-9-9-21.4-14.6-35.1-14.6c-17.8,0-33.5,9.4-42.2,23.6c-4.7,7.6-7.4,16.5-7.4,26.1c0,12.7,4.8,24.3,12.6,33.1L785.3,735
	c9.1,10.5,22.5,17.1,37.5,17.1c17.8,0,33.5-9.4,42.2-23.6c4.7-7.6,7.4-16.5,7.4-26.1C872.4,688.5,866.7,675.9,857.4,666.8z"/>
<path fill="none" stroke="#E8E8E8" stroke-width="2.1184" stroke-miterlimit="10" d="M497.3,539.7l16.6-15.7
	c-9-9-21.4-14.6-35.1-14.6c-17.8,0-33.5,9.4-42.2,23.6c-4.7,7.6-7.4,16.5-7.4,26.1c0,12.7,4.8,24.3,12.6,33.1l-16.6,15.7
	c9.1,10.5,22.5,17.1,37.5,17.1c17.8,0,33.5-9.4,42.2-23.6c4.7-7.6,7.4-16.5,7.4-26.1C512.3,561.3,506.5,548.8,497.3,539.7z"/>
<path fill="none" stroke="#E8E8E8" stroke-width="2.1184" stroke-miterlimit="10" d="M603.2,539.7l16.6-15.7
	c-9-9-21.4-14.6-35.1-14.6c-17.8,0-33.5,9.4-42.2,23.6c-4.7,7.6-7.4,16.5-7.4,26.1c0,12.7,4.8,24.3,12.6,33.1l-16.6,15.7
	c9.1,10.5,22.5,17.1,37.5,17.1c17.8,0,33.5-9.4,42.2-23.6c4.7-7.6,7.4-16.5,7.4-26.1C618.2,561.3,612.5,548.8,603.2,539.7z"/>
<path fill="none" stroke="#E8E8E8" stroke-width="2.1184" stroke-miterlimit="10" d="M709.1,539.7l16.6-15.7
	c-9-9-21.4-14.6-35.1-14.6c-17.8,0-33.5,9.4-42.2,23.6c-4.7,7.6-7.4,16.5-7.4,26.1c0,12.7,4.8,24.3,12.6,33.1L637,607.9
	c9.1,10.5,22.5,17.1,37.5,17.1c17.8,0,33.5-9.4,42.2-23.6c4.7-7.6,7.4-16.5,7.4-26.1C724.1,561.3,718.4,548.8,709.1,539.7z"/>
<path fill="none" stroke="#E8E8E8" stroke-width="2.1184" stroke-miterlimit="10" d="M815,539.7l16.6-15.7c-9-9-21.4-14.6-35.1-14.6
	c-17.8,0-33.5,9.4-42.2,23.6c-4.7,7.6-7.4,16.5-7.4,26.1c0,12.7,4.8,24.3,12.6,33.1l-16.6,15.7c9.1,10.5,22.5,17.1,37.5,17.1
	c17.8,0,33.5-9.4,42.2-23.6c4.7-7.6,7.4-16.5,7.4-26.1C830,561.3,824.3,548.8,815,539.7z"/>
<path fill="none" stroke="#E8E8E8" stroke-width="2.1184" stroke-miterlimit="10" d="M963.3,412.6l16.6-15.7
	c-9-9-21.4-14.6-35.1-14.6c-17.8,0-33.5,9.4-42.2,23.6c-4.7,7.6-7.4,16.5-7.4,26.1c0,12.7,4.8,24.3,12.6,33.1l-16.6,15.7
	c9.1,10.5,22.5,17.1,37.5,17.1c17.8,0,33.5-9.4,42.2-23.6c4.7-7.6,7.4-16.5,7.4-26.1C978.3,434.2,972.6,421.6,963.3,412.6z"/>
<path fill="none" stroke="#E8E8E8" stroke-width="2.1184" stroke-miterlimit="10" d="M1069.3,412.6l16.6-15.7
	c-9-9-21.4-14.6-35.1-14.6c-17.8,0-33.5,9.4-42.2,23.6c-4.7,7.6-7.4,16.5-7.4,26.1c0,12.7,4.8,24.3,12.6,33.1l-16.6,15.7
	c9.1,10.5,22.5,17.1,37.5,17.1c17.8,0,33.5-9.4,42.2-23.6c4.7-7.6,7.4-16.5,7.4-26.1C1084.3,434.2,1078.5,421.6,1069.3,412.6z"/>
<path fill="none" stroke="#E8E8E8" stroke-width="2.1184" stroke-miterlimit="10" d="M1175.2,412.6l16.6-15.7
	c-9-9-21.4-14.6-35.1-14.6c-17.8,0-33.5,9.4-42.2,23.6c-4.7,7.6-7.4,16.5-7.4,26.1c0,12.7,4.8,24.3,12.6,33.1l-16.6,15.7
	c9.1,10.5,22.5,17.1,37.5,17.1c17.8,0,33.5-9.4,42.2-23.6c4.7-7.6,7.4-16.5,7.4-26.1C1190.2,434.2,1184.4,421.6,1175.2,412.6z"/>
<path fill="none" stroke="#E8E8E8" stroke-width="2.1184" stroke-miterlimit="10" d="M1281.1,412.6l16.6-15.7
	c-9-9-21.4-14.6-35.1-14.6c-17.8,0-33.5,9.4-42.2,23.6c-4.7,7.6-7.4,16.5-7.4,26.1c0,12.7,4.8,24.3,12.6,33.1l-16.6,15.7
	c9.1,10.5,22.5,17.1,37.5,17.1c17.8,0,33.5-9.4,42.2-23.6c4.7-7.6,7.4-16.5,7.4-26.1C1296.1,434.2,1290.3,421.6,1281.1,412.6z"/>
<path fill="none" stroke="#E8E8E8" stroke-width="2.1184" stroke-miterlimit="10" d="M921,285.5l16.6-15.7c-9-9-21.4-14.6-35.1-14.6
	c-17.8,0-33.5,9.4-42.2,23.6c-4.7,7.6-7.4,16.5-7.4,26.1c0,12.7,4.8,24.3,12.6,33.1l-16.6,15.7c9.1,10.5,22.5,17.1,37.5,17.1
	c17.8,0,33.5-9.4,42.2-23.6c4.7-7.6,7.4-16.5,7.4-26.1C936,307.1,930.2,294.5,921,285.5z"/>
<path fill="none" stroke="#E8E8E8" stroke-width="2.1184" stroke-miterlimit="10" d="M1026.9,285.5l16.6-15.7
	c-9-9-21.4-14.6-35.1-14.6c-17.8,0-33.5,9.4-42.2,23.6c-4.7,7.6-7.4,16.5-7.4,26.1c0,12.7,4.8,24.3,12.6,33.1l-16.6,15.7
	c9.1,10.5,22.5,17.1,37.5,17.1c17.8,0,33.5-9.4,42.2-23.6c4.7-7.6,7.4-16.5,7.4-26.1C1041.9,307.1,1036.1,294.5,1026.9,285.5z"/>
<path fill="none" stroke="#E8E8E8" stroke-width="2.1184" stroke-miterlimit="10" d="M1132.8,285.5l16.6-15.7
	c-9-9-21.4-14.6-35.1-14.6c-17.8,0-33.5,9.4-42.2,23.6c-4.7,7.6-7.4,16.5-7.4,26.1c0,12.7,4.8,24.3,12.6,33.1l-16.6,15.7
	c9.1,10.5,22.5,17.1,37.5,17.1c17.8,0,33.5-9.4,42.2-23.6c4.7-7.6,7.4-16.5,7.4-26.1C1147.8,307.1,1142.1,294.5,1132.8,285.5z"/>
<path fill="none" stroke="#E8E8E8" stroke-width="2.1184" stroke-miterlimit="10" d="M1238.7,285.5l16.6-15.7
	c-9-9-21.4-14.6-35.1-14.6c-17.8,0-33.5,9.4-42.2,23.6c-4.7,7.6-7.4,16.5-7.4,26.1c0,12.7,4.8,24.3,12.6,33.1l-16.6,15.7
	c9.1,10.5,22.5,17.1,37.5,17.1c17.8,0,33.5-9.4,42.2-23.6c4.7-7.6,7.4-16.5,7.4-26.1C1253.7,307.1,1248,294.5,1238.7,285.5z"/>
<path fill="none" stroke="#E8E8E8" stroke-width="2.1184" stroke-miterlimit="10" d="M963.3,158.4l16.6-15.7
	c-9-9-21.4-14.6-35.1-14.6c-17.8,0-33.5,9.4-42.2,23.6c-4.7,7.6-7.4,16.5-7.4,26.1c0,12.7,4.8,24.3,12.6,33.1l-16.6,15.7
	c9.1,10.5,22.5,17.1,37.5,17.1c17.8,0,33.5-9.4,42.2-23.6c4.7-7.6,7.4-16.5,7.4-26.1C978.3,180,972.6,167.4,963.3,158.4z"/>
<path fill="none" stroke="#E8E8E8" stroke-width="2.1184" stroke-miterlimit="10" d="M1069.3,158.4l16.6-15.7
	c-9-9-21.4-14.6-35.1-14.6c-17.8,0-33.5,9.4-42.2,23.6c-4.7,7.6-7.4,16.5-7.4,26.1c0,12.7,4.8,24.3,12.6,33.1l-16.6,15.7
	c9.1,10.5,22.5,17.1,37.5,17.1c17.8,0,33.5-9.4,42.2-23.6c4.7-7.6,7.4-16.5,7.4-26.1C1084.3,180,1078.5,167.4,1069.3,158.4z"/>
<path fill="none" stroke="#E8E8E8" stroke-width="2.1184" stroke-miterlimit="10" d="M1175.2,158.4l16.6-15.7
	c-9-9-21.4-14.6-35.1-14.6c-17.8,0-33.5,9.4-42.2,23.6c-4.7,7.6-7.4,16.5-7.4,26.1c0,12.7,4.8,24.3,12.6,33.1l-16.6,15.7
	c9.1,10.5,22.5,17.1,37.5,17.1c17.8,0,33.5-9.4,42.2-23.6c4.7-7.6,7.4-16.5,7.4-26.1C1190.2,180,1184.4,167.4,1175.2,158.4z"/>
<path fill="none" stroke="#E8E8E8" stroke-width="2.1184" stroke-miterlimit="10" d="M1281.1,158.4l16.6-15.7
	c-9-9-21.4-14.6-35.1-14.6c-17.8,0-33.5,9.4-42.2,23.6c-4.7,7.6-7.4,16.5-7.4,26.1c0,12.7,4.8,24.3,12.6,33.1l-16.6,15.7
	c9.1,10.5,22.5,17.1,37.5,17.1c17.8,0,33.5-9.4,42.2-23.6c4.7-7.6,7.4-16.5,7.4-26.1C1296.1,180,1290.3,167.4,1281.1,158.4z"/>
<path fill="none" stroke="#E8E8E8" stroke-width="2.1184" stroke-miterlimit="10" d="M921,31.3l16.6-15.7c-9-9-21.4-14.6-35.1-14.6
	c-17.8,0-33.5,9.4-42.2,23.6c-4.7,7.6-7.4,16.5-7.4,26.1c0,12.7,4.8,24.3,12.6,33.1l-16.6,15.7c9.1,10.5,22.5,17.1,37.5,17.1
	c17.8,0,33.5-9.4,42.2-23.6c4.7-7.6,7.4-16.5,7.4-26.1C936,52.9,930.2,40.3,921,31.3z"/>
<path fill="none" stroke="#E8E8E8" stroke-width="2.1184" stroke-miterlimit="10" d="M1026.9,31.3l16.6-15.7
	c-9-9-21.4-14.6-35.1-14.6c-17.8,0-33.5,9.4-42.2,23.6c-4.7,7.6-7.4,16.5-7.4,26.1c0,12.7,4.8,24.3,12.6,33.1l-16.6,15.7
	c9.1,10.5,22.5,17.1,37.5,17.1c17.8,0,33.5-9.4,42.2-23.6c4.7-7.6,7.4-16.5,7.4-26.1C1041.9,52.9,1036.1,40.3,1026.9,31.3z"/>
<path fill="none" stroke="#E8E8E8" stroke-width="2.1184" stroke-miterlimit="10" d="M1132.8,31.3l16.6-15.7
	c-9-9-21.4-14.6-35.1-14.6c-17.8,0-33.5,9.4-42.2,23.6c-4.7,7.6-7.4,16.5-7.4,26.1c0,12.7,4.8,24.3,12.6,33.1l-16.6,15.7
	c9.1,10.5,22.5,17.1,37.5,17.1c17.8,0,33.5-9.4,42.2-23.6c4.7-7.6,7.4-16.5,7.4-26.1C1147.8,52.9,1142.1,40.3,1132.8,31.3z"/>
<path fill="none" stroke="#E8E8E8" stroke-width="2.1184" stroke-miterlimit="10" d="M1238.7,31.3l16.6-15.7
	c-9-9-21.4-14.6-35.1-14.6c-17.8,0-33.5,9.4-42.2,23.6c-4.7,7.6-7.4,16.5-7.4,26.1c0,12.7,4.8,24.3,12.6,33.1l-16.6,15.7
	c9.1,10.5,22.5,17.1,37.5,17.1c17.8,0,33.5-9.4,42.2-23.6c4.7-7.6,7.4-16.5,7.4-26.1C1253.7,52.9,1248,40.3,1238.7,31.3z"/>
<path fill="none" stroke="#E8E8E8" stroke-width="2.1184" stroke-miterlimit="10" d="M963.3,921.1l16.6-15.7
	c-9-9-21.4-14.6-35.1-14.6c-17.8,0-33.5,9.4-42.2,23.6c-4.7,7.6-7.4,16.5-7.4,26.1c0,12.7,4.8,24.3,12.6,33.1l-16.6,15.7
	c9.1,10.5,22.5,17.1,37.5,17.1c17.8,0,33.5-9.4,42.2-23.6c4.7-7.6,7.4-16.5,7.4-26.1C978.3,942.7,972.6,930.1,963.3,921.1z"/>
<path fill="none" stroke="#E8E8E8" stroke-width="2.1184" stroke-miterlimit="10" d="M1069.3,921.1l16.6-15.7
	c-9-9-21.4-14.6-35.1-14.6c-17.8,0-33.5,9.4-42.2,23.6c-4.7,7.6-7.4,16.5-7.4,26.1c0,12.7,4.8,24.3,12.6,33.1l-16.6,15.7
	c9.1,10.5,22.5,17.1,37.5,17.1c17.8,0,33.5-9.4,42.2-23.6c4.7-7.6,7.4-16.5,7.4-26.1C1084.3,942.7,1078.5,930.1,1069.3,921.1z"/>
<path fill="none" stroke="#E8E8E8" stroke-width="2.1184" stroke-miterlimit="10" d="M1175.2,921.1l16.6-15.7
	c-9-9-21.4-14.6-35.1-14.6c-17.8,0-33.5,9.4-42.2,23.6c-4.7,7.6-7.4,16.5-7.4,26.1c0,12.7,4.8,24.3,12.6,33.1l-16.6,15.7
	c9.1,10.5,22.5,17.1,37.5,17.1c17.8,0,33.5-9.4,42.2-23.6c4.7-7.6,7.4-16.5,7.4-26.1C1190.2,942.7,1184.4,930.1,1175.2,921.1z"/>
<path fill="none" stroke="#E8E8E8" stroke-width="2.1184" stroke-miterlimit="10" d="M1281.1,921.1l16.6-15.7
	c-9-9-21.4-14.6-35.1-14.6c-17.8,0-33.5,9.4-42.2,23.6c-4.7,7.6-7.4,16.5-7.4,26.1c0,12.7,4.8,24.3,12.6,33.1l-16.6,15.7
	c9.1,10.5,22.5,17.1,37.5,17.1c17.8,0,33.5-9.4,42.2-23.6c4.7-7.6,7.4-16.5,7.4-26.1C1296.1,942.7,1290.3,930.1,1281.1,921.1z"/>
<path fill="none" stroke="#E8E8E8" stroke-width="2.1184" stroke-miterlimit="10" d="M921,793.9l16.6-15.7c-9-9-21.4-14.6-35.1-14.6
	c-17.8,0-33.5,9.4-42.2,23.6c-4.7,7.6-7.4,16.5-7.4,26.1c0,12.7,4.8,24.3,12.6,33.1l-16.6,15.7c9.1,10.5,22.5,17.1,37.5,17.1
	c17.8,0,33.5-9.4,42.2-23.6c4.7-7.6,7.4-16.5,7.4-26.1C936,815.6,930.2,803,921,793.9z"/>
<path fill="none" stroke="#E8E8E8" stroke-width="2.1184" stroke-miterlimit="10" d="M1026.9,793.9l16.6-15.7
	c-9-9-21.4-14.6-35.1-14.6c-17.8,0-33.5,9.4-42.2,23.6c-4.7,7.6-7.4,16.5-7.4,26.1c0,12.7,4.8,24.3,12.6,33.1l-16.6,15.7
	c9.1,10.5,22.5,17.1,37.5,17.1c17.8,0,33.5-9.4,42.2-23.6c4.7-7.6,7.4-16.5,7.4-26.1C1041.9,815.6,1036.1,803,1026.9,793.9z"/>
<path fill="none" stroke="#E8E8E8" stroke-width="2.1184" stroke-miterlimit="10" d="M1132.8,793.9l16.6-15.7
	c-9-9-21.4-14.6-35.1-14.6c-17.8,0-33.5,9.4-42.2,23.6c-4.7,7.6-7.4,16.5-7.4,26.1c0,12.7,4.8,24.3,12.6,33.1l-16.6,15.7
	c9.1,10.5,22.5,17.1,37.5,17.1c17.8,0,33.5-9.4,42.2-23.6c4.7-7.6,7.4-16.5,7.4-26.1C1147.8,815.6,1142.1,803,1132.8,793.9z"/>
<path fill="none" stroke="#E8E8E8" stroke-width="2.1184" stroke-miterlimit="10" d="M1238.7,793.9l16.6-15.7
	c-9-9-21.4-14.6-35.1-14.6c-17.8,0-33.5,9.4-42.2,23.6c-4.7,7.6-7.4,16.5-7.4,26.1c0,12.7,4.8,24.3,12.6,33.1l-16.6,15.7
	c9.1,10.5,22.5,17.1,37.5,17.1c17.8,0,33.5-9.4,42.2-23.6c4.7-7.6,7.4-16.5,7.4-26.1C1253.7,815.6,1248,803,1238.7,793.9z"/>
<path fill="none" stroke="#E8E8E8" stroke-width="2.1184" stroke-miterlimit="10" d="M963.3,666.8l16.6-15.7
	c-9-9-21.4-14.6-35.1-14.6c-17.8,0-33.5,9.4-42.2,23.6c-4.7,7.6-7.4,16.5-7.4,26.1c0,12.7,4.8,24.3,12.6,33.1L891.2,735
	c9.1,10.5,22.5,17.1,37.5,17.1c17.8,0,33.5-9.4,42.2-23.6c4.7-7.6,7.4-16.5,7.4-26.1C978.3,688.5,972.6,675.9,963.3,666.8z"/>
<path fill="none" stroke="#E8E8E8" stroke-width="2.1184" stroke-miterlimit="10" d="M1069.3,666.8l16.6-15.7
	c-9-9-21.4-14.6-35.1-14.6c-17.8,0-33.5,9.4-42.2,23.6c-4.7,7.6-7.4,16.5-7.4,26.1c0,12.7,4.8,24.3,12.6,33.1L997.1,735
	c9.1,10.5,22.5,17.1,37.5,17.1c17.8,0,33.5-9.4,42.2-23.6c4.7-7.6,7.4-16.5,7.4-26.1C1084.3,688.5,1078.5,675.9,1069.3,666.8z"/>
<path fill="none" stroke="#E8E8E8" stroke-width="2.1184" stroke-miterlimit="10" d="M1175.2,666.8l16.6-15.7
	c-9-9-21.4-14.6-35.1-14.6c-17.8,0-33.5,9.4-42.2,23.6c-4.7,7.6-7.4,16.5-7.4,26.1c0,12.7,4.8,24.3,12.6,33.1l-16.6,15.7
	c9.1,10.5,22.5,17.1,37.5,17.1c17.8,0,33.5-9.4,42.2-23.6c4.7-7.6,7.4-16.5,7.4-26.1C1190.2,688.5,1184.4,675.9,1175.2,666.8z"/>
<path fill="none" stroke="#E8E8E8" stroke-width="2.1184" stroke-miterlimit="10" d="M1281.1,666.8l16.6-15.7
	c-9-9-21.4-14.6-35.1-14.6c-17.8,0-33.5,9.4-42.2,23.6c-4.7,7.6-7.4,16.5-7.4,26.1c0,12.7,4.8,24.3,12.6,33.1L1209,735
	c9.1,10.5,22.5,17.1,37.5,17.1c17.8,0,33.5-9.4,42.2-23.6c4.7-7.6,7.4-16.5,7.4-26.1C1296.1,688.5,1290.3,675.9,1281.1,666.8z"/>
<path fill="none" stroke="#E8E8E8" stroke-width="2.1184" stroke-miterlimit="10" d="M921,539.7l16.6-15.7c-9-9-21.4-14.6-35.1-14.6
	c-17.8,0-33.5,9.4-42.2,23.6c-4.7,7.6-7.4,16.5-7.4,26.1c0,12.7,4.8,24.3,12.6,33.1l-16.6,15.7c9.1,10.5,22.5,17.1,37.5,17.1
	c17.8,0,33.5-9.4,42.2-23.6c4.7-7.6,7.4-16.5,7.4-26.1C936,561.3,930.2,548.8,921,539.7z"/>
<path fill="none" stroke="#E8E8E8" stroke-width="2.1184" stroke-miterlimit="10" d="M1026.9,539.7l16.6-15.7
	c-9-9-21.4-14.6-35.1-14.6c-17.8,0-33.5,9.4-42.2,23.6c-4.7,7.6-7.4,16.5-7.4,26.1c0,12.7,4.8,24.3,12.6,33.1l-16.6,15.7
	c9.1,10.5,22.5,17.1,37.5,17.1c17.8,0,33.5-9.4,42.2-23.6c4.7-7.6,7.4-16.5,7.4-26.1C1041.9,561.3,1036.1,548.8,1026.9,539.7z"/>
<path fill="none" stroke="#E8E8E8" stroke-width="2.1184" stroke-miterlimit="10" d="M1132.8,539.7l16.6-15.7
	c-9-9-21.4-14.6-35.1-14.6c-17.8,0-33.5,9.4-42.2,23.6c-4.7,7.6-7.4,16.5-7.4,26.1c0,12.7,4.8,24.3,12.6,33.1l-16.6,15.7
	c9.1,10.5,22.5,17.1,37.5,17.1c17.8,0,33.5-9.4,42.2-23.6c4.7-7.6,7.4-16.5,7.4-26.1C1147.8,561.3,1142.1,548.8,1132.8,539.7z"/>
<path fill="none" stroke="#E8E8E8" stroke-width="2.1184" stroke-miterlimit="10" d="M1238.7,539.7l16.6-15.7
	c-9-9-21.4-14.6-35.1-14.6c-17.8,0-33.5,9.4-42.2,23.6c-4.7,7.6-7.4,16.5-7.4,26.1c0,12.7,4.8,24.3,12.6,33.1l-16.6,15.7
	c9.1,10.5,22.5,17.1,37.5,17.1c17.8,0,33.5-9.4,42.2-23.6c4.7-7.6,7.4-16.5,7.4-26.1C1253.7,561.3,1248,548.8,1238.7,539.7z"/>
<path fill="none" stroke="#E8E8E8" stroke-width="2.1184" stroke-miterlimit="10" d="M1387,412.6l16.6-15.7
	c-9-9-21.4-14.6-35.1-14.6c-17.8,0-33.5,9.4-42.2,23.6c-4.7,7.6-7.4,16.5-7.4,26.1c0,12.7,4.8,24.3,12.6,33.1l-16.6,15.7
	c9.1,10.5,22.5,17.1,37.5,17.1c17.8,0,33.5-9.4,42.2-23.6c4.7-7.6,7.4-16.5,7.4-26.1C1402,434.2,1396.3,421.6,1387,412.6z"/>
<path fill="none" stroke="#E8E8E8" stroke-width="2.1184" stroke-miterlimit="10" d="M1492.9,412.6l16.6-15.7
	c-9-9-21.4-14.6-35.1-14.6c-17.8,0-33.5,9.4-42.2,23.6c-4.7,7.6-7.4,16.5-7.4,26.1c0,12.7,4.8,24.3,12.6,33.1l-16.6,15.7
	c9.1,10.5,22.5,17.1,37.5,17.1c17.8,0,33.5-9.4,42.2-23.6c4.7-7.6,7.4-16.5,7.4-26.1C1507.9,434.2,1502.2,421.6,1492.9,412.6z"/>
<path fill="none" stroke="#E8E8E8" stroke-width="2.1184" stroke-miterlimit="10" d="M1598.9,412.6l16.6-15.7
	c-9-9-21.4-14.6-35.1-14.6c-17.8,0-33.5,9.4-42.2,23.6c-4.7,7.6-7.4,16.5-7.4,26.1c0,12.7,4.8,24.3,12.6,33.1l-16.6,15.7
	c9.1,10.5,22.5,17.1,37.5,17.1c17.8,0,33.5-9.4,42.2-23.6c4.7-7.6,7.4-16.5,7.4-26.1C1613.9,434.2,1608.1,421.6,1598.9,412.6z"/>
<path fill="none" stroke="#E8E8E8" stroke-width="2.1184" stroke-miterlimit="10" d="M1704.8,412.6l16.6-15.7
	c-9-9-21.4-14.6-35.1-14.6c-17.8,0-33.5,9.4-42.2,23.6c-4.7,7.6-7.4,16.5-7.4,26.1c0,12.7,4.8,24.3,12.6,33.1l-16.6,15.7
	c9.1,10.5,22.5,17.1,37.5,17.1c17.8,0,33.5-9.4,42.2-23.6c4.7-7.6,7.4-16.5,7.4-26.1C1719.8,434.2,1714,421.6,1704.8,412.6z"/>
<path fill="none" stroke="#E8E8E8" stroke-width="2.1184" stroke-miterlimit="10" d="M1344.7,285.5l16.6-15.7
	c-9-9-21.4-14.6-35.1-14.6c-17.8,0-33.5,9.4-42.2,23.6c-4.7,7.6-7.4,16.5-7.4,26.1c0,12.7,4.8,24.3,12.6,33.1l-16.6,15.7
	c9.1,10.5,22.5,17.1,37.5,17.1c17.8,0,33.5-9.4,42.2-23.6c4.7-7.6,7.4-16.5,7.4-26.1C1359.6,307.1,1353.9,294.5,1344.7,285.5z"/>
<path fill="none" stroke="#E8E8E8" stroke-width="2.1184" stroke-miterlimit="10" d="M1450.6,285.5l16.6-15.7
	c-9-9-21.4-14.6-35.1-14.6c-17.8,0-33.5,9.4-42.2,23.6c-4.7,7.6-7.4,16.5-7.4,26.1c0,12.7,4.8,24.3,12.6,33.1l-16.6,15.7
	c9.1,10.5,22.5,17.1,37.5,17.1c17.8,0,33.5-9.4,42.2-23.6c4.7-7.6,7.4-16.5,7.4-26.1C1465.6,307.1,1459.8,294.5,1450.6,285.5z"/>
<path fill="none" stroke="#E8E8E8" stroke-width="2.1184" stroke-miterlimit="10" d="M1556.5,285.5l16.6-15.7
	c-9-9-21.4-14.6-35.1-14.6c-17.8,0-33.5,9.4-42.2,23.6c-4.7,7.6-7.4,16.5-7.4,26.1c0,12.7,4.8,24.3,12.6,33.1l-16.6,15.7
	c9.1,10.5,22.5,17.1,37.5,17.1c17.8,0,33.5-9.4,42.2-23.6c4.7-7.6,7.4-16.5,7.4-26.1C1571.5,307.1,1565.7,294.5,1556.5,285.5z"/>
<path fill="none" stroke="#E8E8E8" stroke-width="2.1184" stroke-miterlimit="10" d="M1662.4,285.5l16.6-15.7
	c-9-9-21.4-14.6-35.1-14.6c-17.8,0-33.5,9.4-42.2,23.6c-4.7,7.6-7.4,16.5-7.4,26.1c0,12.7,4.8,24.3,12.6,33.1l-16.6,15.7
	c9.1,10.5,22.5,17.1,37.5,17.1c17.8,0,33.5-9.4,42.2-23.6c4.7-7.6,7.4-16.5,7.4-26.1C1677.4,307.1,1671.7,294.5,1662.4,285.5z"/>
<path fill="none" stroke="#E8E8E8" stroke-width="2.1184" stroke-miterlimit="10" d="M1387,158.4l16.6-15.7
	c-9-9-21.4-14.6-35.1-14.6c-17.8,0-33.5,9.4-42.2,23.6c-4.7,7.6-7.4,16.5-7.4,26.1c0,12.7,4.8,24.3,12.6,33.1l-16.6,15.7
	c9.1,10.5,22.5,17.1,37.5,17.1c17.8,0,33.5-9.4,42.2-23.6c4.7-7.6,7.4-16.5,7.4-26.1C1402,180,1396.3,167.4,1387,158.4z"/>
<path fill="none" stroke="#E8E8E8" stroke-width="2.1184" stroke-miterlimit="10" d="M1492.9,158.4l16.6-15.7
	c-9-9-21.4-14.6-35.1-14.6c-17.8,0-33.5,9.4-42.2,23.6c-4.7,7.6-7.4,16.5-7.4,26.1c0,12.7,4.8,24.3,12.6,33.1l-16.6,15.7
	c9.1,10.5,22.5,17.1,37.5,17.1c17.8,0,33.5-9.4,42.2-23.6c4.7-7.6,7.4-16.5,7.4-26.1C1507.9,180,1502.2,167.4,1492.9,158.4z"/>
<path fill="none" stroke="#E8E8E8" stroke-width="2.1184" stroke-miterlimit="10" d="M1598.9,158.4l16.6-15.7
	c-9-9-21.4-14.6-35.1-14.6c-17.8,0-33.5,9.4-42.2,23.6c-4.7,7.6-7.4,16.5-7.4,26.1c0,12.7,4.8,24.3,12.6,33.1l-16.6,15.7
	c9.1,10.5,22.5,17.1,37.5,17.1c17.8,0,33.5-9.4,42.2-23.6c4.7-7.6,7.4-16.5,7.4-26.1C1613.9,180,1608.1,167.4,1598.9,158.4z"/>
<path fill="none" stroke="#E8E8E8" stroke-width="2.1184" stroke-miterlimit="10" d="M1704.8,158.4l16.6-15.7
	c-9-9-21.4-14.6-35.1-14.6c-17.8,0-33.5,9.4-42.2,23.6c-4.7,7.6-7.4,16.5-7.4,26.1c0,12.7,4.8,24.3,12.6,33.1l-16.6,15.7
	c9.1,10.5,22.5,17.1,37.5,17.1c17.8,0,33.5-9.4,42.2-23.6c4.7-7.6,7.4-16.5,7.4-26.1C1719.8,180,1714,167.4,1704.8,158.4z"/>
<path fill="none" stroke="#E8E8E8" stroke-width="2.1184" stroke-miterlimit="10" d="M1344.7,31.3l16.6-15.7
	c-9-9-21.4-14.6-35.1-14.6c-17.8,0-33.5,9.4-42.2,23.6c-4.7,7.6-7.4,16.5-7.4,26.1c0,12.7,4.8,24.3,12.6,33.1l-16.6,15.7
	c9.1,10.5,22.5,17.1,37.5,17.1c17.8,0,33.5-9.4,42.2-23.6c4.7-7.6,7.4-16.5,7.4-26.1C1359.6,52.9,1353.9,40.3,1344.7,31.3z"/>
<path fill="none" stroke="#E8E8E8" stroke-width="2.1184" stroke-miterlimit="10" d="M1450.6,31.3l16.6-15.7
	c-9-9-21.4-14.6-35.1-14.6c-17.8,0-33.5,9.4-42.2,23.6c-4.7,7.6-7.4,16.5-7.4,26.1c0,12.7,4.8,24.3,12.6,33.1l-16.6,15.7
	c9.1,10.5,22.5,17.1,37.5,17.1c17.8,0,33.5-9.4,42.2-23.6c4.7-7.6,7.4-16.5,7.4-26.1C1465.6,52.9,1459.8,40.3,1450.6,31.3z"/>
<path fill="none" stroke="#E8E8E8" stroke-width="2.1184" stroke-miterlimit="10" d="M1556.5,31.3l16.6-15.7
	c-9-9-21.4-14.6-35.1-14.6c-17.8,0-33.5,9.4-42.2,23.6c-4.7,7.6-7.4,16.5-7.4,26.1c0,12.7,4.8,24.3,12.6,33.1l-16.6,15.7
	c9.1,10.5,22.5,17.1,37.5,17.1c17.8,0,33.5-9.4,42.2-23.6c4.7-7.6,7.4-16.5,7.4-26.1C1571.5,52.9,1565.7,40.3,1556.5,31.3z"/>
<path fill="none" stroke="#E8E8E8" stroke-width="2.1184" stroke-miterlimit="10" d="M1662.4,31.3l16.6-15.7
	c-9-9-21.4-14.6-35.1-14.6c-17.8,0-33.5,9.4-42.2,23.6c-4.7,7.6-7.4,16.5-7.4,26.1c0,12.7,4.8,24.3,12.6,33.1l-16.6,15.7
	c9.1,10.5,22.5,17.1,37.5,17.1c17.8,0,33.5-9.4,42.2-23.6c4.7-7.6,7.4-16.5,7.4-26.1C1677.4,52.9,1671.7,40.3,1662.4,31.3z"/>
<path fill="none" stroke="#E8E8E8" stroke-width="2.1184" stroke-miterlimit="10" d="M1387,921.1l16.6-15.7
	c-9-9-21.4-14.6-35.1-14.6c-17.8,0-33.5,9.4-42.2,23.6c-4.7,7.6-7.4,16.5-7.4,26.1c0,12.7,4.8,24.3,12.6,33.1l-16.6,15.7
	c9.1,10.5,22.5,17.1,37.5,17.1c17.8,0,33.5-9.4,42.2-23.6c4.7-7.6,7.4-16.5,7.4-26.1C1402,942.7,1396.3,930.1,1387,921.1z"/>
<path fill="none" stroke="#E8E8E8" stroke-width="2.1184" stroke-miterlimit="10" d="M1492.9,921.1l16.6-15.7
	c-9-9-21.4-14.6-35.1-14.6c-17.8,0-33.5,9.4-42.2,23.6c-4.7,7.6-7.4,16.5-7.4,26.1c0,12.7,4.8,24.3,12.6,33.1l-16.6,15.7
	c9.1,10.5,22.5,17.1,37.5,17.1c17.8,0,33.5-9.4,42.2-23.6c4.7-7.6,7.4-16.5,7.4-26.1C1507.9,942.7,1502.2,930.1,1492.9,921.1z"/>
<path fill="none" stroke="#E8E8E8" stroke-width="2.1184" stroke-miterlimit="10" d="M1598.9,921.1l16.6-15.7
	c-9-9-21.4-14.6-35.1-14.6c-17.8,0-33.5,9.4-42.2,23.6c-4.7,7.6-7.4,16.5-7.4,26.1c0,12.7,4.8,24.3,12.6,33.1l-16.6,15.7
	c9.1,10.5,22.5,17.1,37.5,17.1c17.8,0,33.5-9.4,42.2-23.6c4.7-7.6,7.4-16.5,7.4-26.1C1613.9,942.7,1608.1,930.1,1598.9,921.1z"/>
<path fill="none" stroke="#E8E8E8" stroke-width="2.1184" stroke-miterlimit="10" d="M1704.8,921.1l16.6-15.7
	c-9-9-21.4-14.6-35.1-14.6c-17.8,0-33.5,9.4-42.2,23.6c-4.7,7.6-7.4,16.5-7.4,26.1c0,12.7,4.8,24.3,12.6,33.1l-16.6,15.7
	c9.1,10.5,22.5,17.1,37.5,17.1c17.8,0,33.5-9.4,42.2-23.6c4.7-7.6,7.4-16.5,7.4-26.1C1719.8,942.7,1714,930.1,1704.8,921.1z"/>
<path fill="none" stroke="#E8E8E8" stroke-width="2.1184" stroke-miterlimit="10" d="M1344.7,793.9l16.6-15.7
	c-9-9-21.4-14.6-35.1-14.6c-17.8,0-33.5,9.4-42.2,23.6c-4.7,7.6-7.4,16.5-7.4,26.1c0,12.7,4.8,24.3,12.6,33.1l-16.6,15.7
	c9.1,10.5,22.5,17.1,37.5,17.1c17.8,0,33.5-9.4,42.2-23.6c4.7-7.6,7.4-16.5,7.4-26.1C1359.6,815.6,1353.9,803,1344.7,793.9z"/>
<path fill="none" stroke="#E8E8E8" stroke-width="2.1184" stroke-miterlimit="10" d="M1450.6,793.9l16.6-15.7
	c-9-9-21.4-14.6-35.1-14.6c-17.8,0-33.5,9.4-42.2,23.6c-4.7,7.6-7.4,16.5-7.4,26.1c0,12.7,4.8,24.3,12.6,33.1l-16.6,15.7
	c9.1,10.5,22.5,17.1,37.5,17.1c17.8,0,33.5-9.4,42.2-23.6c4.7-7.6,7.4-16.5,7.4-26.1C1465.6,815.6,1459.8,803,1450.6,793.9z"/>
<path fill="none" stroke="#E8E8E8" stroke-width="2.1184" stroke-miterlimit="10" d="M1556.5,793.9l16.6-15.7
	c-9-9-21.4-14.6-35.1-14.6c-17.8,0-33.5,9.4-42.2,23.6c-4.7,7.6-7.4,16.5-7.4,26.1c0,12.7,4.8,24.3,12.6,33.1l-16.6,15.7
	c9.1,10.5,22.5,17.1,37.5,17.1c17.8,0,33.5-9.4,42.2-23.6c4.7-7.6,7.4-16.5,7.4-26.1C1571.5,815.6,1565.7,803,1556.5,793.9z"/>
<path fill="none" stroke="#E8E8E8" stroke-width="2.1184" stroke-miterlimit="10" d="M1662.4,793.9l16.6-15.7
	c-9-9-21.4-14.6-35.1-14.6c-17.8,0-33.5,9.4-42.2,23.6c-4.7,7.6-7.4,16.5-7.4,26.1c0,12.7,4.8,24.3,12.6,33.1l-16.6,15.7
	c9.1,10.5,22.5,17.1,37.5,17.1c17.8,0,33.5-9.4,42.2-23.6c4.7-7.6,7.4-16.5,7.4-26.1C1677.4,815.6,1671.7,803,1662.4,793.9z"/>
<path fill="none" stroke="#E8E8E8" stroke-width="2.1184" stroke-miterlimit="10" d="M1387,666.8l16.6-15.7
	c-9-9-21.4-14.6-35.1-14.6c-17.8,0-33.5,9.4-42.2,23.6c-4.7,7.6-7.4,16.5-7.4,26.1c0,12.7,4.8,24.3,12.6,33.1l-16.6,15.7
	c9.1,10.5,22.5,17.1,37.5,17.1c17.8,0,33.5-9.4,42.2-23.6c4.7-7.6,7.4-16.5,7.4-26.1C1402,688.5,1396.3,675.9,1387,666.8z"/>
<path fill="none" stroke="#E8E8E8" stroke-width="2.1184" stroke-miterlimit="10" d="M1492.9,666.8l16.6-15.7
	c-9-9-21.4-14.6-35.1-14.6c-17.8,0-33.5,9.4-42.2,23.6c-4.7,7.6-7.4,16.5-7.4,26.1c0,12.7,4.8,24.3,12.6,33.1l-16.6,15.7
	c9.1,10.5,22.5,17.1,37.5,17.1c17.8,0,33.5-9.4,42.2-23.6c4.7-7.6,7.4-16.5,7.4-26.1C1507.9,688.5,1502.2,675.9,1492.9,666.8z"/>
<path fill="none" stroke="#E8E8E8" stroke-width="2.1184" stroke-miterlimit="10" d="M1598.9,666.8l16.6-15.7
	c-9-9-21.4-14.6-35.1-14.6c-17.8,0-33.5,9.4-42.2,23.6c-4.7,7.6-7.4,16.5-7.4,26.1c0,12.7,4.8,24.3,12.6,33.1l-16.6,15.7
	c9.1,10.5,22.5,17.1,37.5,17.1c17.8,0,33.5-9.4,42.2-23.6c4.7-7.6,7.4-16.5,7.4-26.1C1613.9,688.5,1608.1,675.9,1598.9,666.8z"/>
<path fill="none" stroke="#E8E8E8" stroke-width="2.1184" stroke-miterlimit="10" d="M1704.8,666.8l16.6-15.7
	c-9-9-21.4-14.6-35.1-14.6c-17.8,0-33.5,9.4-42.2,23.6c-4.7,7.6-7.4,16.5-7.4,26.1c0,12.7,4.8,24.3,12.6,33.1l-16.6,15.7
	c9.1,10.5,22.5,17.1,37.5,17.1c17.8,0,33.5-9.4,42.2-23.6c4.7-7.6,7.4-16.5,7.4-26.1C1719.8,688.5,1714,675.9,1704.8,666.8z"/>
<path fill="none" stroke="#E8E8E8" stroke-width="2.1184" stroke-miterlimit="10" d="M1344.7,539.7l16.6-15.7
	c-9-9-21.4-14.6-35.1-14.6c-17.8,0-33.5,9.4-42.2,23.6c-4.7,7.6-7.4,16.5-7.4,26.1c0,12.7,4.8,24.3,12.6,33.1l-16.6,15.7
	c9.1,10.5,22.5,17.1,37.5,17.1c17.8,0,33.5-9.4,42.2-23.6c4.7-7.6,7.4-16.5,7.4-26.1C1359.6,561.3,1353.9,548.8,1344.7,539.7z"/>
<path fill="none" stroke="#E8E8E8" stroke-width="2.1184" stroke-miterlimit="10" d="M1450.6,539.7l16.6-15.7
	c-9-9-21.4-14.6-35.1-14.6c-17.8,0-33.5,9.4-42.2,23.6c-4.7,7.6-7.4,16.5-7.4,26.1c0,12.7,4.8,24.3,12.6,33.1l-16.6,15.7
	c9.1,10.5,22.5,17.1,37.5,17.1c17.8,0,33.5-9.4,42.2-23.6c4.7-7.6,7.4-16.5,7.4-26.1C1465.6,561.3,1459.8,548.8,1450.6,539.7z"/>
<path fill="none" stroke="#E8E8E8" stroke-width="2.1184" stroke-miterlimit="10" d="M1556.5,539.7l16.6-15.7
	c-9-9-21.4-14.6-35.1-14.6c-17.8,0-33.5,9.4-42.2,23.6c-4.7,7.6-7.4,16.5-7.4,26.1c0,12.7,4.8,24.3,12.6,33.1l-16.6,15.7
	c9.1,10.5,22.5,17.1,37.5,17.1c17.8,0,33.5-9.4,42.2-23.6c4.7-7.6,7.4-16.5,7.4-26.1C1571.5,561.3,1565.7,548.8,1556.5,539.7z"/>
<path fill="none" stroke="#E8E8E8" stroke-width="2.1184" stroke-miterlimit="10" d="M1662.4,539.7L1679,524
	c-9-9-21.4-14.6-35.1-14.6c-17.8,0-33.5,9.4-42.2,23.6c-4.7,7.6-7.4,16.5-7.4,26.1c0,12.7,4.8,24.3,12.6,33.1l-16.6,15.7
	c9.1,10.5,22.5,17.1,37.5,17.1c17.8,0,33.5-9.4,42.2-23.6c4.7-7.6,7.4-16.5,7.4-26.1C1677.4,561.3,1671.7,548.8,1662.4,539.7z"/>
<path fill="none" stroke="#E8E8E8" stroke-width="2.1184" stroke-miterlimit="10" d="M1810.7,412.6l16.6-15.7
	c-9-9-21.4-14.6-35.1-14.6c-17.8,0-33.5,9.4-42.2,23.6c-4.7,7.6-7.4,16.5-7.4,26.1c0,12.7,4.8,24.3,12.6,33.1l-16.6,15.7
	c9.1,10.5,22.5,17.1,37.5,17.1c17.8,0,33.5-9.4,42.2-23.6c4.7-7.6,7.4-16.5,7.4-26.1C1825.7,434.2,1820,421.6,1810.7,412.6z"/>
<path fill="none" stroke="#E8E8E8" stroke-width="2.1184" stroke-miterlimit="10" d="M1916.6,412.6l16.6-15.7
	c-9-9-21.4-14.6-35.1-14.6c-17.8,0-33.5,9.4-42.2,23.6c-4.7,7.6-7.4,16.5-7.4,26.1c0,12.7,4.8,24.3,12.6,33.1l-16.6,15.7
	c9.1,10.5,22.5,17.1,37.5,17.1c17.8,0,33.5-9.4,42.2-23.6c4.7-7.6,7.4-16.5,7.4-26.1C1931.6,434.2,1925.9,421.6,1916.6,412.6z"/>
<path fill="none" stroke="#E8E8E8" stroke-width="2.1184" stroke-miterlimit="10" d="M1768.3,285.5l16.6-15.7
	c-9-9-21.4-14.6-35.1-14.6c-17.8,0-33.5,9.4-42.2,23.6c-4.7,7.6-7.4,16.5-7.4,26.1c0,12.7,4.8,24.3,12.6,33.1l-16.6,15.7
	c9.1,10.5,22.5,17.1,37.5,17.1c17.8,0,33.5-9.4,42.2-23.6c4.7-7.6,7.4-16.5,7.4-26.1C1783.3,307.1,1777.6,294.5,1768.3,285.5z"/>
<path fill="none" stroke="#E8E8E8" stroke-width="2.1184" stroke-miterlimit="10" d="M1874.3,285.5l16.6-15.7
	c-9-9-21.4-14.6-35.1-14.6c-17.8,0-33.5,9.4-42.2,23.6c-4.7,7.6-7.4,16.5-7.4,26.1c0,12.7,4.8,24.3,12.6,33.1l-16.6,15.7
	c9.1,10.5,22.5,17.1,37.5,17.1c17.8,0,33.5-9.4,42.2-23.6c4.7-7.6,7.4-16.5,7.4-26.1C1889.3,307.1,1883.5,294.5,1874.3,285.5z"/>
<path fill="none" stroke="#E8E8E8" stroke-width="2.1184" stroke-miterlimit="10" d="M1810.7,158.4l16.6-15.7
	c-9-9-21.4-14.6-35.1-14.6c-17.8,0-33.5,9.4-42.2,23.6c-4.7,7.6-7.4,16.5-7.4,26.1c0,12.7,4.8,24.3,12.6,33.1l-16.6,15.7
	c9.1,10.5,22.5,17.1,37.5,17.1c17.8,0,33.5-9.4,42.2-23.6c4.7-7.6,7.4-16.5,7.4-26.1C1825.7,180,1820,167.4,1810.7,158.4z"/>
<path fill="none" stroke="#E8E8E8" stroke-width="2.1184" stroke-miterlimit="10" d="M1916.6,158.4l16.6-15.7
	c-9-9-21.4-14.6-35.1-14.6c-17.8,0-33.5,9.4-42.2,23.6c-4.7,7.6-7.4,16.5-7.4,26.1c0,12.7,4.8,24.3,12.6,33.1l-16.6,15.7
	c9.1,10.5,22.5,17.1,37.5,17.1c17.8,0,33.5-9.4,42.2-23.6c4.7-7.6,7.4-16.5,7.4-26.1C1931.6,180,1925.9,167.4,1916.6,158.4z"/>
<path fill="none" stroke="#E8E8E8" stroke-width="2.1184" stroke-miterlimit="10" d="M1768.3,31.3l16.6-15.7
	c-9-9-21.4-14.6-35.1-14.6c-17.8,0-33.5,9.4-42.2,23.6c-4.7,7.6-7.4,16.5-7.4,26.1c0,12.7,4.8,24.3,12.6,33.1l-16.6,15.7
	c9.1,10.5,22.5,17.1,37.5,17.1c17.8,0,33.5-9.4,42.2-23.6c4.7-7.6,7.4-16.5,7.4-26.1C1783.3,52.9,1777.6,40.3,1768.3,31.3z"/>
<path fill="none" stroke="#E8E8E8" stroke-width="2.1184" stroke-miterlimit="10" d="M1874.3,31.3l16.6-15.7
	c-9-9-21.4-14.6-35.1-14.6c-17.8,0-33.5,9.4-42.2,23.6c-4.7,7.6-7.4,16.5-7.4,26.1c0,12.7,4.8,24.3,12.6,33.1l-16.6,15.7
	c9.1,10.5,22.5,17.1,37.5,17.1c17.8,0,33.5-9.4,42.2-23.6c4.7-7.6,7.4-16.5,7.4-26.1C1889.3,52.9,1883.5,40.3,1874.3,31.3z"/>
<path fill="none" stroke="#E8E8E8" stroke-width="2.1184" stroke-miterlimit="10" d="M1810.7,921.1l16.6-15.7
	c-9-9-21.4-14.6-35.1-14.6c-17.8,0-33.5,9.4-42.2,23.6c-4.7,7.6-7.4,16.5-7.4,26.1c0,12.7,4.8,24.3,12.6,33.1l-16.6,15.7
	c9.1,10.5,22.5,17.1,37.5,17.1c17.8,0,33.5-9.4,42.2-23.6c4.7-7.6,7.4-16.5,7.4-26.1C1825.7,942.7,1820,930.1,1810.7,921.1z"/>
<path fill="none" stroke="#E8E8E8" stroke-width="2.1184" stroke-miterlimit="10" d="M1916.6,921.1l16.6-15.7
	c-9-9-21.4-14.6-35.1-14.6c-17.8,0-33.5,9.4-42.2,23.6c-4.7,7.6-7.4,16.5-7.4,26.1c0,12.7,4.8,24.3,12.6,33.1l-16.6,15.7
	c9.1,10.5,22.5,17.1,37.5,17.1c17.8,0,33.5-9.4,42.2-23.6c4.7-7.6,7.4-16.5,7.4-26.1C1931.6,942.7,1925.9,930.1,1916.6,921.1z"/>
<path fill="none" stroke="#E8E8E8" stroke-width="2.1184" stroke-miterlimit="10" d="M1768.3,793.9l16.6-15.7
	c-9-9-21.4-14.6-35.1-14.6c-17.8,0-33.5,9.4-42.2,23.6c-4.7,7.6-7.4,16.5-7.4,26.1c0,12.7,4.8,24.3,12.6,33.1l-16.6,15.7
	c9.1,10.5,22.5,17.1,37.5,17.1c17.8,0,33.5-9.4,42.2-23.6c4.7-7.6,7.4-16.5,7.4-26.1C1783.3,815.6,1777.6,803,1768.3,793.9z"/>
<path fill="none" stroke="#E8E8E8" stroke-width="2.1184" stroke-miterlimit="10" d="M1874.3,793.9l16.6-15.7
	c-9-9-21.4-14.6-35.1-14.6c-17.8,0-33.5,9.4-42.2,23.6c-4.7,7.6-7.4,16.5-7.4,26.1c0,12.7,4.8,24.3,12.6,33.1l-16.6,15.7
	c9.1,10.5,22.5,17.1,37.5,17.1c17.8,0,33.5-9.4,42.2-23.6c4.7-7.6,7.4-16.5,7.4-26.1C1889.3,815.6,1883.5,803,1874.3,793.9z"/>
<path fill="none" stroke="#E8E8E8" stroke-width="2.1184" stroke-miterlimit="10" d="M1810.7,666.8l16.6-15.7
	c-9-9-21.4-14.6-35.1-14.6c-17.8,0-33.5,9.4-42.2,23.6c-4.7,7.6-7.4,16.5-7.4,26.1c0,12.7,4.8,24.3,12.6,33.1l-16.6,15.7
	c9.1,10.5,22.5,17.1,37.5,17.1c17.8,0,33.5-9.4,42.2-23.6c4.7-7.6,7.4-16.5,7.4-26.1C1825.7,688.5,1820,675.9,1810.7,666.8z"/>
<path fill="none" stroke="#E8E8E8" stroke-width="2.1184" stroke-miterlimit="10" d="M1916.6,666.8l16.6-15.7
	c-9-9-21.4-14.6-35.1-14.6c-17.8,0-33.5,9.4-42.2,23.6c-4.7,7.6-7.4,16.5-7.4,26.1c0,12.7,4.8,24.3,12.6,33.1l-16.6,15.7
	c9.1,10.5,22.5,17.1,37.5,17.1c17.8,0,33.5-9.4,42.2-23.6c4.7-7.6,7.4-16.5,7.4-26.1C1931.6,688.5,1925.9,675.9,1916.6,666.8z"/>
<path fill="none" stroke="#E8E8E8" stroke-width="2.1184" stroke-miterlimit="10" d="M1768.3,539.7L1785,524
	c-9-9-21.4-14.6-35.1-14.6c-17.8,0-33.5,9.4-42.2,23.6c-4.7,7.6-7.4,16.5-7.4,26.1c0,12.7,4.8,24.3,12.6,33.1l-16.6,15.7
	c9.1,10.5,22.5,17.1,37.5,17.1c17.8,0,33.5-9.4,42.2-23.6c4.7-7.6,7.4-16.5,7.4-26.1C1783.3,561.3,1777.6,548.8,1768.3,539.7z"/>
<path fill="none" stroke="#E8E8E8" stroke-width="2.1184" stroke-miterlimit="10" d="M1874.3,539.7l16.6-15.7
	c-9-9-21.4-14.6-35.1-14.6c-17.8,0-33.5,9.4-42.2,23.6c-4.7,7.6-7.4,16.5-7.4,26.1c0,12.7,4.8,24.3,12.6,33.1l-16.6,15.7
	c9.1,10.5,22.5,17.1,37.5,17.1c17.8,0,33.5-9.4,42.2-23.6c4.7-7.6,7.4-16.5,7.4-26.1C1889.3,561.3,1883.5,548.8,1874.3,539.7z"/>
<path fill="none" stroke="#E8E8E8" stroke-width="2.1184" stroke-miterlimit="10" d="M2022.6,412.6l16.6-15.7
	c-9-9-21.4-14.6-35.1-14.6c-17.8,0-33.5,9.4-42.2,23.6c-4.7,7.6-7.4,16.5-7.4,26.1c0,12.7,4.8,24.3,12.6,33.1l-16.6,15.7
	c9.1,10.5,22.5,17.1,37.5,17.1c17.8,0,33.5-9.4,42.2-23.6c4.7-7.6,7.4-16.5,7.4-26.1C2037.5,434.2,2031.8,421.6,2022.6,412.6z"/>
<path fill="none" stroke="#E8E8E8" stroke-width="2.1184" stroke-miterlimit="10" d="M2128.5,412.6l16.6-15.7
	c-9-9-21.4-14.6-35.1-14.6c-17.8,0-33.5,9.4-42.2,23.6c-4.7,7.6-7.4,16.5-7.4,26.1c0,12.7,4.8,24.3,12.6,33.1l-16.6,15.7
	c9.1,10.5,22.5,17.1,37.5,17.1c17.8,0,33.5-9.4,42.2-23.6c4.7-7.6,7.4-16.5,7.4-26.1C2143.5,434.2,2137.7,421.6,2128.5,412.6z"/>
<path fill="none" stroke="#E8E8E8" stroke-width="2.1184" stroke-miterlimit="10" d="M2234.4,412.6l16.6-15.7
	c-9-9-21.4-14.6-35.1-14.6c-17.8,0-33.5,9.4-42.2,23.6c-4.7,7.6-7.4,16.5-7.4,26.1c0,12.7,4.8,24.3,12.6,33.1l-16.6,15.7
	c9.1,10.5,22.5,17.1,37.5,17.1c17.8,0,33.5-9.4,42.2-23.6c4.7-7.6,7.4-16.5,7.4-26.1C2249.4,434.2,2243.6,421.6,2234.4,412.6z"/>
<path fill="none" stroke="#E8E8E8" stroke-width="2.1184" stroke-miterlimit="10" d="M2340.3,412.6l16.6-15.7
	c-9-9-21.4-14.6-35.1-14.6c-17.8,0-33.5,9.4-42.2,23.6c-4.7,7.6-7.4,16.5-7.4,26.1c0,12.7,4.8,24.3,12.6,33.1l-16.6,15.7
	c9.1,10.5,22.5,17.1,37.5,17.1c17.8,0,33.5-9.4,42.2-23.6c4.7-7.6,7.4-16.5,7.4-26.1C2355.3,434.2,2349.6,421.6,2340.3,412.6z"/>
<path fill="none" stroke="#E8E8E8" stroke-width="2.1184" stroke-miterlimit="10" d="M1980.2,285.5l16.6-15.7
	c-9-9-21.4-14.6-35.1-14.6c-17.8,0-33.5,9.4-42.2,23.6c-4.7,7.6-7.4,16.5-7.4,26.1c0,12.7,4.8,24.3,12.6,33.1l-16.6,15.7
	c9.1,10.5,22.5,17.1,37.5,17.1c17.8,0,33.5-9.4,42.2-23.6c4.7-7.6,7.4-16.5,7.4-26.1C1995.2,307.1,1989.4,294.5,1980.2,285.5z"/>
<path fill="none" stroke="#E8E8E8" stroke-width="2.1184" stroke-miterlimit="10" d="M2086.1,285.5l16.6-15.7
	c-9-9-21.4-14.6-35.1-14.6c-17.8,0-33.5,9.4-42.2,23.6c-4.7,7.6-7.4,16.5-7.4,26.1c0,12.7,4.8,24.3,12.6,33.1l-16.6,15.7
	c9.1,10.5,22.5,17.1,37.5,17.1c17.8,0,33.5-9.4,42.2-23.6c4.7-7.6,7.4-16.5,7.4-26.1C2101.1,307.1,2095.4,294.5,2086.1,285.5z"/>
<path fill="none" stroke="#E8E8E8" stroke-width="2.1184" stroke-miterlimit="10" d="M2192,285.5l16.6-15.7
	c-9-9-21.4-14.6-35.1-14.6c-17.8,0-33.5,9.4-42.2,23.6c-4.7,7.6-7.4,16.5-7.4,26.1c0,12.7,4.8,24.3,12.6,33.1l-16.6,15.7
	c9.1,10.5,22.5,17.1,37.5,17.1c17.8,0,33.5-9.4,42.2-23.6c4.7-7.6,7.4-16.5,7.4-26.1C2207,307.1,2201.3,294.5,2192,285.5z"/>
<path fill="none" stroke="#E8E8E8" stroke-width="2.1184" stroke-miterlimit="10" d="M2297.9,285.5l16.6-15.7
	c-9-9-21.4-14.6-35.1-14.6c-17.8,0-33.5,9.4-42.2,23.6c-4.7,7.6-7.4,16.5-7.4,26.1c0,12.7,4.8,24.3,12.6,33.1l-16.6,15.7
	c9.1,10.5,22.5,17.1,37.5,17.1c17.8,0,33.5-9.4,42.2-23.6c4.7-7.6,7.4-16.5,7.4-26.1C2312.9,307.1,2307.2,294.5,2297.9,285.5z"/>
<path fill="none" stroke="#E8E8E8" stroke-width="2.1184" stroke-miterlimit="10" d="M2022.6,158.4l16.6-15.7
	c-9-9-21.4-14.6-35.1-14.6c-17.8,0-33.5,9.4-42.2,23.6c-4.7,7.6-7.4,16.5-7.4,26.1c0,12.7,4.8,24.3,12.6,33.1l-16.6,15.7
	c9.1,10.5,22.5,17.1,37.5,17.1c17.8,0,33.5-9.4,42.2-23.6c4.7-7.6,7.4-16.5,7.4-26.1C2037.5,180,2031.8,167.4,2022.6,158.4z"/>
<path fill="none" stroke="#E8E8E8" stroke-width="2.1184" stroke-miterlimit="10" d="M2128.5,158.4l16.6-15.7
	c-9-9-21.4-14.6-35.1-14.6c-17.8,0-33.5,9.4-42.2,23.6c-4.7,7.6-7.4,16.5-7.4,26.1c0,12.7,4.8,24.3,12.6,33.1l-16.6,15.7
	c9.1,10.5,22.5,17.1,37.5,17.1c17.8,0,33.5-9.4,42.2-23.6c4.7-7.6,7.4-16.5,7.4-26.1C2143.5,180,2137.7,167.4,2128.5,158.4z"/>
<path fill="none" stroke="#E8E8E8" stroke-width="2.1184" stroke-miterlimit="10" d="M2234.4,158.4l16.6-15.7
	c-9-9-21.4-14.6-35.1-14.6c-17.8,0-33.5,9.4-42.2,23.6c-4.7,7.6-7.4,16.5-7.4,26.1c0,12.7,4.8,24.3,12.6,33.1l-16.6,15.7
	c9.1,10.5,22.5,17.1,37.5,17.1c17.8,0,33.5-9.4,42.2-23.6c4.7-7.6,7.4-16.5,7.4-26.1C2249.4,180,2243.6,167.4,2234.4,158.4z"/>
<path fill="none" stroke="#E8E8E8" stroke-width="2.1184" stroke-miterlimit="10" d="M2340.3,158.4l16.6-15.7
	c-9-9-21.4-14.6-35.1-14.6c-17.8,0-33.5,9.4-42.2,23.6c-4.7,7.6-7.4,16.5-7.4,26.1c0,12.7,4.8,24.3,12.6,33.1l-16.6,15.7
	c9.1,10.5,22.5,17.1,37.5,17.1c17.8,0,33.5-9.4,42.2-23.6c4.7-7.6,7.4-16.5,7.4-26.1C2355.3,180,2349.6,167.4,2340.3,158.4z"/>
<path fill="none" stroke="#E8E8E8" stroke-width="2.1184" stroke-miterlimit="10" d="M1980.2,31.3l16.6-15.7
	c-9-9-21.4-14.6-35.1-14.6c-17.8,0-33.5,9.4-42.2,23.6c-4.7,7.6-7.4,16.5-7.4,26.1c0,12.7,4.8,24.3,12.6,33.1l-16.6,15.7
	c9.1,10.5,22.5,17.1,37.5,17.1c17.8,0,33.5-9.4,42.2-23.6c4.7-7.6,7.4-16.5,7.4-26.1C1995.2,52.9,1989.4,40.3,1980.2,31.3z"/>
<path fill="none" stroke="#E8E8E8" stroke-width="2.1184" stroke-miterlimit="10" d="M2086.1,31.3l16.6-15.7
	c-9-9-21.4-14.6-35.1-14.6c-17.8,0-33.5,9.4-42.2,23.6c-4.7,7.6-7.4,16.5-7.4,26.1c0,12.7,4.8,24.3,12.6,33.1L2014,99.4
	c9.1,10.5,22.5,17.1,37.5,17.1c17.8,0,33.5-9.4,42.2-23.6c4.7-7.6,7.4-16.5,7.4-26.1C2101.1,52.9,2095.4,40.3,2086.1,31.3z"/>
<path fill="none" stroke="#E8E8E8" stroke-width="2.1184" stroke-miterlimit="10" d="M2192,31.3l16.6-15.7c-9-9-21.4-14.6-35.1-14.6
	c-17.8,0-33.5,9.4-42.2,23.6c-4.7,7.6-7.4,16.5-7.4,26.1c0,12.7,4.8,24.3,12.6,33.1l-16.6,15.7c9.1,10.5,22.5,17.1,37.5,17.1
	c17.8,0,33.5-9.4,42.2-23.6c4.7-7.6,7.4-16.5,7.4-26.1C2207,52.9,2201.3,40.3,2192,31.3z"/>
<path fill="none" stroke="#E8E8E8" stroke-width="2.1184" stroke-miterlimit="10" d="M2297.9,31.3l16.6-15.7
	c-9-9-21.4-14.6-35.1-14.6c-17.8,0-33.5,9.4-42.2,23.6c-4.7,7.6-7.4,16.5-7.4,26.1c0,12.7,4.8,24.3,12.6,33.1l-16.6,15.7
	c9.1,10.5,22.5,17.1,37.5,17.1c17.8,0,33.5-9.4,42.2-23.6c4.7-7.6,7.4-16.5,7.4-26.1C2312.9,52.9,2307.2,40.3,2297.9,31.3z"/>
<path fill="none" stroke="#E8E8E8" stroke-width="2.1184" stroke-miterlimit="10" d="M2022.6,921.1l16.6-15.7
	c-9-9-21.4-14.6-35.1-14.6c-17.8,0-33.5,9.4-42.2,23.6c-4.7,7.6-7.4,16.5-7.4,26.1c0,12.7,4.8,24.3,12.6,33.1l-16.6,15.7
	c9.1,10.5,22.5,17.1,37.5,17.1c17.8,0,33.5-9.4,42.2-23.6c4.7-7.6,7.4-16.5,7.4-26.1C2037.5,942.7,2031.8,930.1,2022.6,921.1z"/>
<path fill="none" stroke="#E8E8E8" stroke-width="2.1184" stroke-miterlimit="10" d="M2128.5,921.1l16.6-15.7
	c-9-9-21.4-14.6-35.1-14.6c-17.8,0-33.5,9.4-42.2,23.6c-4.7,7.6-7.4,16.5-7.4,26.1c0,12.7,4.8,24.3,12.6,33.1l-16.6,15.7
	c9.1,10.5,22.5,17.1,37.5,17.1c17.8,0,33.5-9.4,42.2-23.6c4.7-7.6,7.4-16.5,7.4-26.1C2143.5,942.7,2137.7,930.1,2128.5,921.1z"/>
<path fill="none" stroke="#E8E8E8" stroke-width="2.1184" stroke-miterlimit="10" d="M2234.4,921.1l16.6-15.7
	c-9-9-21.4-14.6-35.1-14.6c-17.8,0-33.5,9.4-42.2,23.6c-4.7,7.6-7.4,16.5-7.4,26.1c0,12.7,4.8,24.3,12.6,33.1l-16.6,15.7
	c9.1,10.5,22.5,17.1,37.5,17.1c17.8,0,33.5-9.4,42.2-23.6c4.7-7.6,7.4-16.5,7.4-26.1C2249.4,942.7,2243.6,930.1,2234.4,921.1z"/>
<path fill="none" stroke="#E8E8E8" stroke-width="2.1184" stroke-miterlimit="10" d="M2340.3,921.1l16.6-15.7
	c-9-9-21.4-14.6-35.1-14.6c-17.8,0-33.5,9.4-42.2,23.6c-4.7,7.6-7.4,16.5-7.4,26.1c0,12.7,4.8,24.3,12.6,33.1l-16.6,15.7
	c9.1,10.5,22.5,17.1,37.5,17.1c17.8,0,33.5-9.4,42.2-23.6c4.7-7.6,7.4-16.5,7.4-26.1C2355.3,942.7,2349.6,930.1,2340.3,921.1z"/>
<path fill="none" stroke="#E8E8E8" stroke-width="2.1184" stroke-miterlimit="10" d="M1980.2,793.9l16.6-15.7
	c-9-9-21.4-14.6-35.1-14.6c-17.8,0-33.5,9.4-42.2,23.6c-4.7,7.6-7.4,16.5-7.4,26.1c0,12.7,4.8,24.3,12.6,33.1l-16.6,15.7
	c9.1,10.5,22.5,17.1,37.5,17.1c17.8,0,33.5-9.4,42.2-23.6c4.7-7.6,7.4-16.5,7.4-26.1C1995.2,815.6,1989.4,803,1980.2,793.9z"/>
<path fill="none" stroke="#E8E8E8" stroke-width="2.1184" stroke-miterlimit="10" d="M2086.1,793.9l16.6-15.7
	c-9-9-21.4-14.6-35.1-14.6c-17.8,0-33.5,9.4-42.2,23.6c-4.7,7.6-7.4,16.5-7.4,26.1c0,12.7,4.8,24.3,12.6,33.1l-16.6,15.7
	c9.1,10.5,22.5,17.1,37.5,17.1c17.8,0,33.5-9.4,42.2-23.6c4.7-7.6,7.4-16.5,7.4-26.1C2101.1,815.6,2095.4,803,2086.1,793.9z"/>
<path fill="none" stroke="#E8E8E8" stroke-width="2.1184" stroke-miterlimit="10" d="M2192,793.9l16.6-15.7
	c-9-9-21.4-14.6-35.1-14.6c-17.8,0-33.5,9.4-42.2,23.6c-4.7,7.6-7.4,16.5-7.4,26.1c0,12.7,4.8,24.3,12.6,33.1l-16.6,15.7
	c9.1,10.5,22.5,17.1,37.5,17.1c17.8,0,33.5-9.4,42.2-23.6c4.7-7.6,7.4-16.5,7.4-26.1C2207,815.6,2201.3,803,2192,793.9z"/>
<path fill="none" stroke="#E8E8E8" stroke-width="2.1184" stroke-miterlimit="10" d="M2297.9,793.9l16.6-15.7
	c-9-9-21.4-14.6-35.1-14.6c-17.8,0-33.5,9.4-42.2,23.6c-4.7,7.6-7.4,16.5-7.4,26.1c0,12.7,4.8,24.3,12.6,33.1l-16.6,15.7
	c9.1,10.5,22.5,17.1,37.5,17.1c17.8,0,33.5-9.4,42.2-23.6c4.7-7.6,7.4-16.5,7.4-26.1C2312.9,815.6,2307.2,803,2297.9,793.9z"/>
<path fill="none" stroke="#E8E8E8" stroke-width="2.1184" stroke-miterlimit="10" d="M2022.6,666.8l16.6-15.7
	c-9-9-21.4-14.6-35.1-14.6c-17.8,0-33.5,9.4-42.2,23.6c-4.7,7.6-7.4,16.5-7.4,26.1c0,12.7,4.8,24.3,12.6,33.1l-16.6,15.7
	c9.1,10.5,22.5,17.1,37.5,17.1c17.8,0,33.5-9.4,42.2-23.6c4.7-7.6,7.4-16.5,7.4-26.1C2037.5,688.5,2031.8,675.9,2022.6,666.8z"/>
<path fill="none" stroke="#E8E8E8" stroke-width="2.1184" stroke-miterlimit="10" d="M2128.5,666.8l16.6-15.7
	c-9-9-21.4-14.6-35.1-14.6c-17.8,0-33.5,9.4-42.2,23.6c-4.7,7.6-7.4,16.5-7.4,26.1c0,12.7,4.8,24.3,12.6,33.1l-16.6,15.7
	c9.1,10.5,22.5,17.1,37.5,17.1c17.8,0,33.5-9.4,42.2-23.6c4.7-7.6,7.4-16.5,7.4-26.1C2143.5,688.5,2137.7,675.9,2128.5,666.8z"/>
<path fill="none" stroke="#E8E8E8" stroke-width="2.1184" stroke-miterlimit="10" d="M2234.4,666.8l16.6-15.7
	c-9-9-21.4-14.6-35.1-14.6c-17.8,0-33.5,9.4-42.2,23.6c-4.7,7.6-7.4,16.5-7.4,26.1c0,12.7,4.8,24.3,12.6,33.1l-16.6,15.7
	c9.1,10.5,22.5,17.1,37.5,17.1c17.8,0,33.5-9.4,42.2-23.6c4.7-7.6,7.4-16.5,7.4-26.1C2249.4,688.5,2243.6,675.9,2234.4,666.8z"/>
<path fill="none" stroke="#E8E8E8" stroke-width="2.1184" stroke-miterlimit="10" d="M2340.3,666.8l16.6-15.7
	c-9-9-21.4-14.6-35.1-14.6c-17.8,0-33.5,9.4-42.2,23.6c-4.7,7.6-7.4,16.5-7.4,26.1c0,12.7,4.8,24.3,12.6,33.1l-16.6,15.7
	c9.1,10.5,22.5,17.1,37.5,17.1c17.8,0,33.5-9.4,42.2-23.6c4.7-7.6,7.4-16.5,7.4-26.1C2355.3,688.5,2349.6,675.9,2340.3,666.8z"/>
<path fill="none" stroke="#E8E8E8" stroke-width="2.1184" stroke-miterlimit="10" d="M1980.2,539.7l16.6-15.7
	c-9-9-21.4-14.6-35.1-14.6c-17.8,0-33.5,9.4-42.2,23.6c-4.7,7.6-7.4,16.5-7.4,26.1c0,12.7,4.8,24.3,12.6,33.1l-16.6,15.7
	c9.1,10.5,22.5,17.1,37.5,17.1c17.8,0,33.5-9.4,42.2-23.6c4.7-7.6,7.4-16.5,7.4-26.1C1995.2,561.3,1989.4,548.8,1980.2,539.7z"/>
<path fill="none" stroke="#E8E8E8" stroke-width="2.1184" stroke-miterlimit="10" d="M2086.1,539.7l16.6-15.7
	c-9-9-21.4-14.6-35.1-14.6c-17.8,0-33.5,9.4-42.2,23.6c-4.7,7.6-7.4,16.5-7.4,26.1c0,12.7,4.8,24.3,12.6,33.1l-16.6,15.7
	c9.1,10.5,22.5,17.1,37.5,17.1c17.8,0,33.5-9.4,42.2-23.6c4.7-7.6,7.4-16.5,7.4-26.1C2101.1,561.3,2095.4,548.8,2086.1,539.7z"/>
<path fill="none" stroke="#E8E8E8" stroke-width="2.1184" stroke-miterlimit="10" d="M2192,539.7l16.6-15.7
	c-9-9-21.4-14.6-35.1-14.6c-17.8,0-33.5,9.4-42.2,23.6c-4.7,7.6-7.4,16.5-7.4,26.1c0,12.7,4.8,24.3,12.6,33.1l-16.6,15.7
	c9.1,10.5,22.5,17.1,37.5,17.1c17.8,0,33.5-9.4,42.2-23.6c4.7-7.6,7.4-16.5,7.4-26.1C2207,561.3,2201.3,548.8,2192,539.7z"/>
<path fill="none" stroke="#E8E8E8" stroke-width="2.1184" stroke-miterlimit="10" d="M2297.9,539.7l16.6-15.7
	c-9-9-21.4-14.6-35.1-14.6c-17.8,0-33.5,9.4-42.2,23.6c-4.7,7.6-7.4,16.5-7.4,26.1c0,12.7,4.8,24.3,12.6,33.1l-16.6,15.7
	c9.1,10.5,22.5,17.1,37.5,17.1c17.8,0,33.5-9.4,42.2-23.6c4.7-7.6,7.4-16.5,7.4-26.1C2312.9,561.3,2307.2,548.8,2297.9,539.7z"/>
</svg>
