<?xml version="1.0" encoding="UTF-8" standalone="no"?>
<svg width="51px" height="52px" viewBox="0 0 51 52" version="1.1" xmlns="http://www.w3.org/2000/svg" xmlns:xlink="http://www.w3.org/1999/xlink" xmlns:sketch="http://www.bohemiancoding.com/sketch/ns">
    <!-- Generator: Sketch 3.2.2 (9983) - http://www.bohemiancoding.com/sketch -->
    <title>icns_Handoff</title>
    <desc>Created with Sketch.</desc>
    <defs></defs>
    <g id="Page-1" stroke="none" stroke-width="1" fill="none" fill-rule="evenodd" sketch:type="MSPage">
        <g id="Black" sketch:type="MSArtboardGroup" transform="translate(-156.000000, -22.000000)">
            <g id="icns_Handoff" sketch:type="MSLayerGroup" transform="translate(156.000000, 22.000000)">
                <rect id="Rectangle-8" fill="none" sketch:type="MSShapeGroup" x="0" y="0" width="51" height="52"></rect>
                <g id="Laag_2" transform="translate(1.000000, 0.000000)" fill="#362F34" sketch:type="MSShapeGroup">
                    <g id="Group">
                        <path d="M10,17.1545455 C10,10.7795455 15.2325581,5.56363636 21.627907,5.56363636 L37.4418605,5.56363636 L37.4418605,4.52045455 C37.4418605,2.31818182 35.5813953,0.463636364 33.372093,0.463636364 L8.95348837,0.463636364 C6.74418605,0.463636364 4.88372093,2.31818182 4.88372093,4.52045455 L4.88372093,21.7909091 C4.88372093,23.9931818 6.74418605,25.8477273 8.95348837,25.8477273 L10,25.8477273 L10,17.1545455 L10,17.1545455 Z" id="Shape"></path>
                        <path d="M48.1395349,16.6909091 L48.1395349,16.6909091 C47.9069767,11.9386364 43.9534884,8.11363636 39.0697674,8.11363636 L21.627907,8.11363636 C16.627907,8.11363636 12.5581395,12.1704545 12.5581395,17.1545455 L12.5581395,41.6113636 C12.5581395,46.5954545 16.627907,50.6522727 21.627907,50.6522727 L39.0697674,50.6522727 C44.0697674,50.6522727 48.1395349,46.5954545 48.1395349,41.6113636 L48.1395349,23.7613636 C48.8372093,23.7613636 49.4186047,23.1818182 49.4186047,22.4863636 L49.4186047,17.9659091 C49.4186047,17.2704545 48.8372093,16.6909091 48.1395349,16.6909091 L48.1395349,16.6909091 Z M45.5813953,41.6113636 C45.5813953,45.2045455 42.6744186,48.1022727 39.0697674,48.1022727 L21.627907,48.1022727 C18.0232558,48.1022727 15.1162791,45.2045455 15.1162791,41.6113636 L15.1162791,17.1545455 C15.1162791,13.5613636 18.0232558,10.6636364 21.627907,10.6636364 L39.0697674,10.6636364 C42.6744186,10.6636364 45.5813953,13.5613636 45.5813953,17.1545455 L45.5813953,41.6113636 L45.5813953,41.6113636 Z" id="Shape"></path>
                        <path d="M10,27.1227273 L2.09302326,27.1227273 C1.39534884,27.1227273 0.813953488,27.7022727 0.813953488,28.3977273 C0.813953488,29.0931818 1.39534884,29.6727273 2.09302326,29.6727273 L10,29.6727273 L10,27.1227273 L10,27.1227273 Z" id="Shape"></path>
                    </g>
                    <path d="M38.9534884,13.2136364 L21.744186,13.2136364 C19.5348837,13.2136364 17.6744186,15.0681818 17.6744186,17.2704545 L17.6744186,41.6113636 C17.6744186,43.8136364 19.5348837,45.6681818 21.744186,45.6681818 L39.0697674,45.6681818 C41.2790698,45.6681818 43.1395349,43.8136364 43.1395349,41.6113636 L43.1395349,17.2704545 C43.0232558,14.9522727 41.2790698,13.2136364 38.9534884,13.2136364 L38.9534884,13.2136364 Z" id="Shape"></path>
                </g>
            </g>
        </g>
    </g>
</svg>
