<?xml version="1.0" encoding="utf-8"?>
<!-- Generator: Adobe Illustrator 18.1.0, SVG Export Plug-In . SVG Version: 6.00 Build 0)  -->
<svg version="1.1" xmlns="http://www.w3.org/2000/svg" xmlns:xlink="http://www.w3.org/1999/xlink" x="0px" y="0px"
	 viewBox="0 0 50 50" enable-background="new 0 0 50 50" xml:space="preserve">
<g id="Laag_1" display="none">
</g>
<g id="Laag_2">
	<g>
		<path fill="#362F34" d="M43.4,15.4C43.4,15.4,43.4,15.4,43.4,15.4C43.2,11.3,39.8,8,35.6,8h-15c-4.3,0-7.8,3.5-7.8,7.8v21.1
			c0,4.3,3.5,7.8,7.8,7.8h15c4.3,0,7.8-3.5,7.8-7.8V21.5c0.6,0,1.1-0.5,1.1-1.1v-3.9C44.5,15.9,44,15.4,43.4,15.4z M41.2,36.9
			c0,3.1-2.5,5.6-5.6,5.6h-15c-3.1,0-5.6-2.5-5.6-5.6V15.8c0-3.1,2.5-5.6,5.6-5.6h15c3.1,0,5.6,2.5,5.6,5.6V36.9z"/>
		<path fill="#362F34" d="M35.5,12.4H20.7c-1.9,0-3.5,1.6-3.5,3.5v21c0,1.9,1.6,3.5,3.5,3.5h14.9c1.9,0,3.5-1.6,3.5-3.5v-21
			C39,13.9,37.5,12.4,35.5,12.4z M23.7,38.2L23.7,38.2c-0.6,0-1.1-0.5-1.1-1.1c0-0.6,0.5-1.1,1.1-1.1l0,0c0.6,0,1.1,0.5,1.1,1.1
			C24.8,37.7,24.3,38.2,23.7,38.2z M28.1,38.2c-0.6,0-1.1-0.5-1.1-1.1c0-0.6,0.5-1.1,1.1-1.1c0.6,0,1.1,0.5,1.1,1.1
			C29.2,37.7,28.7,38.2,28.1,38.2z M32.5,38.2c-0.6,0-1.1-0.5-1.1-1.1c0-0.6,0.5-1.1,1.1-1.1c0.6,0,1.1,0.5,1.1,1.1
			C33.6,37.7,33.1,38.2,32.5,38.2z"/>
	</g>
	<rect x="-78.8" y="-30" fill="none" stroke="#E52420" stroke-width="10" stroke-miterlimit="10" width="207.8" height="160"/>
</g>
</svg>
