<?xml version="1.0" encoding="utf-8"?>
<!-- Generator: Adobe Illustrator 18.1.0, SVG Export Plug-In . SVG Version: 6.00 Build 0)  -->
<svg version="1.1" xmlns="http://www.w3.org/2000/svg" xmlns:xlink="http://www.w3.org/1999/xlink" x="0px" y="0px"
	 viewBox="0 0 50 50" enable-background="new 0 0 50 50" xml:space="preserve">
<g id="Laag_1" display="none">
</g>
<g id="Laag_2">
	<path fill="#362F34" d="M43.4,15.4C43.4,15.4,43.4,15.4,43.4,15.4C43.2,11.3,39.8,8,35.6,8h-15c-4.3,0-7.8,3.5-7.8,7.8v21.1
		c0,4.3,3.5,7.8,7.8,7.8h15c4.3,0,7.8-3.5,7.8-7.8V21.5c0.6,0,1.1-0.5,1.1-1.1v-3.9C44.5,15.9,44,15.4,43.4,15.4z M41.2,36.9
		c0,3.1-2.5,5.6-5.6,5.6h-15c-3.1,0-5.6-2.5-5.6-5.6V15.8c0-3.1,2.5-5.6,5.6-5.6h15c3.1,0,5.6,2.5,5.6,5.6V36.9z"/>
	<path fill="#362F34" d="M35.5,12.4H20.7c-1.9,0-3.5,1.6-3.5,3.5v21c0,1.9,1.6,3.5,3.5,3.5h14.9c1.9,0,3.5-1.6,3.5-3.5v-21
		C39,13.9,37.5,12.4,35.5,12.4z M28.1,34.1c-1.8,0-6.2-3.4-8-7.4h4.2l0.8,1.7l0.7,1.4l0.5-1.5l0.6-1.6l0.4-1l0.5,1l0.7,1.5l0.7,1.4
		l0.5-1.5l0.5-1.5l0.4-1.1h0.1l0.5,1.1h1.2h3.8C34.3,30.7,29.9,34.1,28.1,34.1z M36.5,25.5h-4.7L31.1,24l-0.7-1.4l-0.5,1.5l-0.5,1.5
		L29,26.6h-0.1l-0.5-1.1l-0.6-1.4l-0.7-1.4l-0.5,1.5l-0.5,1.3l-0.4,1.1h-0.2L25,25.5h-1.2h-4.1c-0.2-0.7-0.3-1.4-0.3-2.1
		c0-2.7,2.2-4.8,4.8-4.8c0.6,0,1.2,0.1,1.8,0.3c0.9,0.3,1.6,0.9,2.1,1.7c0.5-0.8,1.3-1.4,2.1-1.7c0.6-0.2,1.2-0.3,1.8-0.3
		c2.7,0,4.8,2.2,4.8,4.8C36.8,24.2,36.7,24.9,36.5,25.5z"/>
	<rect x="-138.8" y="-90" fill="none" stroke="#E52420" stroke-width="10" stroke-miterlimit="10" width="207.8" height="160"/>
</g>
</svg>
