<?xml version="1.0" encoding="UTF-8" standalone="no"?>
<svg width="51px" height="52px" viewBox="0 0 51 52" version="1.1" xmlns="http://www.w3.org/2000/svg" xmlns:xlink="http://www.w3.org/1999/xlink" xmlns:sketch="http://www.bohemiancoding.com/sketch/ns">
    <!-- Generator: Sketch 3.2.2 (9983) - http://www.bohemiancoding.com/sketch -->
    <title>icns_Taptic</title>
    <desc>Created with Sketch.</desc>
    <defs></defs>
    <g id="Page-1" stroke="none" stroke-width="1" fill="none" fill-rule="evenodd" sketch:type="MSPage">
        <g id="White" sketch:type="MSArtboardGroup" transform="translate(-345.000000, -22.000000)">
            <g id="icns_Taptic" sketch:type="MSLayerGroup" transform="translate(338.000000, 20.000000)">
                <rect id="Rectangle-11" fill="#FFFFFF" sketch:type="MSShapeGroup" x="7" y="2" width="51" height="52"></rect>
                <g id="Laag_2" transform="translate(32.942792, 30.064662) rotate(-7.000000) translate(-32.942792, -30.064662) translate(3.942792, 4.064662)" sketch:type="MSShapeGroup">
                    <g id="Group" transform="translate(1.000000, 1.000000)">
                        <path d="M45.6923077,12.92 L45.6923077,12.92 C45.4615385,8.27333333 41.5384615,4.53333333 36.6923077,4.53333333 L19.3846154,4.53333333 C14.4230769,4.53333333 10.3846154,8.5 10.3846154,13.3733333 L10.3846154,37.2866667 C10.3846154,42.16 14.4230769,46.1266667 19.3846154,46.1266667 L36.6923077,46.1266667 C41.6538462,46.1266667 45.6923077,42.16 45.6923077,37.2866667 L45.6923077,19.8333333 C46.3846154,19.8333333 46.9615385,19.2666667 46.9615385,18.5866667 L46.9615385,14.1666667 C46.9615385,13.4866667 46.3846154,12.92 45.6923077,12.92 L45.6923077,12.92 Z M43.1538462,37.2866667 C43.1538462,40.8 40.2692308,43.6333333 36.6923077,43.6333333 L19.3846154,43.6333333 C15.8076923,43.6333333 12.9230769,40.8 12.9230769,37.2866667 L12.9230769,13.3733333 C12.9230769,9.86 15.8076923,7.02666667 19.3846154,7.02666667 L36.6923077,7.02666667 C40.2692308,7.02666667 43.1538462,9.86 43.1538462,13.3733333 L43.1538462,37.2866667 L43.1538462,37.2866667 Z" id="Shape" fill="#362F34"></path>
                        <path d="M45.6923077,12.92 L45.6923077,12.92 C45.4615385,8.27333333 41.5384615,4.53333333 36.6923077,4.53333333 L19.3846154,4.53333333 C14.4230769,4.53333333 10.3846154,8.5 10.3846154,13.3733333 L10.3846154,37.2866667 C10.3846154,42.16 14.4230769,46.1266667 19.3846154,46.1266667 L36.6923077,46.1266667 C41.6538462,46.1266667 45.6923077,42.16 45.6923077,37.2866667 L45.6923077,19.8333333 C46.3846154,19.8333333 46.9615385,19.2666667 46.9615385,18.5866667 L46.9615385,14.1666667 C46.9615385,13.4866667 46.3846154,12.92 45.6923077,12.92 L45.6923077,12.92 Z M43.1538462,37.2866667 C43.1538462,40.8 40.2692308,43.6333333 36.6923077,43.6333333 L19.3846154,43.6333333 C15.8076923,43.6333333 12.9230769,40.8 12.9230769,37.2866667 L12.9230769,13.3733333 C12.9230769,9.86 15.8076923,7.02666667 19.3846154,7.02666667 L36.6923077,7.02666667 C40.2692308,7.02666667 43.1538462,9.86 43.1538462,13.3733333 L43.1538462,37.2866667 L43.1538462,37.2866667 Z" id="Shape" fill="#FFFFFF"></path>
                        <path d="M36.5769231,9.52 L19.5,9.52 C17.3076923,9.52 15.4615385,11.3333333 15.4615385,13.4866667 L15.4615385,37.2866667 C15.4615385,39.44 17.3076923,41.2533333 19.5,41.2533333 L36.6923077,41.2533333 C38.8846154,41.2533333 40.7307692,39.44 40.7307692,37.2866667 L40.7307692,13.4866667 C40.6153846,11.22 38.8846154,9.52 36.5769231,9.52 L36.5769231,9.52 Z" id="Shape" fill="#FFFFFF"></path>
                        <path d="M47.5384615,41.14 C46.3846154,44.2 43.8461538,46.6933333 40.7307692,47.8266667 L40.7307692,50.4333333 C45.3461538,49.0733333 48.9230769,45.56 50.1923077,41.14 L47.5384615,41.14 L47.5384615,41.14 Z" id="Shape" fill="#FFFFFF"></path>
                        <path d="M15.4615385,0.113333333 C10.8461538,1.47333333 7.26923077,4.98666667 6,9.40666667 L8.65384615,9.40666667 C9.80769231,6.34666667 12.3461538,3.85333333 15.4615385,2.72 L15.4615385,0.113333333 L15.4615385,0.113333333 Z" id="Shape" fill="#FFFFFF"></path>
                    </g>
                </g>
            </g>
        </g>
    </g>
</svg>