<?xml version="1.0" encoding="UTF-8" standalone="no"?>
<svg width="596px" height="842px" viewBox="0 0 596 842" version="1.1" xmlns="http://www.w3.org/2000/svg" xmlns:xlink="http://www.w3.org/1999/xlink" xmlns:sketch="http://www.bohemiancoding.com/sketch/ns">
    <!-- Generator: Sketch 3.2.1 (9977) - http://www.bohemiancoding.com/sketch -->
    <title>Slice 1@2x</title>
    <desc>Created with Sketch.</desc>
    <defs></defs>
    <g id="Page-1" stroke="none" stroke-width="1" fill="none" fill-rule="evenodd" sketch:type="MSPage">
        <g id="icon-force" sketch:type="MSLayerGroup" fill="#362F34">
            <g id="Laag_2" transform="translate(152.000000, 218.000000)" sketch:type="MSShapeGroup">
                <g id="Group">
                    <path d="M364.703,88.651 L364.703,88.651 C362.321,39.838 321.843,0.549 271.839,0.549 L93.255,0.549 C42.062,0.549 0.392,42.218 0.392,93.413 L0.392,344.621 C0.392,395.814 42.062,437.484 93.255,437.484 L271.839,437.484 C277.792,437.484 283.745,436.294 288.507,436.294 C293.27,435.104 298.031,433.913 302.794,432.723 L281.363,411.292 L136.115,264.854 C111.113,239.852 111.113,198.182 136.115,173.181 C161.117,148.179 202.786,148.179 227.788,173.181 L338.511,283.903 L364.703,310.095 L364.703,292.237 L364.703,161.275 C371.846,161.275 377.799,155.322 377.799,148.179 L377.799,101.747 C377.799,94.604 371.846,88.651 364.703,88.651 L364.703,88.651 Z M237.313,163.657 L237.313,163.657 C223.027,149.37 203.978,141.036 182.547,141.036 C139.688,141.036 103.971,175.562 103.971,219.613 C103.971,241.043 112.304,261.282 126.591,274.379 L159.927,307.715 C120.638,298.19 90.874,262.473 90.874,219.613 C90.874,169.609 131.353,127.94 182.547,127.94 C225.407,127.94 261.124,157.704 270.649,196.992 L237.313,163.657 L237.313,163.657 Z M338.511,264.854 L312.319,238.662 L312.319,94.604 C312.319,71.983 293.27,52.935 270.649,52.935 L94.446,52.935 C71.826,52.935 52.777,71.984 52.777,94.604 L52.777,344.622 C52.777,367.242 71.826,386.291 94.446,386.291 L238.504,386.291 L264.696,412.483 L93.256,412.483 C56.349,412.483 26.585,382.719 26.585,345.812 L26.585,93.414 C26.585,56.506 56.349,26.743 93.256,26.743 L271.84,26.743 C308.747,26.743 338.512,56.507 338.512,93.414 L338.512,264.854 L338.511,264.854 L338.511,264.854 Z" id="Shape"></path>
                    <path d="M145.64,182.706 C125.401,202.946 125.401,236.282 145.64,256.521 L145.64,256.521 C155.164,266.045 183.738,276.76 183.738,276.76 C205.169,285.094 221.837,289.857 237.313,274.379 C252.791,258.901 248.029,242.233 239.695,220.804 C239.695,220.804 228.979,192.23 219.455,182.706 L219.455,182.706 C199.215,161.275 165.879,162.466 145.64,182.706 L145.64,182.706 Z" id="Shape"></path>
                </g>
            </g>
        </g>
    </g>
</svg>