<?xml version="1.0" encoding="UTF-8" standalone="no"?>
<svg width="51px" height="52px" viewBox="0 0 51 52" version="1.1" xmlns="http://www.w3.org/2000/svg" xmlns:xlink="http://www.w3.org/1999/xlink" xmlns:sketch="http://www.bohemiancoding.com/sketch/ns">
    <!-- Generator: Sketch 3.2.2 (9983) - http://www.bohemiancoding.com/sketch -->
    <title>icns_Heartbeat</title>
    <desc>Created with Sketch.</desc>
    <defs></defs>
    <g id="Page-1" stroke="none" stroke-width="1" fill="none" fill-rule="evenodd" sketch:type="MSPage">
        <g id="Black" sketch:type="MSArtboardGroup" transform="translate(-282.000000, -22.000000)">
            <g id="icns_Heartbeat" sketch:type="MSLayerGroup" transform="translate(282.000000, 22.000000)">
                <rect id="Rectangle-10" fill="none" sketch:type="MSShapeGroup" x="0" y="0" width="51" height="52"></rect>
                <g id="Laag_2" transform="translate(12.000000, 8.000000)" fill="#362F34" sketch:type="MSShapeGroup">
                    <path d="M37.1090909,8.6 L37.1090909,8.6 C36.8727273,3.83513514 32.8545455,0 27.8909091,0 L10.1636364,0 C5.08181818,0 0.945454545,4.06756757 0.945454545,9.06486486 L0.945454545,33.5864865 C0.945454545,38.5837838 5.08181818,42.6513514 10.1636364,42.6513514 L27.8909091,42.6513514 C32.9727273,42.6513514 37.1090909,38.5837838 37.1090909,33.5864865 L37.1090909,15.6891892 C37.8181818,15.6891892 38.4090909,15.1081081 38.4090909,14.4108108 L38.4090909,9.87837838 C38.4090909,9.18108108 37.8181818,8.6 37.1090909,8.6 L37.1090909,8.6 Z M34.5090909,33.5864865 C34.5090909,37.1891892 31.5545455,40.0945946 27.8909091,40.0945946 L10.1636364,40.0945946 C6.5,40.0945946 3.54545455,37.1891892 3.54545455,33.5864865 L3.54545455,9.06486486 C3.54545455,5.46216216 6.5,2.55675676 10.1636364,2.55675676 L27.8909091,2.55675676 C31.5545455,2.55675676 34.5090909,5.46216216 34.5090909,9.06486486 L34.5090909,33.5864865 L34.5090909,33.5864865 Z" id="Shape"></path>
                    <path d="M27.7727273,5.11351351 L10.2818182,5.11351351 C8.03636364,5.11351351 6.14545455,6.97297297 6.14545455,9.18108108 L6.14545455,33.5864865 C6.14545455,35.7945946 8.03636364,37.6540541 10.2818182,37.6540541 L27.8909091,37.6540541 C30.1363636,37.6540541 32.0272727,35.7945946 32.0272727,33.5864865 L32.0272727,9.18108108 C31.9090909,6.85675676 30.1363636,5.11351351 27.7727273,5.11351351 L27.7727273,5.11351351 Z M19.0272727,30.3324324 C16.9,30.3324324 11.7,26.3810811 9.57272727,21.7324324 L14.5363636,21.7324324 L15.4818182,23.7081081 L16.3090909,25.3351351 L16.9,23.5918919 L17.6090909,21.7324324 L18.0818182,20.5702703 L18.6727273,21.7324324 L19.5,23.4756757 L20.3272727,25.1027027 L20.9181818,23.3594595 L21.5090909,21.6162162 L21.9818182,20.3378378 L22.1,20.3378378 L22.6909091,21.6162162 L24.1090909,21.6162162 L28.6,21.6162162 C26.3545455,26.3810811 21.1545455,30.3324324 19.0272727,30.3324324 L19.0272727,30.3324324 Z M28.9545455,20.3378378 L23.4,20.3378378 L22.5727273,18.5945946 L21.7454545,16.9675676 L21.1545455,18.7108108 L20.5636364,20.4540541 L20.0909091,21.6162162 L19.9727273,21.6162162 L19.3818182,20.3378378 L18.6727273,18.7108108 L17.8454545,17.0837838 L17.2545455,18.827027 L16.6636364,20.3378378 L16.1909091,21.6162162 L15.9545455,21.6162162 L15.3636364,20.3378378 L13.9454545,20.3378378 L9.1,20.3378378 C8.86363636,19.5243243 8.74545455,18.7108108 8.74545455,17.8972973 C8.74545455,14.7594595 11.3454545,12.3189189 14.4181818,12.3189189 C15.1272727,12.3189189 15.8363636,12.4351351 16.5454545,12.6675676 C17.6090909,13.0162162 18.4363636,13.7135135 19.0272727,14.6432432 C19.6181818,13.7135135 20.5636364,13.0162162 21.5090909,12.6675676 C22.2181818,12.4351351 22.9272727,12.3189189 23.6363636,12.3189189 C26.8272727,12.3189189 29.3090909,14.8756757 29.3090909,17.8972973 C29.3090909,18.827027 29.1909091,19.6405405 28.9545455,20.3378378 L28.9545455,20.3378378 Z" id="Shape"></path>
                </g>
            </g>
        </g>
    </g>
</svg>
