<?xml version="1.0" encoding="utf-8"?>
<!-- Generator: Adobe Illustrator 17.1.0, SVG Export Plug-In . SVG Version: 6.00 Build 0)  -->
<!DOCTYPE svg PUBLIC "-//W3C//DTD SVG 1.1//EN" "http://www.w3.org/Graphics/SVG/1.1/DTD/svg11.dtd">
<svg version="1.1" id="Laag_1" xmlns="http://www.w3.org/2000/svg" xmlns:xlink="http://www.w3.org/1999/xlink" x="0px" y="0px"
	 viewBox="0 0 1200 1083" enable-background="new 0 0 1200 1083" xml:space="preserve">
<path fill="#C6C6C6" d="M429,237.9c0,5.5-4.5,10-10,10l0,0c-5.5,0-10-4.5-10-10V40c0-5.5,4.5-10,10-10l0,0c5.5,0,10,4.5,10,10V237.9
	z"/>
<path fill="#C6C6C6" d="M746.6,237.9c0,5.5-4.5,10-10,10l0,0c-5.5,0-10-4.5-10-10V40c0-5.5,4.5-10,10-10l0,0c5.5,0,10,4.5,10,10
	V237.9z"/>
<path fill="#C6C6C6" d="M647,329.7c-2.7,2.3-7.9,0.8-11.5-3.4l0,0c-3.6-4.2-4.3-9.5-1.6-11.8l97.8-83.9c2.7-2.3,7.9-0.8,11.5,3.4
	l0,0c3.6,4.2,4.3,9.5,1.6,11.8L647,329.7z"/>
<path fill="#C6C6C6" d="M509.8,329.8c2.6,2.2,7.6,0.6,11.2-3.6l0,0c3.6-4.2,4.4-9.4,1.9-11.6l-98.4-84.2c-2.6-2.2-7.6-0.6-11.2,3.6
	l0,0c-3.6,4.2-4.4,9.4-1.9,11.6L509.8,329.8z"/>
<path fill="#C6C6C6" d="M641.8,310.8c3.6,0,6.5,4.5,6.5,10l0,0c0,5.5-2.9,10-6.5,10H512.7c-3.6,0-6.5-4.5-6.5-10l0,0
	c0-5.5,2.9-10,6.5-10H641.8z"/>
<path fill="#C6C6C6" d="M590.2,685.5c0,10-4.5,18-10,18l0,0c-5.5,0-10-8.1-10-18V328.8c0-10,4.5-18,10-18l0,0c5.5,0,10,8.1,10,18
	V685.5z"/>
<path fill="#C6C6C6" d="M874.1,549.9c21.3,0,19.6,4.5,19.6,10l0,0c0,5.5,1.7,10-19.6,10H99.5c-21.3,0-25.5-4.5-25.5-10l0,0
	c0-5.5,4.2-10,25.5-10H874.1z"/>
<rect x="600.1" y="579.5" fill="#9D9D9C" width="80.2" height="99.5"/>
<rect x="369.7" y="579.5" fill="#9D9D9C" width="190.5" height="99.5"/>
<path fill="#9D9D9C" d="M885.7,787"/>
<path fill="#C6C6C6" d="M887.6,709H98.7c-21.6,0-25.7-4.6-25.7-10.3l0,0c0-5.7,4.1-10.3,25.7-10.3h788.9"/>
<path fill="#C6C6C6" d="M711,788.5c0,6.3-4.5,11.5-10,11.5l0,0c-5.5,0-10-5.1-10-11.5V561.9c0-6.3,4.5-11.5,10-11.5l0,0
	c5.5,0,10,5.1,10,11.5V788.5z"/>
<polygon fill="#9D9D9C" points="1169.1,730.5 885.7,679.3 721.1,679.3 721.1,579.9 885.7,579.9 885.5,641.1 1168.9,692.5 "/>
<rect x="249.1" y="579.5" fill="#9D9D9C" width="80.2" height="99.5"/>
<path fill="#C6C6C6" d="M359.3,701.2c0,4-4.5,7.3-10,7.3l0,0c-5.5,0-10-3.2-10-7.3V557.7c0-4,4.5-7.3,10-7.3l0,0
	c5.5,0,10,3.2,10,7.3V701.2z"/>
<path fill="#C6C6C6" d="M239.3,701.2c0,4-4.5,7.3-10,7.3l0,0c-5.5,0-10-3.2-10-7.3V557.7c0-4,4.5-7.3,10-7.3l0,0
	c5.5,0,10,3.2,10,7.3V701.2z"/>
<rect x="86.7" y="579.7" fill="#9D9D9C" width="122.7" height="99.5"/>
<path fill="#B2B2B2" d="M885.7,678.5"/>
<path fill="#B2B2B2" d="M885.7,579.3"/>
<path fill="#B2B2B2" d="M885.7,579.3"/>
<path fill="#B2B2B2" d="M885.7,579.3"/>
<path fill="none" d="M885.7,579.3"/>
<path fill="#B2B2B2" d="M885.7,579.3"/>
<path fill="#B2B2B2" d="M885.7,579.3"/>
<path fill="#B2B2B2" d="M885.7,579.3"/>
<path fill="#B2B2B2" d="M885.7,679"/>
<path fill="none" stroke="#000000" stroke-miterlimit="10" d="M1147.7,736.5"/>
<path fill="none" stroke="#000000" stroke-miterlimit="10" d="M885.7,689"/>
<path fill="none" stroke="#000000" stroke-miterlimit="10" d="M1147.7,617.5"/>
<path fill="none" stroke="#000000" stroke-miterlimit="10" d="M885.7,570"/>
<path fill="#C6C6C6" d="M1155.9,599.3c8.2,1.5,14,7.1,13,12.5l0,0c-1,5.4-8.4,8.6-16.6,7.2l-272.2-49.4c-8.2-1.5-14-7.1-13-12.5l0,0
	c1-5.4,8.4-8.6,16.6-7.2L1155.9,599.3z"/>
<path fill="#C6C6C6" d="M1156,736.5c8.2,1.5,14,7.2,13,12.8l0,0c-1,5.6-8.4,8.9-16.6,7.4l-265-47.6c-8.2-1.5-14-7.2-13-12.8l0,0
	c1-5.6,8.4-8.9,16.6-7.4L1156,736.5z"/>
<polygon fill="#9D9D9C" points="1169,818.5 885.7,771.4 721.1,771.4 721.1,718.5 885.7,718.5 1168.9,767.5 "/>
<path fill="none" stroke="#000000" stroke-miterlimit="10" d="M1148.7,590.5"/>
<path fill="none" stroke="#000000" stroke-miterlimit="10" d="M886.7,543"/>
<rect x="465.1" y="718.5" fill="#9D9D9C" width="215.9" height="53"/>
<path fill="none" d="M1008.5,701.4"/>
<path fill="#B2B2B2" d="M1008.5,701.4"/>
<path fill="#B2B2B2" d="M1008.5,701.4"/>
<path fill="#B2B2B2" d="M1050.5,709"/>
<path fill="#C6C6C6" d="M455,794.9c0,2.8-4.5,5.1-10,5.1l0,0c-5.5,0-10-2.3-10-5.1V694.5c0-2.8,4.5-5.1,10-5.1l0,0
	c5.5,0,10,2.3,10,5.1V794.9z"/>
<rect x="89" y="718.5" fill="#9D9D9C" width="336.3" height="53"/>
<rect x="885.7" y="771.5" fill="#9D9D9C" width="283.4" height="47"/>
<rect x="89" y="770.5" fill="#9D9D9C" width="114.5" height="37"/>
<rect x="89" y="806.5" fill="#9D9D9C" width="65.5" height="28.5"/>
<path fill="#C6C6C6" d="M866.5,780c0,0,9.4,10,9.4,10l0,0c0,5.5-2.6,10-19.5,10h-623c-16.9,0-19.8-3.9-19.8-9.4l0.1-1.2
	c0-5.5,0.2-9.4,12.2-9.4H866.5z"/>
<path fill="#C6C6C6" d="M1155.9,661.8c8.2,1.5,14,7.1,13,12.5l0,0c-1,5.4-8.4,8.6-16.6,7.2l-243.7-44.2c-8.2-1.5-14-7.1-13-12.5l0,0
	c1-5.4,8.4-8.6,16.6-7.2L1155.9,661.8z"/>
<path fill="none" stroke="#000000" stroke-miterlimit="10" d="M1177.7,666"/>
<path fill="none" stroke="#000000" stroke-miterlimit="10" d="M915.6,618.5"/>
<path fill="none" stroke="#000000" stroke-miterlimit="10" d="M1177.7,657.5"/>
<path fill="none" stroke="#000000" stroke-miterlimit="10" d="M915.6,610"/>
<path fill="#C6C6C6" d="M915.5,632.6c0,1.9-4.5,3.5-10,3.5l0,0c-5.5,0-10-1.6-10-3.5v-69.3c0-1.9,4.5-3.5,10-3.5l0,0
	c5.5,0,10,1.6,10,3.5V632.6z"/>
<polyline fill="#9D9D9C" points="925.7,587.2 1169,631.2 1169,656.3 925.7,612.5 "/>
<rect x="243.1" y="809.8" fill="#878787" width="31.2" height="85.8"/>
<path fill="#C6C6C6" d="M233.3,886.2c0,2.8-4.5,5.1-10,5.1l0,0c-5.5,0-10-2.3-10-5.1V785.8c0-2.8,4.5-5.1,10-5.1l0,0
	c5.5,0,10,2.3,10,5.1V886.2z"/>
<rect x="314.1" y="809.8" fill="#878787" width="31.2" height="85.8"/>
<path fill="#C6C6C6" d="M304.3,886.2c0,2.8-4.5,5.1-10,5.1l0,0c-5.5,0-10-2.3-10-5.1V785.8c0-2.8,4.5-5.1,10-5.1l0,0
	c5.5,0,10,2.3,10,5.1V886.2z"/>
<rect x="385.1" y="809.8" fill="#878787" width="31.2" height="85.8"/>
<path fill="#C6C6C6" d="M375.3,886.2c0,2.8-4.5,5.1-10,5.1l0,0c-5.5,0-10-2.3-10-5.1V785.8c0-2.8,4.5-5.1,10-5.1l0,0
	c5.5,0,10,2.3,10,5.1V886.2z"/>
<rect x="456.1" y="809.8" fill="#878787" width="31.2" height="85.8"/>
<path fill="#C6C6C6" d="M446.3,886.2c0,2.8-4.5,5.1-10,5.1l0,0c-5.5,0-10-2.3-10-5.1V785.8c0-2.8,4.5-5.1,10-5.1l0,0
	c5.5,0,10,2.3,10,5.1V886.2z"/>
<rect x="528.1" y="809.8" fill="#878787" width="31.2" height="85.8"/>
<path fill="#C6C6C6" d="M518.3,886.2c0,2.8-4.5,5.1-10,5.1l0,0c-5.5,0-10-2.3-10-5.1V785.8c0-2.8,4.5-5.1,10-5.1l0,0
	c5.5,0,10,2.3,10,5.1V886.2z"/>
<rect x="599.1" y="809.8" fill="#878787" width="31.2" height="85.8"/>
<path fill="#C6C6C6" d="M589.3,886.2c0,2.8-4.5,5.1-10,5.1l0,0c-5.5,0-10-2.3-10-5.1V785.8c0-2.8,4.5-5.1,10-5.1l0,0
	c5.5,0,10,2.3,10,5.1V886.2z"/>
<rect x="670.1" y="809.8" fill="#878787" width="31.2" height="85.8"/>
<path fill="#C6C6C6" d="M660.3,886.2c0,2.8-4.5,5.1-10,5.1l0,0c-5.5,0-10-2.3-10-5.1V785.8c0-2.8,4.5-5.1,10-5.1l0,0
	c5.5,0,10,2.3,10,5.1V886.2z"/>
<rect x="741.1" y="809.8" fill="#878787" width="31.2" height="85.8"/>
<path fill="#C6C6C6" d="M731.3,886.2c0,2.8-4.5,5.1-10,5.1l0,0c-5.5,0-10-2.3-10-5.1V785.8c0-2.8,4.5-5.1,10-5.1l0,0
	c5.5,0,10,2.3,10,5.1V886.2z"/>
<rect x="814.5" y="809.8" fill="#878787" width="31.2" height="85.8"/>
<path fill="#C6C6C6" d="M802.7,886.2c0,2.8-4.5,5.1-10,5.1l0,0c-5.5,0-10-2.3-10-5.1V785.8c0-2.8,4.5-5.1,10-5.1l0,0
	c5.5,0,10,2.3,10,5.1V886.2z"/>
<path fill="#C6C6C6" d="M876.5,886.2c0,2.8-4.5,5.1-10,5.1l0,0c-5.5,0-10-2.3-10-5.1V785.2c0-2.8,4.5-5.2,10-5.2h0.1
	c5.5,0,9.9,2.4,9.9,5.2V886.2z"/>
<polygon fill="#9D9D9C" points="705.2,243.7 452,243.7 518.3,301.5 638,301.5 "/>
<path fill="#C6C6C6" stroke="#000000" stroke-miterlimit="10" d="M726.3,225.5"/>
<path fill="#C6C6C6" stroke="#000000" stroke-miterlimit="10" d="M638,301.5"/>
<path fill="#C6C6C6" stroke="#000000" stroke-miterlimit="10" d="M432.5,227.7"/>
<path fill="#C6C6C6" stroke="#000000" stroke-miterlimit="10" d="M520.9,303.7"/>
<rect x="480.6" y="718.5" fill="#B2B2B2" width="125.7" height="38.6"/>
<rect x="329.7" y="718.5" fill="#B2B2B2" width="80.1" height="38.6"/>
<rect x="736" y="579.9" fill="#B2B2B2" width="135.7" height="61.3"/>
<rect x="736" y="718.5" fill="#B2B2B2" width="149" height="38.6"/>
</svg>
