<!-- Generator: Adobe Illustrator 18.1.0, SVG Export Plug-In  -->
<svg version="1.1"
	 xmlns="http://www.w3.org/2000/svg" xmlns:xlink="http://www.w3.org/1999/xlink" xmlns:a="http://ns.adobe.com/AdobeSVGViewerExtensions/3.0/"
	 x="0px" y="0px" width="93.7px" height="93.7px" viewBox="0 0 93.7 93.7" enable-background="new 0 0 93.7 93.7"
	 xml:space="preserve">
<defs>
</defs>
<linearGradient id="SVGID_1_" gradientUnits="userSpaceOnUse" x1="22.291" y1="36.904" x2="244.1734" y2="-138.7765" gradientTransform="matrix(0.3311 0 0 -0.3311 15.3348 28.4845)">
	<stop  offset="0" style="stop-color:#FEDB3B"/>
	<stop  offset="1" style="stop-color:#FBC123"/>
</linearGradient>
<path fill="url(#SVGID_1_)" d="M76.4,62.1c0.2,0.1,0.4-0.1,0.5-0.3l0.1-0.3l0.7-2.7l0.4-1.4l0.4-1.2l0.3-1.1c0.1-0.2,0-0.4-0.2-0.5
	l-2-0.9h0l-2-0.7l-0.9-0.3L73,52.6c-0.2-0.1-0.5,0.1-0.5,0.3l-0.3,2.2l-0.5,3l-0.3,2.5l2.7,0.8L76.4,62.1z"/>
<linearGradient id="SVGID_2_" gradientUnits="userSpaceOnUse" x1="9.2527" y1="20.4368" x2="231.135" y2="-155.2437" gradientTransform="matrix(0.3311 0 0 -0.3311 15.3348 28.4845)">
	<stop  offset="0" style="stop-color:#FEDB3B"/>
	<stop  offset="1" style="stop-color:#FBC123"/>
</linearGradient>
<path fill="url(#SVGID_2_)" d="M69.5,56.6l0.1-1.3l0.2-1.9l0.1-0.9c0-0.2-0.1-0.4-0.4-0.4L68.7,52c0,0,0,0-0.1,0l-14.9,0
	c-0.1,0-0.1,0-0.2,0l-0.2,0.2v1.3v0l0.1,1.3v0l0,1.3v0l0.2,2v0l0.4,1.9l0.1,0.4l14.1,0h0.6c0.2,0,0.4-0.2,0.4-0.4l0.1-1.8L69.5,56.6
	z"/>
<linearGradient id="SVGID_3_" gradientUnits="userSpaceOnUse" x1="-8.1261" y1="-1.5124" x2="213.7562" y2="-177.193" gradientTransform="matrix(0.3311 0 0 -0.3311 15.3348 28.4845)">
	<stop  offset="0" style="stop-color:#FEDB3B"/>
	<stop  offset="1" style="stop-color:#FBC123"/>
</linearGradient>
<path fill="url(#SVGID_3_)" d="M52.2,59l-0.3-1.4l-0.4-2L51,53.4L51,53.1c0-0.2-0.3-0.4-0.5-0.3l-1.3,0.3c0,0,0,0,0,0l-1.9,0.6h0
	L46.3,54h0l-0.7,0.4c0,0,0,0,0,0l-0.6,0.4l-0.1,0c-0.2,0.1-0.2,0.3-0.2,0.5l0.5,2l0.4,1.4l0.5,1.5l0.6,1.9c0,0,0,0,0,0.1l0.1,0.2
	c0.1,0.2,0.3,0.3,0.5,0.2l1.1-0.5l1.3-0.5h0l1.9-0.5h0l0.7-0.3l0.3-0.1l-0.2-0.9L52.2,59z"/>
<g>
	
		<linearGradient id="SVGID_4_" gradientUnits="userSpaceOnUse" x1="37.1698" y1="55.6957" x2="259.0522" y2="-119.9848" gradientTransform="matrix(0.3311 0 0 -0.3311 15.3348 28.4845)">
		<stop  offset="0" style="stop-color:#FEDB3B"/>
		<stop  offset="1" style="stop-color:#FBC123"/>
	</linearGradient>
	<path fill="url(#SVGID_4_)" d="M91.7,60.5c0,0.2-0.1,0.3-0.1,0.5C91.6,60.8,91.6,60.6,91.7,60.5z"/>
	
		<linearGradient id="SVGID_5_" gradientUnits="userSpaceOnUse" x1="32.7793" y1="50.1506" x2="254.6616" y2="-125.53" gradientTransform="matrix(0.3311 0 0 -0.3311 15.3348 28.4845)">
		<stop  offset="0" style="stop-color:#FEDB3B"/>
		<stop  offset="1" style="stop-color:#FBC123"/>
	</linearGradient>
	<path fill="url(#SVGID_5_)" d="M90.9,62.8c-0.1,0.2-0.1,0.3-0.2,0.5C90.8,63.1,90.9,63,90.9,62.8z"/>
	
		<linearGradient id="SVGID_6_" gradientUnits="userSpaceOnUse" x1="28.9854" y1="45.3589" x2="250.8677" y2="-130.3216" gradientTransform="matrix(0.3311 0 0 -0.3311 15.3348 28.4845)">
		<stop  offset="0" style="stop-color:#FEDB3B"/>
		<stop  offset="1" style="stop-color:#FBC123"/>
	</linearGradient>
	<path fill="url(#SVGID_6_)" d="M90.2,64.8c-0.1,0.2-0.1,0.4-0.2,0.5C90,65.1,90.1,64.9,90.2,64.8z"/>
	
		<linearGradient id="SVGID_7_" gradientUnits="userSpaceOnUse" x1="45.1124" y1="65.7272" x2="266.9948" y2="-109.9533" gradientTransform="matrix(0.3311 0 0 -0.3311 15.3348 28.4845)">
		<stop  offset="0" style="stop-color:#FEDB3B"/>
		<stop  offset="1" style="stop-color:#FBC123"/>
	</linearGradient>
	<path fill="url(#SVGID_7_)" d="M92.8,56c0,0.1,0,0.3-0.1,0.4C92.8,56.3,92.8,56.1,92.8,56z"/>
	
		<linearGradient id="SVGID_8_" gradientUnits="userSpaceOnUse" x1="40.8897" y1="60.3939" x2="262.7721" y2="-115.2866" gradientTransform="matrix(0.3311 0 0 -0.3311 15.3348 28.4845)">
		<stop  offset="0" style="stop-color:#FEDB3B"/>
		<stop  offset="1" style="stop-color:#FBC123"/>
	</linearGradient>
	<path fill="url(#SVGID_8_)" d="M92.3,58.4c0,0.2-0.1,0.3-0.1,0.5C92.2,58.7,92.2,58.5,92.3,58.4z"/>
	
		<linearGradient id="SVGID_9_" gradientUnits="userSpaceOnUse" x1="24.4855" y1="39.6756" x2="246.3678" y2="-136.0049" gradientTransform="matrix(0.3311 0 0 -0.3311 15.3348 28.4845)">
		<stop  offset="0" style="stop-color:#FEDB3B"/>
		<stop  offset="1" style="stop-color:#FBC123"/>
	</linearGradient>
	<path fill="url(#SVGID_9_)" d="M89.1,67c-0.1,0.2-0.2,0.3-0.2,0.5C89,67.4,89.1,67.2,89.1,67z"/>
	
		<linearGradient id="SVGID_10_" gradientUnits="userSpaceOnUse" x1="12.1534" y1="24.1003" x2="234.0357" y2="-151.5802" gradientTransform="matrix(0.3311 0 0 -0.3311 15.3348 28.4845)">
		<stop  offset="0" style="stop-color:#FEDB3B"/>
		<stop  offset="1" style="stop-color:#FBC123"/>
	</linearGradient>
	<path fill="url(#SVGID_10_)" d="M85.9,72.7c-0.1,0.2-0.3,0.4-0.4,0.6C85.6,73.1,85.8,72.9,85.9,72.7z"/>
	
		<linearGradient id="SVGID_11_" gradientUnits="userSpaceOnUse" x1="48.751" y1="70.3226" x2="270.6333" y2="-105.358" gradientTransform="matrix(0.3311 0 0 -0.3311 15.3348 28.4845)">
		<stop  offset="0" style="stop-color:#FEDB3B"/>
		<stop  offset="1" style="stop-color:#FBC123"/>
	</linearGradient>
	<path fill="url(#SVGID_11_)" d="M93.2,53.8c0,0.2-0.1,0.4-0.1,0.5C93.1,54.1,93.2,53.9,93.2,53.8z"/>
	
		<linearGradient id="SVGID_12_" gradientUnits="userSpaceOnUse" x1="16.0775" y1="29.0564" x2="237.9598" y2="-146.6241" gradientTransform="matrix(0.3311 0 0 -0.3311 15.3348 28.4845)">
		<stop  offset="0" style="stop-color:#FEDB3B"/>
		<stop  offset="1" style="stop-color:#FBC123"/>
	</linearGradient>
	<path fill="url(#SVGID_12_)" d="M87,71.1c-0.1,0.1-0.2,0.3-0.3,0.4C86.8,71.3,86.9,71.2,87,71.1z"/>
	
		<linearGradient id="SVGID_13_" gradientUnits="userSpaceOnUse" x1="20.6237" y1="34.7982" x2="242.506" y2="-140.8824" gradientTransform="matrix(0.3311 0 0 -0.3311 15.3348 28.4845)">
		<stop  offset="0" style="stop-color:#FEDB3B"/>
		<stop  offset="1" style="stop-color:#FBC123"/>
	</linearGradient>
	<path fill="url(#SVGID_13_)" d="M88.2,68.9c-0.1,0.2-0.2,0.4-0.3,0.6C88,69.2,88.1,69,88.2,68.9z"/>
	
		<linearGradient id="SVGID_14_" gradientUnits="userSpaceOnUse" x1="56.3005" y1="79.8576" x2="278.1828" y2="-95.823" gradientTransform="matrix(0.3311 0 0 -0.3311 15.3348 28.4845)">
		<stop  offset="0" style="stop-color:#FEDB3B"/>
		<stop  offset="1" style="stop-color:#FBC123"/>
	</linearGradient>
	<path fill="url(#SVGID_14_)" d="M93.7,49c0,0.2,0,0.4,0,0.6C93.6,49.4,93.6,49.2,93.7,49z"/>
	
		<linearGradient id="SVGID_15_" gradientUnits="userSpaceOnUse" x1="52.7337" y1="75.3528" x2="274.6161" y2="-100.3277" gradientTransform="matrix(0.3311 0 0 -0.3311 15.3348 28.4845)">
		<stop  offset="0" style="stop-color:#FEDB3B"/>
		<stop  offset="1" style="stop-color:#FBC123"/>
	</linearGradient>
	<path fill="url(#SVGID_15_)" d="M93.5,51.5c0,0.1,0,0.2,0,0.2C93.5,51.6,93.5,51.5,93.5,51.5z"/>
	
		<linearGradient id="SVGID_16_" gradientUnits="userSpaceOnUse" x1="-13.2558" y1="-7.9911" x2="208.6266" y2="-183.6717" gradientTransform="matrix(0.3311 0 0 -0.3311 15.3348 28.4845)">
		<stop  offset="0" style="stop-color:#FEDB3B"/>
		<stop  offset="1" style="stop-color:#FBC123"/>
	</linearGradient>
	<path fill="url(#SVGID_16_)" d="M76.9,82.8c-0.2,0.2-0.4,0.4-0.7,0.5C76.4,83.2,76.7,83,76.9,82.8z"/>
	
		<linearGradient id="SVGID_17_" gradientUnits="userSpaceOnUse" x1="-16.864" y1="-12.5483" x2="205.0183" y2="-188.2288" gradientTransform="matrix(0.3311 0 0 -0.3311 15.3348 28.4845)">
		<stop  offset="0" style="stop-color:#FEDB3B"/>
		<stop  offset="1" style="stop-color:#FBC123"/>
	</linearGradient>
	<path fill="url(#SVGID_17_)" d="M75.3,84c-0.2,0.2-0.5,0.4-0.7,0.5C74.9,84.4,75.1,84.2,75.3,84z"/>
	
		<linearGradient id="SVGID_18_" gradientUnits="userSpaceOnUse" x1="-8.561" y1="-2.0618" x2="213.3213" y2="-177.7423" gradientTransform="matrix(0.3311 0 0 -0.3311 15.3348 28.4845)">
		<stop  offset="0" style="stop-color:#FEDB3B"/>
		<stop  offset="1" style="stop-color:#FBC123"/>
	</linearGradient>
	<path fill="url(#SVGID_18_)" d="M78.8,81.1c-0.2,0.2-0.4,0.4-0.6,0.5C78.4,81.5,78.6,81.3,78.8,81.1z"/>
	
		<linearGradient id="SVGID_19_" gradientUnits="userSpaceOnUse" x1="-4.8545" y1="2.6196" x2="217.0279" y2="-173.0609" gradientTransform="matrix(0.3311 0 0 -0.3311 15.3348 28.4845)">
		<stop  offset="0" style="stop-color:#FEDB3B"/>
		<stop  offset="1" style="stop-color:#FBC123"/>
	</linearGradient>
	<path fill="url(#SVGID_19_)" d="M80.2,79.7c-0.2,0.2-0.4,0.4-0.6,0.6C79.8,80.1,80,79.9,80.2,79.7z"/>
	
		<linearGradient id="SVGID_20_" gradientUnits="userSpaceOnUse" x1="-21.4926" y1="-18.3942" x2="200.3897" y2="-194.0747" gradientTransform="matrix(0.3311 0 0 -0.3311 15.3348 28.4845)">
		<stop  offset="0" style="stop-color:#FEDB3B"/>
		<stop  offset="1" style="stop-color:#FBC123"/>
	</linearGradient>
	<path fill="url(#SVGID_20_)" d="M73.3,85.6c-0.2,0.2-0.5,0.3-0.7,0.5C72.8,85.9,73,85.7,73.3,85.6z"/>
	
		<linearGradient id="SVGID_21_" gradientUnits="userSpaceOnUse" x1="-60.3827" y1="-67.5119" x2="161.4996" y2="-243.1924" gradientTransform="matrix(0.3311 0 0 -0.3311 15.3348 28.4845)">
		<stop  offset="0" style="stop-color:#FEDB3B"/>
		<stop  offset="1" style="stop-color:#FBC123"/>
	</linearGradient>
	<path fill="url(#SVGID_21_)" d="M49.8,93.6c-0.2,0-0.5,0-0.7,0C49.3,93.6,49.5,93.6,49.8,93.6z"/>
	
		<linearGradient id="SVGID_22_" gradientUnits="userSpaceOnUse" x1="-25.003" y1="-22.8277" x2="196.8794" y2="-198.5082" gradientTransform="matrix(0.3311 0 0 -0.3311 15.3348 28.4845)">
		<stop  offset="0" style="stop-color:#FEDB3B"/>
		<stop  offset="1" style="stop-color:#FBC123"/>
	</linearGradient>
	<path fill="url(#SVGID_22_)" d="M71.6,86.6c-0.3,0.2-0.5,0.3-0.8,0.5C71.1,86.9,71.4,86.8,71.6,86.6z"/>
	
		<linearGradient id="SVGID_23_" gradientUnits="userSpaceOnUse" x1="7.9273" y1="18.7628" x2="229.8096" y2="-156.9177" gradientTransform="matrix(0.3311 0 0 -0.3311 15.3348 28.4845)">
		<stop  offset="0" style="stop-color:#FEDB3B"/>
		<stop  offset="1" style="stop-color:#FBC123"/>
	</linearGradient>
	<path fill="url(#SVGID_23_)" d="M84.6,74.6c-0.1,0.2-0.3,0.4-0.4,0.6C84.3,75,84.5,74.8,84.6,74.6z"/>
	
		<linearGradient id="SVGID_24_" gradientUnits="userSpaceOnUse" x1="-57.5787" y1="-63.9704" x2="164.3037" y2="-239.6509" gradientTransform="matrix(0.3311 0 0 -0.3311 15.3348 28.4845)">
		<stop  offset="0" style="stop-color:#FEDB3B"/>
		<stop  offset="1" style="stop-color:#FBC123"/>
	</linearGradient>
	<path fill="url(#SVGID_24_)" d="M52,93.4c-0.3,0-0.6,0.1-0.9,0.1C51.4,93.5,51.7,93.5,52,93.4z"/>
	
		<linearGradient id="SVGID_25_" gradientUnits="userSpaceOnUse" x1="156.884" y1="-174.5858" x2="169.4966" y2="-184.5721" gradientTransform="matrix(0.3311 0 0 -0.3311 15.3348 28.4845)">
		<stop  offset="0" style="stop-color:#FEDB3B"/>
		<stop  offset="1" style="stop-color:#FBC123"/>
	</linearGradient>
	<polygon fill="url(#SVGID_25_)" points="69.4,87.9 69.4,87.9 69.4,87.9 	"/>
	
		<linearGradient id="SVGID_26_" gradientUnits="userSpaceOnUse" x1="41.2842" y1="60.8922" x2="263.1665" y2="-114.7884" gradientTransform="matrix(0.3311 0 0 -0.3311 15.3348 28.4845)">
		<stop  offset="0" style="stop-color:#FEDB3B"/>
		<stop  offset="1" style="stop-color:#FBC123"/>
	</linearGradient>
	<path fill="url(#SVGID_26_)" d="M55.3,29.2l-0.2-0.4C55.1,29,55.1,29.1,55.3,29.2z"/>
	
		<linearGradient id="SVGID_27_" gradientUnits="userSpaceOnUse" x1="54.953" y1="78.1557" x2="276.8354" y2="-97.5248" gradientTransform="matrix(0.3311 0 0 -0.3311 15.3348 28.4845)">
		<stop  offset="0" style="stop-color:#FEDB3B"/>
		<stop  offset="1" style="stop-color:#FBC123"/>
	</linearGradient>
	<path fill="url(#SVGID_27_)" d="M72.8,33.6l0.2,0.4C73,33.8,72.9,33.6,72.8,33.6z"/>
	
		<linearGradient id="SVGID_28_" gradientUnits="userSpaceOnUse" x1="-54.6789" y1="-60.3081" x2="167.2034" y2="-235.9886" gradientTransform="matrix(0.3311 0 0 -0.3311 15.3348 28.4845)">
		<stop  offset="0" style="stop-color:#FEDB3B"/>
		<stop  offset="1" style="stop-color:#FBC123"/>
	</linearGradient>
	<path fill="url(#SVGID_28_)" d="M53.3,93.3c0.3,0,0.5-0.1,0.8-0.1l0,0C53.9,93.2,53.6,93.2,53.3,93.3z"/>
	
		<linearGradient id="SVGID_29_" gradientUnits="userSpaceOnUse" x1="41.5753" y1="61.2599" x2="263.4577" y2="-114.4207" gradientTransform="matrix(0.3311 0 0 -0.3311 15.3348 28.4845)">
		<stop  offset="0" style="stop-color:#FEDB3B"/>
		<stop  offset="1" style="stop-color:#FBC123"/>
	</linearGradient>
	<path fill="url(#SVGID_29_)" d="M81.5,49.6l0.1,0.3C81.7,49.8,81.6,49.7,81.5,49.6z"/>
	
		<linearGradient id="SVGID_30_" gradientUnits="userSpaceOnUse" x1="28.9513" y1="45.3159" x2="250.8337" y2="-130.3646" gradientTransform="matrix(0.3311 0 0 -0.3311 15.3348 28.4845)">
		<stop  offset="0" style="stop-color:#FEDB3B"/>
		<stop  offset="1" style="stop-color:#FBC123"/>
	</linearGradient>
	<path fill="url(#SVGID_30_)" d="M50.5,34l0.1-0.4C50.5,33.7,50.5,33.8,50.5,34z"/>
	
		<linearGradient id="SVGID_31_" gradientUnits="userSpaceOnUse" x1="22.2716" y1="36.8794" x2="244.1539" y2="-138.8011" gradientTransform="matrix(0.3311 0 0 -0.3311 15.3348 28.4845)">
		<stop  offset="0" style="stop-color:#FEDB3B"/>
		<stop  offset="1" style="stop-color:#FBC123"/>
	</linearGradient>
	<polygon fill="url(#SVGID_31_)" points="76.4,62.1 76.9,61.8 77,61.5 77.7,58.8 78,57.4 78.4,56.2 78.7,55.1 78.5,54.6 76.5,53.7 
		76.5,53.7 74.5,53.1 73.6,52.8 73,52.6 72.5,52.9 72.2,55.1 71.7,58.1 71.4,60.7 74.1,61.4 	"/>
	
		<linearGradient id="SVGID_32_" gradientUnits="userSpaceOnUse" x1="9.1871" y1="20.3539" x2="231.0694" y2="-155.3266" gradientTransform="matrix(0.3311 0 0 -0.3311 15.3348 28.4845)">
		<stop  offset="0" style="stop-color:#FEDB3B"/>
		<stop  offset="1" style="stop-color:#FBC123"/>
	</linearGradient>
	<polygon fill="url(#SVGID_32_)" points="69.5,56.6 69.7,55.3 69.8,53.4 69.9,52.5 69.5,52.1 68.7,52 68.6,52 53.7,51.9 53.5,52 
		53.4,52.1 53.4,53.4 53.4,53.4 53.5,54.7 53.5,54.7 53.5,56 53.5,56 53.7,58 53.7,58.1 54.1,59.9 54.2,60.3 68.3,60.2 68.9,60.2 
		69.3,59.8 69.4,58 	"/>
	
		<linearGradient id="SVGID_33_" gradientUnits="userSpaceOnUse" x1="-8.1902" y1="-1.5934" x2="213.6921" y2="-177.274" gradientTransform="matrix(0.3311 0 0 -0.3311 15.3348 28.4845)">
		<stop  offset="0" style="stop-color:#FEDB3B"/>
		<stop  offset="1" style="stop-color:#FBC123"/>
	</linearGradient>
	<polygon fill="url(#SVGID_33_)" points="52.2,59 51.9,57.6 51.5,55.7 51,53.4 51,53.1 50.5,52.8 49.2,53.1 49.2,53.1 47.3,53.6 
		47.3,53.6 46.3,54 46.3,54 45.6,54.3 45.6,54.4 44.9,54.8 44.8,54.8 44.7,55.3 45.2,57.2 45.6,58.6 46.1,60.1 46.6,62.1 46.7,62.1 
		46.7,62.3 47.3,62.5 48.3,62 49.6,61.5 49.7,61.5 51.5,61 51.6,61 52.3,60.7 52.5,60.6 52.4,59.7 	"/>
	
		<linearGradient id="SVGID_34_" gradientUnits="userSpaceOnUse" x1="-0.2406" y1="8.4468" x2="221.6417" y2="-167.2337" gradientTransform="matrix(0.3311 0 0 -0.3311 15.3348 28.4845)">
		<stop  offset="0" style="stop-color:#FEDB3B"/>
		<stop  offset="1" style="stop-color:#FBC123"/>
	</linearGradient>
	<path fill="url(#SVGID_34_)" d="M81.9,78c-0.2,0.2-0.3,0.4-0.5,0.5C81.6,78.3,81.7,78.2,81.9,78z"/>
	
		<linearGradient id="SVGID_35_" gradientUnits="userSpaceOnUse" x1="3.6381" y1="13.3457" x2="225.5205" y2="-162.3349" gradientTransform="matrix(0.3311 0 0 -0.3311 15.3348 28.4845)">
		<stop  offset="0" style="stop-color:#FEDB3B"/>
		<stop  offset="1" style="stop-color:#FBC123"/>
	</linearGradient>
	<path fill="url(#SVGID_35_)" d="M83.2,76.4c-0.2,0.2-0.3,0.4-0.5,0.6C82.9,76.8,83.1,76.6,83.2,76.4z"/>
	
		<linearGradient id="SVGID_36_" gradientUnits="userSpaceOnUse" x1="-59.0344" y1="-65.809" x2="162.841" y2="-241.484" gradientTransform="matrix(0.3311 0 0 -0.3311 15.3348 28.4845)">
		<stop  offset="0" style="stop-color:#FEDB3B"/>
		<stop  offset="1" style="stop-color:#FBC123"/>
	</linearGradient>
	<path fill="url(#SVGID_36_)" d="M51.1,93.5c-0.5,0-0.9,0.1-1.4,0.1C50.2,93.6,50.7,93.5,51.1,93.5z"/>
	
		<linearGradient id="SVGID_37_" gradientUnits="userSpaceOnUse" x1="-59.0344" y1="-65.809" x2="162.841" y2="-241.484" gradientTransform="matrix(0.3311 0 0 -0.3311 15.3348 28.4845)">
		<stop  offset="0" style="stop-color:#FEDB3B"/>
		<stop  offset="1" style="stop-color:#FBC123"/>
	</linearGradient>
	<path fill="url(#SVGID_37_)" d="M51.1,93.5c-0.5,0-0.9,0.1-1.4,0.1C50.2,93.6,50.7,93.5,51.1,93.5z"/>
	
		<linearGradient id="SVGID_38_" gradientUnits="userSpaceOnUse" x1="-56.1147" y1="-62.1215" x2="165.7607" y2="-237.7965" gradientTransform="matrix(0.3311 0 0 -0.3311 15.3348 28.4845)">
		<stop  offset="0" style="stop-color:#FEDB3B"/>
		<stop  offset="1" style="stop-color:#FBC123"/>
	</linearGradient>
	<path fill="url(#SVGID_38_)" d="M53.3,93.3c-0.4,0.1-0.9,0.1-1.3,0.2C52.5,93.4,52.9,93.3,53.3,93.3z"/>
	
		<linearGradient id="SVGID_39_" gradientUnits="userSpaceOnUse" x1="-56.1147" y1="-62.1215" x2="165.7607" y2="-237.7965" gradientTransform="matrix(0.3311 0 0 -0.3311 15.3348 28.4845)">
		<stop  offset="0" style="stop-color:#FEDB3B"/>
		<stop  offset="1" style="stop-color:#FBC123"/>
	</linearGradient>
	<path fill="url(#SVGID_39_)" d="M53.3,93.3c-0.4,0.1-0.9,0.1-1.3,0.2C52.5,93.4,52.9,93.3,53.3,93.3z"/>
	
		<linearGradient id="SVGID_40_" gradientUnits="userSpaceOnUse" x1="-62.1462" y1="-69.7392" x2="159.7292" y2="-245.4142" gradientTransform="matrix(0.3311 0 0 -0.3311 15.3348 28.4845)">
		<stop  offset="0" style="stop-color:#FEDB3B"/>
		<stop  offset="1" style="stop-color:#FBC123"/>
	</linearGradient>
	<path fill="url(#SVGID_40_)" d="M49,93.7c-0.7,0-1.4,0.1-2.2,0.1C47.6,93.7,48.3,93.7,49,93.7z"/>
	
		<linearGradient id="SVGID_41_" gradientUnits="userSpaceOnUse" x1="-62.1462" y1="-69.7392" x2="159.7292" y2="-245.4142" gradientTransform="matrix(0.3311 0 0 -0.3311 15.3348 28.4845)">
		<stop  offset="0" style="stop-color:#FEDB3B"/>
		<stop  offset="1" style="stop-color:#FBC123"/>
	</linearGradient>
	<path fill="url(#SVGID_41_)" d="M49,93.7c-0.7,0-1.4,0.1-2.2,0.1C47.6,93.7,48.3,93.7,49,93.7z"/>
	
		<linearGradient id="SVGID_42_" gradientUnits="userSpaceOnUse" x1="26.7018" y1="42.4748" x2="248.5772" y2="-133.2003" gradientTransform="matrix(0.3311 0 0 -0.3311 15.3348 28.4845)">
		<stop  offset="0" style="stop-color:#FEDB3B"/>
		<stop  offset="1" style="stop-color:#FBC123"/>
	</linearGradient>
	<path fill="url(#SVGID_42_)" d="M89.9,65.3c-0.3,0.6-0.5,1.2-0.8,1.8C89.4,66.5,89.7,65.9,89.9,65.3z"/>
	
		<linearGradient id="SVGID_43_" gradientUnits="userSpaceOnUse" x1="26.7018" y1="42.4748" x2="248.5772" y2="-133.2003" gradientTransform="matrix(0.3311 0 0 -0.3311 15.3348 28.4845)">
		<stop  offset="0" style="stop-color:#FEDB3B"/>
		<stop  offset="1" style="stop-color:#FBC123"/>
	</linearGradient>
	<path fill="url(#SVGID_43_)" d="M89.9,65.3c-0.3,0.6-0.5,1.2-0.8,1.8C89.4,66.5,89.7,65.9,89.9,65.3z"/>
	
		<linearGradient id="SVGID_44_" gradientUnits="userSpaceOnUse" x1="-10.8807" y1="-4.9915" x2="210.9947" y2="-180.6665" gradientTransform="matrix(0.3311 0 0 -0.3311 15.3348 28.4845)">
		<stop  offset="0" style="stop-color:#FEDB3B"/>
		<stop  offset="1" style="stop-color:#FBC123"/>
	</linearGradient>
	<path fill="url(#SVGID_44_)" d="M78.2,81.7c-0.4,0.4-0.9,0.8-1.3,1.1C77.3,82.4,77.8,82.1,78.2,81.7z"/>
	
		<linearGradient id="SVGID_45_" gradientUnits="userSpaceOnUse" x1="-10.8807" y1="-4.9915" x2="210.9947" y2="-180.6665" gradientTransform="matrix(0.3311 0 0 -0.3311 15.3348 28.4845)">
		<stop  offset="0" style="stop-color:#FEDB3B"/>
		<stop  offset="1" style="stop-color:#FBC123"/>
	</linearGradient>
	<path fill="url(#SVGID_45_)" d="M78.2,81.7c-0.4,0.4-0.9,0.8-1.3,1.1C77.3,82.4,77.8,82.1,78.2,81.7z"/>
	
		<linearGradient id="SVGID_46_" gradientUnits="userSpaceOnUse" x1="58.3373" y1="82.43" x2="280.2127" y2="-93.245" gradientTransform="matrix(0.3311 0 0 -0.3311 15.3348 28.4845)">
		<stop  offset="0" style="stop-color:#FEDB3B"/>
		<stop  offset="1" style="stop-color:#FBC123"/>
	</linearGradient>
	<path fill="url(#SVGID_46_)" d="M93.7,46.9c0,0.7,0,1.4-0.1,2.1C93.7,48.3,93.7,47.6,93.7,46.9z"/>
	
		<linearGradient id="SVGID_47_" gradientUnits="userSpaceOnUse" x1="58.3373" y1="82.43" x2="280.2127" y2="-93.245" gradientTransform="matrix(0.3311 0 0 -0.3311 15.3348 28.4845)">
		<stop  offset="0" style="stop-color:#FEDB3B"/>
		<stop  offset="1" style="stop-color:#FBC123"/>
	</linearGradient>
	<path fill="url(#SVGID_47_)" d="M93.7,46.9c0,0.7,0,1.4-0.1,2.1C93.7,48.3,93.7,47.6,93.7,46.9z"/>
	
		<linearGradient id="SVGID_48_" gradientUnits="userSpaceOnUse" x1="-23.2382" y1="-20.5988" x2="198.6372" y2="-196.2739" gradientTransform="matrix(0.3311 0 0 -0.3311 15.3348 28.4845)">
		<stop  offset="0" style="stop-color:#FEDB3B"/>
		<stop  offset="1" style="stop-color:#FBC123"/>
	</linearGradient>
	<path fill="url(#SVGID_48_)" d="M72.5,86c-0.3,0.2-0.6,0.4-0.9,0.6C71.9,86.4,72.2,86.2,72.5,86z"/>
	
		<linearGradient id="SVGID_49_" gradientUnits="userSpaceOnUse" x1="-23.2382" y1="-20.5988" x2="198.6372" y2="-196.2739" gradientTransform="matrix(0.3311 0 0 -0.3311 15.3348 28.4845)">
		<stop  offset="0" style="stop-color:#FEDB3B"/>
		<stop  offset="1" style="stop-color:#FBC123"/>
	</linearGradient>
	<path fill="url(#SVGID_49_)" d="M72.5,86c-0.3,0.2-0.6,0.4-0.9,0.6C71.9,86.4,72.2,86.2,72.5,86z"/>
	
		<linearGradient id="SVGID_50_" gradientUnits="userSpaceOnUse" x1="10.0432" y1="21.4352" x2="231.9186" y2="-154.2398" gradientTransform="matrix(0.3311 0 0 -0.3311 15.3348 28.4845)">
		<stop  offset="0" style="stop-color:#FEDB3B"/>
		<stop  offset="1" style="stop-color:#FBC123"/>
	</linearGradient>
	<path fill="url(#SVGID_50_)" d="M85.5,73.3c-0.3,0.4-0.6,0.8-0.9,1.2C84.9,74.2,85.2,73.8,85.5,73.3z"/>
	
		<linearGradient id="SVGID_51_" gradientUnits="userSpaceOnUse" x1="10.0432" y1="21.4352" x2="231.9186" y2="-154.2398" gradientTransform="matrix(0.3311 0 0 -0.3311 15.3348 28.4845)">
		<stop  offset="0" style="stop-color:#FEDB3B"/>
		<stop  offset="1" style="stop-color:#FBC123"/>
	</linearGradient>
	<path fill="url(#SVGID_51_)" d="M85.5,73.3c-0.3,0.4-0.6,0.8-0.9,1.2C84.9,74.2,85.2,73.8,85.5,73.3z"/>
	
		<linearGradient id="SVGID_52_" gradientUnits="userSpaceOnUse" x1="-27.281" y1="-25.7048" x2="194.5945" y2="-201.3798" gradientTransform="matrix(0.3311 0 0 -0.3311 15.3348 28.4845)">
		<stop  offset="0" style="stop-color:#FEDB3B"/>
		<stop  offset="1" style="stop-color:#FBC123"/>
	</linearGradient>
	<path fill="url(#SVGID_52_)" d="M70.9,87.1c-0.5,0.3-1,0.6-1.5,0.9C69.9,87.7,70.4,87.4,70.9,87.1z"/>
	
		<linearGradient id="SVGID_53_" gradientUnits="userSpaceOnUse" x1="-27.281" y1="-25.7048" x2="194.5945" y2="-201.3798" gradientTransform="matrix(0.3311 0 0 -0.3311 15.3348 28.4845)">
		<stop  offset="0" style="stop-color:#FEDB3B"/>
		<stop  offset="1" style="stop-color:#FBC123"/>
	</linearGradient>
	<path fill="url(#SVGID_53_)" d="M70.9,87.1c-0.5,0.3-1,0.6-1.5,0.9C69.9,87.7,70.4,87.4,70.9,87.1z"/>
	
		<linearGradient id="SVGID_54_" gradientUnits="userSpaceOnUse" x1="-19.1839" y1="-15.4782" x2="202.6916" y2="-191.1533" gradientTransform="matrix(0.3311 0 0 -0.3311 15.3348 28.4845)">
		<stop  offset="0" style="stop-color:#FEDB3B"/>
		<stop  offset="1" style="stop-color:#FBC123"/>
	</linearGradient>
	<path fill="url(#SVGID_54_)" d="M74.7,84.6c-0.5,0.3-0.9,0.7-1.4,1C73.7,85.2,74.2,84.9,74.7,84.6z"/>
	
		<linearGradient id="SVGID_55_" gradientUnits="userSpaceOnUse" x1="-19.1839" y1="-15.4782" x2="202.6916" y2="-191.1533" gradientTransform="matrix(0.3311 0 0 -0.3311 15.3348 28.4845)">
		<stop  offset="0" style="stop-color:#FEDB3B"/>
		<stop  offset="1" style="stop-color:#FBC123"/>
	</linearGradient>
	<path fill="url(#SVGID_55_)" d="M74.7,84.6c-0.5,0.3-0.9,0.7-1.4,1C73.7,85.2,74.2,84.9,74.7,84.6z"/>
	
		<linearGradient id="SVGID_56_" gradientUnits="userSpaceOnUse" x1="14.2317" y1="26.7252" x2="236.1071" y2="-148.9498" gradientTransform="matrix(0.3311 0 0 -0.3311 15.3348 28.4845)">
		<stop  offset="0" style="stop-color:#FEDB3B"/>
		<stop  offset="1" style="stop-color:#FBC123"/>
	</linearGradient>
	<path fill="url(#SVGID_56_)" d="M86.7,71.5c-0.3,0.4-0.5,0.8-0.8,1.3C86.2,72.3,86.5,71.9,86.7,71.5z"/>
	
		<linearGradient id="SVGID_57_" gradientUnits="userSpaceOnUse" x1="14.2317" y1="26.7252" x2="236.1071" y2="-148.9498" gradientTransform="matrix(0.3311 0 0 -0.3311 15.3348 28.4845)">
		<stop  offset="0" style="stop-color:#FEDB3B"/>
		<stop  offset="1" style="stop-color:#FBC123"/>
	</linearGradient>
	<path fill="url(#SVGID_57_)" d="M86.7,71.5c-0.3,0.4-0.5,0.8-0.8,1.3C86.2,72.3,86.5,71.9,86.7,71.5z"/>
	
		<linearGradient id="SVGID_58_" gradientUnits="userSpaceOnUse" x1="54.4005" y1="77.4579" x2="276.2759" y2="-98.2171" gradientTransform="matrix(0.3311 0 0 -0.3311 15.3348 28.4845)">
		<stop  offset="0" style="stop-color:#FEDB3B"/>
		<stop  offset="1" style="stop-color:#FBC123"/>
	</linearGradient>
	<path fill="url(#SVGID_58_)" d="M93.6,49.6c0,0.6-0.1,1.3-0.1,1.9C93.5,50.8,93.6,50.2,93.6,49.6z"/>
	
		<linearGradient id="SVGID_59_" gradientUnits="userSpaceOnUse" x1="54.4005" y1="77.4579" x2="276.2759" y2="-98.2171" gradientTransform="matrix(0.3311 0 0 -0.3311 15.3348 28.4845)">
		<stop  offset="0" style="stop-color:#FEDB3B"/>
		<stop  offset="1" style="stop-color:#FBC123"/>
	</linearGradient>
	<path fill="url(#SVGID_59_)" d="M93.6,49.6c0,0.6-0.1,1.3-0.1,1.9C93.5,50.8,93.6,50.2,93.6,49.6z"/>
	
		<linearGradient id="SVGID_60_" gradientUnits="userSpaceOnUse" x1="-6.7285" y1="0.2527" x2="215.1469" y2="-175.4224" gradientTransform="matrix(0.3311 0 0 -0.3311 15.3348 28.4845)">
		<stop  offset="0" style="stop-color:#FEDB3B"/>
		<stop  offset="1" style="stop-color:#FBC123"/>
	</linearGradient>
	<path fill="url(#SVGID_60_)" d="M79.6,80.3c-0.3,0.3-0.6,0.6-0.9,0.8C79.1,80.9,79.3,80.6,79.6,80.3z"/>
	
		<linearGradient id="SVGID_61_" gradientUnits="userSpaceOnUse" x1="-6.7285" y1="0.2527" x2="215.1469" y2="-175.4224" gradientTransform="matrix(0.3311 0 0 -0.3311 15.3348 28.4845)">
		<stop  offset="0" style="stop-color:#FEDB3B"/>
		<stop  offset="1" style="stop-color:#FBC123"/>
	</linearGradient>
	<path fill="url(#SVGID_61_)" d="M79.6,80.3c-0.3,0.3-0.6,0.6-0.9,0.8C79.1,80.9,79.3,80.6,79.6,80.3z"/>
	
		<linearGradient id="SVGID_62_" gradientUnits="userSpaceOnUse" x1="-2.5025" y1="5.5901" x2="219.3729" y2="-170.085" gradientTransform="matrix(0.3311 0 0 -0.3311 15.3348 28.4845)">
		<stop  offset="0" style="stop-color:#FEDB3B"/>
		<stop  offset="1" style="stop-color:#FBC123"/>
	</linearGradient>
	<path fill="url(#SVGID_62_)" d="M81.4,78.5c-0.4,0.4-0.8,0.8-1.2,1.2C80.6,79.3,81,78.9,81.4,78.5z"/>
	
		<linearGradient id="SVGID_63_" gradientUnits="userSpaceOnUse" x1="-2.5025" y1="5.5901" x2="219.3729" y2="-170.085" gradientTransform="matrix(0.3311 0 0 -0.3311 15.3348 28.4845)">
		<stop  offset="0" style="stop-color:#FEDB3B"/>
		<stop  offset="1" style="stop-color:#FBC123"/>
	</linearGradient>
	<path fill="url(#SVGID_63_)" d="M81.4,78.5c-0.4,0.4-0.8,0.8-1.2,1.2C80.6,79.3,81,78.9,81.4,78.5z"/>
	
		<linearGradient id="SVGID_64_" gradientUnits="userSpaceOnUse" x1="39.0186" y1="58.0308" x2="260.894" y2="-117.6443" gradientTransform="matrix(0.3311 0 0 -0.3311 15.3348 28.4845)">
		<stop  offset="0" style="stop-color:#FEDB3B"/>
		<stop  offset="1" style="stop-color:#FBC123"/>
	</linearGradient>
	<path fill="url(#SVGID_64_)" d="M92.1,58.9c-0.1,0.5-0.3,1-0.4,1.6C91.9,59.9,92,59.4,92.1,58.9z"/>
	
		<linearGradient id="SVGID_65_" gradientUnits="userSpaceOnUse" x1="39.0186" y1="58.0308" x2="260.894" y2="-117.6443" gradientTransform="matrix(0.3311 0 0 -0.3311 15.3348 28.4845)">
		<stop  offset="0" style="stop-color:#FEDB3B"/>
		<stop  offset="1" style="stop-color:#FBC123"/>
	</linearGradient>
	<path fill="url(#SVGID_65_)" d="M92.1,58.9c-0.1,0.5-0.3,1-0.4,1.6C91.9,59.9,92,59.4,92.1,58.9z"/>
	
		<linearGradient id="SVGID_66_" gradientUnits="userSpaceOnUse" x1="34.9887" y1="52.941" x2="256.8641" y2="-122.734" gradientTransform="matrix(0.3311 0 0 -0.3311 15.3348 28.4845)">
		<stop  offset="0" style="stop-color:#FEDB3B"/>
		<stop  offset="1" style="stop-color:#FBC123"/>
	</linearGradient>
	<path fill="url(#SVGID_66_)" d="M91.6,60.9c-0.2,0.6-0.4,1.3-0.6,1.9C91.1,62.2,91.4,61.6,91.6,60.9z"/>
	
		<linearGradient id="SVGID_67_" gradientUnits="userSpaceOnUse" x1="34.9887" y1="52.941" x2="256.8641" y2="-122.734" gradientTransform="matrix(0.3311 0 0 -0.3311 15.3348 28.4845)">
		<stop  offset="0" style="stop-color:#FEDB3B"/>
		<stop  offset="1" style="stop-color:#FBC123"/>
	</linearGradient>
	<path fill="url(#SVGID_67_)" d="M91.6,60.9c-0.2,0.6-0.4,1.3-0.6,1.9C91.1,62.2,91.4,61.6,91.6,60.9z"/>
	
		<linearGradient id="SVGID_68_" gradientUnits="userSpaceOnUse" x1="5.8082" y1="16.0864" x2="183.3945" y2="-124.5217" gradientTransform="matrix(0.3311 0 0 -0.3311 15.3348 28.4845)">
		<stop  offset="0" style="stop-color:#FEDB3B"/>
		<stop  offset="1" style="stop-color:#FBC123"/>
	</linearGradient>
	<path fill="url(#SVGID_68_)" d="M84.2,75.2c-0.3,0.4-0.6,0.8-0.9,1.2C83.6,76,83.9,75.6,84.2,75.2z"/>
	
		<linearGradient id="SVGID_69_" gradientUnits="userSpaceOnUse" x1="5.8082" y1="16.0864" x2="183.3945" y2="-124.5217" gradientTransform="matrix(0.3311 0 0 -0.3311 15.3348 28.4845)">
		<stop  offset="0" style="stop-color:#FEDB3B"/>
		<stop  offset="1" style="stop-color:#FBC123"/>
	</linearGradient>
	<path fill="url(#SVGID_69_)" d="M84.2,75.2c-0.3,0.4-0.6,0.8-0.9,1.2C83.6,76,83.9,75.6,84.2,75.2z"/>
	
		<linearGradient id="SVGID_70_" gradientUnits="userSpaceOnUse" x1="22.6285" y1="37.3302" x2="244.5039" y2="-138.3448" gradientTransform="matrix(0.3311 0 0 -0.3311 15.3348 28.4845)">
		<stop  offset="0" style="stop-color:#FEDB3B"/>
		<stop  offset="1" style="stop-color:#FBC123"/>
	</linearGradient>
	<path fill="url(#SVGID_70_)" d="M88.9,67.5c-0.2,0.5-0.5,0.9-0.7,1.3C88.5,68.4,88.7,68,88.9,67.5z"/>
	
		<linearGradient id="SVGID_71_" gradientUnits="userSpaceOnUse" x1="22.6285" y1="37.3302" x2="244.5039" y2="-138.3448" gradientTransform="matrix(0.3311 0 0 -0.3311 15.3348 28.4845)">
		<stop  offset="0" style="stop-color:#FEDB3B"/>
		<stop  offset="1" style="stop-color:#FBC123"/>
	</linearGradient>
	<path fill="url(#SVGID_71_)" d="M88.9,67.5c-0.2,0.5-0.5,0.9-0.7,1.3C88.5,68.4,88.7,68,88.9,67.5z"/>
	
		<linearGradient id="SVGID_72_" gradientUnits="userSpaceOnUse" x1="18.2675" y1="31.8223" x2="240.1429" y2="-143.8528" gradientTransform="matrix(0.3311 0 0 -0.3311 15.3348 28.4845)">
		<stop  offset="0" style="stop-color:#FEDB3B"/>
		<stop  offset="1" style="stop-color:#FBC123"/>
	</linearGradient>
	<path fill="url(#SVGID_72_)" d="M87.9,69.4c-0.3,0.5-0.6,1.1-0.9,1.6C87.3,70.5,87.6,70,87.9,69.4z"/>
	
		<linearGradient id="SVGID_73_" gradientUnits="userSpaceOnUse" x1="18.2675" y1="31.8223" x2="240.1429" y2="-143.8528" gradientTransform="matrix(0.3311 0 0 -0.3311 15.3348 28.4845)">
		<stop  offset="0" style="stop-color:#FEDB3B"/>
		<stop  offset="1" style="stop-color:#FBC123"/>
	</linearGradient>
	<path fill="url(#SVGID_73_)" d="M87.9,69.4c-0.3,0.5-0.6,1.1-0.9,1.6C87.3,70.5,87.6,70,87.9,69.4z"/>
	
		<linearGradient id="SVGID_74_" gradientUnits="userSpaceOnUse" x1="30.9153" y1="47.7964" x2="252.7908" y2="-127.8786" gradientTransform="matrix(0.3311 0 0 -0.3311 15.3348 28.4845)">
		<stop  offset="0" style="stop-color:#FEDB3B"/>
		<stop  offset="1" style="stop-color:#FBC123"/>
	</linearGradient>
	<path fill="url(#SVGID_74_)" d="M90.7,63.3c-0.2,0.5-0.4,1-0.6,1.5C90.4,64.3,90.6,63.8,90.7,63.3z"/>
	
		<linearGradient id="SVGID_75_" gradientUnits="userSpaceOnUse" x1="30.9153" y1="47.7964" x2="252.7908" y2="-127.8786" gradientTransform="matrix(0.3311 0 0 -0.3311 15.3348 28.4845)">
		<stop  offset="0" style="stop-color:#FEDB3B"/>
		<stop  offset="1" style="stop-color:#FBC123"/>
	</linearGradient>
	<path fill="url(#SVGID_75_)" d="M90.7,63.3c-0.2,0.5-0.4,1-0.6,1.5C90.4,64.3,90.6,63.8,90.7,63.3z"/>
	
		<linearGradient id="SVGID_76_" gradientUnits="userSpaceOnUse" x1="43.0639" y1="63.1399" x2="264.9393" y2="-112.5351" gradientTransform="matrix(0.3311 0 0 -0.3311 15.3348 28.4845)">
		<stop  offset="0" style="stop-color:#FEDB3B"/>
		<stop  offset="1" style="stop-color:#FBC123"/>
	</linearGradient>
	<path fill="url(#SVGID_76_)" d="M92.7,56.4c-0.1,0.7-0.3,1.3-0.5,2C92.4,57.7,92.6,57.1,92.7,56.4z"/>
	
		<linearGradient id="SVGID_77_" gradientUnits="userSpaceOnUse" x1="43.0639" y1="63.1399" x2="264.9393" y2="-112.5351" gradientTransform="matrix(0.3311 0 0 -0.3311 15.3348 28.4845)">
		<stop  offset="0" style="stop-color:#FEDB3B"/>
		<stop  offset="1" style="stop-color:#FBC123"/>
	</linearGradient>
	<path fill="url(#SVGID_77_)" d="M92.7,56.4c-0.1,0.7-0.3,1.3-0.5,2C92.4,57.7,92.6,57.1,92.7,56.4z"/>
	
		<linearGradient id="SVGID_78_" gradientUnits="userSpaceOnUse" x1="46.8742" y1="67.9523" x2="268.7497" y2="-107.7227" gradientTransform="matrix(0.3311 0 0 -0.3311 15.3348 28.4845)">
		<stop  offset="0" style="stop-color:#FEDB3B"/>
		<stop  offset="1" style="stop-color:#FBC123"/>
	</linearGradient>
	<path fill="url(#SVGID_78_)" d="M93.1,54.3c-0.1,0.6-0.2,1.1-0.3,1.7C92.9,55.4,93,54.9,93.1,54.3z"/>
	
		<linearGradient id="SVGID_79_" gradientUnits="userSpaceOnUse" x1="46.8742" y1="67.9523" x2="268.7497" y2="-107.7227" gradientTransform="matrix(0.3311 0 0 -0.3311 15.3348 28.4845)">
		<stop  offset="0" style="stop-color:#FEDB3B"/>
		<stop  offset="1" style="stop-color:#FBC123"/>
	</linearGradient>
	<path fill="url(#SVGID_79_)" d="M93.1,54.3c-0.1,0.6-0.2,1.1-0.3,1.7C92.9,55.4,93,54.9,93.1,54.3z"/>
	
		<linearGradient id="SVGID_80_" gradientUnits="userSpaceOnUse" x1="-15.0615" y1="-10.2718" x2="206.8139" y2="-185.9468" gradientTransform="matrix(0.3311 0 0 -0.3311 15.3348 28.4845)">
		<stop  offset="0" style="stop-color:#FEDB3B"/>
		<stop  offset="1" style="stop-color:#FBC123"/>
	</linearGradient>
	<path fill="url(#SVGID_80_)" d="M76.2,83.3c-0.3,0.2-0.6,0.5-0.9,0.7C75.6,83.8,75.9,83.6,76.2,83.3z"/>
	
		<linearGradient id="SVGID_81_" gradientUnits="userSpaceOnUse" x1="-15.0615" y1="-10.2718" x2="206.8139" y2="-185.9468" gradientTransform="matrix(0.3311 0 0 -0.3311 15.3348 28.4845)">
		<stop  offset="0" style="stop-color:#FEDB3B"/>
		<stop  offset="1" style="stop-color:#FBC123"/>
	</linearGradient>
	<path fill="url(#SVGID_81_)" d="M76.2,83.3c-0.3,0.2-0.6,0.5-0.9,0.7C75.6,83.8,75.9,83.6,76.2,83.3z"/>
	
		<linearGradient id="SVGID_82_" gradientUnits="userSpaceOnUse" x1="1.6712" y1="10.8614" x2="223.5466" y2="-164.8137" gradientTransform="matrix(0.3311 0 0 -0.3311 15.3348 28.4845)">
		<stop  offset="0" style="stop-color:#FEDB3B"/>
		<stop  offset="1" style="stop-color:#FBC123"/>
	</linearGradient>
	<path fill="url(#SVGID_82_)" d="M82.7,77c-0.3,0.3-0.6,0.7-0.9,1C82.2,77.6,82.5,77.3,82.7,77z"/>
	
		<linearGradient id="SVGID_83_" gradientUnits="userSpaceOnUse" x1="1.6712" y1="10.8614" x2="223.5466" y2="-164.8137" gradientTransform="matrix(0.3311 0 0 -0.3311 15.3348 28.4845)">
		<stop  offset="0" style="stop-color:#FEDB3B"/>
		<stop  offset="1" style="stop-color:#FBC123"/>
	</linearGradient>
	<path fill="url(#SVGID_83_)" d="M82.7,77c-0.3,0.3-0.6,0.7-0.9,1C82.2,77.6,82.5,77.3,82.7,77z"/>
	
		<linearGradient id="SVGID_84_" gradientUnits="userSpaceOnUse" x1="50.8695" y1="72.9983" x2="272.7449" y2="-102.6768" gradientTransform="matrix(0.3311 0 0 -0.3311 15.3348 28.4845)">
		<stop  offset="0" style="stop-color:#FEDB3B"/>
		<stop  offset="1" style="stop-color:#FBC123"/>
	</linearGradient>
	<path fill="url(#SVGID_84_)" d="M93.5,51.7c-0.1,0.7-0.2,1.4-0.3,2.1C93.3,53.1,93.4,52.4,93.5,51.7z"/>
	
		<linearGradient id="SVGID_85_" gradientUnits="userSpaceOnUse" x1="50.8695" y1="72.9983" x2="272.7449" y2="-102.6768" gradientTransform="matrix(0.3311 0 0 -0.3311 15.3348 28.4845)">
		<stop  offset="0" style="stop-color:#FEDB3B"/>
		<stop  offset="1" style="stop-color:#FBC123"/>
	</linearGradient>
	<path fill="url(#SVGID_85_)" d="M93.5,51.7c-0.1,0.7-0.2,1.4-0.3,2.1C93.3,53.1,93.4,52.4,93.5,51.7z"/>
	
		<linearGradient id="SVGID_86_" gradientUnits="userSpaceOnUse" x1="5.4217" y1="15.5983" x2="227.287" y2="-160.0687" gradientTransform="matrix(0.3311 0 0 -0.3311 15.3348 28.4845)">
		<stop  offset="0" style="stop-color:#FEDB3B"/>
		<stop  offset="1" style="stop-color:#FBC123"/>
	</linearGradient>
	<path fill="url(#SVGID_86_)" d="M81.9,78c0.3-0.3,0.6-0.7,0.9-1c0.2-0.2,0.3-0.4,0.5-0.6c0.3-0.4,0.6-0.8,0.9-1.2
		c0.1-0.2,0.3-0.4,0.4-0.6c0.3-0.4,0.6-0.8,0.9-1.2c0.1-0.2,0.3-0.4,0.4-0.6c0.3-0.4,0.5-0.8,0.8-1.3c0.1-0.1,0.2-0.3,0.3-0.4
		c0.3-0.5,0.6-1.1,0.9-1.6c0.1-0.2,0.2-0.4,0.3-0.6c0.2-0.4,0.5-0.9,0.7-1.3c0.1-0.2,0.2-0.3,0.2-0.5c0.3-0.6,0.5-1.2,0.8-1.8
		c0.1-0.2,0.2-0.4,0.2-0.5c0.2-0.5,0.4-1,0.6-1.5c0.1-0.2,0.1-0.3,0.2-0.5c0.2-0.6,0.4-1.2,0.6-1.9c0.1-0.2,0.1-0.3,0.1-0.5
		c0.2-0.5,0.3-1,0.4-1.6c0-0.2,0.1-0.3,0.1-0.5c0.2-0.7,0.3-1.3,0.5-2c0-0.1,0-0.3,0.1-0.4c0.1-0.6,0.2-1.1,0.3-1.7
		c0-0.2,0.1-0.4,0.1-0.5c0.1-0.7,0.2-1.4,0.3-2.1c0-0.1,0-0.2,0-0.2c0.1-0.6,0.1-1.3,0.1-1.9c0-0.2,0-0.4,0-0.6
		c0-0.7,0.1-1.4,0.1-2.1C93.7,21,72.7,0,46.9,0C21,0,0,21,0,46.9c0,25.9,21,46.9,46.9,46.9c0.7,0,1.4,0,2.2-0.1c0.2,0,0.5,0,0.7,0
		c0.5,0,0.9-0.1,1.4-0.1c0.3,0,0.6-0.1,0.9-0.1c0.4,0,0.9-0.1,1.3-0.2c0.3,0,0.5-0.1,0.8-0.1V80.7l-0.3-0.4l-1.3-0.6
		c-0.1,0-0.1-0.1-0.1-0.1l-0.6-0.6c0,0,0,0,0-0.1l-0.6-0.8c0-0.1-0.1-0.1-0.2-0.1l-0.6-0.3c0,0,0,0,0,0l-1.9-1.2
		c-0.1,0-0.1-0.1-0.2-0.2l-0.3-0.6l-0.3-0.7c0,0,0,0,0,0l-0.3-0.9c0,0,0,0,0-0.1l-0.3-1.3l-0.3-1.6v0l-1-3.6l-1-3.7l-1.1-3.9
		l-1.3-5.3v0l-0.9-2.7c0,0,0-0.1,0-0.1v-1.2c0-0.1,0-0.2,0.1-0.2l0.2-0.2c0,0,0,0,0.1-0.1l2-1.9c0,0,0.1-0.1,0.1-0.1l8.9-3.3
		c0,0,0,0,0.1,0l0.6-0.3v-0.4l-0.2-0.2c-0.1-0.1-0.1-0.1-0.1-0.2l-0.3-1.2v0l-0.3-0.9l-0.4-1c0,0,0,0,0-0.1l-0.3-1.6c0,0,0,0,0-0.1
		l-0.4-1v0l-0.6-2.3L50.5,34c0-0.2,0-0.3,0.1-0.4l0.2-0.1c0,0,0,0,0.1,0l1.7-1l2.5-1.6c0.1,0,0.1-0.1,0.2-0.1l0.4-0.5l-0.1-0.8
		l-0.2-0.3l0,0c-0.1-0.1-0.2-0.2-0.2-0.4l0-1.7c0,0,0-0.1,0-0.1l0.3-0.9c0,0,0,0,0-0.1l0.6-1.3c0,0,0.1-0.1,0.1-0.1l1.3-1.2l0,0
		l0.9-0.6c0,0,0.1,0,0.1,0l0.9-0.3c0,0,0,0,0,0l0.8-0.3c0,0,0.1,0,0.1,0h2.8c0.1,0,0.1,0,0.2,0l0.8,0.3l0.8,0.3h0l0.8,0.4
		c0,0,0.1,0,0.1,0.1l0.7,0.6c0,0,0,0,0,0l0.6,0.6c0,0,0,0,0,0l0.6,0.7c0,0,0,0.1,0.1,0.1l0.3,0.6l0.3,0.6c0,0,0,0,0,0l0.3,0.6
		c0,0.1,0.1,0.1,0.1,0.2v1.6l-0.6,0.4L68,30.3l0.2,0.4l1.1,0.8c0,0,0,0,0,0l1,0.6l1.2,0.7h0l1.2,0.8c0.1,0.1,0.2,0.2,0.2,0.4v0.4
		c0,0,0,0.1,0,0.1l-0.3,1.2L72,38l-0.6,2.2L71,41.4v0l-0.3,1.3l-0.1,0.4c0,0,0,0,0,0.1l-0.2,0.5c0,0,0,0.1-0.1,0.1l-0.2,0.3v0.3
		l0.3,0.3h0.3l1,0.4l1,0.3l1.7,0.6l1,0.4L77,47l1.8,0.7c0,0,0,0,0,0l1.8,1c0,0,0.1,0,0.1,0.1l0.8,0.9c0.1,0.1,0.1,0.2,0.1,0.3v2.7
		c0,0,0,0.1,0,0.1l-0.6,2.6l-0.7,2.6v0l-0.3,0.7c0,0,0,0,0,0.1l-0.3,1.5v0l-0.3,1c0,0,0,0,0,0l-0.4,1.4l-0.3,1.1v0l-0.4,1.6L78,66.5
		c0,0,0,0,0,0l-0.3,1.3v0l-0.4,1.3l-0.7,2.3l-0.7,2.6l-0.3,1.3c0,0.1,0,0.1-0.1,0.2l-0.7,0.9c0,0-0.1,0.1-0.1,0.1l-1.2,0.9
		c0,0,0,0-0.1,0l-1.2,0.6c0,0-0.1,0.1-0.1,0.1l-1.3,1.5c0,0-0.1,0.1-0.1,0.1l-0.5,0.3c-0.1,0-0.1,0-0.2,0h-0.4l-0.3,0.1l-0.1,0.1
		l-0.1,0.3v7.3c0,0,0,0,0,0c0.5-0.3,1-0.6,1.5-0.9c0.3-0.2,0.5-0.3,0.8-0.5c0.3-0.2,0.6-0.4,0.9-0.6c0.2-0.2,0.5-0.3,0.7-0.5
		c0.5-0.3,0.9-0.7,1.4-1c0.2-0.2,0.5-0.3,0.7-0.5c0.3-0.2,0.6-0.5,0.9-0.7c0.2-0.2,0.4-0.4,0.7-0.5c0.4-0.4,0.9-0.7,1.3-1.1
		c0.2-0.2,0.4-0.4,0.6-0.5c0.3-0.3,0.6-0.5,0.9-0.8c0.2-0.2,0.4-0.4,0.6-0.6c0.4-0.4,0.8-0.8,1.2-1.2C81.6,78.3,81.7,78.2,81.9,78z"
		/>
	
		<linearGradient id="SVGID_87_" gradientUnits="userSpaceOnUse" x1="5.4217" y1="15.5983" x2="227.287" y2="-160.0687" gradientTransform="matrix(0.3311 0 0 -0.3311 15.3348 28.4845)">
		<stop  offset="0" style="stop-color:#FEDB3B"/>
		<stop  offset="1" style="stop-color:#FBC123"/>
	</linearGradient>
	<path fill="url(#SVGID_87_)" d="M81.9,78c0.3-0.3,0.6-0.7,0.9-1c0.2-0.2,0.3-0.4,0.5-0.6c0.3-0.4,0.6-0.8,0.9-1.2
		c0.1-0.2,0.3-0.4,0.4-0.6c0.3-0.4,0.6-0.8,0.9-1.2c0.1-0.2,0.3-0.4,0.4-0.6c0.3-0.4,0.5-0.8,0.8-1.3c0.1-0.1,0.2-0.3,0.3-0.4
		c0.3-0.5,0.6-1.1,0.9-1.6c0.1-0.2,0.2-0.4,0.3-0.6c0.2-0.4,0.5-0.9,0.7-1.3c0.1-0.2,0.2-0.3,0.2-0.5c0.3-0.6,0.5-1.2,0.8-1.8
		c0.1-0.2,0.2-0.4,0.2-0.5c0.2-0.5,0.4-1,0.6-1.5c0.1-0.2,0.1-0.3,0.2-0.5c0.2-0.6,0.4-1.2,0.6-1.9c0.1-0.2,0.1-0.3,0.1-0.5
		c0.2-0.5,0.3-1,0.4-1.6c0-0.2,0.1-0.3,0.1-0.5c0.2-0.7,0.3-1.3,0.5-2c0-0.1,0-0.3,0.1-0.4c0.1-0.6,0.2-1.1,0.3-1.7
		c0-0.2,0.1-0.4,0.1-0.5c0.1-0.7,0.2-1.4,0.3-2.1c0-0.1,0-0.2,0-0.2c0.1-0.6,0.1-1.3,0.1-1.9c0-0.2,0-0.4,0-0.6
		c0-0.7,0.1-1.4,0.1-2.1C93.7,21,72.7,0,46.9,0C21,0,0,21,0,46.9c0,25.9,21,46.9,46.9,46.9c0.7,0,1.4,0,2.2-0.1c0.2,0,0.5,0,0.7,0
		c0.5,0,0.9-0.1,1.4-0.1c0.3,0,0.6-0.1,0.9-0.1c0.4,0,0.9-0.1,1.3-0.2c0.3,0,0.5-0.1,0.8-0.1V80.7l-0.3-0.4l-1.3-0.6
		c-0.1,0-0.1-0.1-0.1-0.1l-0.6-0.6c0,0,0,0,0-0.1l-0.6-0.8c0-0.1-0.1-0.1-0.2-0.1l-0.6-0.3c0,0,0,0,0,0l-1.9-1.2
		c-0.1,0-0.1-0.1-0.2-0.2l-0.3-0.6l-0.3-0.7c0,0,0,0,0,0l-0.3-0.9c0,0,0,0,0-0.1l-0.3-1.3l-0.3-1.6v0l-1-3.6l-1-3.7l-1.1-3.9
		l-1.3-5.3v0l-0.9-2.7c0,0,0-0.1,0-0.1v-1.2c0-0.1,0-0.2,0.1-0.2l0.2-0.2c0,0,0,0,0.1-0.1l2-1.9c0,0,0.1-0.1,0.1-0.1l8.9-3.3
		c0,0,0,0,0.1,0l0.6-0.3v-0.4l-0.2-0.2c-0.1-0.1-0.1-0.1-0.1-0.2l-0.3-1.2v0l-0.3-0.9l-0.4-1c0,0,0,0,0-0.1l-0.3-1.6c0,0,0,0,0-0.1
		l-0.4-1v0l-0.6-2.3L50.5,34c0-0.2,0-0.3,0.1-0.4l0.2-0.1c0,0,0,0,0.1,0l1.7-1l2.5-1.6c0.1,0,0.1-0.1,0.2-0.1l0.4-0.5l-0.1-0.8
		l-0.2-0.3l0,0c-0.1-0.1-0.2-0.2-0.2-0.4l0-1.7c0,0,0-0.1,0-0.1l0.3-0.9c0,0,0,0,0-0.1l0.6-1.3c0,0,0.1-0.1,0.1-0.1l1.3-1.2l0,0
		l0.9-0.6c0,0,0.1,0,0.1,0l0.9-0.3c0,0,0,0,0,0l0.8-0.3c0,0,0.1,0,0.1,0h2.8c0.1,0,0.1,0,0.2,0l0.8,0.3l0.8,0.3h0l0.8,0.4
		c0,0,0.1,0,0.1,0.1l0.7,0.6c0,0,0,0,0,0l0.6,0.6c0,0,0,0,0,0l0.6,0.7c0,0,0,0.1,0.1,0.1l0.3,0.6l0.3,0.6c0,0,0,0,0,0l0.3,0.6
		c0,0.1,0.1,0.1,0.1,0.2v1.6l-0.6,0.4L68,30.3l0.2,0.4l1.1,0.8c0,0,0,0,0,0l1,0.6l1.2,0.7h0l1.2,0.8c0.1,0.1,0.2,0.2,0.2,0.4v0.4
		c0,0,0,0.1,0,0.1l-0.3,1.2L72,38l-0.6,2.2L71,41.4v0l-0.3,1.3l-0.1,0.4c0,0,0,0,0,0.1l-0.2,0.5c0,0,0,0.1-0.1,0.1l-0.2,0.3v0.3
		l0.3,0.3h0.3l1,0.4l1,0.3l1.7,0.6l1,0.4L77,47l1.8,0.7c0,0,0,0,0,0l1.8,1c0,0,0.1,0,0.1,0.1l0.8,0.9c0.1,0.1,0.1,0.2,0.1,0.3v2.7
		c0,0,0,0.1,0,0.1l-0.6,2.6l-0.7,2.6v0l-0.3,0.7c0,0,0,0,0,0.1l-0.3,1.5v0l-0.3,1c0,0,0,0,0,0l-0.4,1.4l-0.3,1.1v0l-0.4,1.6L78,66.5
		c0,0,0,0,0,0l-0.3,1.3v0l-0.4,1.3l-0.7,2.3l-0.7,2.6l-0.3,1.3c0,0.1,0,0.1-0.1,0.2l-0.7,0.9c0,0-0.1,0.1-0.1,0.1l-1.2,0.9
		c0,0,0,0-0.1,0l-1.2,0.6c0,0-0.1,0.1-0.1,0.1l-1.3,1.5c0,0-0.1,0.1-0.1,0.1l-0.5,0.3c-0.1,0-0.1,0-0.2,0h-0.4l-0.3,0.1l-0.1,0.1
		l-0.1,0.3v7.3c0,0,0,0,0,0c0.5-0.3,1-0.6,1.5-0.9c0.3-0.2,0.5-0.3,0.8-0.5c0.3-0.2,0.6-0.4,0.9-0.6c0.2-0.2,0.5-0.3,0.7-0.5
		c0.5-0.3,0.9-0.7,1.4-1c0.2-0.2,0.5-0.3,0.7-0.5c0.3-0.2,0.6-0.5,0.9-0.7c0.2-0.2,0.4-0.4,0.7-0.5c0.4-0.4,0.9-0.7,1.3-1.1
		c0.2-0.2,0.4-0.4,0.6-0.5c0.3-0.3,0.6-0.5,0.9-0.8c0.2-0.2,0.4-0.4,0.6-0.6c0.4-0.4,0.8-0.8,1.2-1.2C81.6,78.3,81.7,78.2,81.9,78z"
		/>
	
		<linearGradient id="SVGID_88_" gradientUnits="userSpaceOnUse" x1="5.4217" y1="15.5983" x2="227.287" y2="-160.0687" gradientTransform="matrix(0.3311 0 0 -0.3311 15.3348 28.4845)">
		<stop  offset="0" style="stop-color:#FEDB3B"/>
		<stop  offset="1" style="stop-color:#FBC123"/>
	</linearGradient>
	<path fill="url(#SVGID_88_)" d="M81.9,78c0.3-0.3,0.6-0.7,0.9-1c0.2-0.2,0.3-0.4,0.5-0.6c0.3-0.4,0.6-0.8,0.9-1.2
		c0.1-0.2,0.3-0.4,0.4-0.6c0.3-0.4,0.6-0.8,0.9-1.2c0.1-0.2,0.3-0.4,0.4-0.6c0.3-0.4,0.5-0.8,0.8-1.3c0.1-0.1,0.2-0.3,0.3-0.4
		c0.3-0.5,0.6-1.1,0.9-1.6c0.1-0.2,0.2-0.4,0.3-0.6c0.2-0.4,0.5-0.9,0.7-1.3c0.1-0.2,0.2-0.3,0.2-0.5c0.3-0.6,0.5-1.2,0.8-1.8
		c0.1-0.2,0.2-0.4,0.2-0.5c0.2-0.5,0.4-1,0.6-1.5c0.1-0.2,0.1-0.3,0.2-0.5c0.2-0.6,0.4-1.2,0.6-1.9c0.1-0.2,0.1-0.3,0.1-0.5
		c0.2-0.5,0.3-1,0.4-1.6c0-0.2,0.1-0.3,0.1-0.5c0.2-0.7,0.3-1.3,0.5-2c0-0.1,0-0.3,0.1-0.4c0.1-0.6,0.2-1.1,0.3-1.7
		c0-0.2,0.1-0.4,0.1-0.5c0.1-0.7,0.2-1.4,0.3-2.1c0-0.1,0-0.2,0-0.2c0.1-0.6,0.1-1.3,0.1-1.9c0-0.2,0-0.4,0-0.6
		c0-0.7,0.1-1.4,0.1-2.1C93.7,21,72.7,0,46.9,0C21,0,0,21,0,46.9c0,25.9,21,46.9,46.9,46.9c0.7,0,1.4,0,2.2-0.1c0.2,0,0.5,0,0.7,0
		c0.5,0,0.9-0.1,1.4-0.1c0.3,0,0.6-0.1,0.9-0.1c0.4,0,0.9-0.1,1.3-0.2c0.3,0,0.5-0.1,0.8-0.1V80.7l-0.3-0.4l-1.3-0.6
		c-0.1,0-0.1-0.1-0.1-0.1l-0.6-0.6c0,0,0,0,0-0.1l-0.6-0.8c0-0.1-0.1-0.1-0.2-0.1l-0.6-0.3c0,0,0,0,0,0l-1.9-1.2
		c-0.1,0-0.1-0.1-0.2-0.2l-0.3-0.6l-0.3-0.7c0,0,0,0,0,0l-0.3-0.9c0,0,0,0,0-0.1l-0.3-1.3l-0.3-1.6v0l-1-3.6l-1-3.7l-1.1-3.9
		l-1.3-5.3v0l-0.9-2.7c0,0,0-0.1,0-0.1v-1.2c0-0.1,0-0.2,0.1-0.2l0.2-0.2c0,0,0,0,0.1-0.1l2-1.9c0,0,0.1-0.1,0.1-0.1l8.9-3.3
		c0,0,0,0,0.1,0l0.6-0.3v-0.4l-0.2-0.2c-0.1-0.1-0.1-0.1-0.1-0.2l-0.3-1.2v0l-0.3-0.9l-0.4-1c0,0,0,0,0-0.1l-0.3-1.6c0,0,0,0,0-0.1
		l-0.4-1v0l-0.6-2.3L50.5,34c0-0.2,0-0.3,0.1-0.4l0.2-0.1c0,0,0,0,0.1,0l1.7-1l2.5-1.6c0.1,0,0.1-0.1,0.2-0.1l0.4-0.5l-0.1-0.8
		l-0.2-0.3l0,0c-0.1-0.1-0.2-0.2-0.2-0.4l0-1.7c0,0,0-0.1,0-0.1l0.3-0.9c0,0,0,0,0-0.1l0.6-1.3c0,0,0.1-0.1,0.1-0.1l1.3-1.2l0,0
		l0.9-0.6c0,0,0.1,0,0.1,0l0.9-0.3c0,0,0,0,0,0l0.8-0.3c0,0,0.1,0,0.1,0h2.8c0.1,0,0.1,0,0.2,0l0.8,0.3l0.8,0.3h0l0.8,0.4
		c0,0,0.1,0,0.1,0.1l0.7,0.6c0,0,0,0,0,0l0.6,0.6c0,0,0,0,0,0l0.6,0.7c0,0,0,0.1,0.1,0.1l0.3,0.6l0.3,0.6c0,0,0,0,0,0l0.3,0.6
		c0,0.1,0.1,0.1,0.1,0.2v1.6l-0.6,0.4L68,30.3l0.2,0.4l1.1,0.8c0,0,0,0,0,0l1,0.6l1.2,0.7h0l1.2,0.8c0.1,0.1,0.2,0.2,0.2,0.4v0.4
		c0,0,0,0.1,0,0.1l-0.3,1.2L72,38l-0.6,2.2L71,41.4v0l-0.3,1.3l-0.1,0.4c0,0,0,0,0,0.1l-0.2,0.5c0,0,0,0.1-0.1,0.1l-0.2,0.3v0.3
		l0.3,0.3h0.3l1,0.4l1,0.3l1.7,0.6l1,0.4L77,47l1.8,0.7c0,0,0,0,0,0l1.8,1c0,0,0.1,0,0.1,0.1l0.8,0.9c0.1,0.1,0.1,0.2,0.1,0.3v2.7
		c0,0,0,0.1,0,0.1l-0.6,2.6l-0.7,2.6v0l-0.3,0.7c0,0,0,0,0,0.1l-0.3,1.5v0l-0.3,1c0,0,0,0,0,0l-0.4,1.4l-0.3,1.1v0l-0.4,1.6L78,66.5
		c0,0,0,0,0,0l-0.3,1.3v0l-0.4,1.3l-0.7,2.3l-0.7,2.6l-0.3,1.3c0,0.1,0,0.1-0.1,0.2l-0.7,0.9c0,0-0.1,0.1-0.1,0.1l-1.2,0.9
		c0,0,0,0-0.1,0l-1.2,0.6c0,0-0.1,0.1-0.1,0.1l-1.3,1.5c0,0-0.1,0.1-0.1,0.1l-0.5,0.3c-0.1,0-0.1,0-0.2,0h-0.4l-0.3,0.1l-0.1,0.1
		l-0.1,0.3v7.3c0,0,0,0,0,0c0.5-0.3,1-0.6,1.5-0.9c0.3-0.2,0.5-0.3,0.8-0.5c0.3-0.2,0.6-0.4,0.9-0.6c0.2-0.2,0.5-0.3,0.7-0.5
		c0.5-0.3,0.9-0.7,1.4-1c0.2-0.2,0.5-0.3,0.7-0.5c0.3-0.2,0.6-0.5,0.9-0.7c0.2-0.2,0.4-0.4,0.7-0.5c0.4-0.4,0.9-0.7,1.3-1.1
		c0.2-0.2,0.4-0.4,0.6-0.5c0.3-0.3,0.6-0.5,0.9-0.8c0.2-0.2,0.4-0.4,0.6-0.6c0.4-0.4,0.8-0.8,1.2-1.2C81.6,78.3,81.7,78.2,81.9,78z"
		/>
	<path fill="#303030" d="M69.4,80.6c0-0.1,0.1-0.2,0.1-0.3l0.1-0.1c0.1-0.1,0.2-0.1,0.3-0.1h0.4c0.1,0,0.1,0,0.2,0l0.5-0.3
		c0.1,0,0.1-0.1,0.1-0.1l1.3-1.5c0,0,0.1-0.1,0.1-0.1l1.2-0.6c0,0,0,0,0.1,0l1.2-0.9c0,0,0.1-0.1,0.1-0.1l0.7-0.9
		c0-0.1,0.1-0.1,0.1-0.2l0.3-1.3l0.7-2.6l0.7-2.3l0.4-1.3v0l0.3-1.3c0,0,0,0,0,0l0.3-1.2l0.4-1.6v0l0.3-1.1l0.4-1.4c0,0,0,0,0,0
		l0.3-1v0l0.3-1.5c0,0,0,0,0-0.1l0.3-0.7v0l0.7-2.6l0.6-2.6c0,0,0-0.1,0-0.1v-2.7l-0.1-0.3l-0.8-0.9c0,0-0.1,0-0.1-0.1l-1.8-1
		c0,0,0,0,0,0L77,47l-1.6-0.6l-1-0.4l-1.7-0.6l-1-0.3l-1-0.4h-0.3l-0.3-0.3v-0.3l0.2-0.3c0,0,0.1-0.1,0.1-0.1l0.2-0.5c0,0,0,0,0-0.1
		l0.1-0.4l0.3-1.3v0l0.4-1.3L72,38l0.6-2.4l0.3-1.2c0,0,0-0.1,0-0.1v-0.4l-0.2-0.4l-1.2-0.8h0l-1.2-0.7l-1-0.6c0,0,0,0,0,0l-1.1-0.8
		c-0.1-0.1-0.2-0.2-0.2-0.4l0.2-1.1l0.6-0.4v-1.6c0-0.1,0-0.1-0.1-0.2l-0.3-0.6c0,0,0,0,0,0l-0.3-0.6l-0.3-0.6c0,0,0-0.1-0.1-0.1
		l-0.6-0.7c0,0,0,0,0,0l-0.6-0.6c0,0,0,0,0,0l-0.7-0.6c0,0-0.1,0-0.1-0.1L65,22.8h0l-0.8-0.3l-0.8-0.3c-0.1,0-0.1,0-0.2,0h-2.8
		c0,0-0.1,0-0.1,0l-0.8,0.3c0,0,0,0,0,0l-0.9,0.3c0,0-0.1,0-0.1,0l-0.9,0.6l0,0l-1.3,1.2c0,0-0.1,0.1-0.1,0.1l-0.6,1.3
		c0,0,0,0,0,0.1l-0.3,0.9c0,0,0,0.1,0,0.1l0,1.7l0.2,0.4l0,0c0.1,0.1,0.2,0.2,0.2,0.3l0.1,0.8c0,0.2-0.2,0.5-0.4,0.5
		c-0.1,0-0.1,0-0.2,0.1l-2.5,1.6l-1.7,1c0,0-0.1,0-0.1,0l-0.2,0.1L50.5,34l0.3,1.3l0.6,2.3v0l0.4,1c0,0,0,0,0,0.1l0.3,1.6
		c0,0,0,0,0,0.1l0.4,1l0.3,0.9v0l0.3,1.2c0,0.1,0.1,0.1,0.1,0.2l0.2,0.2v0.4l-0.6,0.3c0,0,0,0-0.1,0L44,48c0,0-0.1,0.1-0.1,0.1
		l-2,1.9c0,0-0.1,0-0.1,0.1l-0.2,0.2c0,0.1-0.1,0.1-0.1,0.2v1.2c0,0,0,0.1,0,0.1l0.9,2.7v0l1.3,5.3l1.1,3.9l1,3.7l1,3.6v0l0.3,1.6
		l0.3,1.3c0,0,0,0,0,0.1l0.3,0.9c0,0,0,0,0,0l0.3,0.7l0.3,0.6c0,0.1,0.1,0.1,0.2,0.2l1.9,1.2c0,0,0,0,0,0l0.6,0.3
		c0.1,0,0.1,0.1,0.2,0.1l0.6,0.8c0,0,0,0,0,0.1l0.6,0.6c0,0,0.1,0.1,0.1,0.1l1.3,0.6c0.2,0.1,0.3,0.2,0.3,0.4v12.4l0,0
		c5.4-0.9,10.6-2.6,15.2-5.2l0,0V80.6z M71.7,58.1l0.5-3l0.3-2.2l0.5-0.3l0.6,0.2l0.9,0.3l2,0.7h0l2,0.9l0.2,0.5l-0.3,1.1L78,57.4
		l-0.4,1.4L77,61.5l-0.1,0.3l-0.5,0.3l-2.3-0.7l-2.7-0.8L71.7,58.1z M52.3,60.7L51.6,61h0l-1.9,0.5h0L48.3,62l-1.1,0.5l-0.5-0.2
		l-0.1-0.2l0-0.1l-0.6-1.9l-0.5-1.5l-0.4-1.4l-0.5-2l0.2-0.5l0.1,0l0.6-0.4l0,0l0.7-0.4h0l0.9-0.4h0l1.9-0.6h0l1.3-0.3l0.5,0.3
		l0.1,0.3l0.4,2.3l0.4,2l0.3,1.4l0.1,0.7l0.2,0.9L52.3,60.7z M68.9,60.2h-0.6l-14.1,0l-0.1-0.4l-0.4-1.9v0l-0.2-2v0l0-1.3v0
		l-0.1-1.3v0v-1.3l0.2-0.2l0.2,0l14.9,0h0.1l0.9,0.1l0.4,0.4l-0.1,0.9l-0.2,1.9l-0.1,1.3L69.4,58l-0.1,1.8L68.9,60.2z"/>
	<path fill="#303030" d="M53.9,80.3l0.3,0.4C54.1,80.6,54,80.4,53.9,80.3z"/>
	<path fill="#303030" d="M68,30.3c0,0.2,0,0.3,0.2,0.4L68,30.3z"/>
	<path fill="#303030" d="M55.6,30.3l-0.4,0.5C55.4,30.8,55.6,30.5,55.6,30.3z"/>
	<path fill="#303030" d="M69.9,80.1c-0.1,0-0.2,0-0.3,0.1L69.9,80.1z"/>
	<path fill="#303030" d="M55.3,29.2l0.2,0.3C55.5,29.4,55.4,29.3,55.3,29.2z"/>
	<path fill="#303030" d="M69.5,80.3c-0.1,0.1-0.1,0.2-0.1,0.3L69.5,80.3z"/>
</g>
</svg>
