<?xml version="1.0" encoding="UTF-8" standalone="no"?>
<svg
   xmlns:dc="http://purl.org/dc/elements/1.1/"
   xmlns:cc="http://creativecommons.org/ns#"
   xmlns:rdf="http://www.w3.org/1999/02/22-rdf-syntax-ns#"
   xmlns:svg="http://www.w3.org/2000/svg"
   xmlns="http://www.w3.org/2000/svg"
   viewBox="0 0 405.33334 405.33334"
   height="405.33334"
   width="405.33334"
   xml:space="preserve"
   version="1.1"
   id="svg2"><metadata
     id="metadata8"><rdf:RDF><cc:Work
         rdf:about=""><dc:format>image/svg+xml</dc:format><dc:type
           rdf:resource="http://purl.org/dc/dcmitype/StillImage" /></cc:Work></rdf:RDF></metadata><defs
     id="defs6"><clipPath
       id="clipPath18"
       clipPathUnits="userSpaceOnUse"><path
         style="clip-rule:evenodd"
         id="path20"
         d="m 1429.71,1142.48 c 11.43,0 20.69,-9.2 20.69,-20.73 l 0,0 c 0,-11.44 -9.18,-20.72 -20.69,-20.72 l -41.44,0 c -11.43,0 -20.69,9.2 -20.69,20.72 l 0,0 c 0,11.45 9.18,20.73 20.69,20.73 l 41.44,0 z" /></clipPath><clipPath
       id="clipPath24"
       clipPathUnits="userSpaceOnUse"><path
         id="path26"
         d="m 0,0 3040,0 0,3040 L 0,3040 0,0 Z" /></clipPath><clipPath
       id="clipPath34"
       clipPathUnits="userSpaceOnUse"><path
         style="clip-rule:evenodd"
         id="path36"
         d="m 1345.82,1498.77 c 11.43,0.19 20.85,-8.84 21.05,-20.36 l 0,0 c 0.2,-11.45 -8.82,-20.88 -20.32,-21.09 l -41.44,-0.72 c -11.43,-0.2 -20.85,8.84 -21.05,20.36 l 0,0 c -0.2,11.45 8.82,20.88 20.32,21.08 l 41.44,0.73 z" /></clipPath><clipPath
       id="clipPath40"
       clipPathUnits="userSpaceOnUse"><path
         id="path42"
         d="m 0,0 3040,0 0,3040 L 0,3040 0,0 Z" /></clipPath><clipPath
       id="clipPath50"
       clipPathUnits="userSpaceOnUse"><path
         style="clip-rule:evenodd"
         id="path52"
         d="m 1406.41,1204.34 17.88,-66.73 -26.67,-7.14 -17.88,66.73 26.67,7.14 z" /></clipPath><clipPath
       id="clipPath56"
       clipPathUnits="userSpaceOnUse"><path
         id="path58"
         d="m 0,0 3040,0 0,3040 L 0,3040 0,0 Z" /></clipPath><clipPath
       id="clipPath66"
       clipPathUnits="userSpaceOnUse"><path
         style="clip-rule:evenodd"
         id="path68"
         d="m 1334.89,1471.24 17.88,-66.72 -26.66,-7.15 -17.88,66.72 26.66,7.15 z" /></clipPath><clipPath
       id="clipPath72"
       clipPathUnits="userSpaceOnUse"><path
         id="path74"
         d="m 0,0 3040,0 0,3040 L 0,3040 0,0 Z" /></clipPath><clipPath
       id="clipPath82"
       clipPathUnits="userSpaceOnUse"><path
         style="clip-rule:evenodd"
         id="path84"
         d="m 1362.81,1190.33 c -62.9,0 -113.88,51.03 -113.88,113.98 0,62.95 50.98,113.98 113.88,113.98 62.89,0 113.88,-51.03 113.88,-113.98 0,-62.95 -50.99,-113.98 -113.88,-113.98 z m 0,28.49 c -47.17,0 -85.41,38.28 -85.41,85.49 0,14.58 3.65,28.31 10.08,40.33 5.67,10.59 13.52,19.85 22.93,27.18 14.47,11.27 32.65,17.97 52.4,17.97 47.17,0 85.41,-38.27 85.41,-85.48 0,-47.21 -38.24,-85.49 -85.41,-85.49 z" /></clipPath><clipPath
       id="clipPath88"
       clipPathUnits="userSpaceOnUse"><path
         id="path90"
         d="m 0,0 3040,0 0,3040 L 0,3040 0,0 Z" /></clipPath><clipPath
       id="clipPath98"
       clipPathUnits="userSpaceOnUse"><path
         style="clip-rule:evenodd"
         id="path100"
         d="m 1209.48,1800.07 -949.48,0 0,-950.07 949.48,0 0,950.07 z M 870.977,1631.15 C 987.949,1578.93 1069.48,1461.51 1069.48,1325.03 1069.48,1140 919.609,990 734.738,990 549.867,990 400,1140 400,1325.03 c 0,185.04 149.867,335.04 334.738,335.04 36.77,0 72.153,-5.94 105.25,-16.9" /></clipPath><clipPath
       id="clipPath104"
       clipPathUnits="userSpaceOnUse"><path
         id="path106"
         d="m 0,0 3040,0 0,3040 L 0,3040 0,0 Z" /></clipPath><clipPath
       id="clipPath114"
       clipPathUnits="userSpaceOnUse"><path
         style="clip-rule:evenodd"
         id="path116"
         d="m 734.738,1266.32 c -32.398,0 -58.664,26.29 -58.664,58.71 0,32.43 26.266,58.72 58.664,58.72 32.403,0 58.668,-26.29 58.668,-58.72 0,-32.42 -26.265,-58.71 -58.668,-58.71 z" /></clipPath><clipPath
       id="clipPath120"
       clipPathUnits="userSpaceOnUse"><path
         id="path122"
         d="m 0,0 3040,0 0,3040 L 0,3040 0,0 Z" /></clipPath><clipPath
       id="clipPath132"
       clipPathUnits="userSpaceOnUse"><path
         style="clip-rule:evenodd"
         id="path134"
         d="m 2320.68,1800.07 -949.48,0 0,-950.07 949.48,0 0,950.07 z m -673.59,-205.5 c 55.6,41.16 124.38,65.5 198.85,65.5 184.87,0 334.74,-150 334.74,-335.04 C 2180.68,1140 2030.81,990 1845.94,990 c -184.88,0 -334.74,150 -334.74,335.03 0,98.52 42.48,187.11 110.12,248.41" /></clipPath><clipPath
       id="clipPath138"
       clipPathUnits="userSpaceOnUse"><path
         id="path140"
         d="m 0,0 3040,0 0,3040 L 0,3040 0,0 Z" /></clipPath><clipPath
       id="clipPath148"
       clipPathUnits="userSpaceOnUse"><path
         style="clip-rule:evenodd"
         id="path150"
         d="m 1845.94,1266.32 c -32.4,0 -58.67,26.29 -58.67,58.71 0,32.43 26.27,58.72 58.67,58.72 32.4,0 58.66,-26.29 58.66,-58.72 0,-32.42 -26.26,-58.71 -58.66,-58.71 z" /></clipPath><clipPath
       id="clipPath154"
       clipPathUnits="userSpaceOnUse"><path
         id="path156"
         d="m 0,0 3040,0 0,3040 L 0,3040 0,0 Z" /></clipPath><clipPath
       id="clipPath170"
       clipPathUnits="userSpaceOnUse"><path
         style="clip-rule:evenodd"
         id="path172"
         d="m 1908.93,2251.55 -735.95,0 0,-495.63 735.95,0 0,495.63 z m -238.99,-200 c 21.98,0 36.6,-6.87 38.76,-23.3 1.49,-11.32 -4.24,-22.04 -14.92,-34.35 -3.95,-4.54 -8.57,-9.23 -13.74,-14.02 -5.56,-5.16 -11.48,-10.18 -17.39,-14.9 -2.07,-1.64 -3.99,-3.14 -5.73,-4.46 -1.06,-0.8 -1.83,-1.38 -2.28,-1.71 l -3.96,-2.89 -4.9,0 -224.31,0 -3.62,0 -3.23,1.66 c -1.24,0.63 -3.26,1.73 -5.81,3.21 -4.22,2.45 -8.45,5.14 -12.47,8.01 -7.55,5.42 -13.5,10.85 -17.48,16.74 -16.27,24.11 2.43,41.52 41.19,45.21 77.13,9.27 220.4,20.8 249.89,20.8 z m 0,-30 c -28.03,0 -170.28,-11.44 -246.68,-20.62 -7.49,-0.72 -13.05,-1.71 -17.03,-2.91 -2.71,-0.81 -4.14,-1.54 -4.41,-1.79 1.04,0.97 1.91,2.93 1.86,4.99 -0.02,1.08 -0.14,1.38 0.05,1.1 1.56,-2.31 5.18,-5.61 10.08,-9.12 3.16,-2.27 6.62,-4.46 10.07,-6.47 2.07,-1.2 3.64,-2.05 4.44,-2.46 l -6.85,1.65 224.31,0 -8.85,-2.89 c 1.34,0.98 3.82,2.86 7.03,5.42 5.36,4.27 10.72,8.83 15.69,13.43 4.42,4.1 8.3,8.04 11.47,11.68 5.34,6.15 7.83,10.82 7.83,10.78 0.28,-2.12 1.66,-3.84 2.4,-4.19 -1.64,0.77 -5.48,1.4 -11.41,1.4 z" /></clipPath><clipPath
       id="clipPath176"
       clipPathUnits="userSpaceOnUse"><path
         style="clip-rule:evenodd"
         id="path178"
         d="m 1669.94,2036.55 c 65.57,0 -24.16,-65.63 -24.16,-65.63 l -224.31,0 c 0,0 -73.77,37.87 0,44.9 86.28,10.36 224.31,20.73 248.47,20.73 z" /></clipPath><clipPath
       id="clipPath182"
       clipPathUnits="userSpaceOnUse"><path
         id="path184"
         d="m 0,0 3040,0 0,3040 L 0,3040 0,0 Z" /></clipPath><clipPath
       id="clipPath192"
       clipPathUnits="userSpaceOnUse"><path
         style="clip-rule:evenodd"
         id="path194"
         d="m 1669.94,2036.55 c 65.57,0 -24.16,-65.63 -24.16,-65.63 l -224.31,0 c 0,0 -73.77,37.87 0,44.9 86.28,10.36 224.31,20.73 248.47,20.73 z" /></clipPath><clipPath
       id="clipPath198"
       clipPathUnits="userSpaceOnUse"><path
         id="path200"
         d="m 0,0 3040,0 0,3040 L 0,3040 0,0 Z" /></clipPath><clipPath
       id="clipPath212"
       clipPathUnits="userSpaceOnUse"><path
         style="clip-rule:evenodd"
         id="path214"
         d="m 1845.94,1293.95 c -17.16,0 -31.06,13.91 -31.06,31.08 0,17.17 13.9,31.09 31.06,31.09 17.15,0 31.05,-13.92 31.05,-31.09 0,-17.17 -13.9,-31.08 -31.05,-31.08 z" /></clipPath><clipPath
       id="clipPath218"
       clipPathUnits="userSpaceOnUse"><path
         id="path220"
         d="m 0,0 3040,0 0,3040 L 0,3040 0,0 Z" /></clipPath><clipPath
       id="clipPath228"
       clipPathUnits="userSpaceOnUse"><path
         style="clip-rule:evenodd"
         id="path230"
         d="m 734.738,1293.95 c -17.152,0 -31.058,13.91 -31.058,31.08 0,17.17 13.906,31.09 31.058,31.09 17.153,0 31.059,-13.92 31.059,-31.09 0,-17.17 -13.906,-31.08 -31.059,-31.08 z" /></clipPath><clipPath
       id="clipPath234"
       clipPathUnits="userSpaceOnUse"><path
         id="path236"
         d="m 0,0 3040,0 0,3040 L 0,3040 0,0 Z" /></clipPath><clipPath
       id="clipPath248"
       clipPathUnits="userSpaceOnUse"><path
         style="clip-rule:evenodd"
         id="path250"
         d="m 2639.69,2040 c 5.69,0 10.31,-4.6 10.31,-10.36 l 0,0 c 0,-5.73 -4.72,-10.36 -10.31,-10.36 l -897.33,0 c -5.69,0 -10.31,4.6 -10.31,10.36 l 0,0 c 0,5.72 4.72,10.36 10.31,10.36 l 897.33,0 z" /></clipPath><clipPath
       id="clipPath254"
       clipPathUnits="userSpaceOnUse"><path
         id="path256"
         d="m 0,0 3040,0 0,3040 L 0,3040 0,0 Z" /></clipPath><clipPath
       id="clipPath264"
       clipPathUnits="userSpaceOnUse"><path
         style="clip-rule:evenodd"
         id="path266"
         d="m 2328.96,1687.7 c 5.78,0 10.46,-4.6 10.46,-10.36 l 0,0 c 0,-5.73 -4.65,-10.37 -10.46,-10.37 l -282.77,0 c -5.77,0 -10.46,4.6 -10.46,10.37 l 0,0 c 0,5.72 4.66,10.36 10.46,10.36 l 282.77,0 z" /></clipPath><clipPath
       id="clipPath270"
       clipPathUnits="userSpaceOnUse"><path
         id="path272"
         d="m 0,0 3040,0 0,3040 L 0,3040 0,0 Z" /></clipPath><clipPath
       id="clipPath280"
       clipPathUnits="userSpaceOnUse"><path
         style="clip-rule:evenodd"
         id="path282"
         d="m 2453.2,1646.25 c 5.77,0 10.45,-4.6 10.45,-10.36 l 0,0 c 0,-5.73 -4.65,-10.36 -10.45,-10.36 l -282.78,0 c -5.77,0 -10.45,4.59 -10.45,10.36 l 0,0 c 0,5.72 4.65,10.36 10.45,10.36 l 282.78,0 z" /></clipPath><clipPath
       id="clipPath286"
       clipPathUnits="userSpaceOnUse"><path
         id="path288"
         d="m 0,0 3040,0 0,3040 L 0,3040 0,0 Z" /></clipPath><clipPath
       id="clipPath296"
       clipPathUnits="userSpaceOnUse"><path
         style="clip-rule:evenodd"
         id="path298"
         d="m 2639.71,1646.25 c 5.68,0 10.29,-4.6 10.29,-10.36 l 0,0 c 0,-5.73 -4.61,-10.36 -10.29,-10.36 l -531.56,0 c -5.69,0 -10.3,4.59 -10.3,10.36 l 0,0 c 0,5.72 4.61,10.36 10.3,10.36 l 531.56,0 z" /></clipPath><clipPath
       id="clipPath302"
       clipPathUnits="userSpaceOnUse"><path
         id="path304"
         d="m 0,0 3040,0 0,3040 L 0,3040 0,0 Z" /></clipPath><clipPath
       id="clipPath312"
       clipPathUnits="userSpaceOnUse"><path
         style="clip-rule:evenodd"
         id="path314"
         d="m 2460.18,1998.55 c 5.73,0 10.37,-4.6 10.37,-10.36 l 0,0 c 0,-5.72 -4.66,-10.36 -10.37,-10.36 l -434.78,0 c -5.73,0 -10.37,4.6 -10.37,10.36 l 0,0 c 0,5.72 4.66,10.36 10.37,10.36 l 434.78,0 z" /></clipPath><clipPath
       id="clipPath318"
       clipPathUnits="userSpaceOnUse"><path
         id="path320"
         d="m 0,0 3040,0 0,3040 L 0,3040 0,0 Z" /></clipPath></defs><g
     transform="matrix(1.3333333,0,0,-1.3333333,0,405.33333)"
     id="g10"><g
       transform="scale(0.1)"
       id="g12"><g
         id="g14"><g
           clip-path="url(#clipPath18)"
           id="g16"><g
             clip-path="url(#clipPath24)"
             id="g22"><path
               id="path28"
               style="fill:#2e2e2e;fill-opacity:1;fill-rule:nonzero;stroke:none"
               d="m 1317.58,1051.03 182.824,0 0,141.449 -182.824,0 0,-141.449 z" /></g></g></g><g
         id="g30"><g
           clip-path="url(#clipPath34)"
           id="g32"><g
             clip-path="url(#clipPath40)"
             id="g38"><path
               id="path44"
               style="fill:#2e2e2e;fill-opacity:1;fill-rule:nonzero;stroke:none"
               d="m 1415.63,1549.99 -182.8,-3.19 2.47,-141.42 182.8,3.19" /></g></g></g><g
         id="g46"><g
           clip-path="url(#clipPath50)"
           id="g48"><g
             clip-path="url(#clipPath56)"
             id="g54"><path
               id="path60"
               style="fill:#2e2e2e;fill-opacity:1;fill-rule:nonzero;stroke:none"
               d="m 1441.77,1265.58 -123.27,-33.03 43.77,-163.32 123.26,33.03" /></g></g></g><g
         id="g62"><g
           clip-path="url(#clipPath66)"
           id="g64"><g
             clip-path="url(#clipPath72)"
             id="g70"><path
               id="path76"
               style="fill:#2e2e2e;fill-opacity:1;fill-rule:nonzero;stroke:none"
               d="m 1370.25,1532.48 -123.26,-33.03 43.76,-163.32 123.26,33.03" /></g></g></g><g
         id="g78"><g
           clip-path="url(#clipPath82)"
           id="g80"><g
             clip-path="url(#clipPath88)"
             id="g86"><path
               id="path92"
               style="fill:none;stroke:#2e2e2e;stroke-width:80;stroke-linecap:butt;stroke-linejoin:miter;stroke-miterlimit:10;stroke-dasharray:none;stroke-opacity:1"
               d="m 1362.81,1190.33 c -62.9,0 -113.88,51.03 -113.88,113.98 0,62.95 50.98,113.98 113.88,113.98 62.89,0 113.88,-51.03 113.88,-113.98 0,-62.95 -50.99,-113.98 -113.88,-113.98 z m 0,28.49 c -47.17,0 -85.41,38.28 -85.41,85.49 0,14.58 3.65,28.31 10.08,40.33 5.67,10.59 13.52,19.85 22.93,27.18 14.47,11.27 32.65,17.97 52.4,17.97 47.17,0 85.41,-38.27 85.41,-85.48 0,-47.21 -38.24,-85.49 -85.41,-85.49 z" /></g></g></g><g
         id="g94"><g
           clip-path="url(#clipPath98)"
           id="g96"><g
             clip-path="url(#clipPath104)"
             id="g102"><path
               id="path108"
               style="fill:none;stroke:#2e2e2e;stroke-width:80;stroke-linecap:butt;stroke-linejoin:miter;stroke-miterlimit:10;stroke-dasharray:none;stroke-opacity:1"
               d="M 870.977,1631.15 C 987.949,1578.93 1069.48,1461.51 1069.48,1325.03 1069.48,1140 919.609,990 734.738,990 549.867,990 400,1140 400,1325.03 c 0,185.04 149.867,335.04 334.738,335.04 36.77,0 72.153,-5.94 105.25,-16.9" /></g></g></g><g
         id="g110"><g
           clip-path="url(#clipPath114)"
           id="g112"><g
             clip-path="url(#clipPath120)"
             id="g118"><path
               id="path124"
               style="fill:#2e2e2e;fill-opacity:1;fill-rule:nonzero;stroke:none"
               d="m 626.074,1216.32 217.332,0 0,217.434 -217.332,0 0,-217.434 z" /></g></g></g><path
         id="path126"
         style="fill:none;stroke:#2e2e2e;stroke-width:40;stroke-linecap:butt;stroke-linejoin:miter;stroke-miterlimit:10;stroke-dasharray:none;stroke-opacity:1"
         d="m 734.738,1266.32 c -32.398,0 -58.664,26.29 -58.664,58.71 0,32.43 26.266,58.72 58.664,58.72 32.403,0 58.668,-26.29 58.668,-58.72 0,-32.42 -26.265,-58.71 -58.668,-58.71 z" /><g
         id="g128"><g
           clip-path="url(#clipPath132)"
           id="g130"><g
             clip-path="url(#clipPath138)"
             id="g136"><path
               id="path142"
               style="fill:none;stroke:#2e2e2e;stroke-width:80;stroke-linecap:butt;stroke-linejoin:miter;stroke-miterlimit:10;stroke-dasharray:none;stroke-opacity:1"
               d="m 1647.09,1594.57 c 55.6,41.16 124.38,65.5 198.85,65.5 184.87,0 334.74,-150 334.74,-335.04 C 2180.68,1140 2030.81,990 1845.94,990 c -184.88,0 -334.74,150 -334.74,335.03 0,98.52 42.48,187.11 110.12,248.41" /></g></g></g><g
         id="g144"><g
           clip-path="url(#clipPath148)"
           id="g146"><g
             clip-path="url(#clipPath154)"
             id="g152"><path
               id="path158"
               style="fill:#2e2e2e;fill-opacity:1;fill-rule:nonzero;stroke:none"
               d="m 1737.27,1216.32 217.332,0 0,217.434 -217.332,0 0,-217.434 z" /></g></g></g><path
         id="path160"
         style="fill:none;stroke:#2e2e2e;stroke-width:40;stroke-linecap:butt;stroke-linejoin:miter;stroke-miterlimit:10;stroke-dasharray:none;stroke-opacity:1"
         d="m 1845.94,1266.32 c -32.4,0 -58.67,26.29 -58.67,58.71 0,32.43 26.27,58.72 58.67,58.72 32.4,0 58.66,-26.29 58.66,-58.72 0,-32.42 -26.26,-58.71 -58.66,-58.71 z" /><path
         id="path162"
         style="fill:none;stroke:#2e2e2e;stroke-width:40;stroke-linecap:butt;stroke-linejoin:miter;stroke-miterlimit:10;stroke-dasharray:none;stroke-opacity:1"
         d="m 1518.62,1767 -555.999,62.71 -20.582,-62.71 427.021,-465.48 410.22,29.21 c 19.45,1.38 58.36,4.15 58.36,4.15 L 1518.62,1767 Z" /><path
         id="path164"
         style="fill:none;stroke:#2e2e2e;stroke-width:40;stroke-linecap:square;stroke-linejoin:miter;stroke-miterlimit:10;stroke-dasharray:none;stroke-opacity:1"
         d="m 1573.31,1970.92 -196.7,-666.61" /><g
         id="g166"><g
           clip-path="url(#clipPath170)"
           id="g168"><g
             clip-path="url(#clipPath176)"
             id="g174"><g
               clip-path="url(#clipPath182)"
               id="g180"><path
                 id="path186"
                 style="fill:#2e2e2e;fill-opacity:1;fill-rule:evenodd;stroke:none"
                 d="m 1669.94,2036.55 c 65.57,0 -24.16,-65.63 -24.16,-65.63 l -224.31,0 c 0,0 -73.77,37.87 0,44.9 86.28,10.36 224.31,20.73 248.47,20.73 z" /></g></g></g></g><g
         id="g188"><g
           clip-path="url(#clipPath192)"
           id="g190"><g
             clip-path="url(#clipPath198)"
             id="g196"><path
               id="path202"
               style="fill:none;stroke:#2e2e2e;stroke-width:60;stroke-linecap:butt;stroke-linejoin:miter;stroke-miterlimit:10;stroke-dasharray:none;stroke-opacity:1"
               d="m 1669.94,2036.55 c 65.57,0 -24.16,-65.63 -24.16,-65.63 l -224.31,0 c 0,0 -73.77,37.87 0,44.9 86.28,10.36 224.31,20.73 248.47,20.73 z" /></g></g></g><path
         id="path204"
         style="fill:none;stroke:#2e2e2e;stroke-width:40;stroke-linecap:square;stroke-linejoin:miter;stroke-miterlimit:10;stroke-dasharray:none;stroke-opacity:1"
         d="m 745.094,1338.85 251.914,587.17" /><path
         id="path206"
         style="fill:none;stroke:#2e2e2e;stroke-width:40;stroke-linecap:butt;stroke-linejoin:miter;stroke-miterlimit:10;stroke-dasharray:none;stroke-opacity:1"
         d="m 879.559,1762.15 c 0,0 -55.672,10.33 -68.899,15.35 -13.226,5.02 -39.988,24.78 -45.105,34.78 -5.117,10 -17.367,41.66 0,72.56 17.367,30.89 35.164,32.75 52.507,43.13 17.344,10.39 51.262,15.32 85.774,15.32 34.508,0 96.624,-13.82 96.624,-13.82" /><g
         id="g208"><g
           clip-path="url(#clipPath212)"
           id="g210"><g
             clip-path="url(#clipPath218)"
             id="g216"><path
               id="path222"
               style="fill:#2e2e2e;fill-opacity:1;fill-rule:nonzero;stroke:none"
               d="m 1764.88,1243.95 162.113,0 0,162.168 -162.113,0 0,-162.168 z" /></g></g></g><g
         id="g224"><g
           clip-path="url(#clipPath228)"
           id="g226"><g
             clip-path="url(#clipPath234)"
             id="g232"><path
               id="path238"
               style="fill:#2e2e2e;fill-opacity:1;fill-rule:nonzero;stroke:none"
               d="m 653.68,1243.95 162.117,0 0,162.168 -162.117,0 0,-162.168 z" /></g></g></g><path
         id="path240"
         style="fill:none;stroke:#2e2e2e;stroke-width:20;stroke-linecap:butt;stroke-linejoin:miter;stroke-miterlimit:10;stroke-dasharray:none;stroke-opacity:1"
         d="m 1849.39,1387.2 -479.68,20.73" /><path
         id="path242"
         style="fill:none;stroke:#2e2e2e;stroke-width:20;stroke-linecap:butt;stroke-linejoin:miter;stroke-miterlimit:10;stroke-dasharray:none;stroke-opacity:1"
         d="m 1333.05,1199.52 517.64,65.62" /><g
         id="g244"><g
           clip-path="url(#clipPath248)"
           id="g246"><g
             clip-path="url(#clipPath254)"
             id="g252"><path
               id="path258"
               style="fill:#2e2e2e;fill-opacity:1;fill-rule:nonzero;stroke:none"
               d="m 1682.05,1969.28 1017.95,0 0,120.723 -1017.95,0 0,-120.723 z" /></g></g></g><g
         id="g260"><g
           clip-path="url(#clipPath264)"
           id="g262"><g
             clip-path="url(#clipPath270)"
             id="g268"><path
               id="path274"
               style="fill:#2e2e2e;fill-opacity:1;fill-rule:nonzero;stroke:none"
               d="m 1985.73,1616.97 403.684,0 0,120.727 -403.684,0 0,-120.727 z" /></g></g></g><g
         id="g276"><g
           clip-path="url(#clipPath280)"
           id="g278"><g
             clip-path="url(#clipPath286)"
             id="g284"><path
               id="path290"
               style="fill:#2e2e2e;fill-opacity:1;fill-rule:nonzero;stroke:none"
               d="m 2109.97,1575.53 403.684,0 0,120.723 -403.684,0 0,-120.723 z" /></g></g></g><g
         id="g292"><g
           clip-path="url(#clipPath296)"
           id="g294"><g
             clip-path="url(#clipPath302)"
             id="g300"><path
               id="path306"
               style="fill:#2e2e2e;fill-opacity:1;fill-rule:nonzero;stroke:none"
               d="m 2047.85,1575.53 652.148,0 0,120.723 -652.148,0 0,-120.723 z" /></g></g></g><g
         id="g308"><g
           clip-path="url(#clipPath312)"
           id="g310"><g
             clip-path="url(#clipPath318)"
             id="g316"><path
               id="path322"
               style="fill:#2e2e2e;fill-opacity:1;fill-rule:nonzero;stroke:none"
               d="m 1965.03,1927.83 555.52,0 0,120.727 -555.52,0 0,-120.727 z" /></g></g></g></g></g></svg>