<?xml version="1.0" encoding="UTF-8" standalone="no"?>
<svg width="935px" height="525px" viewBox="0 0 935 525" version="1.1" xmlns="http://www.w3.org/2000/svg" xmlns:xlink="http://www.w3.org/1999/xlink" xmlns:sketch="http://www.bohemiancoding.com/sketch/ns">
    <!-- Generator: Sketch 3.1.1 (8761) - http://www.bohemiancoding.com/sketch -->
    <title>fiets</title>
    <desc>Created with Sketch.</desc>
    <defs></defs>
    <g id="Page-1" stroke="none" stroke-width="1" fill="none" fill-rule="evenodd" sketch:type="MSPage">
        <g id="fiets" sketch:type="MSLayerGroup" transform="translate(433.000000, 256.500000) scale(1, -1) rotate(-35.000000) translate(-433.000000, -256.500000) translate(-35.000000, -63.000000)" fill="#40393E">
            <g id="Page-1" transform="translate(0.000000, 0.000000)" sketch:type="MSShapeGroup">
                <g id="Artboard-2" transform="translate(0.000000, 0.000000)">
                    <path d="M336.888044,409.985296 C341.180985,411.265349 344.54111,412.267391 347.901234,413.269433 C348.611762,412.71541 349.324275,412.163387 350.034804,411.609364 C346.730251,406.001129 343.423714,400.392894 340.119162,394.784659 C339.382832,395.074671 338.648487,395.364683 337.912158,395.652695 C337.588649,400.180885 337.26514,404.707075 336.888044,409.985296 L336.888044,409.985296 L336.888044,409.985296 Z M366.343217,357.845111 C364.60262,357.033077 362.864009,356.219043 361.123413,355.405009 C358.42023,359.827195 355.717046,364.24738 353.013863,368.669565 C356.28269,370.309634 359.549533,371.947702 362.818361,373.587771 C363.993313,368.339551 365.168265,363.093331 366.343217,357.845111 L366.343217,357.845111 L366.343217,357.845111 Z M336.822548,347.484677 C338.888638,352.648894 340.740378,357.271087 342.772727,362.3493 C345.541406,358.451137 347.581695,356.019035 349.109926,353.294921 C350.542891,350.744814 351.434029,347.884694 352.561348,345.16058 C349.619998,345.16858 346.654832,344.960572 343.741269,345.260584 C341.88159,345.452592 340.09733,346.394632 336.822548,347.484677 L336.822548,347.484677 L336.822548,347.484677 Z M379.11685,344.952571 C378.336856,345.87661 377.556863,346.800649 376.776869,347.724688 C378.656396,353.972949 380.533937,360.221211 383.411775,369.793612 C388.879668,361.687272 392.78559,355.90103 396.689527,350.112788 C390.832629,348.392716 384.973747,346.672643 379.11685,344.952571 L379.11685,344.952571 L379.11685,344.952571 Z M354.157059,386.916329 C352.259671,397.688781 360.526013,409.281266 372.511714,413.801455 C385.571147,418.727662 406.063341,411.601363 412.714125,399.81887 C420.146887,386.652318 419.154529,370.061623 411.465738,363.327341 C405.275409,368.957577 398.309055,373.847782 393.232151,380.25605 C385.75771,389.688445 377.800983,392.882579 366.448406,387.936372 C362.840193,386.364306 358.207865,387.184341 354.157059,386.916329 L354.157059,386.916329 L354.157059,386.916329 Z M218.545374,350.230793 C219.007813,359.331174 220.661081,362.047288 226.255996,362.691314 C238.001546,364.047371 249.766944,365.271423 261.546234,366.305466 C276.608245,367.625521 291.684149,368.827572 306.771961,369.823613 C312.601072,370.209629 318.475832,369.887616 324.916236,369.887616 C325.128601,366.347468 325.503712,363.437346 325.446155,360.535224 C325.207989,348.172706 323.098236,345.828608 311.160168,346.278627 C280.545922,347.432675 249.943583,348.872736 218.545374,350.230793 L218.545374,350.230793 L218.545374,350.230793 Z M216.600352,394.744657 C218.017439,395.386684 220.813904,397.466771 223.836627,397.884789 C236.802778,399.686864 249.844348,400.956917 262.848208,402.500982 C279.730203,404.503066 296.584413,406.765161 313.500149,408.42523 C316.028677,408.673241 320.432762,406.875165 321.177031,404.937084 C323.245105,399.550859 323.838535,393.592609 325.086922,387.510354 C322.96923,386.906329 321.133367,386.074294 319.237963,385.892286 C293.778024,383.444184 268.316101,381.032083 242.842269,378.735987 C231.062979,377.675942 218.718044,375.781863 216.600352,394.744657 L216.600352,394.744657 L216.600352,394.744657 Z M291.926284,262.483117 C312.533592,281.385909 326.962479,303.228824 333.710513,329.925942 C335.580116,337.326252 350.263046,341.976447 355.441171,336.682225 C356.584367,335.514176 357.213522,332.872065 356.782839,331.255998 C354.272173,321.813602 351.386396,312.469211 348.609778,303.098818 C342.242808,281.609918 335.953243,260.097017 329.451313,238.650118 C326.807671,229.927753 323.695636,221.349394 320.208489,210.950958 C287.621435,255.466823 256.586428,297.862599 225.551422,340.258375 C226.053555,341.234416 226.553703,342.210457 227.053852,343.186497 C258.174201,341.366421 289.292566,339.548345 320.708638,337.712268 C313.815719,311.343164 300.004079,290.7323 282.419494,272.561539 C285.680382,269.105394 288.492725,266.121269 291.926284,262.483117 L291.926284,262.483117 L291.926284,262.483117 Z M407.615389,342.320461 C417.306758,331.510008 426.535688,321.125573 435.861869,310.831142 C469.554411,273.643584 503.050465,236.268019 537.215369,199.524479 C543.012725,193.288218 541.137168,187.473975 538.586808,182.775778 C537.132011,180.095666 530.143826,179.589644 525.674245,179.663647 C519.537503,179.765652 513.452363,181.603729 507.297758,182.241755 C490.322481,183.999829 473.291631,185.235881 456.342155,187.197963 C426.108974,190.69611 395.919457,194.554271 365.716046,198.302428 C355.355828,199.588482 345.011487,200.996541 334.208677,202.4066 C336.770946,211.046962 338.970011,218.461273 341.171062,225.875583 C346.063387,242.358274 351.041055,258.814963 355.82819,275.329655 C360.361282,290.96831 365.124601,306.558963 368.968996,322.373626 C371.551112,332.996071 374.512308,336.420214 384.606575,334.860149 C393.353219,333.508092 393.188487,326.605803 391.568959,320.399543 C388.296162,317.333414 384.503369,313.88727 384.402149,310.333121 C384.227494,304.232866 389.209131,302.408789 394.917175,302.852808 C398.203865,303.106818 401.873605,302.080776 404.729612,303.236824 C407.928974,304.534878 411.822987,307.20099 412.724048,310.117112 C413.384959,312.255202 410.36819,316.727389 407.841647,318.469462 C399.769806,324.037695 398.918363,335.654182 407.615389,342.320461 L407.615389,342.320461 L407.615389,342.320461 Z M264.598727,260.827047 C247.65719,247.698497 229.379939,241.696246 210.654142,239.094137 C185.067182,235.537988 159.678693,238.756123 136.086372,250.414611 C93.4745162,271.475493 67.6196188,306.00894 60.2067039,352.922905 C56.1181886,378.799989 59.7680817,404.671073 71.2516493,429.020093 C100.909263,491.912728 168.324116,520.331918 230.437793,501.449127 C270.239291,489.34862 299.517824,463.007517 315.599979,423.135847 C318.084843,416.979589 316.647909,415.397522 311.118489,414.687493 C290.664005,412.067383 270.263107,408.927251 249.751066,406.895166 C229.181468,404.859081 208.463016,404.347059 187.885479,402.372977 C165.341088,400.208886 156.826655,377.14792 165.376813,358.28913 C171.279358,345.266585 182.439417,340.762396 196.040677,342.502469 C203.090389,343.404507 207.123332,340.640391 211.064979,334.88615 C221.071917,320.281538 231.900529,306.25095 242.316319,291.92635 C249.796714,281.637919 257.140164,271.247484 264.598727,260.827047 L264.598727,260.827047 L264.598727,260.827047 Z M587.791891,231.129803 C610.814599,223.219472 633.482042,220.979378 658.019088,225.401563 C697.032653,232.433858 727.412703,251.776668 751.278915,282.591959 C765.551009,301.022731 775.615505,321.585593 778.26907,345.200582 C779.592876,356.979075 782.210717,368.913575 781.410876,380.578064 C778.185712,427.636035 757.364055,465.789633 719.799332,493.774806 C694.398935,512.697598 665.114448,522.590013 633.412577,522.03799 C580.297603,521.113951 538.531236,497.648968 508.831944,453.473117 C497.396009,436.462405 490.870262,417.273601 487.6709,396.518732 C478.551129,337.352253 499.184238,290.7223 544.136075,253.618745 C549.058171,249.556575 554.720566,246.416444 559.90266,242.658286 C561.553944,241.460236 563.556522,239.866169 564.038808,238.082095 C565.723832,231.849834 556.415513,212.377018 549.776638,208.336849 C520.166658,240.788208 490.483243,273.383573 460.724409,305.908936 C449.222979,318.479462 437.523077,330.865981 425.975998,343.396506 C421.319854,348.448718 419.444297,352.412884 423.661819,360.367217 C436.608123,384.78024 424.128227,413.803456 400.136979,422.403816 C395.135494,424.195891 389.792638,425.883962 384.578789,425.977966 C378.779448,426.08197 374.46666,427.726039 373.799795,433.424278 C373.244075,438.178477 369.250826,444.154727 377.705717,447.524868 C383.161701,449.698959 382.391631,459.285361 376.473208,460.637417 C369.417542,462.249485 361.331808,462.36349 354.391256,460.493411 C348.056042,458.78734 347.730548,449.926969 353.736299,447.580871 C365.731924,442.890674 363.282784,432.434236 365.906579,423.487861 C357.279018,421.747788 349.600151,420.313728 341.974872,418.629658 C335.02638,417.093593 331.944116,420.989757 329.739096,426.719997 C314.214647,467.067687 286.43259,494.986856 246.476284,510.997527 C225.755848,519.299875 204.434042,524.174079 182.304457,521.895984 C127.359575,516.239747 85.9861821,489.132611 59.9883852,439.666539 C49.689693,420.073718 44.3011886,398.796827 44.0153895,376.535894 C43.3743262,326.605803 62.7669878,285.888097 101.246665,254.746793 C120.065743,239.516155 141.707088,230.779789 165.728107,225.717577 C203.199548,217.823246 236.419727,227.391647 268.937317,244.40836 C271.15623,245.568408 276.266874,245.12639 277.549,243.47432 C289.209208,228.457691 300.772164,213.313057 311.263374,197.466393 C313.895107,193.494227 314.139227,186.40993 312.779697,181.515725 C306.609214,159.298794 299.472175,137.353875 292.527653,114.80293 C290.511182,114.592922 288.151354,113.804889 286.01183,114.208906 C272.873009,116.689009 264.674147,109.360703 257.747487,99.8263032 C256.058494,97.5022058 254.123396,92.4099925 254.907358,91.753965 C257.429933,89.6418765 261.212802,87.885803 264.433996,88.005808 C276.92183,88.4718275 289.401725,89.5058708 301.845896,90.7179216 C325.315164,93.0000172 348.756647,95.5521241 372.102863,97.9802258 C371.688057,108.030647 364.584758,113.986896 354.367439,114.0749 C339.565426,114.200905 324.761428,114.106901 308.153324,114.106901 C315.62181,139.271955 322.61595,162.842943 329.983217,187.667983 C350.914033,184.899867 371.005315,182.243756 391.098581,179.589644 C392.732003,179.373635 394.365424,179.123625 396.006784,178.981619 C414.677009,177.359551 433.371051,175.997494 452.011505,174.087414 C475.836037,171.647312 499.624845,168.849194 523.409684,166.039077 C532.446096,164.971032 533.873107,161.832901 529.985048,153.492551 C526.845227,146.760269 523.562507,140.045988 521.087566,133.057695 C518.386367,125.427376 525.57104,123.437292 529.703219,122.981273 C548.248406,120.941188 567.156797,117.623049 585.477712,119.439125 C602.907489,121.169197 619.553304,128.567507 628.033996,147.164286 C636.927509,166.669103 627.371101,191.19413 607.071424,197.936413 C600.321404,200.180507 593.200243,201.664569 586.132668,202.476603 C576.219011,203.616651 576.173363,203.210634 575.990769,191.226132 C584.836649,188.466016 594.146952,186.111918 603.018634,182.627772 C610.909865,179.527642 616.135623,174.087414 616.220965,164.315004 C616.310278,154.154579 612.596874,147.436297 604.024885,141.904066 C584.110243,129.055528 562.653476,135.121782 539.152452,134.475755 C543.030588,144.488174 546.087051,153.006531 549.594044,161.33288 C564.880328,197.610399 580.289664,233.835917 595.66923,270.073435 C605.009304,292.082357 614.144952,314.185283 623.997083,335.958195 C625.340736,338.928319 630.17352,341.668434 633.650743,342.040449 C647.299636,343.504511 660.118917,352.116872 662.61569,362.667313 C666.231843,377.947954 659.628693,395.498689 645.805144,400.842913 C627.603313,407.879207 606.128684,399.020836 603.528706,376.507893 C602.580011,368.297549 603.574354,360.543225 609.187131,353.286921 C611.47154,350.330797 611.163909,343.578514 609.532472,339.594347 C598.648289,313.019234 586.940448,286.790135 575.867717,260.293025 C573.488042,254.596786 572.059046,253.47874 566.007647,256.892883 C537.796891,272.801549 519.676433,296.92856 508.15714,326.623804 C500.88911,345.356588 498.048981,365.095415 500.426671,384.930246 C505.019304,423.231851 521.436876,455.269193 552.503638,479.07419 C580.186459,500.287078 611.352457,509.837478 645.686062,506.317331 C683.933527,502.397167 715.373415,485.002438 739.051079,453.873134 C760.259756,425.993966 769.524411,394.448645 766.009479,359.853196 C762.097603,321.345583 744.900037,289.624254 713.972206,265.745253 C685.664199,243.888338 653.76981,235.545988 618.648273,238.666119 C612.878703,239.178141 607.218293,241.000217 601.524142,242.300271 C592.858872,244.278354 588.712799,240.424193 587.791891,231.129803 L587.791891,231.129803 L587.791891,231.129803 Z" id="Fill-1" transform="translate(412.779956, 305.228124) rotate(195.000000) translate(-412.779956, -305.228124) "></path>
                    <path d="M938.860338,497.203403 L762.039991,497.203403 C761.692666,496.232353 761.347325,495.261303 761,494.292234 C764.310507,492.978344 767.617044,490.532882 770.93152,490.517029 C824.447406,490.27922 877.963293,490.287147 931.477194,490.520992 C934.357017,490.532882 937.224932,493.017978 940.096817,494.351686 C939.68598,495.302919 939.273159,496.25217 938.860338,497.203403" id="Fill-6" transform="translate(850.548409, 493.772758) rotate(20.000000) translate(-850.548409, -493.772758) "></path>
                    <path d="M860.838552,619 L743.762131,619 C743.508087,618.116146 743.256028,617.234274 743,616.35042 C746.437528,615.028603 749.863148,612.587105 753.312585,612.555397 C786.362079,612.266064 819.417526,612.279936 852.469004,612.543507 C855.634627,612.569269 858.784371,614.862137 861.942055,616.102703 C861.572897,617.06979 861.205725,618.034895 860.838552,619" id="Fill-7" transform="translate(802.471027, 615.671056) rotate(20.000000) translate(-802.471027, -615.671056) "></path>
                </g>
            </g>
        </g>
    </g>
</svg>