<?xml version="1.0" encoding="utf-8"?>
<!-- Generator: Adobe Illustrator 18.1.0, SVG Export Plug-In . SVG Version: 6.00 Build 0)  -->
<svg version="1.1" xmlns="http://www.w3.org/2000/svg" xmlns:xlink="http://www.w3.org/1999/xlink" x="0px" y="0px"
	 viewBox="0 0 50 50" enable-background="new 0 0 50 50" xml:space="preserve">
<g id="Laag_1" display="none">
</g>
<g id="Laag_2">
	<g>
		<path fill="#362F34" d="M43.4,15.4C43.4,15.4,43.4,15.4,43.4,15.4C43.2,11.3,39.8,8,35.6,8h-15c-4.3,0-7.8,3.5-7.8,7.8v21.1
			c0,4.3,3.5,7.8,7.8,7.8h15c0.5,0,1-0.1,1.4-0.1c0.4-0.1,0.8-0.2,1.2-0.3l-1.8-1.8h0L24.2,30.2c-2.1-2.1-2.1-5.6,0-7.7
			c2.1-2.1,5.6-2.1,7.7,0l9.3,9.3l2.2,2.2v-1.5V21.5c0.6,0,1.1-0.5,1.1-1.1v-3.9C44.5,15.9,44,15.4,43.4,15.4z M32.7,21.7L32.7,21.7
			c-1.2-1.2-2.8-1.9-4.6-1.9c-3.6,0-6.6,2.9-6.6,6.6c0,1.8,0.7,3.5,1.9,4.6l2.8,2.8c-3.3-0.8-5.8-3.8-5.8-7.4c0-4.2,3.4-7.7,7.7-7.7
			c3.6,0,6.6,2.5,7.4,5.8L32.7,21.7z M41.2,30.2L39,28V15.9c0-1.9-1.6-3.5-3.5-3.5H20.7c-1.9,0-3.5,1.6-3.5,3.5v21
			c0,1.9,1.6,3.5,3.5,3.5h12.1l2.2,2.2H20.6c-3.1,0-5.6-2.5-5.6-5.6V15.8c0-3.1,2.5-5.6,5.6-5.6h15c3.1,0,5.6,2.5,5.6,5.6V30.2z"/>
		<path fill="#362F34" d="M25,23.3c-1.7,1.7-1.7,4.5,0,6.2l0,0c0.8,0.8,3.2,1.7,3.2,1.7c1.8,0.7,3.2,1.1,4.5-0.2
			c1.3-1.3,0.9-2.7,0.2-4.5c0,0-0.9-2.4-1.7-3.2v0C29.5,21.5,26.7,21.6,25,23.3z"/>
	</g>
	<rect x="-18.8" y="-90" fill="none" stroke="#E52420" stroke-width="10" stroke-miterlimit="10" width="207.8" height="160"/>
</g>
</svg>
