<?xml version="1.0" encoding="UTF-8" standalone="no"?>
<svg width="51px" height="52px" viewBox="0 0 51 52" version="1.1" xmlns="http://www.w3.org/2000/svg" xmlns:xlink="http://www.w3.org/1999/xlink" xmlns:sketch="http://www.bohemiancoding.com/sketch/ns">
    <!-- Generator: Sketch 3.2.2 (9983) - http://www.bohemiancoding.com/sketch -->
    <title>icns_glances</title>
    <desc>Created with Sketch.</desc>
    <defs></defs>
    <g id="Page-1" stroke="none" stroke-width="1" fill="none" fill-rule="evenodd" sketch:type="MSPage">
        <g id="Black" sketch:type="MSArtboardGroup" transform="translate(-30.000000, -22.000000)">
            <g id="icns_glances" sketch:type="MSLayerGroup" transform="translate(30.000000, 22.000000)">
                <g id="Group" sketch:type="MSShapeGroup">
                    <rect id="Rectangle-7" fill="none" x="0" y="0" width="51" height="52"></rect>
                    <path d="M49.1090909,16.6 L49.1090909,16.6 C48.8727273,11.8351351 44.8545455,8 39.8909091,8 L22.1636364,8 C17.0818182,8 12.9454545,12.0675676 12.9454545,17.0648649 L12.9454545,41.5864865 C12.9454545,46.5837838 17.0818182,50.6513514 22.1636364,50.6513514 L39.8909091,50.6513514 C44.9727273,50.6513514 49.1090909,46.5837838 49.1090909,41.5864865 L49.1090909,23.6891892 C49.8181818,23.6891892 50.4090909,23.1081081 50.4090909,22.4108108 L50.4090909,17.8783784 C50.4090909,17.1810811 49.8181818,16.6 49.1090909,16.6 L49.1090909,16.6 Z M46.5090909,41.5864865 C46.5090909,45.1891892 43.5545455,48.0945946 39.8909091,48.0945946 L22.1636364,48.0945946 C18.5,48.0945946 15.5454545,45.1891892 15.5454545,41.5864865 L15.5454545,17.0648649 C15.5454545,13.4621622 18.5,10.5567568 22.1636364,10.5567568 L39.8909091,10.5567568 C43.5545455,10.5567568 46.5090909,13.4621622 46.5090909,17.0648649 L46.5090909,41.5864865 L46.5090909,41.5864865 Z" id="Shape" fill="#362F34"></path>
                    <path d="M39.7727273,13.1135135 L22.2818182,13.1135135 C20.0363636,13.1135135 18.1454545,14.972973 18.1454545,17.1810811 L18.1454545,41.5864865 C18.1454545,43.7945946 20.0363636,45.6540541 22.2818182,45.6540541 L39.8909091,45.6540541 C42.1363636,45.6540541 44.0272727,43.7945946 44.0272727,41.5864865 L44.0272727,17.1810811 C43.9090909,14.8567568 42.1363636,13.1135135 39.7727273,13.1135135 L39.7727273,13.1135135 Z M25.8272727,43.0972973 L25.8272727,43.0972973 C25.1181818,43.0972973 24.5272727,42.5162162 24.5272727,41.8189189 C24.5272727,41.1216216 25.1181818,40.5405405 25.8272727,40.5405405 L25.8272727,40.5405405 C26.5363636,40.5405405 27.1272727,41.1216216 27.1272727,41.8189189 C27.1272727,42.5162162 26.5363636,43.0972973 25.8272727,43.0972973 L25.8272727,43.0972973 Z M31.0272727,43.0972973 C30.3181818,43.0972973 29.7272727,42.5162162 29.7272727,41.8189189 C29.7272727,41.1216216 30.3181818,40.5405405 31.0272727,40.5405405 C31.7363636,40.5405405 32.3272727,41.1216216 32.3272727,41.8189189 C32.3272727,42.5162162 31.7363636,43.0972973 31.0272727,43.0972973 L31.0272727,43.0972973 Z M36.2272727,43.0972973 C35.5181818,43.0972973 34.9272727,42.5162162 34.9272727,41.8189189 C34.9272727,41.1216216 35.5181818,40.5405405 36.2272727,40.5405405 C36.9363636,40.5405405 37.5272727,41.1216216 37.5272727,41.8189189 C37.5272727,42.5162162 36.9363636,43.0972973 36.2272727,43.0972973 L36.2272727,43.0972973 Z" id="Shape" fill="#362F34"></path>
                </g>
            </g>
        </g>
    </g>
</svg>
