<?xml version="1.0" encoding="UTF-8" standalone="no"?>
<svg
   xmlns:dc="http://purl.org/dc/elements/1.1/"
   xmlns:cc="http://creativecommons.org/ns#"
   xmlns:rdf="http://www.w3.org/1999/02/22-rdf-syntax-ns#"
   xmlns:svg="http://www.w3.org/2000/svg"
   xmlns="http://www.w3.org/2000/svg"
   viewBox="0 0 66.666664 66.666664"
   height="66.666664"
   width="66.666664"
   xml:space="preserve"
   version="1.1"
   id="svg2"><metadata
     id="metadata8"><rdf:RDF><cc:Work
         rdf:about=""><dc:format>image/svg+xml</dc:format><dc:type
           rdf:resource="http://purl.org/dc/dcmitype/StillImage" /></cc:Work></rdf:RDF></metadata><defs
     id="defs6" /><g
     transform="matrix(1.3333333,0,0,-1.3333333,0,66.666667)"
     id="g10"><g
       transform="scale(0.1)"
       id="g12"><path
         id="path14"
         style="fill:#000000;fill-opacity:1;fill-rule:nonzero;stroke:none"
         d="m 355.266,376.41 -96.176,0 c 0,-48.289 -39.145,-87.43 -87.434,-87.43 l 0,-157.378 c 0,-19.313 15.66,-34.9731 34.973,-34.9731 l 148.637,0 c 19.312,0 34.968,15.6601 34.968,34.9731 l 0,209.836 c 0,19.316 -15.656,34.972 -34.968,34.972" /><path
         id="path16"
         style="fill:#000000;fill-opacity:1;fill-rule:nonzero;stroke:none"
         d="m 171.656,310.836 0,0 c -36.215,0 -65.57,29.359 -65.57,65.574 l 0,0 c 0,36.215 29.355,65.574 65.57,65.574 l 0,0 c 36.219,0 65.574,-29.359 65.574,-65.574 l 0,0 c 0,-36.215 -29.355,-65.574 -65.574,-65.574" /><path
         id="path18"
         style="fill:#000000;fill-opacity:1;fill-rule:nonzero;stroke:none"
         d="m 433.949,345.809 c -0.062,0 -0.117,-0.036 -0.183,-0.036 -1.926,41.375 -35.981,74.352 -77.832,74.352 l -108.637,0 c 3.922,-6.766 6.926,-14.098 8.926,-21.855 l 99.902,0 c 30.91,0 55.969,-25.059 55.969,-55.969 l 0,-211.563 c 0,-30.9099 -25.059,-55.9646 -55.969,-55.9646 l -150.355,0 c -30.915,0 -55.969,25.0547 -55.969,55.9646 l 0,161.106 c -7.758,2.004 -15.094,5.008 -21.86,8.926 l 0,-169.836 c 0,-43.0902 34.93,-78.0199 78.02,-78.0199 l 149.973,0 c 43.089,0 78.015,34.9297 78.015,78.0199 l 0,153.671 c 6.039,0 10.93,4.895 10.93,10.93 l 0,39.344 c 0,6.039 -4.891,10.93 -10.93,10.93" /><path
         id="path20"
         style="fill:none;stroke:#e52420;stroke-width:100;stroke-linecap:butt;stroke-linejoin:miter;stroke-miterlimit:10;stroke-dasharray:none;stroke-opacity:1"
         d="m -51,-51 1341.48,0 0,1451 -1341.48,0 0,-1451 z" /></g></g></svg>