<?xml version="1.0" encoding="UTF-8" standalone="no"?>
<svg
   xmlns:dc="http://purl.org/dc/elements/1.1/"
   xmlns:cc="http://creativecommons.org/ns#"
   xmlns:rdf="http://www.w3.org/1999/02/22-rdf-syntax-ns#"
   xmlns:svg="http://www.w3.org/2000/svg"
   xmlns="http://www.w3.org/2000/svg"
   viewBox="0 0 66.666664 66.666664"
   height="66.666664"
   width="66.666664"
   xml:space="preserve"
   version="1.1"
   id="svg2"><metadata
     id="metadata8"><rdf:RDF><cc:Work
         rdf:about=""><dc:format>image/svg+xml</dc:format><dc:type
           rdf:resource="http://purl.org/dc/dcmitype/StillImage" /></cc:Work></rdf:RDF></metadata><defs
     id="defs6" /><g
     transform="matrix(1.3333333,0,0,-1.3333333,0,66.666667)"
     id="g10"><g
       transform="scale(0.1)"
       id="g12"><path
         id="path14"
         style="fill:#000000;fill-opacity:1;fill-rule:nonzero;stroke:none"
         d="m 412.094,130.738 c 0,-30.9099 -25.059,-55.9646 -55.969,-55.9646 l -150.355,0 c -30.915,0 -55.969,25.0547 -55.969,55.9646 l 0,211.563 c 0,30.91 25.054,55.969 55.969,55.969 l 150.355,0 c 30.91,0 55.969,-25.059 55.969,-55.969 l 0,-211.563 z m 21.855,215.071 c -0.062,0 -0.117,-0.036 -0.183,-0.036 -1.926,41.375 -35.981,74.352 -77.832,74.352 l -149.973,0 c -43.09,0 -78.02,-34.93 -78.02,-78.02 l 0,-211.171 c 0,-43.0902 34.93,-78.0199 78.02,-78.0199 l 149.973,0 c 43.089,0 78.015,34.9297 78.015,78.0199 l 0,153.671 c 6.039,0 10.93,4.895 10.93,10.93 l 0,39.344 c 0,6.039 -4.891,10.93 -10.93,10.93" /><path
         id="path16"
         style="fill:#000000;fill-opacity:1;fill-rule:nonzero;stroke:none"
         d="m 365.102,244.516 -47.075,0 -7.136,15.308 -6.532,14.008 -5.289,-14.523 -5.382,-14.793 -3.977,-10.93 -0.652,0 -5.098,10.93 -6.457,13.851 -6.531,14.008 -5.285,-14.523 -4.856,-13.336 -3.977,-10.93 -1.859,0 -5.098,10.93 -53.101,0 c -2.059,6.918 -3.281,13.941 -3.281,20.968 0,26.559 21.531,48.086 48.089,48.086 6.325,0 12.348,-1.254 17.879,-3.472 8.707,-3.493 16.145,-9.45 21.465,-17.02 5.317,7.57 12.754,13.527 21.461,17.02 5.531,2.218 11.559,3.472 17.883,3.472 26.559,0 48.086,-21.527 48.086,-48.086 0,-7.027 -1.223,-14.05 -3.277,-20.968 z m -84.153,-85.047 c -17.695,0.019 -62.5,33.758 -80.101,74.117 l 42.09,0 7.816,-16.766 6.531,-14.008 5.285,14.524 5.914,16.25 3.735,10.258 4.781,-10.258 7.137,-15.305 6.535,-14.008 5.285,14.524 5.383,14.789 3.98,10.93 0.649,0 5.097,-10.93 49.985,0 c -17.602,-40.359 -62.406,-74.098 -80.102,-74.117 z m 74.317,216.941 -148.637,0 c -19.313,0 -34.973,-15.656 -34.973,-34.972 l 0,-209.836 c 0,-19.313 15.66,-34.9731 34.973,-34.9731 l 148.637,0 c 19.312,0 34.968,15.6601 34.968,34.9731 l 0,209.836 c 0,19.316 -15.656,34.972 -34.968,34.972" /><path
         id="path18"
         style="fill:none;stroke:#e52420;stroke-width:100;stroke-linecap:butt;stroke-linejoin:miter;stroke-miterlimit:10;stroke-dasharray:none;stroke-opacity:1"
         d="m -51,-51 741.48,0 0,1451 -741.48,0 0,-1451 z" /></g></g></svg>