<?xml version="1.0" encoding="UTF-8" standalone="no"?>
<svg
   xmlns:dc="http://purl.org/dc/elements/1.1/"
   xmlns:cc="http://creativecommons.org/ns#"
   xmlns:rdf="http://www.w3.org/1999/02/22-rdf-syntax-ns#"
   xmlns:svg="http://www.w3.org/2000/svg"
   xmlns="http://www.w3.org/2000/svg"
   viewBox="0 0 66.666664 66.666664"
   height="66.666664"
   width="66.666664"
   xml:space="preserve"
   version="1.1"
   id="svg2"><metadata
     id="metadata8"><rdf:RDF><cc:Work
         rdf:about=""><dc:format>image/svg+xml</dc:format><dc:type
           rdf:resource="http://purl.org/dc/dcmitype/StillImage" /></cc:Work></rdf:RDF></metadata><defs
     id="defs6" /><g
     transform="matrix(1.3333333,0,0,-1.3333333,0,66.666667)"
     id="g10"><g
       transform="scale(0.1)"
       id="g12"><path
         id="path14"
         style="fill:#000000;fill-opacity:1;fill-rule:nonzero;stroke:none"
         d="m 412.129,130.738 c 0,-30.9099 -25.059,-55.9646 -55.969,-55.9646 l -150.359,0 c -30.91,0 -55.969,25.0547 -55.969,55.9646 l 0,211.563 c 0,30.91 25.059,55.969 55.969,55.969 l 150.359,0 c 30.91,0 55.969,-25.059 55.969,-55.969 l 0,-211.563 z m 21.855,215.071 c -0.066,0 -0.117,-0.036 -0.183,-0.036 -1.93,41.375 -35.985,74.352 -77.836,74.352 l -149.969,0 c -43.09,0 -78.019,-34.93 -78.019,-78.02 l 0,-211.171 c 0,-43.0902 34.929,-78.0199 78.019,-78.0199 l 149.969,0 c 43.09,0 78.019,34.9297 78.019,78.0199 l 0,153.671 c 6.039,0 10.93,4.895 10.93,10.93 l 0,39.344 c 0,6.039 -4.891,10.93 -10.93,10.93" /><path
         id="path16"
         style="fill:#000000;fill-opacity:1;fill-rule:nonzero;stroke:none"
         d="m 324.695,118.488 c -6.035,0 -10.929,4.895 -10.929,10.93 0,6.035 4.894,10.926 10.929,10.926 6.035,0 10.93,-4.891 10.93,-10.926 0,-6.035 -4.895,-10.93 -10.93,-10.93 z m -43.715,0 c -6.035,0 -10.929,4.895 -10.929,10.93 0,6.035 4.894,10.926 10.929,10.926 6.036,0 10.93,-4.891 10.93,-10.926 0,-6.035 -4.894,-10.93 -10.93,-10.93 z m -43.714,0 0,0 c -6.036,0 -10.93,4.895 -10.93,10.93 0,6.035 4.894,10.926 10.93,10.926 l 0,0 c 6.035,0 10.925,-4.891 10.925,-10.926 0,-6.035 -4.89,-10.93 -10.925,-10.93 z m 118.031,257.922 -148.633,0 c -19.316,0 -34.973,-15.656 -34.973,-34.972 l 0,-209.836 c 0,-19.313 15.657,-34.9731 34.973,-34.9731 l 148.633,0 c 19.316,0 34.973,15.6601 34.973,34.9731 l 0,209.836 c 0,19.316 -15.657,34.972 -34.973,34.972" /><path
         id="path18"
         style="fill:none;stroke:#e52420;stroke-width:100;stroke-linecap:butt;stroke-linejoin:miter;stroke-miterlimit:10;stroke-dasharray:none;stroke-opacity:1"
         d="m -51,-51 1341.48,0 0,851 -1341.48,0 0,-851 z" /></g></g></svg>