<?xml version="1.0" encoding="UTF-8" standalone="no"?>
<svg
   xmlns:dc="http://purl.org/dc/elements/1.1/"
   xmlns:cc="http://creativecommons.org/ns#"
   xmlns:rdf="http://www.w3.org/1999/02/22-rdf-syntax-ns#"
   xmlns:svg="http://www.w3.org/2000/svg"
   xmlns="http://www.w3.org/2000/svg"
   viewBox="0 0 66.666664 66.666664"
   height="66.666664"
   width="66.666664"
   xml:space="preserve"
   version="1.1"
   id="svg2"><metadata
     id="metadata8"><rdf:RDF><cc:Work
         rdf:about=""><dc:format>image/svg+xml</dc:format><dc:type
           rdf:resource="http://purl.org/dc/dcmitype/StillImage" /></cc:Work></rdf:RDF></metadata><defs
     id="defs6" /><g
     transform="matrix(1.3333333,0,0,-1.3333333,0,66.666667)"
     id="g10"><g
       transform="scale(0.1)"
       id="g12"><path
         id="path14"
         style="fill:#000000;fill-opacity:1;fill-rule:nonzero;stroke:none"
         d="m 412.094,130.738 c 0,-30.9099 -25.059,-55.9646 -55.969,-55.9646 l -150.355,0 c -30.915,0 -55.969,25.0547 -55.969,55.9646 l 0,211.563 c 0,30.91 25.054,55.969 55.969,55.969 l 150.355,0 c 30.91,0 55.969,-25.059 55.969,-55.969 l 0,-211.563 z m 21.855,215.071 c -0.062,0 -0.117,-0.036 -0.183,-0.036 -1.926,41.375 -35.981,74.352 -77.832,74.352 l -149.973,0 c -43.09,0 -78.02,-34.93 -78.02,-78.02 l 0,-211.171 c 0,-43.0902 34.93,-78.0199 78.02,-78.0199 l 149.973,0 c 43.089,0 78.015,34.9297 78.015,78.0199 l 0,153.671 c 6.039,0 10.93,4.895 10.93,10.93 l 0,39.344 c 0,6.039 -4.891,10.93 -10.93,10.93" /><path
         id="path16"
         style="fill:#000000;fill-opacity:1;fill-rule:nonzero;stroke:none"
         d="m 412.094,130.738 c 0,-30.9099 -25.059,-55.9646 -55.969,-55.9646 l -150.355,0 c -30.915,0 -55.969,25.0547 -55.969,55.9646 l 0,211.563 c 0,30.91 25.054,55.969 55.969,55.969 l 150.355,0 c 30.91,0 55.969,-25.059 55.969,-55.969 l 0,-211.563 z m 21.855,215.071 c -0.062,0 -0.117,-0.036 -0.183,-0.036 -1.926,41.375 -35.981,74.352 -77.832,74.352 l -149.973,0 c -43.09,0 -78.02,-34.93 -78.02,-78.02 l 0,-211.171 c 0,-43.0902 34.93,-78.0199 78.02,-78.0199 l 149.973,0 c 43.089,0 78.015,34.9297 78.015,78.0199 l 0,153.671 c 6.039,0 10.93,4.895 10.93,10.93 l 0,39.344 c 0,6.039 -4.891,10.93 -10.93,10.93" /><path
         id="path18"
         style="fill:#000000;fill-opacity:1;fill-rule:nonzero;stroke:none"
         d="M 449.566,96.6289 C 439.453,69.1641 417.672,47.3945 390.234,37.2656 l 0,-22.9687 C 429.75,26 460.914,57.0977 472.605,96.6289 l -23.039,0" /><path
         id="path20"
         style="fill:#000000;fill-opacity:1;fill-rule:nonzero;stroke:none"
         d="M 171.656,458.746 C 132.145,447.039 100.98,415.945 89.2891,376.41 l 23.0389,0 c 10.11,27.465 31.895,49.238 59.328,59.363 l 0,22.973" /><path
         id="path22"
         style="fill:#000000;fill-opacity:1;fill-rule:nonzero;stroke:none"
         d="m 355.266,376.41 -148.637,0 c -19.317,0 -34.973,-15.656 -34.973,-34.972 l 0,-209.836 c 0,-19.313 15.656,-34.9731 34.973,-34.9731 l 148.637,0 c 19.312,0 34.968,15.6601 34.968,34.9731 l 0,209.836 c 0,19.316 -15.656,34.972 -34.968,34.972" /><path
         id="path24"
         style="fill:none;stroke:#e52420;stroke-width:100;stroke-linecap:butt;stroke-linejoin:miter;stroke-miterlimit:10;stroke-dasharray:none;stroke-opacity:1"
         d="m -51,-51 1941.48,0 0,851 -1941.48,0 0,-851 z" /></g></g></svg>