<?xml version="1.0" encoding="UTF-8" standalone="no"?>
<svg
   xmlns:dc="http://purl.org/dc/elements/1.1/"
   xmlns:cc="http://creativecommons.org/ns#"
   xmlns:rdf="http://www.w3.org/1999/02/22-rdf-syntax-ns#"
   xmlns:svg="http://www.w3.org/2000/svg"
   xmlns="http://www.w3.org/2000/svg"
   viewBox="0 0 66.666664 66.666664"
   height="66.666664"
   width="66.666664"
   xml:space="preserve"
   version="1.1"
   id="svg2"><metadata
     id="metadata8"><rdf:RDF><cc:Work
         rdf:about=""><dc:format>image/svg+xml</dc:format><dc:type
           rdf:resource="http://purl.org/dc/dcmitype/StillImage" /></cc:Work></rdf:RDF></metadata><defs
     id="defs6" /><g
     transform="matrix(1.3333333,0,0,-1.3333333,0,66.666667)"
     id="g10"><g
       transform="scale(0.1)"
       id="g12"><path
         id="path14"
         style="fill:#000000;fill-opacity:1;fill-rule:nonzero;stroke:none"
         d="m 412.109,198.109 -21.855,21.86 0,121.469 c 0,19.316 -15.656,34.972 -34.973,34.972 l -148.633,0 c -19.316,0 -34.972,-15.656 -34.972,-34.972 l 0,-209.836 c 0,-19.313 15.656,-34.9731 34.972,-34.9731 l 121.473,0 21.856,-21.8555 -144.192,0 c -30.91,0 -55.969,25.0547 -55.969,55.9686 l 0,211.559 c 0,30.91 25.059,55.969 55.969,55.969 l 150.36,0 c 30.91,0 55.964,-25.059 55.964,-55.969 l 0,-144.192 z m -84.777,84.778 -0.004,0 c -11.863,11.867 -28.258,19.207 -46.363,19.207 -36.215,0 -65.574,-29.36 -65.574,-65.574 0,-18.106 7.339,-34.5 19.207,-46.368 l 27.761,-27.761 c -33.246,8.324 -57.898,38.308 -57.898,74.129 0,42.253 34.25,76.503 76.504,76.503 35.82,0 65.805,-24.656 74.129,-57.894 l -27.762,27.758 z m 106.637,62.922 c -0.067,0 -0.121,-0.036 -0.188,-0.036 -1.926,41.375 -35.98,74.352 -77.832,74.352 l -149.972,0 c -43.09,0 -78.016,-34.93 -78.016,-78.02 l 0,-211.171 c 0,-43.0902 34.926,-78.0199 78.016,-78.0199 l 149.972,0 c 4.957,0 9.789,0.5117 14.489,1.3984 4.167,0.7813 8.203,1.9297 12.109,3.3477 l -17.836,17.8359 0,0 -122.387,122.3869 c -21.34,21.34 -21.34,55.937 0,77.277 21.34,21.34 55.938,21.34 77.278,0 l 92.507,-92.508 21.86,-21.855 0,123.808 c 6.035,0 10.929,4.895 10.929,10.93 l 0,39.348 c 0,6.035 -4.894,10.926 -10.929,10.926" /><path
         id="path16"
         style="fill:#000000;fill-opacity:1;fill-rule:nonzero;stroke:none"
         d="m 250.105,267.379 c -17.058,-17.074 -17.121,-44.703 -0.054,-61.77 l 0,0 c 8.015,-8.015 32.457,-17.004 32.457,-17.004 17.953,-7.16 31.996,-11.234 44.801,1.571 12.804,12.804 8.73,26.847 1.57,44.801 0,0 -8.988,24.441 -17.004,32.457 l 0,0 c -17.066,17.066 -44.695,17.004 -61.77,-0.055" /><path
         id="path18"
         style="fill:none;stroke:#e52420;stroke-width:100;stroke-linecap:butt;stroke-linejoin:miter;stroke-miterlimit:10;stroke-dasharray:none;stroke-opacity:1"
         d="m -51,-51 1941.48,0 0,1451 -1941.48,0 0,-1451 z" /></g></g></svg>