<?xml version="1.0" encoding="UTF-8" standalone="no"?>
<svg width="51px" height="52px" viewBox="0 0 51 52" version="1.1" xmlns="http://www.w3.org/2000/svg" xmlns:xlink="http://www.w3.org/1999/xlink" xmlns:sketch="http://www.bohemiancoding.com/sketch/ns">
    <!-- Generator: Sketch 3.2.2 (9983) - http://www.bohemiancoding.com/sketch -->
    <title>icns_Force</title>
    <desc>Created with Sketch.</desc>
    <defs></defs>
    <g id="Page-1" stroke="none" stroke-width="1" fill="none" fill-rule="evenodd" sketch:type="MSPage">
        <g id="Black" sketch:type="MSArtboardGroup" transform="translate(-93.000000, -22.000000)">
            <g id="icns_Force" sketch:type="MSLayerGroup" transform="translate(93.000000, 22.000000)">
                <rect id="Rectangle-7" fill="none" sketch:type="MSShapeGroup" x="0" y="0" width="51" height="52"></rect>
                <g transform="translate(12.000000, 8.000000)" id="Laag_2" fill="#362F34" sketch:type="MSShapeGroup">
                    <g>
                        <g id="Group">
                            <path d="M37.1090909,8.6 L37.1090909,8.6 C36.8727273,3.83513514 32.8545455,0 27.8909091,0 L10.1636364,0 C5.08181818,0 0.945454545,4.06756757 0.945454545,9.06486486 L0.945454545,33.5864865 C0.945454545,38.5837838 5.08181818,42.6513514 10.1636364,42.6513514 L27.8909091,42.6513514 C28.4818182,42.6513514 29.0727273,42.5351351 29.5454545,42.5351351 C30.0181818,42.4189189 30.4909091,42.3027027 30.9636364,42.1864865 L28.8363636,40.0945946 L14.4181818,25.8 C11.9363636,23.3594595 11.9363636,19.2918919 14.4181818,16.8513514 C16.9,14.4108108 21.0363636,14.4108108 23.5181818,16.8513514 L34.5090909,27.6594595 L37.1090909,30.2162162 L37.1090909,28.472973 L37.1090909,15.6891892 C37.8181818,15.6891892 38.4090909,15.1081081 38.4090909,14.4108108 L38.4090909,9.87837838 C38.4090909,9.18108108 37.8181818,8.6 37.1090909,8.6 L37.1090909,8.6 Z M24.4636364,15.9216216 L24.4636364,15.9216216 C23.0454545,14.527027 21.1545455,13.7135135 19.0272727,13.7135135 C14.7727273,13.7135135 11.2272727,17.0837838 11.2272727,21.3837838 C11.2272727,23.4756757 12.0545455,25.4513514 13.4727273,26.7297297 L16.7818182,29.9837838 C12.8818182,29.0540541 9.92727273,25.5675676 9.92727273,21.3837838 C9.92727273,16.5027027 13.9454545,12.4351351 19.0272727,12.4351351 C23.2818182,12.4351351 26.8272727,15.3405405 27.7727273,19.1756757 L24.4636364,15.9216216 L24.4636364,15.9216216 Z M34.5090909,25.8 L31.9090909,23.2432432 L31.9090909,9.18108108 C31.9090909,6.97297297 30.0181818,5.11351351 27.7727273,5.11351351 L10.2818182,5.11351351 C8.03636364,5.11351351 6.14545455,6.97297297 6.14545455,9.18108108 L6.14545455,33.5864865 C6.14545455,35.7945946 8.03636364,37.6540541 10.2818182,37.6540541 L24.5818182,37.6540541 L27.1818182,40.2108108 L10.1636364,40.2108108 C6.5,40.2108108 3.54545455,37.3054054 3.54545455,33.7027027 L3.54545455,9.06486486 C3.54545455,5.46216216 6.5,2.55675676 10.1636364,2.55675676 L27.8909091,2.55675676 C31.5545455,2.55675676 34.5090909,5.46216216 34.5090909,9.06486486 L34.5090909,25.8 L34.5090909,25.8 Z" id="Shape"></path>
                            <path d="M15.3636364,17.7810811 C13.3545455,19.7567568 13.3545455,23.0108108 15.3636364,24.9864865 L15.3636364,24.9864865 C16.3090909,25.9162162 19.1454545,26.9621622 19.1454545,26.9621622 C21.2727273,27.7756757 22.9272727,28.2405405 24.4636364,26.7297297 C26,25.2189189 25.5272727,23.5918919 24.7,21.5 C24.7,21.5 23.6363636,18.7108108 22.6909091,17.7810811 L22.6909091,17.7810811 C20.6818182,15.6891892 17.3727273,15.8054054 15.3636364,17.7810811 L15.3636364,17.7810811 Z" id="Shape"></path>
                        </g>
                    </g>
                </g>
            </g>
        </g>
    </g>
</svg>
