<?xml version="1.0" encoding="utf-8"?>
<!-- Generator: Adobe Illustrator 18.1.0, SVG Export Plug-In . SVG Version: 6.00 Build 0)  -->
<svg version="1.1" xmlns="http://www.w3.org/2000/svg" xmlns:xlink="http://www.w3.org/1999/xlink" x="0px" y="0px"
	 viewBox="0 0 50 50" enable-background="new 0 0 50 50" xml:space="preserve">
<g id="Laag_1" display="none">
</g>
<g id="Laag_2">
	<g>
		<path fill="#362F34" d="M35.5,12.4h-9.6c0,4.8-3.9,8.7-8.7,8.7l0,0v15.7c0,1.9,1.6,3.5,3.5,3.5h14.9c1.9,0,3.5-1.6,3.5-3.5v-21
			C39,13.9,37.5,12.4,35.5,12.4z"/>
		<path fill="#362F34" d="M17.2,18.9L17.2,18.9c-3.6,0-6.6-2.9-6.6-6.6v0c0-3.6,2.9-6.6,6.6-6.6h0c3.6,0,6.6,2.9,6.6,6.6v0
			C23.7,16,20.8,18.9,17.2,18.9z"/>
		<path fill="#362F34" d="M43.4,15.4C43.4,15.4,43.4,15.4,43.4,15.4C43.2,11.3,39.8,8,35.6,8H24.7c0.4,0.7,0.7,1.4,0.9,2.2h10
			c3.1,0,5.6,2.5,5.6,5.6v21.2c0,3.1-2.5,5.6-5.6,5.6h-15c-3.1,0-5.6-2.5-5.6-5.6V20.8c-0.8-0.2-1.5-0.5-2.2-0.9v17
			c0,4.3,3.5,7.8,7.8,7.8h15c4.3,0,7.8-3.5,7.8-7.8V21.5c0.6,0,1.1-0.5,1.1-1.1v-3.9C44.5,15.9,44,15.4,43.4,15.4z"/>
	</g>
	<rect x="-78.8" y="-90" fill="none" stroke="#E52420" stroke-width="10" stroke-miterlimit="10" width="207.8" height="160"/>
</g>
</svg>
