<?xml version="1.0" encoding="UTF-8" standalone="no"?>
<svg width="51px" height="52px" viewBox="0 0 51 52" version="1.1" xmlns="http://www.w3.org/2000/svg" xmlns:xlink="http://www.w3.org/1999/xlink" xmlns:sketch="http://www.bohemiancoding.com/sketch/ns">
    <!-- Generator: Sketch 3.2.2 (9983) - http://www.bohemiancoding.com/sketch -->
    <title>icns_Notifications</title>
    <desc>Created with Sketch.</desc>
    <defs></defs>
    <g id="Page-1" stroke="none" stroke-width="1" fill="none" fill-rule="evenodd" sketch:type="MSPage">
        <g id="Black" sketch:type="MSArtboardGroup" transform="translate(-219.000000, -22.000000)">
            <g id="icns_Notifications" sketch:type="MSLayerGroup" transform="translate(219.000000, 22.000000)">
                <rect id="Rectangle-9" fill="none" sketch:type="MSShapeGroup" x="0" y="0" width="51" height="52"></rect>
                <g id="Laag_2" transform="translate(10.000000, 5.000000)" fill="#362F34" sketch:type="MSShapeGroup">
                    <g id="Group">
                        <path d="M29.8714286,8.51 L18.6257143,8.51 C18.6257143,14.03 14.0571429,18.515 8.43428571,18.515 L8.43428571,18.515 L8.43428571,36.57 C8.43428571,38.755 10.3085714,40.595 12.5342857,40.595 L29.9885714,40.595 C32.2142857,40.595 34.0885714,38.755 34.0885714,36.57 L34.0885714,12.42 C33.9714286,10.235 32.2142857,8.51 29.8714286,8.51 L29.8714286,8.51 Z" id="Shape"></path>
                        <path d="M8.43428571,15.985 L8.43428571,15.985 C4.21714286,15.985 0.702857143,12.65 0.702857143,8.395 L0.702857143,8.395 C0.702857143,4.255 4.1,0.805 8.43428571,0.805 L8.43428571,0.805 C12.6514286,0.805 16.1657143,4.14 16.1657143,8.395 L16.1657143,8.395 C16.0485714,12.65 12.6514286,15.985 8.43428571,15.985 L8.43428571,15.985 Z" id="Shape"></path>
                        <path d="M39.1257143,11.96 L39.1257143,11.96 C38.8914286,7.245 34.9085714,3.45 29.9885714,3.45 L17.22,3.45 C17.6885714,4.255 18.04,5.06 18.2742857,5.98 L29.9885714,5.98 C33.62,5.98 36.5485714,8.855 36.5485714,12.42 L36.5485714,36.8 C36.5485714,40.365 33.62,43.24 29.9885714,43.24 L12.4171429,43.24 C8.78571429,43.24 5.85714286,40.365 5.85714286,36.8 L5.85714286,18.17 C4.92,17.94 4.1,17.595 3.28,17.135 L3.28,36.685 C3.28,41.63 7.38,45.655 12.4171429,45.655 L29.9885714,45.655 C35.0257143,45.655 39.1257143,41.63 39.1257143,36.685 L39.1257143,18.975 C39.8285714,18.975 40.4142857,18.4 40.4142857,17.71 L40.4142857,13.225 C40.4142857,12.535 39.8285714,11.96 39.1257143,11.96 L39.1257143,11.96 Z" id="Shape"></path>
                    </g>
                </g>
            </g>
        </g>
    </g>
</svg>
