<?xml version="1.0" encoding="UTF-8" standalone="no"?>
<svg
   xmlns:dc="http://purl.org/dc/elements/1.1/"
   xmlns:cc="http://creativecommons.org/ns#"
   xmlns:rdf="http://www.w3.org/1999/02/22-rdf-syntax-ns#"
   xmlns:svg="http://www.w3.org/2000/svg"
   xmlns="http://www.w3.org/2000/svg"
   viewBox="0 0 719.50665 737.84003"
   height="737.84003"
   width="719.50665"
   xml:space="preserve"
   version="1.1"
   id="svg2"><metadata
     id="metadata8"><rdf:RDF><cc:Work
         rdf:about=""><dc:format>image/svg+xml</dc:format><dc:type
           rdf:resource="http://purl.org/dc/dcmitype/StillImage" /></cc:Work></rdf:RDF></metadata><defs
     id="defs6"><clipPath
       id="clipPath18"
       clipPathUnits="userSpaceOnUse"><path
         id="path20"
         d="m 0,0 5396,0 0,5533.78 -5396,0 L 0,0 Z" /></clipPath></defs><g
     transform="matrix(1.3333333,0,0,-1.3333333,0,737.84)"
     id="g10"><g
       transform="scale(0.1)"
       id="g12"><g
         id="g14"><g
           clip-path="url(#clipPath18)"
           id="g16"><path
             id="path22"
             style="fill:#231f20;fill-opacity:1;fill-rule:nonzero;stroke:none"
             d="m 3669.99,3634.19 c -15.93,9.22 -32.14,17.87 -48.81,25.69 -17.96,8.43 -2.29,35 15.56,26.62 16.67,-7.82 32.88,-16.47 48.81,-25.69 17.19,-9.94 1.65,-36.57 -15.56,-26.62 z m 1578.65,-574.85 c -251.1,150.43 -544.49,233.46 -812.24,349.33 -187.66,81.22 -372.58,168.46 -555.38,259.96 -1.4,1.17 -2.93,2.25 -4.91,2.96 -2.15,0.77 -4.16,1.81 -6.29,2.62 -12.75,6.39 -25.58,12.62 -38.31,19.06 -18.85,51.12 -37.7,102.24 -56.56,153.36 40.72,-0.32 81.44,-0.64 122.16,-0.97 11.68,-0.09 19.22,13.17 13.31,23.19 -31.33,53.2 -61.23,107.08 -88.94,162.25 -30.63,60.98 -115.21,179.33 -29.09,231.03 46.43,27.87 122.36,33.91 174.38,48.33 67.82,18.8 135.64,37.6 203.45,56.39 12.92,3.58 14.97,21.34 3.68,28.17 -148.18,89.76 -296.35,179.52 -444.53,269.27 68.57,49.27 137.15,98.53 205.72,147.8 12.53,9 8,27.54 -7.78,28.72 -85.51,6.39 -171.03,12.78 -256.54,19.17 -83.67,6.25 -174.19,3.59 -256.55,19.17 -30.18,5.71 -81.42,21.98 -93.96,55.16 -4.4,11.63 4.51,39.25 6.04,51.23 4.92,38.37 10.24,76.7 15.36,115.05 11.52,86.3 23.04,172.59 34.56,258.89 1.28,9.63 -10.92,17.94 -19.51,14.86 l -482.5,-172.95 c 14.8,52.53 25.52,105.8 30.22,160.41 3.14,36.5 16.56,102.75 -13.68,133.16 -22.92,23.03 -57.17,14.31 -85.68,10.99 -67.36,-7.84 -134.5,-18.91 -201.13,-31.47 -140.02,-26.38 -278.31,-61.94 -413.69,-106.38 -61.92,-20.33 -188.25,-97.46 -245.75,-47.06 -23.33,20.44 -40.42,75.02 -55.29,102.63 -18.42,34.21 -36.85,68.42 -55.28,102.63 -6.57,12.2 -24.27,8.41 -28.17,-3.68 -29.91,-92.77 -59.82,-185.53 -89.74,-278.3 l -44.86,-139.15 c -16.91,-52.44 -24.61,-141.37 -99.13,-142.14 -43.85,-0.46 -103.26,31.68 -145.29,44.58 -43.59,13.37 -87.18,26.74 -130.77,40.11 -101.7,31.2 -203.4,62.4 -305.111,93.6 -14.175,4.36 -22.347,-11.19 -17.406,-22.64 40.797,-94.49 81.597,-188.99 122.397,-283.48 23.02,-53.32 57.08,-111.06 71.7,-167.1 22.12,-84.78 -26.34,-118.24 -85.63,-151.86 -77.5,-43.94 -151.58,-93.3 -221.869,-148.05 -34.418,-26.81 -120.039,-74.61 -108.09,-130.45 10.91,-50.99 108.695,-77.17 146.707,-97.18 86.398,-45.48 170.962,-94.4 253.432,-146.67 58.15,-36.86 134.03,-67.21 134.93,-149.95 0.48,-44.83 -26.16,-103.3 -37.23,-146.99 -27.3,-107.79 -54.59,-215.59 -81.89,-323.38 -3.19,-12.59 10.94,-24.78 22.64,-17.41 91.96,57.97 171.49,129.58 237.86,213.43 0.14,-1.56 0.36,-3.1 0.5,-4.66 2.28,2.08 4.42,4.44 6.87,6.28 1.62,10.28 6.61,14.89 17.16,22.81 0.05,0.03 0.11,0.03 0.16,0.06 -1.24,13.68 -2.38,27.36 -3.41,40.98 -3.89,-6.11 -10.83,-10.15 -18.36,-7.59 -0.47,-0.32 -0.88,-0.68 -1.37,-0.98 -1.9,-1.22 -3.76,-1.86 -5.57,-2.2 0.16,-2.82 0.22,-5.66 0.4,-8.48 -60.19,-82.28 -132.67,-152.85 -217.21,-211.17 25.22,99.61 50.45,199.21 75.67,298.81 14.64,57.82 65.48,159.82 24.97,217.29 -18.73,26.58 -56.29,44.89 -82.01,61.89 -42.66,28.21 -85.93,55.48 -129.75,81.86 -43.81,26.37 -88.16,51.85 -133.058,76.34 -24.488,13.36 -49.129,26.45 -73.91,39.24 -11.656,6.02 -67.98,26.86 -74.801,37.53 -44.777,70.04 63.235,126.84 108.254,159.72 41,29.94 83.275,58.12 126.715,84.39 55.59,33.63 148.36,62.5 160.07,137.08 10.61,67.51 -44.5,152.9 -69.78,211.47 -41.99,97.24 -83.97,194.48 -125.95,291.73 l 346.42,-106.28 c 58.12,-17.83 116.12,-36.07 174.36,-53.49 28.33,-8.48 64.75,-25.11 94.28,-9.72 21.39,11.14 27.67,32.35 35.93,53.15 21.4,53.89 36.04,111.77 53.84,166.98 35.12,108.92 70.24,217.85 105.36,326.77 26.54,-49.47 52.9,-99.04 79.87,-148.27 13.41,-24.48 25.68,-57.17 54.8,-67.27 39.97,-13.88 95.76,23.78 131.93,37.07 66.87,24.58 134.55,46.92 202.89,67.06 127.58,37.6 257.4,67.39 388.61,89.16 72.56,12.04 197.48,57.51 193.61,-54.85 -2.61,-75.94 -17.07,-149.13 -39.67,-221.43 -3.35,-10.7 7.91,-22.92 18.96,-18.96 162.37,58.2 324.76,116.41 487.14,174.61 -13.06,-97.82 -26.12,-195.64 -39.18,-293.45 -7.49,-56.11 -39.57,-147.18 25.89,-180.45 25.46,-12.94 57.61,-12.13 85.18,-14.3 55.32,-4.36 110.67,-8.27 166,-12.4 101.28,-7.57 202.55,-15.14 303.83,-22.7 -63.45,-45.58 -126.9,-91.17 -190.34,-136.75 -9.27,-6.65 -10.57,-20.22 0,-26.62 144.62,-87.6 289.25,-175.21 433.88,-262.82 l -256.21,-71.01 c -43.12,-11.95 -121.77,-17.17 -148.29,-60.72 -28.34,-46.53 9.51,-107.54 28.75,-149.88 35.58,-78.29 75.56,-154.3 118.54,-228.72 l -117.55,0.93 c -9.34,0.08 -18.37,-10.01 -14.86,-19.51 17.77,-48.21 35.55,-96.41 53.33,-144.62 -2.14,1.09 -4.26,2.22 -6.4,3.32 -3.2,6.26 -10.04,10.26 -16.63,8.6 -85.54,43.87 -170.75,88.39 -255.16,134.42 -3.13,1.7 -6.1,1.94 -8.93,1.63 -0.15,2.48 -0.38,4.95 -0.54,7.43 -1.08,-0.08 -2.01,-0.46 -3.13,-0.46 l -0.62,0 c 2.58,-15.03 3.8,-29.61 4.51,-44.57 0.66,-0.2 1.31,-0.39 1.96,-0.61 -0.08,1.79 -0.08,3.58 -0.18,5.37 43.51,-23.66 87.22,-46.75 131.03,-69.6 -47.77,-48.29 -75.6,-108.93 -115.47,-162.02 -4.17,-131.85 -31.22,-254.7 -68.57,-382.98 2.37,-1.69 5.03,-3.03 7,-5.13 0.3,1.39 0.6,2.78 0.94,4.16 212.15,-144.09 430.01,-280.06 645.63,-418.88 -320.04,-77.91 -632.62,-182.74 -935.16,-314.32 -18.15,-7.89 -2.47,-34.46 15.56,-26.62 370.33,161.06 756.17,281.89 1152.04,361.58 19.44,3.91 11.21,33.63 -8.19,29.73 -65.89,-13.27 -131.37,-28.1 -196.65,-43.65 1.37,5.81 -0.2,12.3 -6.63,16.44 -220.19,141.83 -442.85,280.52 -659.38,427.91 0.55,2.48 0.96,4.97 1.48,7.46 0.92,0.52 1.87,0.77 2.75,1.51 13.72,11.6 23.5,26.5 28.96,43.29 88.96,129.73 171.77,270.64 272.85,391.33 2.73,-1.38 5.45,-2.77 8.16,-4.16 1.19,-1.94 2.81,-3.74 5.21,-5.17 25.47,-15.2 52.24,-27.65 80.16,-37.64 352.8,-173.4 713.55,-327.01 1079.89,-473.61 121.65,-48.68 295.91,-106.22 383.75,-208.56 105.23,-122.61 -45.95,-289.42 -136.53,-369.54 -200.32,-177.2 -426.5,-331.8 -647.05,-482.55 -247.22,-168.97 -501.78,-326.83 -762.44,-474.2 -17.27,-9.76 -1.75,-36.4 15.56,-26.61 78.48,44.36 156.16,90.1 233.49,136.41 13.99,13.59 31.16,24.42 51.56,31.21 157.7,95.55 313.21,194.66 465.62,298.53 229.59,156.47 468.26,316.69 674.47,503.71 76.74,69.6 156.21,160.32 168.7,267.61 12.59,108.2 -62.08,164.63 -146.28,215.07" /><path
             id="path24"
             style="fill:#231f20;fill-opacity:1;fill-rule:nonzero;stroke:none"
             d="m 3270.7,4295.42 c -102.52,-60.7 -209.69,-110.3 -322.06,-149.55 -15.82,64.69 -24.67,171 -103.96,149.1 -107.7,-29.74 -214.5,-129.48 -288.57,-213.77 -47.41,73.62 -94.83,147.24 -142.24,220.86 -4.67,7.26 -13.42,9.52 -21.09,5.53 -103.15,-53.61 -206.3,-107.22 -309.45,-160.83 -26.28,80.46 -52.56,160.92 -78.85,241.38 -3.47,10.64 -17.43,15.59 -25.76,6.8 -27.47,-28.99 -54.93,-57.98 -82.4,-86.96 -13.73,-14.5 -27.47,-28.99 -41.2,-43.49 -27.18,-28.68 -29.82,-46.9 -72.96,-33.95 -76.6,23 -148.14,111.99 -208.2,164.86 -14.84,13.07 -36.73,-8.66 -21.8,-21.79 51.46,-45.31 102.93,-90.61 154.4,-135.92 22.29,-19.62 56.35,-62.15 90.23,-60.25 26.15,1.47 43.04,26.53 59.53,43.51 42.74,44.04 84.61,88.98 126.72,133.63 25.48,-77.98 50.95,-155.97 76.42,-233.95 3.19,-9.77 13.54,-13.95 22.65,-9.21 104.36,54.24 208.73,108.49 313.1,162.73 48.58,-75.44 97.17,-150.88 145.75,-226.32 4.98,-7.73 17.46,-11.03 24.21,-3.12 56.61,66.37 120.87,124.37 195.12,170.59 24.88,15.48 90.61,64.31 119.45,44.39 8.17,-5.65 14.26,-45.23 17.42,-55.27 l 26.14,-82.89 c 2.39,-7.59 10.82,-13.53 18.96,-10.77 120.31,40.87 234.63,93.29 344,158.04 17.06,10.1 1.56,36.76 -15.56,26.62" /><path
             id="path26"
             style="fill:#231f20;fill-opacity:1;fill-rule:nonzero;stroke:none"
             d="m 3789.92,1587.09 c -0.39,19.81 -31.22,19.88 -30.83,0 10.21,-524.01 14.1,-1048.11 11.69,-1572.2111 -0.1,-19.83984 30.73,-19.85937 30.82,0 2.42,524.1011 -1.47,1048.2011 -11.68,1572.2111" /><path
             id="path28"
             style="fill:#231f20;fill-opacity:1;fill-rule:nonzero;stroke:none"
             d="m 3527.1,3597.87 c -7.61,-6.52 -12.27,-14.16 -15.51,-22.45 2.98,206.67 -19.53,416.26 -32.87,616.06 -1.31,19.69 -32.15,19.84 -30.82,0 34.86,-522.16 133.69,-1272.86 -422.45,-1571.98 -135.34,-72.8 -282.95,-78.89 -433.02,-63.88 -152.6,15.26 -304.96,46.06 -448.61,100.57 -278.76,105.77 -517.28,309.48 -613.04,597.96 -108.85,327.88 -72,708.41 -10.19,1041.85 3.59,19.39 -26.11,27.71 -29.73,8.19 -58.82,-317.31 -92.36,-666.01 -11.89,-982.6 72.28,-284.35 265.86,-506.12 525.79,-637.72 147.54,-74.7 308.57,-119.45 471.61,-144.37 144.6,-22.11 298.14,-39.18 440.87,2.33 237.98,69.21 412.67,276.71 501.74,500.6 48.97,123.09 74.06,252.12 85.33,383.59 8.71,-2.69 20.67,1.93 21.78,13.95 2.14,23.19 4.29,46.38 6.42,69.58 1.93,20.84 -0.91,51.69 16.39,66.53 15.08,12.93 -6.81,34.65 -21.8,21.79" /><path
             id="path30"
             style="fill:#231f20;fill-opacity:1;fill-rule:nonzero;stroke:none"
             d="m 2078.1,3968.79 c 1.02,9.81 0.06,19.57 -8.73,26.11 -10.14,7.54 -25.6,4.96 -37.22,3.54 -3.31,-0.4 -5.95,-1.69 -8.22,-3.3 -12.08,-4.79 -21.67,-14.86 -23.52,-29.72 -3.35,-26.81 23.59,-51.17 49.96,-43.14 14.26,4.34 25.94,22.06 25.76,37.92 0.6,1.22 1.24,2.4 1.49,3.98 0.21,1.36 0.28,2.74 0.43,4.11 0.04,0 0.08,-0.01 0.12,-0.01 -0.01,0.19 -0.06,0.31 -0.07,0.51" /><path
             id="path32"
             style="fill:#231f20;fill-opacity:1;fill-rule:nonzero;stroke:none"
             d="m 2892.47,3997.75 c -2.19,1.52 -4.74,2.73 -8.03,2.88 -34.87,1.58 -63.01,-39.94 -44.65,-71.21 16.6,-28.27 62.38,-28.43 80.54,-1.75 4.59,6.74 5.54,12.85 4.26,18.11 0.13,0.39 0.39,0.61 0.49,1.02 6.28,25.52 -8.5,45.88 -32.61,50.95" /><path
             id="path34"
             style="fill:#231f20;fill-opacity:1;fill-rule:nonzero;stroke:none"
             d="m 2738.29,3067.66 c -72.15,-61.79 -168.38,-59.64 -257.87,-51.88 -105.43,9.14 -219.01,28.46 -273.54,130.28 -9.37,17.49 -35.99,1.94 -26.62,-15.56 54.72,-102.18 164.22,-131.73 272.36,-142.96 107.17,-11.12 221.04,-15.71 307.47,58.32 15.09,12.92 -6.8,34.64 -21.8,21.8" /><path
             id="path36"
             style="fill:#231f20;fill-opacity:1;fill-rule:nonzero;stroke:none"
             d="m 3475.69,3228.53 c -0.21,4.03 -0.57,8 -0.52,12.15 -2.27,1.53 -4.58,3.02 -6.84,4.56 0.55,2.48 0.96,4.98 1.48,7.46 0.92,0.52 1.87,0.77 2.75,1.52 1.37,1.16 2.22,2.71 3.51,3.93 1.48,17.92 4.71,36.66 8.83,55.87 8.69,40.44 15.22,77.11 19.19,114.56 -12.26,-71.51 -29.85,-142.18 -50.92,-214.55 2.37,-1.69 5.04,-3.03 7.01,-5.14 0.29,1.39 0.59,2.78 0.93,4.17 3.49,-2.37 7,-4.69 10.52,-7.02 1.08,7.48 2.46,14.99 4.06,22.49" /><path
             id="path38"
             style="fill:#231f20;fill-opacity:1;fill-rule:nonzero;stroke:none"
             d="m 4173.91,4395.02 c -148.18,89.76 -296.36,179.51 -444.54,269.27 68.57,49.26 137.15,98.53 205.72,147.79 12.53,9 8,27.55 -7.78,28.73 -85.51,6.39 -171.03,12.78 -256.54,19.17 -83.67,6.25 -174.19,3.59 -256.55,19.16 -30.18,5.71 -81.42,21.99 -93.96,55.16 -4.4,11.63 4.51,39.26 6.04,51.23 4.92,38.38 10.24,76.71 15.36,115.06 11.52,86.29 23.04,172.59 34.56,258.88 1.29,9.64 -10.92,17.94 -19.51,14.87 l -482.5,-172.96 c 14.8,52.54 25.52,105.81 30.22,160.42 3.14,36.5 16.56,102.75 -13.68,133.15 -22.91,23.03 -57.17,14.31 -85.67,10.99 -67.37,-7.83 -134.51,-18.91 -201.14,-31.46 -140.02,-26.39 -278.31,-61.95 -413.69,-106.39 -61.92,-20.32 -188.25,-97.46 -245.75,-47.06 -23.33,20.44 -40.42,75.03 -55.29,102.63 -18.42,34.22 -36.85,68.43 -55.28,102.64 -6.57,12.19 -24.27,8.41 -28.17,-3.69 -29.91,-92.76 -59.82,-185.53 -89.74,-278.3 l -44.86,-139.15 c -16.91,-52.43 -24.61,-141.36 -99.13,-142.13 -43.85,-0.46 -103.26,31.67 -145.29,44.57 -43.59,13.37 -87.18,26.74 -130.76,40.12 -101.71,31.2 -203.41,62.4 -305.121,93.6 -14.175,4.35 -22.347,-11.2 -17.406,-22.64 40.797,-94.5 81.597,-188.99 122.397,-283.49 23.02,-53.32 57.08,-111.06 71.7,-167.09 22.12,-84.78 -26.34,-118.24 -85.63,-151.86 -77.5,-43.95 -151.58,-93.3 -221.869,-148.05 -34.418,-26.81 -120.039,-74.62 -108.09,-130.46 10.91,-50.98 108.695,-77.17 146.707,-97.17 86.398,-45.48 170.962,-94.41 253.432,-146.68 58.15,-36.85 134.03,-67.2 134.93,-149.94 0.49,-44.84 -26.16,-103.3 -37.23,-146.99 -27.3,-107.8 -54.59,-215.59 -81.89,-323.38 -3.19,-12.59 10.94,-24.79 22.64,-17.41 91.96,57.97 171.49,129.57 237.86,213.42 0.14,-1.56 0.36,-3.1 0.5,-4.65 2.28,2.07 4.42,4.44 6.87,6.28 1.62,10.28 6.61,14.89 17.16,22.8 0.05,0.04 0.11,0.03 0.16,0.07 -1.23,13.68 -2.38,27.35 -3.41,40.98 -3.89,-6.11 -10.83,-10.15 -18.36,-7.59 -0.47,-0.32 -0.88,-0.68 -1.36,-0.99 -1.9,-1.21 -3.77,-1.86 -5.58,-2.19 0.16,-2.83 0.22,-5.67 0.41,-8.49 -60.2,-82.28 -132.68,-152.85 -217.22,-211.16 25.22,99.6 50.45,199.21 75.67,298.81 14.64,57.82 65.48,159.81 24.97,217.28 -18.73,26.58 -56.29,44.9 -82.01,61.9 -42.66,28.2 -85.93,55.48 -129.74,81.85 -43.82,26.38 -88.17,51.86 -133.068,76.35 -24.484,13.35 -49.125,26.44 -73.91,39.24 -11.656,6.01 -67.98,26.85 -74.801,37.52 -44.773,70.05 63.235,126.85 108.254,159.72 41,29.94 83.275,58.12 126.715,84.4 55.59,33.62 148.36,62.5 160.07,137.07 10.61,67.51 -44.5,152.91 -69.78,211.47 -41.98,97.25 -83.97,194.49 -125.95,291.73 l 346.43,-106.28 c 58.11,-17.82 116.11,-36.06 174.35,-53.49 28.33,-8.47 64.76,-25.1 94.28,-9.72 21.39,11.15 27.68,32.35 35.93,53.16 21.4,53.89 36.04,111.77 53.84,166.98 35.12,108.92 70.24,217.84 105.36,326.76 26.54,-49.46 52.9,-99.03 79.87,-148.26 13.41,-24.49 25.68,-57.17 54.81,-67.28 39.96,-13.87 95.75,23.78 131.92,37.08 66.87,24.57 134.55,46.92 202.89,67.06 127.58,37.6 257.4,67.39 388.61,89.16 72.56,12.03 197.48,57.51 193.62,-54.86 -2.61,-75.94 -17.08,-149.13 -39.68,-221.43 -3.35,-10.7 7.91,-22.92 18.96,-18.96 162.38,58.21 324.76,116.41 487.14,174.62 -13.06,-97.82 -26.12,-195.64 -39.18,-293.46 -7.49,-56.1 -39.57,-147.17 25.89,-180.44 25.46,-12.94 57.61,-12.14 85.18,-14.3 55.32,-4.36 110.67,-8.27 166,-12.41 101.28,-7.56 202.56,-15.13 303.83,-22.7 -63.44,-45.58 -126.9,-91.16 -190.34,-136.74 -9.27,-6.66 -10.57,-20.22 0,-26.62 144.63,-87.61 289.25,-175.21 433.88,-262.82 l -256.2,-71.01 c -43.13,-11.96 -121.78,-17.18 -148.3,-60.73 -28.34,-46.52 9.51,-107.53 28.75,-149.88 32.86,-72.3 69.79,-142.49 109.05,-211.45 1.16,0.71 2.61,1.09 3.86,1.71 2.28,-1.62 4.96,-2.83 8.52,-2.83 6.35,0 10.44,3.29 12.73,7.59 2.36,-0.09 4.61,-0.33 6.8,-0.68 -1.58,2.76 -3.09,5.57 -4.67,8.33 0.05,5.6 -2.58,11.12 -7.76,13.82 -20.39,35.98 -40.31,72.21 -58.89,109.19 -30.63,60.99 -115.21,179.33 -29.09,231.03 46.43,27.88 122.36,33.92 174.38,48.34 67.82,18.79 135.64,37.59 203.45,56.39 12.92,3.58 14.97,21.33 3.69,28.17" /><path
             id="path40"
             style="fill:#231f20;fill-opacity:1;fill-rule:nonzero;stroke:none"
             d="m 3270.7,4295.42 c -102.52,-60.7 -209.69,-110.3 -322.06,-149.56 -15.82,64.7 -24.67,171 -103.96,149.11 -107.7,-29.74 -214.5,-129.48 -288.57,-213.77 -47.41,73.62 -94.83,147.24 -142.24,220.86 -4.67,7.26 -13.42,9.52 -21.09,5.53 -103.15,-53.61 -206.3,-107.22 -309.45,-160.83 -26.28,80.46 -52.56,160.91 -78.85,241.38 -3.47,10.64 -17.43,15.58 -25.76,6.8 -27.47,-28.99 -54.93,-57.98 -82.4,-86.97 -13.73,-14.49 -27.47,-28.99 -41.2,-43.48 -27.18,-28.68 -29.82,-46.9 -72.96,-33.95 -76.6,22.99 -148.14,111.98 -208.2,164.86 -14.84,13.06 -36.73,-8.66 -21.8,-21.8 51.46,-45.3 102.93,-90.61 154.4,-135.91 22.29,-19.62 56.35,-62.16 90.23,-60.25 26.15,1.46 43.04,26.53 59.53,43.51 42.74,44.04 84.61,88.97 126.72,133.63 25.48,-77.99 50.95,-155.97 76.42,-233.96 3.19,-9.76 13.54,-13.94 22.65,-9.21 104.36,54.25 208.73,108.49 313.1,162.73 48.58,-75.43 97.17,-150.87 145.75,-226.31 4.98,-7.74 17.46,-11.03 24.21,-3.12 56.61,66.36 120.87,124.37 195.12,170.58 24.88,15.48 90.61,64.31 119.45,44.39 8.17,-5.64 14.26,-45.23 17.42,-55.26 l 26.14,-82.9 c 2.39,-7.58 10.82,-13.52 18.96,-10.76 120.31,40.86 234.63,93.29 344,158.04 17.06,10.1 1.56,36.76 -15.56,26.62" /><path
             id="path42"
             style="fill:#231f20;fill-opacity:1;fill-rule:nonzero;stroke:none"
             d="m 2512.43,3532.93 c -3.64,-16.26 -19,-30.39 -36.71,-27.11 -17.15,3.17 -27.58,22.35 -24.15,38.62 4.09,19.35 -25.62,27.62 -29.72,8.19 -6.94,-32.85 11.76,-68.42 45.67,-76.54 33.33,-7.98 67.38,16.2 74.64,48.65 4.32,19.32 -25.39,27.57 -29.73,8.19" /><path
             id="path44"
             style="fill:#231f20;fill-opacity:1;fill-rule:nonzero;stroke:none"
             d="M 1047.09,1565.83 C 998.367,1074.11 967.16,580.891 953.527,86.9492 c -0.547,-19.8398 30.282,-19.8281 30.828,0 13.633,493.9418 44.835,987.1608 93.565,1478.8808 1.95,19.73 -28.89,19.59 -30.83,0" /><path
             id="path46"
             style="fill:#231f20;fill-opacity:1;fill-rule:nonzero;stroke:none"
             d="m 1609.4,2467.95 c -255.75,-22.51 -515.6,-41.76 -768.83,-85.11 -91.16,-15.6 -185.207,-44.18 -247.371,-116.97 C 533.207,2195.62 512.051,2102.01 490.047,2014.81 358.223,1492.35 194.816,978.5 1.09766,475.711 -6.04297,457.18 23.7539,449.16 30.8203,467.512 206.738,924.09 358.164,1389.86 482.816,1863.04 c 28.172,106.94 44.43,229.68 97.301,328.01 56.145,104.41 157.555,143.13 268.649,162.07 250.514,42.68 507.644,61.73 760.634,84 19.61,1.72 19.79,32.57 0,30.83" /><path
             id="path48"
             style="fill:#231f20;fill-opacity:1;fill-rule:nonzero;stroke:none"
             d="m 3089.86,2380.14 c -114.57,-267.19 -416.89,-395.73 -695.3,-376.51 -276.63,19.1 -518.86,184.8 -648.62,427.54 -9.36,17.5 -35.98,1.95 -26.62,-15.56 134.88,-252.31 388.22,-423.2 675.24,-442.81 287.94,-19.66 603.46,115.54 721.92,391.78 7.73,18.04 -18.82,33.76 -26.62,15.56" /><path
             id="path50"
             style="fill:#231f20;fill-opacity:1;fill-rule:nonzero;stroke:none"
             d="m 1791.67,2759.36 c -1.64,1.37 -3.27,2.73 -4.9,4.1 -10.31,4.84 -26.01,-3.32 -22.11,-17.7 35.38,-130.55 53.84,-262.94 55.48,-398.18 0.24,-19.83 31.07,-19.88 30.83,0 -1.68,138.2 -20.43,272.97 -56.58,406.38 -0.6,2.18 -1.58,3.91 -2.72,5.4" /><path
             id="path52"
             style="fill:#231f20;fill-opacity:1;fill-rule:nonzero;stroke:none"
             d="m 3003.36,2546.3 c -33.64,-82.7 -35.94,-170.91 -7.18,-255.37 6.36,-18.67 36.15,-10.66 29.73,8.2 -27.26,80.04 -24.65,160.74 7.18,238.98 7.47,18.36 -22.34,26.36 -29.73,8.19" /><path
             id="path54"
             style="fill:#231f20;fill-opacity:1;fill-rule:nonzero;stroke:none"
             d="m 3191.69,2356.31 c -39.04,-148.89 -130.25,-278.6 -258.31,-364.6 -145.19,-97.49 -310.25,-106.8 -480.04,-111.21 -187.27,-4.88 -356.91,17.54 -511.48,131.1 -144.02,105.8 -264.96,243.83 -362.17,392.95 -10.79,16.56 -37.49,1.13 -26.62,-15.56 100.27,-153.82 224.57,-295.16 373.23,-404.01 168.2,-123.16 352.13,-140.89 555.07,-134.45 178.66,5.67 346.82,23.53 494.33,133.39 121.27,90.32 207.41,218.11 245.71,364.19 5.04,19.21 -24.69,27.4 -29.72,8.2" /><path
             id="path56"
             style="fill:#231f20;fill-opacity:1;fill-rule:nonzero;stroke:none"
             d="m 3477.41,3612.52 c 0.03,4.62 0.05,9.24 0.06,13.86 -0.01,-4.62 -0.04,-9.24 -0.06,-13.86" /><path
             id="path58"
             style="fill:#231f20;fill-opacity:1;fill-rule:nonzero;stroke:none"
             d="m 3512.25,3626.89 c 0.12,1.93 -0.07,3.67 -0.5,5.22 0.02,-3.97 0.07,-7.94 0.08,-11.9 0.14,2.23 0.28,4.46 0.42,6.68" /><path
             id="path60"
             style="fill:#231f20;fill-opacity:1;fill-rule:nonzero;stroke:none"
             d="m 3447.9,4193.5 c -0.01,0.04 0,0.07 -0.01,0.11 -0.03,-0.68 -0.04,-1.39 0.01,-2.14 11.42,-171.16 29.72,-366.89 29.57,-563.22 0.28,197.01 -18.11,393.49 -29.57,565.25" /><path
             id="path62"
             style="fill:#231f20;fill-opacity:1;fill-rule:nonzero;stroke:none"
             d="m 1461.32,3739.75 c 0.65,188.74 26.44,379.13 59.27,556.24 0.27,1.45 0.33,2.84 0.25,4.16 -0.04,-0.7 -0.12,-1.41 -0.25,-2.13 -32.95,-177.75 -58.8,-368.87 -59.27,-558.27" /><path
             id="path64"
             style="fill:#231f20;fill-opacity:1;fill-rule:nonzero;stroke:none"
             d="m 3469.26,3433.58 c -0.52,-8.3 -0.91,-16.76 -1.27,-25.28 4.05,44.12 6.64,88.68 8.07,133.41 -2.26,-36.05 -4.53,-72.09 -6.8,-108.13" /><path
             id="path66"
             style="fill:#231f20;fill-opacity:1;fill-rule:nonzero;stroke:none"
             d="m 3438.88,3217.19 c -1.39,-3.03 -1.52,-5.91 -1.12,-8.64 0.94,4.28 1.86,8.56 2.76,12.86 -0.52,-1.42 -1.01,-2.84 -1.64,-4.22" /><path
             id="path68"
             style="fill:#231f20;fill-opacity:1;fill-rule:nonzero;stroke:none"
             d="m 2917.24,2543.84 c -142.73,-41.51 -296.27,-24.42 -440.87,-2.32 -163.04,24.92 -324.07,69.67 -471.6,144.36 -259.94,131.61 -453.52,353.38 -525.79,637.73 -33.88,133.25 -47.55,272.19 -47.64,412.09 -0.04,-140.58 13.6,-280.22 47.64,-414.12 72.28,-284.34 265.85,-506.11 525.79,-637.72 147.53,-74.7 308.56,-119.44 471.6,-144.37 144.6,-22.1 298.14,-39.18 440.87,2.33 237.99,69.21 412.67,276.71 501.74,500.61 23.23,58.38 40.93,118.13 54.48,178.82 13.57,37.47 17.8,75.53 20.52,115.07 -14.01,-99.72 -37.47,-197.55 -75,-291.87 -89.07,-223.89 -263.75,-431.39 -501.74,-500.61" /><path
             id="path70"
             style="fill:#231f20;fill-opacity:1;fill-rule:nonzero;stroke:none"
             d="m 3466.18,3389.6 c 0.63,6.19 1.23,12.39 1.8,18.6 -0.56,-6.21 -1.18,-12.41 -1.8,-18.6" /><path
             id="path72"
             style="fill:#231f20;fill-opacity:1;fill-rule:nonzero;stroke:none"
             d="m 3478.72,4191.47 c 12.1,-181.13 31.28,-370.28 32.59,-558.05 0.17,-0.42 0.31,-0.86 0.44,-1.31 -1.13,188.85 -20.86,379.19 -33.03,561.39 -1.31,19.65 -32.02,19.83 -30.83,0.11 0.97,17.65 29.57,16.82 30.83,-2.14" /><path
             id="path74"
             style="fill:#231f20;fill-opacity:1;fill-rule:nonzero;stroke:none"
             d="m 3511.59,3605.16 c -0.14,-0.94 -0.13,-1.93 -0.25,-2.87 0.14,-0.04 0.28,-0.08 0.42,-0.12 0.03,6.01 0.08,12.02 0.07,18.04 -0.11,-1.79 -0.22,-3.58 -0.34,-5.37 0.01,-3.23 0.11,-6.46 0.1,-9.68" /><path
             id="path76"
             style="fill:#231f20;fill-opacity:1;fill-rule:nonzero;stroke:none"
             d="m 1530.78,3254.14 c 95.76,-288.47 334.28,-492.18 613.04,-597.96 143.65,-54.5 296.01,-85.31 448.61,-100.57 150.07,-15.01 297.68,-8.92 433.02,63.88 241.05,129.65 358.93,344.18 412.43,588.11 -0.06,0.31 -0.08,0.63 -0.12,0.95 -53.61,-243.51 -171.6,-457.57 -412.31,-587.03 -135.34,-72.8 -282.95,-78.89 -433.02,-63.88 -152.6,15.26 -304.96,46.06 -448.61,100.57 -278.76,105.77 -517.28,309.48 -613.04,597.96 -50.83,153.1 -69.88,317.68 -69.46,483.58 -0.58,-166.58 18.43,-331.88 69.46,-485.61" /><path
             id="path78"
             style="fill:#231f20;fill-opacity:1;fill-rule:nonzero;stroke:none"
             d="m 1520.84,4300.15 c 1.14,17.84 -26.5,24.84 -29.98,6.06 -34.06,-183.75 -59.65,-378.03 -59.52,-570.51 0.05,191.81 25.58,385.38 59.52,568.49 3.35,18.05 29,12.28 29.98,-4.04" /><path
             id="path80"
             style="fill:#231f20;fill-opacity:1;fill-rule:nonzero;stroke:none"
             d="m 3477.47,3628.25 c 0,-0.62 0,-1.25 0,-1.87 0,0.62 0,1.25 0,1.87" /><path
             id="path82"
             style="fill:#231f20;fill-opacity:1;fill-rule:nonzero;stroke:none"
             d="m 3466.18,3389.6 c -5.8,-57.08 -14.14,-113.35 -25.66,-168.19 0.22,0.58 0.42,1.17 0.66,1.74 11.25,54.29 19.33,109.98 25,166.45" /><path
             id="path84"
             style="fill:#231f20;fill-opacity:1;fill-rule:nonzero;stroke:none"
             d="m 3477.41,3612.52 c -0.16,-23.62 -0.59,-47.24 -1.35,-70.81 0.05,0.7 0.09,1.4 0.14,2.1 0.69,22.88 1.07,45.79 1.21,68.71" /><path
             id="path86"
             style="fill:#231f20;fill-opacity:1;fill-rule:nonzero;stroke:none"
             d="m 3467.99,3408.3 c 0,-0.03 0,-0.06 -0.01,-0.1 0,0.03 0.01,0.06 0.01,0.08 l 0,0.02" /><path
             id="path88"
             style="fill:#231f20;fill-opacity:1;fill-rule:nonzero;stroke:none"
             d="m 3507.96,3558.66 c 0.12,1.94 0.24,3.88 0.37,5.82 0,0.14 0.02,0.28 0.02,0.43 0.08,1.18 0.15,2.37 0.23,3.55 0.06,-0.04 0.12,-0.08 0.18,-0.12 0.05,0.24 0.07,0.48 0.14,0.72 0.37,1.57 1.06,2.94 1.91,4.17 0.18,0.77 0.36,1.54 0.56,2.3 0.03,0.15 0.05,0.21 0.07,0.33 0.04,0.83 0.08,1.65 0.11,2.48 0.02,0.15 0.04,0.3 0.05,0.45 0.1,7.79 0.12,15.58 0.16,23.38 -0.14,0.04 -0.28,0.08 -0.42,0.12 0.12,0.94 0.11,1.93 0.25,2.87 0.01,3.22 -0.09,6.45 -0.1,9.68 0.12,1.79 0.23,3.58 0.34,5.37 -0.01,3.96 -0.06,7.93 -0.08,11.9 -0.13,0.45 -0.27,0.89 -0.44,1.31 -1.31,187.77 -20.49,376.92 -32.59,558.05 -1.26,18.96 -29.86,19.79 -30.83,2.14 0.01,-0.04 0,-0.07 0.01,-0.11 11.46,-171.76 29.85,-368.24 29.57,-565.25 0,-0.62 0,-1.25 0,-1.87 -0.01,-4.62 -0.03,-9.24 -0.06,-13.86 -0.14,-22.92 -0.52,-45.83 -1.21,-68.71 l -0.14,-2.1 c -1.43,-44.73 -4.02,-89.29 -8.07,-133.41 l 0,-0.02 c 0,-0.02 -0.01,-0.05 -0.01,-0.08 -0.57,-6.21 -1.17,-12.41 -1.8,-18.6 -5.67,-56.47 -13.75,-112.16 -25,-166.45 -0.24,-0.57 -0.44,-1.16 -0.66,-1.74 -0.9,-4.3 -1.82,-8.58 -2.76,-12.86 0.04,-0.32 0.06,-0.64 0.12,-0.95 -53.5,-243.93 -171.38,-458.46 -412.43,-588.11 -135.34,-72.8 -282.95,-78.89 -433.02,-63.88 -152.6,15.26 -304.96,46.07 -448.61,100.57 -278.76,105.78 -517.28,309.49 -613.04,597.96 -51.03,153.73 -70.04,319.03 -69.46,485.61 0.47,189.4 26.32,380.52 59.27,558.27 0.13,0.72 0.21,1.43 0.25,2.13 -0.98,16.32 -26.63,22.09 -29.98,4.04 -33.94,-183.11 -59.47,-376.68 -59.52,-568.49 0.09,-139.9 13.76,-278.84 47.64,-412.09 72.27,-284.35 265.85,-506.12 525.79,-637.73 147.53,-74.69 308.56,-119.44 471.6,-144.36 144.6,-22.1 298.14,-39.19 440.87,2.32 237.99,69.22 412.67,276.72 501.74,500.61 37.53,94.32 60.99,192.15 75,291.87 0.81,11.74 1.49,23.59 2.24,35.61 8.4,47.95 13.16,93.53 11.72,146.53 -0.38,13.99 -0.35,27.21 0.02,40.2" /></g></g></g></g></svg>