<?xml version="1.0" encoding="UTF-8" standalone="no"?>
<svg width="643px" height="467px" viewBox="0 0 643 467" version="1.1" xmlns="http://www.w3.org/2000/svg" xmlns:xlink="http://www.w3.org/1999/xlink" xmlns:sketch="http://www.bohemiancoding.com/sketch/ns">
    <!-- Generator: Sketch 3.1.1 (8761) - http://www.bohemiancoding.com/sketch -->
    <title>Slice 2</title>
    <desc>Created with Sketch.</desc>
    <defs></defs>
    <g id="Page-1" stroke="none" stroke-width="1" fill="none" fill-rule="evenodd" sketch:type="MSPage">
        <g id="vliegtuig" sketch:type="MSLayerGroup" transform="translate(321.500000, 233.500000) rotate(-13.000000) translate(-321.500000, -233.500000) translate(45.000000, 114.000000)" stroke="#DDDDDD" stroke-width="5">
            <path d="M547.7,98.2 C516.9,59.5 450.9,63.4 424.6,65 C403.7,66.3 405.9,68.3 366.6,73.3 C330.7,77.8 301.3,79.6 281.9,80.5 L102.4,80.5 C100.9,80.5 99.4,79.8 98.4,78.6 C91.7,70.6 85.9,63.8 81.2,58.3 C54.9,27.6 44.3,18.3 28,8.3 C24.2,6 6,-3.3 1.4,1.8 C0.9,2.3 0.6,3 0.5,3.6 C0.3,4.6 0.4,5.6 0.7,6.5 L26.9,76.6 C27.9,79.2 26.6,82.1 24,83.2 C20.5,84.6 17.8,85.9 15.8,87.2 C13.3,88.9 12.6,91.6 12.5,94.8 C12.4,98.4 12.3,101.3 13.6,103.6 C21.9,118.2 72.8,130.4 120.3,130.4 L267.4,130.4 C269.1,124.6 270.9,118.8 272.6,113 C274.7,105.9 280.6,100.7 287.9,99.5 C296.8,98.1 307.8,98.6 316.8,98.6 C343.4,98.6 353.3,98.2 356.4,104.3 C357.1,105.6 357.6,107.7 356.7,111.1 C356,113.5 354.9,115.8 353.3,117.8 L343.4,130.4 L517.4,130.4 C529.7,130.4 545.9,126.5 550.6,119 C550.9,118.5 551.2,118.1 551.4,117.6 C554.9,109.4 550,101.1 547.7,98.2 L547.7,98.2 Z" id="Shape" sketch:type="MSShapeGroup"></path>
            <path d="M492.6,68 C501.9,70.4 508.6,72.2 513.7,74.2 C517.3,75.6 522.5,77.7 528.8,81.6 C532.6,83.9 537.6,87.1 542.8,92.6 C545.9,95.9 548.2,99 549.6,101.3 C545.7,102.2 519.6,106.2 498.9,95.4 C498.3,95.1 497.8,94.7 497.4,94.3 C485.9,83.9 492,70.6 492.6,68 L492.6,68 Z" id="Shape" sketch:type="MSShapeGroup"></path>
            <path d="M327,77.6 L274.4,38.3 C271.2,35.9 264.8,35.5 259.2,37.4 L259.2,37.4 C253.7,39.2 250.6,42.7 251.8,45.7 L265.6,80.5 L281.9,80.5 C293.5,80 308.8,79.1 327,77.6 L327,77.6 Z" id="Shape" sketch:type="MSShapeGroup"></path>
            <path d="M316.8,98.7 C307.8,98.7 296.8,98.1 287.9,99.6 C280.6,100.8 274.7,106 272.6,113.1 C261.6,149.9 250.7,186.6 239.7,223.4 C238,228.9 240.7,234.7 246,237.4 L246,237.4 C251.4,240.1 258,238.7 261.7,234.1 L353.4,117.8 C355,115.8 356.2,113.6 356.8,111.1 C357.7,107.7 357.2,105.6 356.5,104.3 C353.3,98.2 343.4,98.7 316.8,98.7 L316.8,98.7 Z" id="Shape" sketch:type="MSShapeGroup"></path>
        </g>
    </g>
</svg>