<?xml version="1.0" encoding="UTF-8" standalone="no"?>
<svg
   xmlns:dc="http://purl.org/dc/elements/1.1/"
   xmlns:cc="http://creativecommons.org/ns#"
   xmlns:rdf="http://www.w3.org/1999/02/22-rdf-syntax-ns#"
   xmlns:svg="http://www.w3.org/2000/svg"
   xmlns="http://www.w3.org/2000/svg"
   viewBox="0 0 743.09332 324.60001"
   height="324.60001"
   width="743.09332"
   xml:space="preserve"
   version="1.1"
   id="svg2"><metadata
     id="metadata8"><rdf:RDF><cc:Work
         rdf:about=""><dc:format>image/svg+xml</dc:format><dc:type
           rdf:resource="http://purl.org/dc/dcmitype/StillImage" /></cc:Work></rdf:RDF></metadata><defs
     id="defs6" /><g
     transform="matrix(1.3333333,0,0,-1.3333333,0,324.6)"
     id="g10"><g
       transform="scale(0.1)"
       id="g12"><path
         id="path14"
         style="fill:none;stroke:#040606;stroke-width:50;stroke-linecap:butt;stroke-linejoin:miter;stroke-miterlimit:10;stroke-dasharray:none;stroke-opacity:1"
         d="m 5498.72,1430.65 c -308.34,387.27 -967.5,347.5 -1230.54,331.63 -208.51,-12.58 -187.02,-33.07 -580.36,-82.91 -358.66,-45.44 -653.33,-63.49 -847.44,-71.61 l -1794.51,0 c -15.36,0 -29.96,6.83 -39.81,18.62 -66.607,79.67 -124.88,148.14 -172.056,203.07 -263.305,306.6 -369.453,399.74 -532.363,499.64 -37.754,23.15 -220.0707,116.25 -266.184,65.45 -4.875,-5.37 -7.6836,-11.76 -9.2304,-18.2 -2.293,-9.53 -1.2539,-19.56 2.1718,-28.74 L 289.973,1646.31 c 9.754,-26.15 -2.946,-55.38 -28.746,-66.02 -35.106,-14.47 -62.309,-27.02 -81.704,-40.36 -24.531,-16.87 -32.246,-43.88 -33.121,-76.03 -0.968,-35.55 -1.855,-64.75 11.239,-87.85 82.964,-146.35 591.851,-268.26 1066.909,-267.88 l 1471.03,0 c 17.26,57.89 34.51,115.78 51.77,173.68 21.06,70.64 80.49,123.39 153.26,135.14 89.49,14.44 199.23,8.59 289.15,8.7 266.03,0.32 364.69,4.43 396.25,-56.68 6.73,-13.03 12.26,-34.06 3.18,-68.08 -6.51,-24.39 -18.47,-47 -34.1,-66.83 l -99.3,-125.93 1740.39,0 c 122.6,-0.06 285.09,38.84 332.12,113.93 2.93,4.69 5.79,9.39 7.94,14.48 34.48,81.7 -14.55,165.22 -37.52,194.07 z" /><path
         id="path16"
         style="fill:none;stroke:#040606;stroke-width:50;stroke-linecap:butt;stroke-linejoin:miter;stroke-miterlimit:10;stroke-dasharray:none;stroke-opacity:1"
         d="m 4947.82,1733.01 c 92.51,-24.23 160.33,-41.55 210.54,-61.63 35.69,-14.28 87.7,-35.37 150.55,-74.19 38.04,-23.49 87.95,-54.79 140.36,-109.81 31.48,-33.06 53.76,-64.08 68.36,-86.55 -39.14,-8.77 -299.76,-49.19 -506.61,58.52 -5.55,2.89 -10.7,6.57 -15.36,10.76 -114.62,103.13 -54,235.94 -47.84,262.9 z" /><path
         id="path18"
         style="fill:none;stroke:#040606;stroke-width:50;stroke-linecap:butt;stroke-linejoin:miter;stroke-miterlimit:10;stroke-dasharray:none;stroke-opacity:1"
         d="m 3291.24,1636.95 -525.88,392.94 c -32.06,23.95 -96.3,27.77 -152.04,9.04 l 0,0 c -54.82,-18.44 -85.82,-53.47 -73.88,-83.49 l 138.34,-347.68 162.6,0 c 116.62,4.88 269.58,13.35 450.86,29.19 z" /><path
         id="path20"
         style="fill:none;stroke:#040606;stroke-width:50;stroke-linecap:butt;stroke-linejoin:miter;stroke-miterlimit:10;stroke-dasharray:none;stroke-opacity:1"
         d="m 3189.76,1425.69 c -89.92,-0.11 -199.66,5.74 -289.15,-8.7 -72.77,-11.75 -132.2,-64.5 -153.26,-135.14 C 2637.78,914.27 2528.21,546.691 2418.64,179.109 2402,124.512 2428.46,65.6719 2481.71,38.8984 l 0,0 c 54.14,-27.2187 120.3,-13.457 156.59,32.5625 L 3555.09,1234.1 c 15.63,19.83 27.59,42.43 34.1,66.83 9.08,34.02 3.55,55.05 -3.18,68.08 -31.56,61.11 -130.22,57 -396.25,56.68 z" /></g></g></svg>