<?xml version="1.0" encoding="UTF-8" standalone="no"?>
<svg width="134px" height="105px" viewBox="0 0 134 105" version="1.1" xmlns="http://www.w3.org/2000/svg" xmlns:xlink="http://www.w3.org/1999/xlink" xmlns:sketch="http://www.bohemiancoding.com/sketch/ns">
    <!-- Generator: Sketch 3.1.1 (8761) - http://www.bohemiancoding.com/sketch -->
    <title>E</title>
    <desc>Created with Sketch.</desc>
    <defs></defs>
    <g id="Casepagina" stroke="none" stroke-width="1" fill="none" fill-rule="evenodd" sketch:type="MSPage">
        <g id="Desktop" sketch:type="MSArtboardGroup" transform="translate(-557.000000, -822.000000)" fill="#353134">
            <path d="M690.098633,831.785156 C690.098633,835.056657 687.095733,836.692383 681.089844,836.692383 C676.353492,836.692383 665.098722,834.495139 647.325195,830.100586 C639.024373,834.836938 634.874023,840.793909 634.874023,847.97168 C634.874023,851.438494 636.070301,853.831048 638.462891,855.149414 C641.929705,854.856444 644.541983,854.709961 646.299805,854.709961 C651.377955,854.709961 653.916992,855.320306 653.916992,856.541016 C653.916992,857.32227 652.574232,857.712891 649.888672,857.712891 C646.470686,857.712891 642.759786,857.224614 638.755859,856.248047 C633.33591,857.029301 627.037145,859.128889 619.859375,862.546875 C601.597565,871.287153 592.466797,882.615165 592.466797,896.53125 C592.466797,905.759812 597.447216,911.619128 607.408203,914.109375 C605.601553,911.130844 604.698242,907.688496 604.698242,903.782227 C604.698242,894.163038 609.60542,885.300822 619.419922,877.195312 C629.234424,869.089803 639.976504,865.037109 651.646484,865.037109 C657.017605,865.037109 661.290023,866.355456 664.463867,868.992188 C667.637711,871.628919 669.224609,875.168923 669.224609,879.612305 C669.224609,889.133837 664.000052,897.715294 653.550781,905.356934 C643.10151,912.998573 631.33405,916.819336 618.248047,916.819336 C615.611315,916.819336 613.145519,916.672853 610.850586,916.379883 C615.538109,922.678742 622.496048,925.828125 631.724609,925.828125 C637.437529,925.828125 642.100568,924.973641 645.713867,923.264648 L646.592773,923.118164 C646.885744,923.215821 647.032227,923.411131 647.032227,923.704102 C647.032227,924.387699 645.225604,925.107906 641.612305,925.864746 C637.999005,926.621586 634.70314,927 631.724609,927 C621.51948,927 613.731472,923.313513 608.360352,915.94043 C600.889611,914.280265 595.042502,911.460469 590.818848,907.480957 C586.595194,903.501445 584.483398,898.875026 584.483398,893.601562 C584.483398,886.521449 587.413057,879.893097 593.272461,873.716309 C599.131865,867.53952 606.944287,862.864274 616.709961,859.69043 C622.618194,857.737295 629.380821,856.321293 636.998047,855.442383 C631.578098,853.147449 628.868164,849.509791 628.868164,844.529297 C628.868164,838.132781 632.823203,832.786154 640.733398,828.489258 C629.405217,825.754869 620.054724,824.387695 612.681641,824.387695 C598.228443,824.387695 585.911672,828.00094 575.730957,835.227539 C565.550242,842.454138 560.459961,851.194285 560.459961,861.448242 C560.459961,866.038109 561.802721,869.968734 564.488281,873.240234 C567.173842,876.511735 570.396466,878.147461 574.15625,878.147461 C576.744154,878.147461 578.038086,877.732426 578.038086,876.902344 C578.038086,876.462888 577.574223,876.316406 576.646484,876.462891 C574.058581,876.462891 572.764648,875.266614 572.764648,872.874023 C572.764648,871.506829 573.338373,870.334966 574.48584,869.358398 C575.633307,868.381831 577.012687,867.893555 578.624023,867.893555 C581.749039,867.893555 583.311523,869.407211 583.311523,872.43457 C583.311523,874.436533 582.420419,876.133294 580.638184,877.524902 C578.855948,878.916511 576.695325,879.612305 574.15625,879.612305 C569.615212,879.612305 565.745621,877.573751 562.547363,873.496582 C559.349105,869.419413 557.75,864.500029 557.75,858.738281 C557.75,850.09566 561.509728,842.161169 569.029297,834.93457 C577.964888,826.340777 590.513591,822.043945 606.675781,822.043945 C615.660201,822.043945 627.622972,823.874982 642.564453,827.537109 C649.302768,824.265609 657.139604,822.629883 666.075195,822.629883 C672.715854,822.629883 678.379859,823.520987 683.067383,825.303223 C687.754906,827.085458 690.098633,829.246081 690.098633,831.785156 L690.098633,831.785156 Z M688.560547,831.638672 C688.560547,829.734365 686.546407,828.049812 682.518066,826.584961 C678.489726,825.12011 673.863307,824.387695 668.638672,824.387695 C661.460902,824.387695 654.917998,825.95018 649.009766,829.075195 C661.949283,833.274435 672.837846,835.374023 681.675781,835.374023 C686.265648,835.374023 688.560547,834.128919 688.560547,831.638672 L688.560547,831.638672 Z M667.90625,879.026367 C667.90625,875.510725 666.514662,872.60548 663.731445,870.310547 C660.948228,868.015614 657.432638,866.868164 653.18457,866.868164 C642.686471,866.868164 632.432667,871.226031 622.422852,879.941895 C612.413036,888.657758 607.408203,897.556595 607.408203,906.638672 C607.408203,909.275404 608.213859,911.960924 609.825195,914.695312 C612.657241,915.232425 615.269519,915.500977 617.662109,915.500977 C629.185604,915.500977 640.440375,911.509317 651.426758,903.525879 C662.413141,895.542441 667.90625,887.376018 667.90625,879.026367 L667.90625,879.026367 Z" id="E" sketch:type="MSShapeGroup"></path>
        </g>
    </g>
</svg>