<?xml version="1.0" encoding="utf-8"?>
<!-- Generator: Adobe Illustrator 18.1.0, SVG Export Plug-In . SVG Version: 6.00 Build 0)  -->
<svg version="1.1" id="Layer_1" xmlns:sketch="http://www.bohemiancoding.com/sketch/ns"
	 xmlns="http://www.w3.org/2000/svg" xmlns:xlink="http://www.w3.org/1999/xlink" x="0px" y="0px" viewBox="-284 370 43 54"
	 enable-background="new -284 370 43 54" xml:space="preserve">
<title>apps</title>
<desc>Created with Sketch.</desc>
<g id="Casepagina" sketch:type="MSPage">
	<g id="Desktop" transform="translate(-333.000000, -1814.000000)" sketch:type="MSArtboardGroup">
		<g id="apps" transform="translate(335.000000, 1816.000000)" sketch:type="MSLayerGroup">
			<g id="Fill-9" sketch:type="MSShapeGroup">
				<path fill="#FFFFFE" d="M-282.7,412.7c-1.3,0-2.3-1-2.3-2.3v-39c0-1.3,1.1-2.3,2.3-2.3h30.2c1.3,0,2.3,1,2.3,2.3v39
					c0,1.3-1.1,2.3-2.3,2.3H-282.7z M-254.6,407.3v-33.8h-25.9v33.8H-254.6z"/>
				<path fill="#353134" d="M-252.4,370c0.7,0,1.3,0.6,1.3,1.3v39c0,0.7-0.6,1.3-1.3,1.3h-30.2c-0.7,0-1.3-0.6-1.3-1.3v-39
					c0-0.7,0.6-1.3,1.3-1.3H-252.4 M-267.5,371.5c0.2,0,0.4-0.2,0.4-0.4c0-0.2-0.2-0.4-0.4-0.4s-0.4,0.2-0.4,0.4
					C-267.9,371.3-267.7,371.5-267.5,371.5 M-281.5,408.3h27.9v-35.8h-27.9V408.3 M-267.5,410.9c0.4,0,0.7-0.3,0.7-0.7
					c0-0.4-0.3-0.7-0.7-0.7c-0.4,0-0.7,0.3-0.7,0.7C-268.3,410.6-267.9,410.9-267.5,410.9 M-252.4,368h-30.2c-1.8,0-3.3,1.5-3.3,3.3
					v39c0,1.8,1.5,3.3,3.3,3.3h30.2c1.8,0,3.3-1.5,3.3-3.3v-39C-249.1,369.5-250.6,368-252.4,368L-252.4,368z M-279.5,374.5h23.9
					v31.8h-23.9V374.5L-279.5,374.5z"/>
			</g>
			<g id="Rectangle-459-_x2B_-Fill-12" transform="translate(24.488889, 23.333333)" sketch:type="MSShapeGroup">
				<rect id="Rectangle-459" x="-282.3" y="372.5" fill="#F7F7F7" width="10.1" height="20.8"/>
				<g id="Fill-12">
					<path fill="#FFFFFE" d="M-281.9,397.6c-0.9,0-3.2,0-3.2-2.2v-24.2c0-2.1,2.1-2.1,3.2-2.1h9.7c1.1,0,3.1,0,3.1,2.1v24.2
						c0,2.2-2.3,2.2-3.1,2.2H-281.9z M-272.7,392.4v-18.9h-8.7v18.9H-272.7z"/>
					<path fill="#353134" d="M-272.2,370.1c1.2,0,2.1,0,2.1,1.1v24.2c0,1.1-1,1.2-2.1,1.2h-9.7c-1.2,0-2.2-0.1-2.2-1.2v-24.2
						c0-1.1,1-1.1,2.2-1.1H-272.2 M-278.1,371.5h2.1c0.1,0,0.2-0.1,0.2-0.2c0-0.1-0.1-0.2-0.2-0.2h-2.1c-0.1,0-0.2,0.1-0.2,0.2
						C-278.3,371.4-278.2,371.5-278.1,371.5 M-282.4,393.4h10.7v-20.9h-10.7V393.4 M-277.1,396c0.4,0,0.7-0.3,0.7-0.6
						s-0.3-0.6-0.7-0.6c-0.4,0-0.7,0.3-0.7,0.6S-277.4,396-277.1,396 M-272.2,368.1h-9.7c-2.8,0-4.2,1-4.2,3.1v24.2
						c0,1.4,0.7,3.2,4.2,3.2h9.7c3.4,0,4.1-1.7,4.1-3.2v-24.2C-268.1,369.1-269.4,368.1-272.2,368.1L-272.2,368.1z M-280.4,374.5
						h6.7v16.9h-6.7V374.5L-280.4,374.5z"/>
				</g>
			</g>
		</g>
	</g>
</g>
</svg>
