<?xml version="1.0" encoding="utf-8"?>
<!-- Generator: Adobe Illustrator 16.0.0, SVG Export Plug-In . SVG Version: 6.00 Build 0)  -->
<!DOCTYPE svg PUBLIC "-//W3C//DTD SVG 1.1//EN" "http://www.w3.org/Graphics/SVG/1.1/DTD/svg11.dtd">
<svg version="1.1" id="Layer_1" xmlns="http://www.w3.org/2000/svg" xmlns:xlink="http://www.w3.org/1999/xlink" x="0px" y="0px"
	 width="189.584px" height="158.147px" viewBox="0 0 189.584 158.147" enable-background="new 0 0 189.584 158.147"
	 xml:space="preserve">
<g id="Casepagina" >
	<g id="Desktop" transform="translate(-997.000000, -3585.000000)" >
		<g id="Group_1_" transform="translate(258.000000, 3548.000000)" >
			<g id="slim_adverteren_groot" transform="translate(739.000000, 38.000000)" >
				<g>
					<path id="Rectangle-204_1_" fill="#FFFFFF" d="M6,23.147h91.077c2.21,0,4,1.791,4,4v45.756c0,2.209-1.79,4-4,4H6
						c-2.209,0-4-1.791-4-4V27.147C2,24.938,3.791,23.147,6,23.147z"/>
					<path fill="#353234" d="M97.077,78.903H6c-3.309,0-6-2.691-6-6V27.147c0-3.309,2.691-6,6-6h91.077c3.309,0,6,2.691,6,6v45.756
						C103.077,76.212,100.386,78.903,97.077,78.903z M6,25.147c-1.103,0-2,0.897-2,2v45.756c0,1.103,0.897,2,2,2h91.077
						c1.103,0,2-0.897,2-2V27.147c0-1.103-0.897-2-2-2H6z"/>
				</g>
				<g>
					<path id="Rectangle-204_2_" fill="#FFFFFF" d="M20,37.147h91.077c2.21,0,4,1.791,4,4v45.756c0,2.209-1.79,4-4,4H20
						c-2.209,0-4-1.791-4-4V41.147C16,38.938,17.791,37.147,20,37.147z"/>
					<path fill="#353234" d="M111.077,92.903H20c-3.309,0-6-2.691-6-6V41.147c0-3.309,2.691-6,6-6h91.077c3.309,0,6,2.691,6,6
						v45.756C117.077,90.212,114.386,92.903,111.077,92.903z M20,39.147c-1.103,0-2,0.897-2,2v45.756c0,1.103,0.897,2,2,2h91.077
						c1.103,0,2-0.897,2-2V41.147c0-1.103-0.897-2-2-2H20z"/>
				</g>
				<g>
					<path id="Rectangle-205_1_" fill="#FFFFFF" d="M34,51.147h91.077c2.21,0,4,1.791,4,4v45.756c0,2.209-1.79,4-4,4H34
						c-2.209,0-4-1.791-4-4V55.147C30,52.938,31.791,51.147,34,51.147z"/>
					<path fill="#353234" d="M125.077,106.903H34c-3.309,0-6-2.691-6-6V55.147c0-3.309,2.691-6,6-6h91.077c3.309,0,6,2.691,6,6
						v45.756C131.077,104.212,128.386,106.903,125.077,106.903z M34,53.147c-1.103,0-2,0.897-2,2v45.756c0,1.103,0.897,2,2,2h91.077
						c1.103,0,2-0.897,2-2V55.147c0-1.103-0.897-2-2-2H34z"/>
				</g>
				<g id="Group-2" transform="translate(127.000000, 33.000000)">
					<rect id="Rectangle-200" x="2" y="17.147" fill="#353234" width="58.584" height="56.045"/>
					<g>
						<path id="Oval-30_1_" fill="#FFFFFF" d="M31.292,88.875c16.177,0,29.292-7.196,29.292-16.074S47.469,56.728,31.292,56.728
							C15.114,56.728,2,63.923,2,72.801S15.114,88.875,31.292,88.875z"/>
						<path fill="#353234" d="M31.292,90.875C13.745,90.875,0,82.936,0,72.801s13.745-18.073,31.292-18.073
							s31.292,7.938,31.292,18.073S48.839,90.875,31.292,90.875z M31.292,58.728C16.498,58.728,4,65.172,4,72.801
							s12.498,14.074,27.292,14.074s27.292-6.445,27.292-14.074S46.086,58.728,31.292,58.728z"/>
					</g>
					<g>
						<path id="Oval-30_2_" fill="#FFFFFF" d="M31.292,77.682c16.177,0,29.292-7.196,29.292-16.074
							c0-8.877-13.115-16.073-29.292-16.073C15.114,45.534,2,52.73,2,61.607C2,70.485,15.114,77.682,31.292,77.682z"/>
						<path fill="#353234" d="M31.292,79.682C13.745,79.682,0,71.742,0,61.607s13.745-18.073,31.292-18.073
							s31.292,7.938,31.292,18.073S48.839,79.682,31.292,79.682z M31.292,47.534C16.498,47.534,4,53.979,4,61.607
							s12.498,14.074,27.292,14.074s27.292-6.445,27.292-14.074S46.086,47.534,31.292,47.534z"/>
					</g>
					<g>
						<path id="Oval-31_1_" fill="#FFFFFF" d="M31.292,66.488c16.177,0,29.292-7.196,29.292-16.073
							c0-8.878-13.115-16.074-29.292-16.074C15.114,34.341,2,41.537,2,50.415C2,59.292,15.114,66.488,31.292,66.488z"/>
						<path fill="#353234" d="M31.292,68.488C13.745,68.488,0,60.55,0,50.415C0,40.28,13.745,32.341,31.292,32.341
							s31.292,7.939,31.292,18.074C62.584,60.55,48.839,68.488,31.292,68.488z M31.292,36.341C16.498,36.341,4,42.786,4,50.415
							s12.498,14.073,27.292,14.073s27.292-6.444,27.292-14.073S46.086,36.341,31.292,36.341z"/>
					</g>
					<g>
						<path id="Oval-32_1_" fill="#FFFFFF" d="M31.292,55.295c16.177,0,29.292-7.196,29.292-16.074
							c0-8.877-13.115-16.073-29.292-16.073C15.114,23.147,2,30.344,2,39.221C2,48.099,15.114,55.295,31.292,55.295z"/>
						<path fill="#353234" d="M31.292,57.295C13.745,57.295,0,49.355,0,39.221s13.745-18.073,31.292-18.073
							s31.292,7.938,31.292,18.073S48.839,57.295,31.292,57.295z M31.292,25.147C16.498,25.147,4,31.592,4,39.221
							c0,7.629,12.498,14.074,27.292,14.074s27.292-6.445,27.292-14.074C58.584,31.592,46.086,25.147,31.292,25.147z"/>
					</g>
					<g>
						<path id="Oval-32_2_" fill="#FFFFFF" d="M31.292,44.295c16.177,0,29.292-7.196,29.292-16.074
							c0-8.877-13.115-16.073-29.292-16.073C15.114,12.147,2,19.344,2,28.221C2,37.099,15.114,44.295,31.292,44.295z"/>
						<path fill="#353234" d="M31.292,46.295C13.745,46.295,0,38.356,0,28.221c0-10.135,13.745-18.073,31.292-18.073
							s31.292,7.938,31.292,18.073C62.584,38.356,48.839,46.295,31.292,46.295z M31.292,14.147C16.498,14.147,4,20.592,4,28.221
							c0,7.629,12.498,14.074,27.292,14.074s27.292-6.445,27.292-14.074C58.584,20.592,46.086,14.147,31.292,14.147z"/>
					</g>
					<g>
						<path id="Oval-33_1_" fill="#FFFFFF" d="M31.292,33.295c16.177,0,29.292-7.196,29.292-16.074
							c0-8.877-13.115-16.073-29.292-16.073C15.114,1.147,2,8.344,2,17.221C2,26.099,15.114,33.295,31.292,33.295z"/>
						<path fill="#353234" d="M31.292,35.295C13.745,35.295,0,27.356,0,17.221C0,7.086,13.745-0.853,31.292-0.853
							s31.292,7.938,31.292,18.073C62.584,27.356,48.839,35.295,31.292,35.295z M31.292,3.147C16.498,3.147,4,9.592,4,17.221
							c0,7.629,12.498,14.074,27.292,14.074s27.292-6.445,27.292-14.074C58.584,9.592,46.086,3.147,31.292,3.147z"/>
					</g>
				</g>
				<g id="Group-2_1_" transform="translate(73.000000, 0.000000)">
					<rect id="Rectangle-200_1_" x="2" y="17.147" fill="#353234" width="58.584" height="89.045"/>
					<g>
						<path id="Oval-30_3_" fill="#FFFFFF" d="M31.292,121.875c16.177,0,29.292-7.196,29.292-16.074S47.469,89.728,31.292,89.728
							C15.114,89.728,2,96.923,2,105.801S15.114,121.875,31.292,121.875z"/>
						<path fill="#353234" d="M31.292,123.875C13.745,123.875,0,115.936,0,105.801s13.745-18.073,31.292-18.073
							s31.292,7.938,31.292,18.073S48.839,123.875,31.292,123.875z M31.292,91.728C16.498,91.728,4,98.172,4,105.801
							s12.498,14.074,27.292,14.074s27.292-6.445,27.292-14.074S46.086,91.728,31.292,91.728z"/>
					</g>
					<g>
						<path id="Oval-30_4_" fill="#FFFFFF" d="M31.292,110.682c16.177,0,29.292-7.196,29.292-16.074
							c0-8.877-13.115-16.073-29.292-16.073C15.114,78.534,2,85.73,2,94.607C2,103.485,15.114,110.682,31.292,110.682z"/>
						<path fill="#353234" d="M31.292,112.682C13.745,112.682,0,104.742,0,94.607s13.745-18.073,31.292-18.073
							s31.292,7.938,31.292,18.073S48.839,112.682,31.292,112.682z M31.292,80.534C16.498,80.534,4,86.979,4,94.607
							s12.498,14.074,27.292,14.074s27.292-6.445,27.292-14.074S46.086,80.534,31.292,80.534z"/>
					</g>
					<g>
						<path id="Oval-31_2_" fill="#FFFFFF" d="M31.292,99.488c16.177,0,29.292-7.196,29.292-16.073
							c0-8.878-13.115-16.074-29.292-16.074C15.114,67.341,2,74.537,2,83.415C2,92.292,15.114,99.488,31.292,99.488z"/>
						<path fill="#353234" d="M31.292,101.488C13.745,101.488,0,93.55,0,83.415C0,73.28,13.745,65.341,31.292,65.341
							s31.292,7.939,31.292,18.074C62.584,93.55,48.839,101.488,31.292,101.488z M31.292,69.341C16.498,69.341,4,75.786,4,83.415
							s12.498,14.073,27.292,14.073s27.292-6.444,27.292-14.073S46.086,69.341,31.292,69.341z"/>
					</g>
					<g>
						<path id="Oval-32_3_" fill="#FFFFFF" d="M31.292,88.295c16.177,0,29.292-7.196,29.292-16.074
							c0-8.877-13.115-16.073-29.292-16.073C15.114,56.147,2,63.344,2,72.221C2,81.099,15.114,88.295,31.292,88.295z"/>
						<path fill="#353234" d="M31.292,90.295C13.745,90.295,0,82.355,0,72.221s13.745-18.073,31.292-18.073
							s31.292,7.938,31.292,18.073S48.839,90.295,31.292,90.295z M31.292,58.147C16.498,58.147,4,64.592,4,72.221
							c0,7.629,12.498,14.074,27.292,14.074s27.292-6.445,27.292-14.074C58.584,64.592,46.086,58.147,31.292,58.147z"/>
					</g>
					<g>
						<path id="Oval-32_4_" fill="#FFFFFF" d="M31.292,77.295c16.177,0,29.292-7.196,29.292-16.074
							c0-8.877-13.115-16.073-29.292-16.073C15.114,45.147,2,52.344,2,61.221C2,70.099,15.114,77.295,31.292,77.295z"/>
						<path fill="#353234" d="M31.292,79.295C13.745,79.295,0,71.356,0,61.221c0-10.135,13.745-18.073,31.292-18.073
							s31.292,7.938,31.292,18.073C62.584,71.356,48.839,79.295,31.292,79.295z M31.292,47.147C16.498,47.147,4,53.592,4,61.221
							c0,7.629,12.498,14.074,27.292,14.074s27.292-6.445,27.292-14.074C58.584,53.592,46.086,47.147,31.292,47.147z"/>
					</g>
					<g>
						<path id="Oval-33_2_" fill="#FFFFFF" d="M31.292,66.295c16.177,0,29.292-7.196,29.292-16.074
							c0-8.877-13.115-16.073-29.292-16.073C15.114,34.147,2,41.344,2,50.221C2,59.099,15.114,66.295,31.292,66.295z"/>
						<path fill="#353234" d="M31.292,68.295C13.745,68.295,0,60.356,0,50.221c0-10.135,13.745-18.073,31.292-18.073
							s31.292,7.938,31.292,18.073C62.584,60.356,48.839,68.295,31.292,68.295z M31.292,36.147C16.498,36.147,4,42.592,4,50.221
							c0,7.629,12.498,14.074,27.292,14.074s27.292-6.445,27.292-14.074C58.584,42.592,46.086,36.147,31.292,36.147z"/>
					</g>
					<g>
						<path id="Oval-33_3_" fill="#FFFFFF" d="M31.292,55.147c16.177,0,29.292-7.196,29.292-16.073
							C60.584,30.196,47.469,23,31.292,23C15.114,23,2,30.196,2,39.074C2,47.951,15.114,55.147,31.292,55.147z"/>
						<path fill="#353234" d="M31.292,57.147C13.745,57.147,0,49.209,0,39.074C0,28.939,13.745,21,31.292,21
							s31.292,7.939,31.292,18.074C62.584,49.209,48.839,57.147,31.292,57.147z M31.292,25C16.498,25,4,31.445,4,39.074
							c0,7.628,12.498,14.073,27.292,14.073s27.292-6.445,27.292-14.073C58.584,31.445,46.086,25,31.292,25z"/>
					</g>
					<g>
						<path id="Oval-34_1_" fill="#FFFFFF" d="M31.292,44.147c16.177,0,29.292-7.196,29.292-16.073
							C60.584,19.196,47.469,12,31.292,12C15.114,12,2,19.196,2,28.074C2,36.951,15.114,44.147,31.292,44.147z"/>
						<path fill="#353234" d="M31.292,46.147C13.745,46.147,0,38.209,0,28.074C0,17.939,13.745,10,31.292,10
							s31.292,7.939,31.292,18.074C62.584,38.209,48.839,46.147,31.292,46.147z M31.292,14C16.498,14,4,20.445,4,28.074
							c0,7.628,12.498,14.073,27.292,14.073s27.292-6.445,27.292-14.073C58.584,20.445,46.086,14,31.292,14z"/>
					</g>
					<g>
						<path id="Oval-35_1_" fill="#FFFFFF" d="M31.292,33.147c16.177,0,29.292-7.196,29.292-16.073C60.584,8.196,47.469,1,31.292,1
							C15.114,1,2,8.196,2,17.074C2,25.951,15.114,33.147,31.292,33.147z"/>
						<path fill="#353234" d="M31.292,35.147C13.745,35.147,0,27.209,0,17.074C0,6.939,13.745-1,31.292-1
							s31.292,7.939,31.292,18.074C62.584,27.209,48.839,35.147,31.292,35.147z M31.292,3C16.498,3,4,9.445,4,17.074
							c0,7.628,12.498,14.073,27.292,14.073s27.292-6.445,27.292-14.073C58.584,9.445,46.086,3,31.292,3z"/>
					</g>
				</g>
				<g id="Group" transform="translate(99.077253, 88.272727)">
					<rect id="Rectangle-200_2_" x="2" y="17.147" fill="#353234" width="58.584" height="34.046"/>
					<g>
						<path id="Oval-30_5_" fill="#FFFFFF" d="M31.292,66.875c16.178,0,29.292-7.196,29.292-16.074
							c0-8.877-13.114-16.074-29.292-16.074S2,41.924,2,50.801C2,59.678,15.114,66.875,31.292,66.875z"/>
						<path fill="#353234" d="M31.292,68.875C13.745,68.875,0,60.935,0,50.801s13.745-18.074,31.292-18.074
							s31.292,7.939,31.292,18.074S48.839,68.875,31.292,68.875z M31.292,36.726C16.498,36.726,4,43.172,4,50.801
							s12.498,14.074,27.292,14.074s27.292-6.445,27.292-14.074S46.086,36.726,31.292,36.726z"/>
					</g>
					<g>
						<path id="Oval-30_6_" fill="#FFFFFF" d="M31.292,55.681c16.178,0,29.292-7.196,29.292-16.074
							c0-8.877-13.114-16.073-29.292-16.073S2,30.73,2,39.607C2,48.485,15.114,55.681,31.292,55.681z"/>
						<path fill="#353234" d="M31.292,57.681C13.745,57.681,0,49.742,0,39.607s13.745-18.073,31.292-18.073
							s31.292,7.938,31.292,18.073S48.839,57.681,31.292,57.681z M31.292,25.534C16.498,25.534,4,31.978,4,39.607
							s12.498,14.074,27.292,14.074s27.292-6.445,27.292-14.074S46.086,25.534,31.292,25.534z"/>
					</g>
					<g>
						<path id="Oval-31_3_" fill="#FFFFFF" d="M31.292,44.488c16.178,0,29.292-7.196,29.292-16.074
							c0-8.877-13.114-16.073-29.292-16.073S2,19.537,2,28.414C2,37.292,15.114,44.488,31.292,44.488z"/>
						<path fill="#353234" d="M31.292,46.488C13.745,46.488,0,38.549,0,28.414s13.745-18.073,31.292-18.073
							s31.292,7.938,31.292,18.073S48.839,46.488,31.292,46.488z M31.292,14.341C16.498,14.341,4,20.785,4,28.414
							s12.498,14.074,27.292,14.074s27.292-6.445,27.292-14.074S46.086,14.341,31.292,14.341z"/>
					</g>
					<g>
						<path id="Oval-32_5_" fill="#FFFFFF" d="M31.292,33.295c16.178,0,29.292-7.195,29.292-16.073S47.47,1.147,31.292,1.147
							S2,8.343,2,17.221S15.114,33.295,31.292,33.295z"/>
						<path fill="#353234" d="M31.292,35.295C13.745,35.295,0,27.356,0,17.221S13.745-0.853,31.292-0.853
							s31.292,7.939,31.292,18.074S48.839,35.295,31.292,35.295z M31.292,3.147C16.498,3.147,4,9.592,4,17.221
							s12.498,14.073,27.292,14.073s27.292-6.444,27.292-14.073S46.086,3.147,31.292,3.147z"/>
					</g>
				</g>
			</g>
		</g>
	</g>
</g>
</svg>
