<?xml version="1.0" encoding="utf-8"?>
<!-- Generator: Adobe Illustrator 18.1.0, SVG Export Plug-In . SVG Version: 6.00 Build 0)  -->
<svg version="1.1" id="Layer_1" xmlns:sketch="http://www.bohemiancoding.com/sketch/ns"
	 xmlns="http://www.w3.org/2000/svg" xmlns:xlink="http://www.w3.org/1999/xlink" x="0px" y="0px" viewBox="-272 371 67 51"
	 enable-background="new -272 371 67 51" xml:space="preserve">
<title>dagelijkse_bezoekers</title>
<desc>Created with Sketch.</desc>
<g id="Casepagina" sketch:type="MSPage">
	<g id="Desktop" transform="translate(-321.000000, -1434.000000)" sketch:type="MSArtboardGroup">
		<g id="dagelijkse_bezoekers" transform="translate(323.000000, 1436.000000)" sketch:type="MSLayerGroup">
			<g id="Group" transform="translate(27.113703, 0.000000)" sketch:type="MSShapeGroup">
				<ellipse fill="#F7F7F7" cx="-253.8" cy="379.9" rx="9" ry="8.9"/>
				<path fill="#F7F7F7" d="M-235.9,408.2c-1.2-10.8-8.8-19.1-17.9-19.1c-9.2,0-16.8,8.3-17.9,19.1H-235.9z"/>
			</g>
			<g id="Group_1_" sketch:type="MSShapeGroup">
				<ellipse fill="#F7F7F7" cx="-254.7" cy="379.9" rx="9" ry="8.9"/>
				<path fill="#F7F7F7" d="M-236.7,408.2c-1.2-10.8-8.8-19.1-17.9-19.1c-9.2,0-16.8,8.3-17.9,19.1H-236.7z"/>
			</g>
		</g>
		<path fill="#353134" d="M115.3,1844.1c-1-9.5-6.8-17-14.2-19.3c3.2-1.7,5.3-5,5.3-8.8c0-5.5-4.5-10-10.1-10s-10.1,4.5-10.1,10
			c0,3.8,2.1,7.1,5.3,8.8c-3.5,1.1-6.7,3.4-9.2,6.5c-2.4-3.1-5.6-5.4-9.1-6.5c3.2-1.7,5.3-5,5.3-8.8c0-5.5-4.5-10-10.1-10
			c-5.6,0-10.1,4.5-10.1,10c0,3.8,2.1,7.1,5.3,8.8c-7.4,2.3-13.2,9.8-14.2,19.3l-0.1,1.2h28h10.4h28L115.3,1844.1z M88.4,1815.9
			c0-4.3,3.6-7.8,7.9-7.8s7.9,3.5,7.9,7.8s-3.6,7.8-7.9,7.8S88.4,1820.3,88.4,1815.9z M60.4,1815.9c0-4.3,3.6-7.8,7.9-7.8
			s7.9,3.5,7.9,7.8s-3.6,7.8-7.9,7.8S60.4,1820.3,60.4,1815.9z M60.6,1843.1v-6.4h0c0-0.6-0.5-1-1-1c-0.6,0-1,0.5-1,1v6.4h-6.9
			c1.5-9.7,8.5-16.9,16.7-16.9c5,0,9.5,2.7,12.7,7c-1.8,2.8-3.1,6.2-3.6,9.9H60.6z M79.6,1843.1c0.5-2.9,1.4-5.5,2.7-7.8
			c1.3,2.3,2.3,5,2.7,7.8H79.6z M106.1,1843.1v-6.4h0c0-0.6-0.5-1-1-1c-0.6,0-1,0.5-1,1v6.4H87.2c-0.5-3.7-1.8-7.1-3.6-9.9
			c3.1-4.3,7.7-7,12.7-7c8.2,0,15.2,7.2,16.7,16.9H106.1z"/>
		<g id="Group_2_" transform="translate(13.556851, 9.764706)" sketch:type="MSShapeGroup">
			<ellipse fill="#F7F7F7" cx="68.8" cy="1815.9" rx="9.2" ry="8.9"/>
			<path fill="#F7F7F7" d="M86.7,1844.6c-1.2-10.8-9-19.1-18.4-19.1s-17.2,8.3-18.4,19.1H86.7z"/>
		</g>
		<path fill="#353134" d="M101.4,1854.2c-1.1-9.6-7.1-17.2-14.8-19.4c3.6-1.6,6.1-5.1,6.1-9.2c0-5.5-4.6-10-10.3-10
			s-10.3,4.5-10.3,10c0,4,2.4,7.4,5.8,9c-8,2-14.3,9.7-15.3,19.5l-0.1,1.2h39.2L101.4,1854.2z M74.2,1825.7c0-4.3,3.7-7.8,8.1-7.8
			s8.1,3.5,8.1,7.8s-3.7,7.8-8.1,7.8S74.2,1830,74.2,1825.7z M92.4,1853.3v-6.4h0c0-0.6-0.5-1-1-1c-0.6,0-1,0.5-1,1v6.4H74.8v-6.4h0
			c0-0.6-0.5-1-1-1c-0.6,0-1,0.5-1,1v6.4h-7.9c1.6-9.7,8.7-16.9,17.1-16.9s15.5,7.2,17.1,16.9H92.4z"/>
	</g>
</g>
</svg>
