<?xml version="1.0" encoding="UTF-8" standalone="no"?>
<svg width="52px" height="50px" viewBox="0 0 52 50" version="1.1" xmlns="http://www.w3.org/2000/svg" xmlns:xlink="http://www.w3.org/1999/xlink" xmlns:sketch="http://www.bohemiancoding.com/sketch/ns">
    <!-- Generator: Sketch 3.1.1 (8761) - http://www.bohemiancoding.com/sketch -->
    <title>journalisten</title>
    <desc>Created with Sketch.</desc>
    <defs></defs>
    <g id="Casepagina" stroke="none" stroke-width="1" fill="none" fill-rule="evenodd" sketch:type="MSPage">
        <g id="Desktop" sketch:type="MSArtboardGroup" transform="translate(-328.000000, -1628.000000)" fill="#353134">
            <path d="M380,1678 L328,1678 L328,1676.6729 C328,1668.65718 343.273333,1662.13844 347.437333,1661.31033 C347.589333,1660.99315 347.733333,1660.26457 347.786667,1659.55324 C346.829333,1658.48492 344.508,1655.60113 343.638667,1651.85736 C342.753333,1651.44198 342.006667,1650.54486 341.542667,1649.28809 C340.888,1647.51906 340.838667,1645.07851 342.106667,1643.4966 C342.104,1643.47006 342.101333,1643.44485 342.098667,1643.41698 C341.86,1641.20071 341.224,1635.315 344.708,1631.45711 C346.777333,1629.16254 349.904,1628 354,1628 C358.097333,1628 361.225333,1629.16387 363.294667,1631.45844 C366.778667,1635.32031 366.138667,1641.20602 365.898667,1643.42228 C365.896,1643.4475 365.893333,1643.47139 365.890667,1643.4966 C367.16,1645.07586 367.110667,1647.51375 366.457333,1649.28278 C365.993333,1650.5422 365.246667,1651.43932 364.358667,1651.85471 C363.489333,1655.59847 361.169333,1658.48227 360.212,1659.55059 C360.265333,1660.27121 360.408,1660.99448 360.561333,1661.309 C364.725333,1662.13844 380,1668.65718 380,1676.6729 L380,1678 L380,1678 Z M330.889333,1675.34579 L377.112,1675.34579 C376.398667,1673.15209 373.989333,1670.71419 370.150667,1668.34133 C366.136,1665.85965 361.613333,1664.1583 359.892,1663.88491 C357.788,1663.55181 357.533333,1660.40126 357.522667,1659.06221 L357.517333,1658.50483 L357.916,1658.11068 C357.948,1658.07618 361.2,1654.80884 361.897333,1650.5714 L362.08,1649.45796 L363.213333,1649.45796 C363.358667,1649.42876 363.825333,1648.951 364.086667,1647.94638 C364.406667,1646.71881 364.221333,1645.47266 363.644,1644.98429 L363.144,1644.56227 L363.176,1643.90933 C363.184,1643.73548 363.212,1643.47139 363.248,1643.13696 C363.473333,1641.06535 363.998667,1636.21345 361.309333,1633.23277 C359.768,1631.52081 357.308,1630.65421 354,1630.65421 C350.693333,1630.65421 348.233333,1631.52081 346.692,1633.23145 C344.002667,1636.20814 344.526667,1641.06137 344.750667,1643.1343 C344.785333,1643.47139 344.813333,1643.73548 344.821333,1643.91331 L344.852,1644.56492 L344.353333,1644.98561 C343.778667,1645.47266 343.592,1646.71749 343.912,1647.94506 C344.172,1648.951 344.64,1649.43009 344.790667,1649.46061 L345.922667,1649.46061 L346.101333,1650.57405 C346.797333,1654.80884 350.049333,1658.0775 350.082667,1658.11201 L350.478667,1658.50483 L350.476,1659.06354 C350.465333,1660.40259 350.210667,1663.55314 348.105333,1663.88491 C346.386667,1664.1583 341.864,1665.85965 337.848,1668.34133 C334.010667,1670.71419 331.601333,1673.15209 330.889333,1675.34579 L330.889333,1675.34579 Z" id="journalisten" sketch:type="MSShapeGroup"></path>
        </g>
    </g>
</svg>