<?xml version="1.0" encoding="UTF-8" standalone="no"?>
<svg width="305px" height="55px" viewBox="0 0 305 55" version="1.1" xmlns="http://www.w3.org/2000/svg" xmlns:xlink="http://www.w3.org/1999/xlink" xmlns:sketch="http://www.bohemiancoding.com/sketch/ns">
    <!-- Generator: Sketch 3.2.2 (9983) - http://www.bohemiancoding.com/sketch -->
    <title>2dehands-be_logo</title>
    <desc>Created with Sketch.</desc>
    <defs>
        <linearGradient x1="-0.000508349018%" y1="50.0223%" x2="99.9988401%" y2="50.0223%" id="linearGradient-1">
            <stop stop-color="#FFFFFF" offset="0%"></stop>
            <stop stop-color="#878683" offset="0%"></stop>
            <stop stop-color="#858481" offset="46%"></stop>
            <stop stop-color="#7E7D7B" offset="62.6%"></stop>
            <stop stop-color="#73726F" offset="74.4%"></stop>
            <stop stop-color="#62615F" offset="84%"></stop>
            <stop stop-color="#4C4C4B" offset="92.1%"></stop>
            <stop stop-color="#313131" offset="99.2%"></stop>
            <stop stop-color="#2E2E2E" offset="100%"></stop>
        </linearGradient>
    </defs>
    <g id="Page-1" stroke="none" stroke-width="1" fill="none" fill-rule="evenodd" sketch:type="MSPage">
        <g id="Desktop-HD" sketch:type="MSArtboardGroup" transform="translate(-563.000000, -15991.000000)">
            <g id="2dehands-be_logo" sketch:type="MSLayerGroup" transform="translate(563.000000, 15991.000000)">
                <g id="Group" sketch:type="MSShapeGroup">
                    <path d="M42.9174307,42.7626856 L19.9493883,42.7626856 L19.9493883,38.228251 C27.0315579,31.950502 31.2811582,27.8778893 32.6872431,26.0018327 C34.0893475,24.1282996 34.7884095,22.4304103 34.7884095,20.9061457 C34.7884095,19.4288205 34.3326509,18.2724993 33.4121778,17.4366775 C32.4981729,16.5978273 31.184633,16.1773927 29.4765334,16.1773927 C27.1688825,16.1773927 24.8338662,17.1373765 22.4610359,19.0563347 L20.318075,13.5810958 C23.3531485,11.3007557 26.9066721,10.1585668 30.9821289,10.1585668 C34.4699755,10.1585668 37.2254241,11.086753 39.2474796,12.9370688 C41.2725204,14.7924318 42.2770799,17.2534629 42.2770799,20.3282375 C42.2770799,22.502081 41.62031,24.725892 40.3012969,27.0037085 C38.9837765,29.2800108 35.835261,32.4375601 30.8502773,36.4642429 L30.8502773,36.5550931 L42.9179282,36.5550931 L42.9179282,42.7626856 M99.7683361,33.1340783 L83.9854568,33.1340783 C84.1158157,34.5619406 84.8233361,35.6819217 86.1040375,36.4763563 C87.3931974,37.2707908 89.0007912,37.6680081 90.9218434,37.6680081 C93.3832382,37.6680081 95.6485971,37.361641 97.7159299,36.7423455 L98.6866558,41.745668 C96.2332219,42.7924642 93.2867129,43.3193954 89.862553,43.3193954 C85.8020228,43.3193954 82.6196737,42.2185938 80.3174959,40.0114386 C78.0123328,37.8169015 76.8604976,34.8052173 76.8604976,30.9940513 C76.8604976,27.4942996 77.9700408,24.4720162 80.1851468,21.9297247 C82.4032382,19.3929852 85.3825856,18.1281484 89.1425938,18.1281484 C92.5995922,18.1281484 95.2878711,19.2577193 97.1959869,21.5214035 C99.1041028,23.7850877 100.058409,26.6887611 100.058409,30.2314143 C100.060897,31.3958111 99.965367,32.362861 99.7683361,33.1340783 M83.8944046,27.9455223 L93.0299755,27.9455223 C93.0299755,26.8033333 92.7020881,25.7151498 92.0453181,24.6804669 C91.3885481,23.6488124 90.2745269,23.1324804 88.7052447,23.1324804 C87.4121044,23.1324804 86.3388825,23.5741134 85.4835889,24.4553603 C84.639739,25.342664 84.1038744,26.5055466 83.8944046,27.9455223 M104.465237,42.7626856 L104.465237,7.65261538 L111.953907,7.65261538 L111.953907,21.6253765 L112.050432,21.6253765 C112.779347,20.6088637 113.766493,19.7684993 115.0054,19.1133684 C116.244307,18.4511714 117.56332,18.1296626 118.955971,18.1296626 C121.596982,18.1296626 123.695163,19.0568394 125.244046,20.9091741 C126.794421,22.7645371 127.568116,25.4102969 127.568116,28.8202078 L127.568116,42.7626856 L120.079445,42.7626856 L120.079445,29.6782375 C120.079445,26.0518003 118.73854,24.2403482 116.063695,24.2403482 C114.955644,24.2403482 113.992382,24.6264615 113.17938,25.3906127 C112.359413,26.1547638 111.952912,27.2076167 111.952912,28.5410958 L111.952912,42.7631903 L104.465237,42.7631903 M153.880212,28.5224211 L153.880212,36.903857 C153.880212,39.3315762 154.001117,41.2904076 154.247406,42.7626856 L147.488646,42.7626856 L147.045326,40.3541457 L146.856256,40.3541457 C145.220302,42.3336707 142.911158,43.3229285 139.915392,43.3229285 C137.585848,43.3229285 135.694152,42.6057166 134.236321,41.1697787 C132.783964,39.7252605 132.055049,37.9779082 132.055049,35.9206559 C132.055049,32.9256275 133.289976,30.638726 135.759331,29.0427908 C138.230179,27.4468556 141.77425,26.6534305 146.392039,26.6534305 L146.392039,26.3500918 C146.392039,24.3306937 144.901868,23.3192281 141.934462,23.3192281 C139.512374,23.3192281 137.265922,23.930448 135.199086,25.1690391 L133.789021,20.3519595 C136.43252,18.8675682 139.582031,18.1296626 143.253475,18.1296626 C146.742814,18.1296626 149.394772,19.0194899 151.190938,20.8097436 C152.981631,22.600502 153.880212,25.1730769 153.880212,28.5224211 M146.669176,33.787695 L146.669176,31.3720891 C141.91655,31.3720891 139.543222,32.5995762 139.543222,35.0454656 C139.543222,35.9378165 139.804437,36.6237355 140.34279,37.1158408 C140.873181,37.6094602 141.614038,37.8552605 142.545954,37.8552605 C143.562953,37.8552605 144.499845,37.4994305 145.371558,36.7877706 C146.233817,36.0862051 146.669176,35.0843293 146.669176,33.787695 M159.885677,42.7626856 L159.885677,26.4162105 C159.885677,24.0339163 159.822985,21.4567989 159.70606,18.6788016 L166.184698,18.6788016 L166.527512,22.080637 L166.720563,22.080637 C168.482896,19.4444669 170.997529,18.1286532 174.250033,18.1286532 C176.92239,18.1286532 179.043458,19.0462402 180.62916,20.8667773 C182.206403,22.7054845 182.990049,25.2881538 182.990049,28.6248799 L182.990049,42.7616761 L175.502374,42.7616761 L175.502374,29.6095951 C175.502374,26.0300972 174.17938,24.2393387 171.534388,24.2393387 C170.456191,24.2393387 169.497406,24.6491741 168.648581,25.473892 C167.79478,26.293058 167.374347,27.4630067 167.374347,28.9696059 L167.374347,42.7626856 L159.885677,42.7626856 M205.286395,7.65261538 L212.775065,7.65261538 L212.775065,35.5633117 C212.775065,38.2020054 212.828303,40.5969177 212.955677,42.7611714 L206.290954,42.7611714 L205.998393,39.1180783 L205.900375,39.1180783 C204.247007,41.9238354 201.648287,43.3214143 198.115163,43.3214143 C195.180595,43.3214143 192.704274,42.1696356 190.684706,39.8615358 C188.665139,37.5509123 187.659086,34.5765776 187.659086,30.9445884 C187.659086,27.0859784 188.72783,23.9794062 190.860343,21.6384993 C192.996835,19.3001161 195.594062,18.1291579 198.664462,18.1291579 C201.713467,18.1291579 203.891754,19.0467449 205.190367,20.8894899 L205.284405,20.8894899 L205.284405,7.65211066 M205.286395,31.8606613 L205.286395,29.0478381 C205.286395,27.566475 204.858002,26.3480729 204.001215,25.393641 C203.140449,24.4392092 202.02792,23.9536653 200.6696,23.9536653 C199.024192,23.9536653 197.720106,24.5840648 196.766794,25.8271984 C195.805522,27.070332 195.330856,28.7005884 195.330856,30.7310904 C195.330856,32.7343374 195.804029,34.3398623 196.766794,35.5204103 C197.720106,36.7110526 199.005285,37.3010742 200.624821,37.3010742 C201.787602,37.3010742 202.856346,36.8665074 203.832545,36.0059541 C204.79929,35.1398489 205.286395,33.7629636 205.286395,31.8606613 M217.435147,41.5584157 L218.759633,36.0983185 C219.638312,36.5919379 220.718002,37.0017733 221.994723,37.3439757 C223.270449,37.6887018 224.400392,37.8557652 225.39699,37.8557652 C227.575277,37.8557652 228.665914,37.2213279 228.665914,35.9534629 C228.665914,35.3175115 228.400718,34.829444 227.873312,34.4761377 C227.34292,34.1283833 226.406028,33.7437841 225.059649,33.3132551 C220.402055,31.8535951 218.067039,29.4506073 218.067039,26.1123671 C218.067039,23.7961916 218.989005,21.8868232 220.808556,20.3792146 C222.6296,18.8811957 225.01885,18.1291579 227.985759,18.1291579 C230.569551,18.1291579 232.874715,18.5884561 234.878858,19.5126046 L233.551387,24.6996464 C231.670636,23.8345506 229.893377,23.4030121 228.204184,23.4030121 C226.258254,23.4030121 225.287031,24.0485533 225.287031,25.3204561 C225.287031,25.9039163 225.583573,26.3828988 226.183124,26.7826397 C226.776207,27.1717814 227.812113,27.5967584 229.28885,28.0752362 C231.554209,28.798 233.213548,29.7554602 234.280799,30.9501404 C235.34407,32.1433063 235.88292,33.6499055 235.88292,35.4815466 C235.88292,37.8623266 234.958467,39.7701808 233.11553,41.1869393 C231.274086,42.6132874 228.695767,43.3239379 225.395498,43.3239379 C222.350971,43.3214143 219.701003,42.7404777 217.435147,41.5584157 M248.342643,38.7344885 C248.342643,40.0810904 247.925196,41.1844157 247.090302,42.0409312 C246.264861,42.8908853 245.197113,43.3209096 243.889046,43.3209096 C242.597398,43.3209096 241.542088,42.8918947 240.716648,42.0283131 C239.895188,41.1677598 239.483214,40.0694818 239.483214,38.7339838 C239.483214,37.405552 239.900661,36.3022267 240.739535,35.4426829 C241.583883,34.5750634 242.647651,34.1485722 243.939299,34.1485722 C245.240897,34.1485722 246.304168,34.5760729 247.118662,35.4341026 C247.931664,36.2845614 248.342643,37.390915 248.342643,38.7344885 M252.804201,35.5178866 L252.804201,7.65261538 L260.294364,7.65261538 L260.294364,21.6253765 L260.389396,21.6253765 C262.040277,19.2925452 264.534511,18.1296626 267.867121,18.1296626 C270.827561,18.1296626 273.25363,19.2496437 275.15876,21.4870823 C277.063891,23.7341107 278.01571,26.67261 278.01571,30.3045992 C278.01571,32.7863239 277.539551,35.0252767 276.589225,37.0239811 C275.637406,39.0201619 274.289535,40.5721862 272.539641,41.6755115 C270.788254,42.7722753 268.89407,43.3224238 266.847137,43.3224238 C263.496615,43.3224238 261.032235,42.0076194 259.453499,39.3704399 L259.358467,39.3704399 L259.018638,42.7626856 L252.627569,42.7626856 C252.741509,40.5984318 252.804201,38.177274 252.804201,35.5178866 M260.295856,29.228529 L260.295856,32.4108097 C260.295856,34.0607503 260.785449,35.3089312 261.771101,36.174027 C262.7473,37.0502267 263.836941,37.4832794 265.028083,37.4832794 C266.669511,37.4832794 267.964144,36.8791255 268.918948,35.6733414 C269.870767,34.4594818 270.341452,32.7943995 270.341452,30.6740567 C270.341452,28.6491066 269.870767,27.0269258 268.929894,25.800448 C267.991509,24.5729609 266.688915,23.9521511 265.029576,23.9521511 C263.742904,23.9521511 262.626892,24.4447611 261.69398,25.4294764 C260.765049,26.4091444 260.295856,27.6724669 260.295856,29.228529 M304.215359,33.1340783 L288.428499,33.1340783 C288.560351,34.5619406 289.267374,35.6819217 290.550065,36.4763563 C291.836737,37.2707908 293.445326,37.6680081 295.369364,37.6680081 C297.834739,37.6680081 300.095122,37.361641 302.16345,36.7423455 L303.135669,41.745668 C300.679747,42.7924642 297.735726,43.3193954 294.308581,43.3193954 C290.249543,43.3193954 287.067194,42.2185938 284.762031,40.0114386 C282.459853,37.8169015 281.305033,34.8052173 281.305033,30.9940513 C281.305033,27.4942996 282.418556,24.4720162 284.63416,21.9297247 C286.842798,19.3929852 289.837072,18.1281484 293.582153,18.1281484 C297.0496,18.1281484 299.732904,19.2577193 301.642015,21.5214035 C303.551126,23.7850877 304.504437,26.6887611 304.504437,30.2314143 C304.502447,31.3958111 304.407414,32.362861 304.215359,33.1340783 M288.337447,27.9455223 L297.47053,27.9455223 C297.47053,26.8033333 297.144135,25.7151498 296.491346,24.6804669 C295.834576,23.6488124 294.71956,23.1324804 293.152765,23.1324804 C291.850171,23.1324804 290.782423,23.5741134 289.931109,24.4553603 C289.078801,25.342664 288.549902,26.5055466 288.337447,27.9455223" id="Shape" fill="#0065A4"></path>
                    <path d="M0,18.8382942 L8.53452692,34.019363 L17.1790131,18.8382942 L0,18.8382942 L0,18.8382942 Z M55.3537684,37.3041026 C55.7836542,36.2653819 51.4061827,32.6318785 54.1994454,24.6032443 C54.7666558,22.9755115 58.0221452,23.250081 56.3453915,18.7640999 C55.1049918,15.4450391 52.7893801,11.4476302 50.3090783,8.93259379 C47.8233034,6.41351957 45.1862724,4.17204318 41.9661093,2.78859649 C38.6305139,1.35518219 35.8238173,0.577403509 31.6622838,0.475449393 C28.0137276,0.387122807 23.8785644,1.00389474 20.5464519,2.43680432 C17.3247961,3.82025101 14.4350082,5.79876653 11.9522186,8.31632659 C9.47042414,10.8323725 7.52051387,13.7678435 6.15522838,17.0374413 C5.83579935,17.8046208 5.55119902,18.5783617 5.30391517,19.3591687 L11.3730669,19.3662348 L11.4059054,19.287498 C12.481615,16.7093711 14.0180587,14.3916815 15.9833931,12.4050904 C17.9427569,10.4119379 20.2260277,8.85183806 22.7680261,7.76163563 C25.395106,6.63610256 28.1938418,6.06374629 31.0756688,6.06374629 C33.9560033,6.06374629 36.7109543,6.80468016 39.3425122,7.93021323 C41.8869984,9.01991093 43.8518352,10.7208286 45.8141843,12.7154953 C47.7735481,14.7030958 49.4557749,17.483112 50.5299918,20.0582105 C51.6410277,22.7261781 51.8465171,24.9207152 51.8465171,27.8465965 C51.8465171,30.7739919 51.0917292,33.6322402 49.982186,36.3027314 L55.3537684,37.3041026 Z" id="Shape" fill="#686765"></path>
                    <path d="M51.737553,26.9345614 C51.737553,29.8604426 51.4111582,32.6995115 50.301615,35.3684885 C49.2298858,37.9466154 48.0317781,40.1265155 46.0699266,42.1166397 C44.1075775,44.1042402 41.8840131,45.8510877 39.3425122,46.9463374 C36.712447,48.0703563 34.3654894,48.7880729 31.4811746,48.7880729 C28.6023328,48.7880729 25.8702692,48.534197 23.2416966,47.408664 C20.7016884,46.3134143 18.7025204,45.3297085 16.7416639,43.342108 C15.169894,41.7486964 13.2916313,39.27 12.2811011,37.2864372 L6.07611746,37.2465641 L6.36967374,37.9748799 C7.73346656,41.2389258 9.7271615,44.1991282 12.2064682,46.7182024 C17.9915171,52.5851066 25.2080261,55.0749069 33.8256444,54.2335331 C36.3726183,53.983695 39.2499674,53.2553792 41.6108564,52.24139 C48.0337684,49.48661 53.7695595,43.4884777 55.889633,36.7044912 C56.2185155,35.652143 53.1864274,33.6806937 54.158646,29.7726208 C54.6741109,27.6966937 54.9393067,26.4934332 54.416876,24.1843239" id="Shape" fill="url(#linearGradient-1)"></path>
                    <path d="M64.7147308,7.65261538 L72.2009135,7.65261538 L72.2009135,35.5633117 C72.2009135,38.2020054 72.266093,40.5969177 72.3845106,42.7611714 L65.7197879,42.7611714 L65.4272268,39.1180783 L65.3307015,39.1180783 C63.6773328,41.9238354 61.0825938,43.3214143 57.5479772,43.3214143 C54.609429,43.3214143 52.1301223,42.1696356 50.1175204,39.8615358 C48.0954649,37.5509123 47.0864274,34.5765776 47.0864274,30.9445884 C47.0864274,27.0859784 48.1541762,23.9794062 50.2886786,21.6384993 C52.4236786,19.3001161 55.0238907,18.1291579 58.0918026,18.1291579 C61.1393148,18.1291579 63.3151142,19.0467449 64.6137276,20.8894899 L64.7132382,20.8894899 L64.7132382,7.65211066 M64.7147308,31.8606613 L64.7147308,29.0478381 C64.7147308,27.566475 64.2878303,26.3480729 63.4295514,25.393641 C62.5712724,24.4392092 61.4592414,23.9536653 60.1019168,23.9536653 C58.4485481,23.9536653 57.1454568,24.5840648 56.1911501,25.8271984 C55.2378385,27.070332 54.7606852,28.7005884 54.7606852,30.7310904 C54.7606852,32.7338327 55.2378385,34.3398623 56.1911501,35.5204103 C57.1459543,36.7110526 58.4351142,37.3010742 60.0506688,37.3010742 C61.2134502,37.3010742 62.2861746,36.8665074 63.257398,36.0059541 C64.2296166,35.1398489 64.7147308,33.7629636 64.7147308,31.8606613" id="Shape" fill="#0065A4"></path>
                </g>
            </g>
        </g>
    </g>
</svg>