<?xml version="1.0" encoding="utf-8"?>
<!-- Generator: Adobe Illustrator 18.1.0, SVG Export Plug-In . SVG Version: 6.00 Build 0)  -->
<svg version="1.1" id="Laag_1" xmlns="http://www.w3.org/2000/svg" xmlns:xlink="http://www.w3.org/1999/xlink" x="0px" y="0px"
	 viewBox="0 0 841.9 595.3" enable-background="new 0 0 841.9 595.3" xml:space="preserve">
<path fill="#DDDDDD" d="M676,268.4c-25.1-15-54.4-23.3-81.2-34.9c-18.8-8.1-37.3-16.8-55.5-26c-0.1-0.1-0.3-0.2-0.5-0.3
	c-0.2-0.1-0.4-0.2-0.6-0.3c-1.3-0.6-2.6-1.3-3.8-1.9c-1.9-5.1-3.8-10.2-5.7-15.3c4.1,0,8.1,0.1,12.2,0.1c1.2,0,1.9-1.3,1.3-2.3
	c-3.1-5.3-6.1-10.7-8.9-16.2c-3.1-6.1-11.5-17.9-2.9-23.1c4.6-2.8,12.2-3.4,17.4-4.8c6.8-1.9,13.6-3.8,20.3-5.6
	c1.3-0.4,1.5-2.1,0.4-2.8c-14.8-9-29.6-18-44.5-26.9c6.9-4.9,13.7-9.9,20.6-14.8c1.3-0.9,0.8-2.8-0.8-2.9
	c-8.6-0.6-17.1-1.3-25.7-1.9c-8.4-0.6-17.4-0.4-25.7-1.9c-3-0.6-8.1-2.2-9.4-5.5c-0.4-1.2,0.5-3.9,0.6-5.1c0.5-3.8,1-7.7,1.5-11.5
	c1.2-8.6,2.3-17.3,3.5-25.9c0.1-1-1.1-1.8-2-1.5l-48.2,17.3c1.5-5.3,2.6-10.6,3-16c0.3-3.7,1.7-10.3-1.4-13.3
	c-2.3-2.3-5.7-1.4-8.6-1.1c-6.7,0.8-13.5,1.9-20.1,3.1c-14,2.6-27.8,6.2-41.4,10.6c-6.2,2-18.8,9.7-24.6,4.7c-2.3-2-4-7.5-5.5-10.3
	c-1.8-3.4-3.7-6.8-5.5-10.3c-0.7-1.2-2.4-0.8-2.8,0.4c-3,9.3-6,18.6-9,27.8l-4.5,13.9c-1.7,5.2-2.5,14.1-9.9,14.2
	c-4.4,0-10.3-3.2-14.5-4.5c-4.4-1.3-8.7-2.7-13.1-4c-10.2-3.1-20.3-6.2-30.5-9.4c-1.4-0.4-2.2,1.1-1.7,2.3
	c4.1,9.4,8.2,18.9,12.2,28.3c2.3,5.3,5.7,11.1,7.2,16.7c2.2,8.5-2.6,11.8-8.6,15.2c-7.8,4.4-15.2,9.3-22.2,14.8
	c-3.4,2.7-12,7.5-10.8,13c1.1,5.1,10.9,7.7,14.7,9.7c8.6,4.5,17.1,9.4,25.3,14.7c5.8,3.7,13.4,6.7,13.5,15c0,4.5-2.6,10.3-3.7,14.7
	c-2.7,10.8-5.5,21.6-8.2,32.3c-0.3,1.3,1.1,2.5,2.3,1.7c9.2-5.8,17.1-13,23.8-21.3c0,0.2,0,0.3,0.1,0.5c0.2-0.2,0.4-0.4,0.7-0.6
	c0.2-1,0.7-1.5,1.7-2.3c0,0,0,0,0,0c-0.1-1.4-0.2-2.7-0.3-4.1c-0.4,0.6-1.1,1-1.8,0.8c0,0-0.1,0.1-0.1,0.1c-0.2,0.1-0.4,0.2-0.6,0.2
	c0,0.3,0,0.6,0,0.8c-6,8.2-13.3,15.3-21.7,21.1c2.5-10,5-19.9,7.6-29.9c1.5-5.8,6.5-16,2.5-21.7c-1.9-2.7-5.6-4.5-8.2-6.2
	c-4.3-2.8-8.6-5.5-13-8.2c-4.4-2.6-8.8-5.2-13.3-7.6c-2.4-1.3-4.9-2.6-7.4-3.9c-1.2-0.6-6.8-2.7-7.5-3.8c-4.5-7,6.3-12.7,10.8-16
	c4.1-3,8.3-5.8,12.7-8.4c5.6-3.4,14.8-6.3,16-13.7c1.1-6.8-4.4-15.3-7-21.1c-4.2-9.7-8.4-19.4-12.6-29.2l34.6,10.6
	c5.8,1.8,11.6,3.6,17.4,5.3c2.8,0.8,6.5,2.5,9.4,1c2.1-1.1,2.8-3.2,3.6-5.3c2.1-5.4,3.6-11.2,5.4-16.7c3.5-10.9,7-21.8,10.5-32.7
	c2.7,4.9,5.3,9.9,8,14.8c1.3,2.4,2.6,5.7,5.5,6.7c4,1.4,9.6-2.4,13.2-3.7c6.7-2.5,13.5-4.7,20.3-6.7c12.8-3.8,25.7-6.7,38.9-8.9
	c7.3-1.2,19.7-5.8,19.4,5.5c-0.3,7.6-1.7,14.9-4,22.1c-0.3,1.1,0.8,2.3,1.9,1.9c16.2-5.8,32.5-11.6,48.7-17.5
	c-1.3,9.8-2.6,19.6-3.9,29.3c-0.7,5.6-4,14.7,2.6,18c2.5,1.3,5.8,1.2,8.5,1.4c5.5,0.4,11.1,0.8,16.6,1.2c10.1,0.8,20.3,1.5,30.4,2.3
	c-6.3,4.6-12.7,9.1-19,13.7c-0.9,0.7-1.1,2,0,2.7c14.5,8.8,28.9,17.5,43.4,26.3l-25.6,7.1c-4.3,1.2-12.2,1.7-14.8,6.1
	c-2.8,4.7,1,10.8,2.9,15c3.6,7.8,7.6,15.4,11.9,22.9l-11.8-0.1c-0.9,0-1.8,1-1.5,2c1.8,4.8,3.6,9.6,5.3,14.5
	c-0.2-0.1-0.4-0.2-0.6-0.3c-0.3-0.6-1-1-1.7-0.9c-8.6-4.4-17.1-8.8-25.5-13.4c-0.3-0.2-0.6-0.2-0.9-0.2c0-0.2,0-0.5-0.1-0.7
	c-0.1,0-0.2,0-0.3,0h-0.1c0.3,1.5,0.4,3,0.5,4.5c0.1,0,0.1,0,0.2,0.1c0-0.2,0-0.4,0-0.5c4.4,2.4,8.7,4.7,13.1,7
	c-4.8,4.8-7.6,10.9-11.5,16.2c-0.4,13.2-3.1,25.5-6.9,38.3c0.2,0.2,0.5,0.3,0.7,0.5c0-0.1,0.1-0.3,0.1-0.4
	c21.2,14.4,43,28,64.6,41.9c-32,7.8-63.3,18.3-93.5,31.4c-1.8,0.8-0.2,3.4,1.6,2.7c37-16.1,75.6-28.2,115.2-36.2
	c1.9-0.4,1.1-3.4-0.8-3c-6.6,1.3-13.1,2.8-19.7,4.4c0.1-0.6,0-1.2-0.7-1.6c-22-14.2-44.3-28.1-65.9-42.8c0.1-0.2,0.1-0.5,0.1-0.7
	c0.1-0.1,0.2-0.1,0.3-0.2c1.4-1.2,2.3-2.7,2.9-4.3c8.9-13,17.2-27.1,27.3-39.1c0.3,0.1,0.5,0.3,0.8,0.4c0.1,0.2,0.3,0.4,0.5,0.5
	c2.5,1.5,5.2,2.8,8,3.8c35.3,17.3,71.4,32.7,108,47.4c12.2,4.9,29.6,10.6,38.4,20.9c10.5,12.3-4.6,28.9-13.7,37
	c-20,17.7-42.6,33.2-64.7,48.3c-24.7,16.9-50.2,32.7-76.2,47.4c-1.7,1-0.2,3.6,1.6,2.7c7.8-4.4,15.6-9,23.3-13.6
	c1.4-1.4,3.1-2.4,5.2-3.1c15.8-9.6,31.3-19.5,46.6-29.9c23-15.6,46.8-31.7,67.4-50.4c7.7-7,15.6-16,16.9-26.8
	C691.9,279.1,684.4,273.4,676,268.4z M518.1,210.9c-1.6-0.9-3.2-1.8-4.9-2.6c-1.8-0.8-0.2-3.5,1.6-2.7c1.7,0.8,3.3,1.6,4.9,2.6
	C521.4,209.2,519.8,211.9,518.1,210.9z"/>
<path display="none" d="M478.2,144.8c-10.3,6.1-21,11-32.2,15c-1.6-6.5-2.5-17.1-10.4-14.9c-10.8,3-21.5,12.9-28.9,21.4
	c-4.7-7.4-9.5-14.7-14.2-22.1c-0.5-0.7-1.3-1-2.1-0.6c-10.3,5.4-20.6,10.7-30.9,16.1c-2.6-8-5.3-16.1-7.9-24.1
	c-0.3-1.1-1.7-1.6-2.6-0.7c-2.7,2.9-5.5,5.8-8.2,8.7c-1.4,1.4-2.7,2.9-4.1,4.3c-2.7,2.9-3,4.7-7.3,3.4c-7.7-2.3-14.8-11.2-20.8-16.5
	c-1.5-1.3-3.7,0.9-2.2,2.2c5.1,4.5,10.3,9.1,15.4,13.6c2.2,2,5.6,6.2,9,6c2.6-0.1,4.3-2.7,6-4.4c4.3-4.4,8.5-8.9,12.7-13.4
	c2.5,7.8,5.1,15.6,7.6,23.4c0.3,1,1.4,1.4,2.3,0.9c10.4-5.4,20.9-10.8,31.3-16.3c4.9,7.5,9.7,15.1,14.6,22.6
	c0.5,0.8,1.7,1.1,2.4,0.3c5.7-6.6,12.1-12.4,19.5-17.1c2.5-1.5,9.1-6.4,11.9-4.4c0.8,0.6,1.4,4.5,1.7,5.5l2.6,8.3
	c0.2,0.8,1.1,1.4,1.9,1.1c12-4.1,23.5-9.3,34.4-15.8C481.5,146.4,479.9,143.8,478.2,144.8z"/>
<path fill="#DDDDDD" d="M530.1,415.6c0-2-3.1-2-3.1,0c1,52.4,1.4,104.8,1.2,157.2c0,2,3.1,2,3.1,0
	C531.5,520.4,531.1,468,530.1,415.6z"/>
<path fill="#DDDDDD" d="M503.8,214.5c-0.8,0.7-1.2,1.4-1.6,2.2c0.3-20.7-2-41.6-3.3-61.6c-0.1-2-3.2-2-3.1,0
	c3.5,52.2,13.4,127.3-42.2,157.2c-13.5,7.3-28.3,7.9-43.3,6.4c-15.3-1.5-30.5-4.6-44.9-10.1c-27.9-10.6-51.7-30.9-61.3-59.8
	c-10.9-32.8-7.2-70.8-1-104.2c0.4-1.9-2.6-2.8-3-0.8c-5.9,31.7-9.2,66.6-1.2,98.3c7.2,28.4,26.6,50.6,52.6,63.8
	c14.8,7.5,30.9,11.9,47.2,14.4c14.5,2.2,29.8,3.9,44.1-0.2c23.8-6.9,41.3-27.7,50.2-50.1c4.9-12.3,7.4-25.2,8.5-38.4
	c0.9,0.3,2.1-0.2,2.2-1.4c0.2-2.3,0.4-4.6,0.6-7c0.2-2.1-0.1-5.2,1.6-6.7C507.5,215.4,505.3,213.3,503.8,214.5z"/>
<path fill="#DDDDDD" d="M358.9,177.5c0.1-1,0-2-0.9-2.6c-1-0.8-2.6-0.5-3.7-0.4c-0.3,0-0.6,0.2-0.8,0.3c-1.2,0.5-2.2,1.5-2.4,3
	c-0.3,2.7,2.4,5.1,5,4.3c1.4-0.4,2.6-2.2,2.6-3.8c0.1-0.1,0.1-0.2,0.1-0.4C358.9,177.8,358.9,177.6,358.9,177.5
	C358.9,177.5,358.9,177.5,358.9,177.5C358.9,177.5,358.9,177.5,358.9,177.5z"/>
<path fill="#DDDDDD" d="M440.4,174.6c-0.2-0.2-0.5-0.3-0.8-0.3c-3.5-0.2-6.3,4-4.5,7.1c1.7,2.8,6.2,2.8,8.1,0.2
	c0.5-0.7,0.6-1.3,0.4-1.8c0,0,0-0.1,0-0.1C444.3,177.1,442.8,175.1,440.4,174.6z"/>
<g>
	<path fill="#DDDDDD" d="M425,267.6c-7.2,6.2-16.8,6-25.8,5.2c-10.5-0.9-21.9-2.8-27.4-13c-0.9-1.7-3.6-0.2-2.7,1.6
		c5.5,10.2,16.4,13.2,27.2,14.3c10.7,1.1,22.1,1.6,30.7-5.8C428.6,268.5,426.5,266.3,425,267.6z"/>
	<path fill="#DDDDDD" d="M498.7,251.5c0-0.4-0.1-0.8-0.1-1.2c-0.2-0.2-0.5-0.3-0.7-0.5c0.1-0.2,0.1-0.5,0.1-0.7
		c0.1-0.1,0.2-0.1,0.3-0.2c0.1-0.1,0.2-0.3,0.4-0.4c0.1-1.8,0.5-3.7,0.9-5.6c0.9-4,1.5-7.7,1.9-11.5c-1.2,7.2-3,14.2-5.1,21.5
		c0.2,0.2,0.5,0.3,0.7,0.5c0-0.1,0.1-0.3,0.1-0.4c0.3,0.2,0.7,0.5,1.1,0.7C498.4,253,498.5,252.2,498.7,251.5z"/>
	<path fill="#DDDDDD" d="M568.5,134.8c-14.8-9-29.6-18-44.5-26.9c6.9-4.9,13.7-9.9,20.6-14.8c1.3-0.9,0.8-2.8-0.8-2.9
		c-8.6-0.6-17.1-1.3-25.7-1.9c-8.4-0.6-17.4-0.4-25.7-1.9c-3-0.6-8.1-2.2-9.4-5.5c-0.4-1.2,0.5-3.9,0.6-5.1c0.5-3.8,1-7.7,1.5-11.5
		c1.2-8.6,2.3-17.3,3.5-25.9c0.1-1-1.1-1.8-2-1.5l-48.2,17.3c1.5-5.3,2.6-10.6,3-16c0.3-3.7,1.7-10.3-1.4-13.3
		c-2.3-2.3-5.7-1.4-8.6-1.1c-6.7,0.8-13.5,1.9-20.1,3.1c-14,2.6-27.8,6.2-41.4,10.6c-6.2,2-18.8,9.7-24.6,4.7c-2.3-2-4-7.5-5.5-10.3
		c-1.8-3.4-3.7-6.8-5.5-10.3c-0.7-1.2-2.4-0.8-2.8,0.4c-3,9.3-6,18.6-9,27.8l-4.5,13.9c-1.7,5.2-2.5,14.1-9.9,14.2
		c-4.4,0-10.3-3.2-14.5-4.5c-4.4-1.3-8.7-2.7-13.1-4c-10.2-3.1-20.3-6.2-30.5-9.4c-1.4-0.4-2.2,1.1-1.7,2.3
		c4.1,9.4,8.2,18.9,12.2,28.3c2.3,5.3,5.7,11.1,7.2,16.7c2.2,8.5-2.6,11.8-8.6,15.2c-7.8,4.4-15.2,9.3-22.2,14.8
		c-3.4,2.7-12,7.5-10.8,13c1.1,5.1,10.9,7.7,14.7,9.7c8.6,4.5,17.1,9.4,25.3,14.7c5.8,3.7,13.4,6.7,13.5,15c0,4.5-2.6,10.3-3.7,14.7
		c-2.7,10.8-5.5,21.6-8.2,32.3c-0.3,1.3,1.1,2.5,2.3,1.7c9.2-5.8,17.1-13,23.8-21.3c0,0.2,0,0.3,0.1,0.5c0.2-0.2,0.4-0.4,0.7-0.6
		c0.2-1,0.7-1.5,1.7-2.3c0,0,0,0,0,0c-0.1-1.4-0.2-2.7-0.3-4.1c-0.4,0.6-1.1,1-1.8,0.8c0,0-0.1,0.1-0.1,0.1
		c-0.2,0.1-0.4,0.2-0.6,0.2c0,0.3,0,0.6,0,0.8c-6,8.2-13.3,15.3-21.7,21.1c2.5-10,5-19.9,7.6-29.9c1.5-5.8,6.5-16,2.5-21.7
		c-1.9-2.7-5.6-4.5-8.2-6.2c-4.3-2.8-8.6-5.5-13-8.2c-4.4-2.6-8.8-5.2-13.3-7.6c-2.4-1.3-4.9-2.6-7.4-3.9c-1.2-0.6-6.8-2.7-7.5-3.8
		c-4.5-7,6.3-12.7,10.8-16c4.1-3,8.3-5.8,12.7-8.4c5.6-3.4,14.8-6.3,16-13.7c1.1-6.8-4.4-15.3-7-21.1c-4.2-9.7-8.4-19.4-12.6-29.2
		l34.6,10.6c5.8,1.8,11.6,3.6,17.4,5.3c2.8,0.8,6.5,2.5,9.4,1c2.1-1.1,2.8-3.2,3.6-5.3c2.1-5.4,3.6-11.2,5.4-16.7
		c3.5-10.9,7-21.8,10.5-32.7c2.7,4.9,5.3,9.9,8,14.8c1.3,2.4,2.6,5.7,5.5,6.7c4,1.4,9.6-2.4,13.2-3.7c6.7-2.5,13.5-4.7,20.3-6.7
		c12.8-3.8,25.7-6.7,38.9-8.9c7.3-1.2,19.7-5.8,19.4,5.5c-0.3,7.6-1.7,14.9-4,22.1c-0.3,1.1,0.8,2.3,1.9,1.9
		c16.2-5.8,32.5-11.6,48.7-17.5c-1.3,9.8-2.6,19.6-3.9,29.3c-0.7,5.6-4,14.7,2.6,18c2.5,1.3,5.8,1.2,8.5,1.4
		c5.5,0.4,11.1,0.8,16.6,1.2c10.1,0.8,20.3,1.5,30.4,2.3c-6.3,4.6-12.7,9.1-19,13.7c-0.9,0.7-1.1,2,0,2.7
		c14.5,8.8,28.9,17.5,43.4,26.3l-25.6,7.1c-4.3,1.2-12.2,1.7-14.8,6.1c-2.8,4.7,1,10.8,2.9,15c3.3,7.2,7,14.2,10.9,21.1
		c0.1-0.1,0.3-0.1,0.4-0.2c0.2,0.2,0.5,0.3,0.9,0.3c0.6,0,1-0.3,1.3-0.8c0.2,0,0.5,0,0.7,0.1c-0.2-0.3-0.3-0.6-0.5-0.8
		c0-0.6-0.3-1.1-0.8-1.4c-2-3.6-4-7.2-5.9-10.9c-3.1-6.1-11.5-17.9-2.9-23.1c4.6-2.8,12.2-3.4,17.4-4.8c6.8-1.9,13.6-3.8,20.3-5.6
		C569.4,137.3,569.6,135.5,568.5,134.8z"/>
	<path fill="#DDDDDD" d="M478.2,144.8c-10.3,6.1-21,11-32.2,15c-1.6-6.5-2.5-17.1-10.4-14.9c-10.8,3-21.5,12.9-28.9,21.4
		c-4.7-7.4-9.5-14.7-14.2-22.1c-0.5-0.7-1.3-1-2.1-0.6c-10.3,5.4-20.6,10.7-30.9,16.1c-2.6-8-5.3-16.1-7.9-24.1
		c-0.3-1.1-1.7-1.6-2.6-0.7c-2.7,2.9-5.5,5.8-8.2,8.7c-1.4,1.4-2.7,2.9-4.1,4.3c-2.7,2.9-3,4.7-7.3,3.4
		c-7.7-2.3-14.8-11.2-20.8-16.5c-1.5-1.3-3.7,0.9-2.2,2.2c5.1,4.5,10.3,9.1,15.4,13.6c2.2,2,5.6,6.2,9,6c2.6-0.1,4.3-2.7,6-4.4
		c4.3-4.4,8.5-8.9,12.7-13.4c2.5,7.8,5.1,15.6,7.6,23.4c0.3,1,1.4,1.4,2.3,0.9c10.4-5.4,20.9-10.8,31.3-16.3
		c4.9,7.5,9.7,15.1,14.6,22.6c0.5,0.8,1.7,1.1,2.4,0.3c5.7-6.6,12.1-12.4,19.5-17.1c2.5-1.5,9.1-6.4,11.9-4.4
		c0.8,0.6,1.4,4.5,1.7,5.5l2.6,8.3c0.2,0.8,1.1,1.4,1.9,1.1c12-4.1,23.5-9.3,34.4-15.8C481.5,146.4,479.9,143.8,478.2,144.8z"/>
	<path fill="#DDDDDD" d="M402.4,221c-0.4,1.6-1.9,3-3.7,2.7c-1.7-0.3-2.8-2.2-2.4-3.9c0.4-1.9-2.6-2.8-3-0.8
		c-0.7,3.3,1.2,6.8,4.6,7.7c3.3,0.8,6.7-1.6,7.5-4.9C405.8,219.9,402.8,219.1,402.4,221z"/>
	<path fill="#DDDDDD" d="M255.8,417.7c-4.9,49.2-8,98.5-9.4,147.9c-0.1,2,3,2,3.1,0c1.4-49.4,4.5-98.7,9.4-147.9
		C259.1,415.8,256,415.8,255.8,417.7z"/>
	<path fill="#DDDDDD" d="M312.1,327.5c-25.6,2.3-51.6,4.2-76.9,8.5c-9.1,1.6-18.5,4.4-24.7,11.7c-6,7-8.1,16.4-10.3,25.1
		c-13.2,52.2-29.5,103.6-48.9,153.9c-0.7,1.9,2.3,2.7,3,0.8c17.6-45.7,32.7-92.2,45.2-139.6c2.8-10.7,4.4-23,9.7-32.8
		c5.6-10.4,15.8-14.3,26.9-16.2c25.1-4.3,50.8-6.2,76.1-8.4C314,330.4,314,327.4,312.1,327.5z"/>
	<path fill="#DDDDDD" d="M460.1,336.3c-11.5,26.7-41.7,39.6-69.5,37.7c-27.7-1.9-51.9-18.5-64.9-42.8c-0.9-1.8-3.6-0.2-2.7,1.6
		c13.5,25.2,38.8,42.3,67.5,44.3c28.8,2,60.3-11.6,72.2-39.2C463.6,336.1,460.9,334.5,460.1,336.3z"/>
	<path fill="#DDDDDD" d="M330.3,298.4c-0.2-0.1-0.3-0.3-0.5-0.4c-1-0.5-2.6,0.3-2.2,1.8c3.5,13.1,5.4,26.3,5.5,39.8c0,2,3.1,2,3.1,0
		c-0.2-13.8-2-27.3-5.7-40.6C330.5,298.7,330.4,298.5,330.3,298.4z"/>
	<path fill="#DDDDDD" d="M451.5,319.7c-3.4,8.3-3.6,17.1-0.7,25.5c0.6,1.9,3.6,1.1,3-0.8c-2.7-8-2.5-16.1,0.7-23.9
		C455.2,318.7,452.2,317.9,451.5,319.7z"/>
	<path fill="#DDDDDD" d="M470.3,338.7c-3.9,14.9-13,27.9-25.8,36.5c-14.5,9.7-31,10.7-48,11.1c-18.7,0.5-35.7-1.8-51.1-13.1
		c-14.4-10.6-26.5-24.4-36.2-39.3c-1.1-1.7-3.7-0.1-2.7,1.6c10,15.4,22.5,29.5,37.3,40.4c16.8,12.3,35.2,14.1,55.5,13.4
		c17.9-0.6,34.7-2.4,49.4-13.3c12.1-9,20.7-21.8,24.6-36.4C473.8,337.6,470.8,336.8,470.3,338.7z"/>
	<path fill="#DDDDDD" d="M498.9,213.1c0-0.5,0-0.9,0-1.4C498.9,212.2,498.9,212.6,498.9,213.1z"/>
	<path fill="#DDDDDD" d="M502.4,211.6c0-0.2,0-0.4-0.1-0.5c0,0.4,0,0.8,0,1.2C502.3,212.1,502.3,211.9,502.4,211.6z"/>
	<path fill="#DDDDDD" d="M495.9,155C495.9,155,495.9,155,495.9,155c0,0.1,0,0.1,0,0.2c1.1,17.1,3,36.7,3,56.3
		C498.9,191.8,497.1,172.2,495.9,155z"/>
	<path fill="#DDDDDD" d="M297.3,200.4c0.1-18.9,2.6-37.9,5.9-55.6c0-0.1,0-0.3,0-0.4c0,0.1,0,0.1,0,0.2
		C299.9,162.3,297.3,181.4,297.3,200.4z"/>
	<path fill="#DDDDDD" d="M498.1,231c-0.1,0.8-0.1,1.7-0.1,2.5c0.4-4.4,0.7-8.9,0.8-13.3C498.5,223.8,498.3,227.4,498.1,231z"/>
	<path fill="#DDDDDD" d="M495,252.6c-0.1,0.3-0.2,0.6-0.1,0.9c0.1-0.4,0.2-0.9,0.3-1.3C495.1,252.3,495.1,252.5,495,252.6z"/>
	<path fill="#DDDDDD" d="M442.9,319.9c-14.3,4.2-29.6,2.4-44.1,0.2c-16.3-2.5-32.4-7-47.2-14.4c-26-13.2-45.4-35.3-52.6-63.8
		c-3.4-13.3-4.8-27.2-4.8-41.2c0,14.1,1.4,28,4.8,41.4c7.2,28.4,26.6,50.6,52.6,63.8c14.8,7.5,30.9,11.9,47.2,14.4
		c14.5,2.2,29.8,3.9,44.1-0.2c23.8-6.9,41.3-27.7,50.2-50.1c2.3-5.8,4.1-11.8,5.4-17.9c1.4-3.7,1.8-7.6,2.1-11.5
		c-1.4,10-3.7,19.8-7.5,29.2C484.1,292.3,466.7,313,442.9,319.9z"/>
	<path fill="#DDDDDD" d="M497.7,235.4c0.1-0.6,0.1-1.2,0.2-1.9C497.9,234.1,497.8,234.7,497.7,235.4z"/>
	<path fill="#DDDDDD" d="M499,155.2c1.2,18.1,3.1,37,3.3,55.8c0,0,0,0.1,0,0.1c-0.1-18.9-2.1-37.9-3.3-56.1c-0.1-2-3.2-2-3.1,0
		C496,153.2,498.9,153.3,499,155.2z"/>
	<path fill="#DDDDDD" d="M502.3,213.8c0,0.1,0,0.2,0,0.3c0,0,0,0,0,0c0-0.6,0-1.2,0-1.8c0,0.2,0,0.4,0,0.5
		C502.3,213.2,502.3,213.5,502.3,213.8z"/>
	<path fill="#DDDDDD" d="M304.2,248.9c9.6,28.8,33.4,49.2,61.3,59.8c14.4,5.5,29.6,8.5,44.9,10.1c15,1.5,29.8,0.9,43.3-6.4
		c24.1-13,35.9-34.4,41.2-58.8c0,0,0-0.1,0-0.1c-5.4,24.4-17.2,45.8-41.2,58.7c-13.5,7.3-28.3,7.9-43.3,6.4
		c-15.3-1.5-30.5-4.6-44.9-10.1c-27.9-10.6-51.7-30.9-61.3-59.8c-5.1-15.3-7-31.8-6.9-48.4C297.2,217,299.1,233.5,304.2,248.9z"/>
	<path fill="#DDDDDD" d="M303.2,144.3c0.1-1.8-2.6-2.5-3-0.6c-3.4,18.4-6,37.8-6,57.1c0-19.2,2.6-38.5,6-56.8
		C300.6,142.1,303.1,142.7,303.2,144.3z"/>
	<path fill="#DDDDDD" d="M498.9,211.5c0,0.1,0,0.1,0,0.2C498.9,211.6,498.9,211.6,498.9,211.5z"/>
	<path fill="#DDDDDD" d="M497.7,235.4c-0.6,5.7-1.4,11.3-2.6,16.8c0-0.1,0-0.1,0.1-0.2C496.4,246.6,497.2,241,497.7,235.4z"/>
	<path fill="#DDDDDD" d="M498.9,213.1c0,2.4-0.1,4.7-0.1,7.1c0-0.1,0-0.1,0-0.2C498.8,217.7,498.9,215.4,498.9,213.1z"/>
	<polygon fill="#DDDDDD" points="497.9,233.5 497.9,233.5 497.9,233.5 	"/>
	<path fill="#DDDDDD" d="M501.9,218.5c0-0.2,0-0.4,0-0.6c0,0,0,0,0,0c0-0.1,0-0.2,0-0.4c0,0,0,0,0,0c0,0,0,0,0-0.1
		c0-0.2,0.1-0.3,0.2-0.4c0-0.1,0-0.2,0.1-0.2c0,0,0,0,0,0c0-0.1,0-0.2,0-0.2c0,0,0,0,0,0c0-0.8,0-1.6,0-2.3c0,0,0,0,0,0
		c0-0.1,0-0.2,0-0.3c0-0.3,0-0.6,0-1c0-0.2,0-0.4,0-0.5c0-0.4,0-0.8,0-1.2c0,0,0-0.1,0-0.1c-0.1-18.8-2-37.7-3.3-55.8
		c-0.1-1.9-3-2-3.1-0.2c0,0,0,0,0,0c1.1,17.2,3,36.8,3,56.5c0,0.1,0,0.1,0,0.2c0,0.5,0,0.9,0,1.4c0,2.3-0.1,4.6-0.1,6.9l0,0.2
		c-0.1,4.5-0.4,8.9-0.8,13.3l0,0c0,0,0,0,0,0c-0.1,0.6-0.1,1.2-0.2,1.9c-0.6,5.6-1.4,11.2-2.5,16.6c0,0.1,0,0.1-0.1,0.2
		c-0.1,0.4-0.2,0.9-0.3,1.3c0,0,0,0.1,0,0.1c-5.4,24.4-17.1,45.8-41.2,58.8c-13.5,7.3-28.3,7.9-43.3,6.4
		c-15.3-1.5-30.5-4.6-44.9-10.1c-27.9-10.6-51.7-30.9-61.3-59.8c-5.1-15.4-7-31.9-6.9-48.6c0-18.9,2.6-38.1,5.9-55.8
		c0-0.1,0-0.1,0-0.2c-0.1-1.6-2.7-2.2-3-0.4c-3.4,18.3-5.9,37.7-6,56.8c0,14,1.4,27.9,4.8,41.2c7.2,28.4,26.6,50.6,52.6,63.8
		c14.8,7.5,30.9,11.9,47.2,14.4c14.5,2.2,29.8,3.9,44.1-0.2c23.8-6.9,41.3-27.7,50.2-50.1c3.8-9.4,6.1-19.2,7.5-29.2
		c0.1-1.2,0.1-2.4,0.2-3.6c0.8-4.8,1.3-9.4,1.2-14.7C501.9,221.1,501.9,219.8,501.9,218.5z"/>
</g>
</svg>
