<?xml version="1.0" encoding="UTF-8" standalone="no"?>
<svg width="222px" height="75px" viewBox="0 0 222 75" version="1.1" xmlns="http://www.w3.org/2000/svg" xmlns:xlink="http://www.w3.org/1999/xlink" xmlns:sketch="http://www.bohemiancoding.com/sketch/ns">
    <!-- Generator: Sketch 3.1.1 (8761) - http://www.bohemiancoding.com/sketch -->
    <title>philips-tv-remote-cta-app_store</title>
    <desc>Created with Sketch.</desc>
    <defs></defs>
    <g id="Casepagina" stroke="none" stroke-width="1" fill="none" fill-rule="evenodd" sketch:type="MSPage">
        <g id="Desktop" sketch:type="MSArtboardGroup" transform="translate(-489.000000, -12869.000000)">
            <g id="One-family" sketch:type="MSLayerGroup" transform="translate(247.000000, 11960.000000)">
                <g id="philips-tv-remote-cta-app_store" transform="translate(242.000000, 909.000000)" sketch:type="MSShapeGroup">
                    <g id="Group">
                        <path d="M222,67.539267 C222,71.6623037 219.164538,75 215.661908,75 L6.33809166,75 C2.83546206,75 -6.11066753e-13,71.6623037 -6.11066753e-13,67.539267 L-6.11066753e-13,7.46073298 C-6.11066753e-13,3.33769634 2.83546206,-7.17648163e-13 6.33809166,-7.17648163e-13 L215.661908,-7.17648163e-13 C219.164538,-7.17648163e-13 222,3.33769634 222,7.46073298 L222,67.539267 L222,67.539267 Z" id="Shape" fill="#000000"></path>
                        <g transform="translate(24.729323, 10.868421)" id="Shape" fill="#FFFFFF">
                            <path d="M33.8142857,27.2368421 C33.8142857,20.9210526 38.9556391,17.7631579 39.3511278,17.5657895 C36.3849624,13.2236842 31.6390977,12.6315789 30.0571429,12.6315789 C26.1022556,12.2368421 22.3451128,15 20.3676692,15 C18.3902256,15 15.2263158,12.6315789 12.062406,12.8289474 C7.90977444,12.8289474 3.95488722,15.3947368 1.77969925,19.1447368 C-2.76842105,26.8421053 0.593233083,38.2894737 4.94360902,44.6052632 C7.11879699,47.7631579 9.68947368,51.1184211 12.8533835,50.9210526 C16.0172932,50.7236842 17.2037594,48.9473684 21.1586466,48.9473684 C24.9157895,48.9473684 26.1022556,50.9210526 29.4639098,50.9210526 C32.8255639,50.9210526 35.0007519,47.7631579 37.1759398,44.8026316 C39.7466165,41.25 40.7353383,37.8947368 40.7353383,37.6973684 C40.537594,37.3026316 34.0120301,34.7368421 33.8142857,27.2368421 L33.8142857,27.2368421 Z"></path>
                            <path d="M27.4864662,8.48684211 C29.2661654,6.31578947 30.4526316,3.35526316 30.0571429,0.394736842 C27.4864662,0.592105263 24.5203008,2.17105263 22.5428571,4.14473684 C20.9609023,5.92105263 19.5766917,9.07894737 19.9721805,11.8421053 C22.9383459,12.2368421 25.7067669,10.6578947 27.4864662,8.48684211 L27.4864662,8.48684211 Z"></path>
                        </g>
                        <g id="Group-+-Group" transform="translate(78.000000, 17.000000)" fill="#FFFFFF">
                            <g id="Group" transform="translate(0.059960, 17.393352)">
                                <path d="M18.2926049,21.5027701 L14.6656229,21.5027701 L12.7732845,15.2908587 L5.99240506,15.2908587 L4.10006662,21.5027701 L0.63077948,21.5027701 L7.41165889,0.318559557 L11.5117255,0.318559557 L18.2926049,21.5027701 L18.2926049,21.5027701 Z M12.3001999,12.7423823 L10.5655563,7.16759003 C10.4078614,6.53047091 10.0924717,5.25623269 9.46169221,3.18559557 L9.46169221,3.18559557 C9.30399734,4.14127424 8.98860759,5.41551247 8.51552298,7.16759003 L6.62318454,12.7423823 L12.3001999,12.7423823 L12.3001999,12.7423823 Z" id="Shape"></path>
                                <path d="M35.7967355,13.6980609 C35.7967355,16.2465374 35.165956,18.3171745 33.7467022,19.9099723 C32.4851432,21.1842105 30.9081945,21.9806094 29.173551,21.9806094 C27.1235177,21.9806094 25.7042638,21.1842105 24.9157895,19.7506925 L24.9157895,19.7506925 L24.9157895,27.8739612 L21.6041972,27.8739612 L21.6041972,11.3088643 C21.6041972,9.71606648 21.6041972,7.96398892 21.4465023,6.21191136 L24.4427049,6.21191136 L24.6003997,8.60110803 C25.7042638,6.84903047 27.4389074,5.8933518 29.6466356,5.8933518 C31.3812791,5.8933518 32.9582278,6.53047091 34.0620919,7.96398892 C35.165956,9.39750693 35.7967355,11.3088643 35.7967355,13.6980609 L35.7967355,13.6980609 Z M32.3274484,13.8573407 C32.3274484,12.4238227 32.0120586,11.1495845 31.3812791,10.1939058 C30.5928048,9.23822715 29.6466356,8.76038781 28.3850766,8.76038781 C27.5966023,8.76038781 26.8081279,9.07894737 26.1773484,9.5567867 C25.546569,10.1939058 25.0734843,10.8310249 24.9157895,11.7867036 C24.7580946,12.2645429 24.7580946,12.5831025 24.7580946,12.7423823 L24.7580946,15.2908587 C24.7580946,16.4058172 25.0734843,17.3614958 25.7042638,18.1578947 C26.3350433,18.9542936 27.2812125,19.2728532 28.3850766,19.2728532 C29.6466356,19.2728532 30.5928048,18.7950139 31.3812791,17.8393352 C32.0120586,16.7243767 32.3274484,15.4501385 32.3274484,13.8573407 L32.3274484,13.8573407 Z" id="Shape"></path>
                                <path d="M53.1431712,13.6980609 C53.1431712,16.2465374 52.5123917,18.3171745 51.0931379,19.9099723 C49.8315789,21.1842105 48.2546302,21.9806094 46.5199867,21.9806094 C44.4699534,21.9806094 43.0506995,21.1842105 42.2622252,19.7506925 L42.2622252,19.7506925 L42.2622252,27.8739612 L38.9506329,27.8739612 L38.9506329,11.3088643 C38.9506329,9.71606648 38.9506329,7.96398892 38.792938,6.21191136 L41.7891406,6.21191136 L41.9468354,8.60110803 C43.0506995,6.84903047 44.7853431,5.8933518 46.9930713,5.8933518 C48.7277149,5.8933518 50.3046636,6.53047091 51.4085276,7.96398892 C52.5123917,9.39750693 53.1431712,11.3088643 53.1431712,13.6980609 L53.1431712,13.6980609 Z M49.6738841,13.8573407 C49.6738841,12.4238227 49.3584943,11.1495845 48.7277149,10.1939058 C47.9392405,9.23822715 46.9930713,8.76038781 45.7315123,8.76038781 C44.943038,8.76038781 44.1545636,9.07894737 43.5237841,9.5567867 C42.8930047,10.1939058 42.4199201,10.8310249 42.2622252,11.7867036 C42.1045303,12.2645429 42.1045303,12.5831025 42.1045303,12.7423823 L42.1045303,15.2908587 C42.1045303,16.4058172 42.4199201,17.3614958 43.0506995,18.1578947 C43.681479,18.9542936 44.6276482,19.2728532 45.7315123,19.2728532 C46.9930713,19.2728532 47.9392405,18.7950139 48.7277149,17.8393352 C49.3584943,16.7243767 49.6738841,15.4501385 49.6738841,13.8573407 L49.6738841,13.8573407 Z" id="Shape"></path>
                                <path d="M72.5396402,15.6094183 C72.5396402,17.3614958 71.9088608,18.9542936 70.6473018,20.0692521 C69.228048,21.3434903 67.3357095,21.9806094 64.9702865,21.9806094 C62.7625583,21.9806094 60.8702199,21.5027701 59.6086609,20.7063712 L60.3971352,17.8393352 C61.8163891,18.7950139 63.5510326,19.2728532 65.2856762,19.2728532 C66.5472352,19.2728532 67.4934044,18.9542936 68.2818787,18.4764543 C68.9126582,17.8393352 69.3857428,17.2022161 69.3857428,16.0872576 C69.3857428,15.2908587 69.0703531,14.4944598 68.4395736,13.8573407 C67.8087941,13.2202216 66.8626249,12.7423823 65.601066,12.2645429 C61.9740839,10.8310249 60.0817455,8.91966759 60.0817455,6.21191136 C60.0817455,4.4598338 60.712525,3.02631579 61.9740839,1.91135734 C63.2356429,0.796398892 64.9702865,0.318559557 67.1780147,0.318559557 C69.0703531,0.318559557 70.6473018,0.637119114 71.9088608,1.27423823 L70.9626915,3.82271468 C69.7011326,3.18559557 68.4395736,2.86703601 67.0203198,2.86703601 C65.7587608,2.86703601 64.9702865,3.18559557 64.1818121,3.82271468 C63.5510326,4.30055402 63.3933378,4.93767313 63.3933378,5.73407202 C63.3933378,6.53047091 63.7087275,7.32686981 64.339507,7.80470914 C64.9702865,8.28254848 65.9164557,8.91966759 67.3357095,9.39750693 C69.0703531,10.1939058 70.4896069,10.9903047 71.2780813,11.9459834 C72.2242505,12.901662 72.5396402,14.1759003 72.5396402,15.6094183 L72.5396402,15.6094183 Z" id="Shape"></path>
                                <path d="M83.735976,8.76038781 L80.108994,8.76038781 L80.108994,16.2465374 C80.108994,18.1578947 80.7397735,19.1135734 82.0013324,19.1135734 C82.6321119,19.1135734 83.1051965,19.1135734 83.4205863,18.9542936 L83.5782811,21.5027701 C82.9475017,21.8213296 82.0013324,21.8213296 80.8974684,21.8213296 C79.6359094,21.8213296 78.5320453,21.3434903 77.743571,20.5470914 C76.9550966,19.7506925 76.6397069,18.3171745 76.6397069,16.4058172 L76.6397069,8.76038781 L74.4319787,8.76038781 L74.4319787,6.21191136 L76.6397069,6.21191136 L76.6397069,3.34487535 L79.9512991,2.38919668 L79.9512991,6.21191136 L83.5782811,6.21191136 C83.735976,6.21191136 83.735976,8.76038781 83.735976,8.76038781 L83.735976,8.76038781 Z" id="Shape"></path>
                                <path d="M100.451632,13.6980609 C100.451632,16.0872576 99.8208528,17.998615 98.4015989,19.432133 C96.9823451,21.0249307 95.0900067,21.8213296 92.8822785,21.8213296 C90.6745503,21.8213296 88.9399067,21.0249307 87.5206529,19.5914127 C86.1013991,18.1578947 85.4706196,16.2465374 85.4706196,14.0166205 C85.4706196,11.6274238 86.1013991,9.71606648 87.5206529,8.1232687 C88.9399067,6.68975069 90.6745503,5.8933518 93.0399734,5.8933518 C95.2477015,5.8933518 96.9823451,6.68975069 98.4015989,8.1232687 C99.8208528,9.5567867 100.451632,11.468144 100.451632,13.6980609 L100.451632,13.6980609 Z M96.9823451,13.8573407 C96.9823451,12.4238227 96.6669554,11.3088643 96.0361759,10.1939058 C95.4053964,8.91966759 94.3015323,8.44182825 93.0399734,8.44182825 C91.6207195,8.44182825 90.6745503,9.07894737 89.8860759,10.1939058 C89.2552965,11.1495845 88.9399067,12.4238227 88.9399067,13.8573407 C88.9399067,15.2908587 89.2552965,16.4058172 89.8860759,17.5207756 C90.6745503,18.7950139 91.6207195,19.2728532 92.8822785,19.2728532 C94.1438374,19.2728532 95.2477015,18.6357341 95.878481,17.3614958 C96.6669554,16.4058172 96.9823451,15.2908587 96.9823451,13.8573407 L96.9823451,13.8573407 Z" id="Shape"></path>
                                <path d="M111.332578,9.23822715 C111.017189,9.23822715 110.701799,9.07894737 110.228714,9.07894737 C108.967155,9.07894737 108.178681,9.5567867 107.547901,10.5124654 C106.917122,11.3088643 106.759427,12.2645429 106.759427,13.5387812 L106.759427,21.5027701 L103.447835,21.5027701 L103.447835,10.9903047 C103.447835,9.23822715 103.447835,7.64542936 103.29014,6.21191136 L106.286342,6.21191136 L106.444037,9.07894737 L106.601732,9.07894737 C106.917122,8.1232687 107.547901,7.32686981 108.336376,6.68975069 C109.12485,6.21191136 109.913324,5.8933518 110.701799,5.8933518 L111.490273,5.8933518 C111.332578,6.05263158 111.332578,9.23822715 111.332578,9.23822715 L111.332578,9.23822715 Z" id="Shape"></path>
                                <path d="M126.471286,13.2202216 C126.471286,13.8573407 126.471286,14.3351801 126.313591,14.8130194 L116.221119,14.8130194 C116.221119,16.2465374 116.694204,17.5207756 117.640373,18.3171745 C118.428847,18.9542936 119.532712,19.432133 120.951965,19.432133 C122.371219,19.432133 123.790473,19.1135734 125.052032,18.6357341 L125.525117,21.0249307 C124.105863,21.6620499 122.371219,21.9806094 120.478881,21.9806094 C118.113458,21.9806094 116.221119,21.3434903 114.95956,19.9099723 C113.698001,18.4764543 112.909527,16.7243767 112.909527,14.3351801 C112.909527,12.1052632 113.540306,10.034626 114.801865,8.60110803 C116.063424,7.00831025 117.798068,6.21191136 120.163491,6.21191136 C122.371219,6.21191136 123.948168,7.00831025 125.052032,8.60110803 C125.998201,9.5567867 126.471286,11.3088643 126.471286,13.2202216 L126.471286,13.2202216 Z M123.159694,12.2645429 C123.159694,11.3088643 123.001999,10.3531856 122.528914,9.71606648 C121.898135,8.76038781 121.10966,8.28254848 119.848101,8.28254848 C118.744237,8.28254848 117.798068,8.76038781 117.167288,9.71606648 C116.536509,10.5124654 116.221119,11.3088643 116.221119,12.4238227 L123.159694,12.2645429 L123.159694,12.2645429 Z" id="Shape"></path>
                            </g>
                            <g id="Group" transform="translate(3.213857, -0.127424)">
                                <path d="M7.8847435,4.77839335 C7.8847435,6.68975069 7.25396402,8.1232687 6.15009993,9.07894737 C5.04623584,9.87534626 3.62698201,10.3531856 1.73464357,10.3531856 C0.78847435,10.3531856 1.15407683e-12,10.3531856 -0.63077948,10.1939058 L-0.63077948,-1.15826793e-12 C0.31538974,-0.159279778 1.26155896,-0.159279778 2.20772818,-0.159279778 C3.94237175,-0.159279778 5.36162558,0.159279778 6.3077948,0.95567867 C7.41165889,1.91135734 7.8847435,3.18559557 7.8847435,4.77839335 L7.8847435,4.77839335 Z M6.15009993,4.77839335 C6.15009993,3.50415512 5.83471019,2.70775623 5.20393071,1.91135734 C4.57315123,1.27423823 3.62698201,0.95567867 2.36542305,0.95567867 C1.89233844,0.95567867 1.41925383,0.95567867 1.10386409,1.11495845 L1.10386409,8.91966759 L2.20772818,8.91966759 C3.46928714,8.91966759 4.41545636,8.60110803 5.20393071,7.80470914 C5.99240506,7.00831025 6.15009993,6.21191136 6.15009993,4.77839335 L6.15009993,4.77839335 Z" id="Shape"></path>
                                <path d="M17.1887408,6.37119114 C17.1887408,7.48614958 16.8733511,8.44182825 16.2425716,9.23822715 C15.6117921,10.034626 14.6656229,10.3531856 13.5617588,10.3531856 C12.4578947,10.3531856 11.6694204,10.034626 10.880946,9.23822715 C10.2501666,8.44182825 9.93477682,7.64542936 9.93477682,6.53047091 C9.93477682,5.41551247 10.2501666,4.4598338 10.880946,3.6634349 C11.5117255,2.86703601 12.4578947,2.54847645 13.5617588,2.54847645 C14.6656229,2.54847645 15.4540973,2.86703601 16.2425716,3.6634349 C16.8733511,4.4598338 17.1887408,5.25623269 17.1887408,6.37119114 L17.1887408,6.37119114 Z M15.4540973,6.53047091 C15.4540973,5.8933518 15.2964024,5.25623269 14.9810127,4.77839335 C14.6656229,4.14127424 14.1925383,3.82271468 13.5617588,3.82271468 C12.9309793,3.82271468 12.4578947,4.14127424 11.9848101,4.77839335 C11.6694204,5.25623269 11.5117255,5.8933518 11.5117255,6.53047091 C11.5117255,7.16759003 11.6694204,7.80470914 11.9848101,8.28254848 C12.3001999,8.91966759 12.7732845,9.23822715 13.5617588,9.23822715 C14.1925383,9.23822715 14.6656229,8.91966759 14.9810127,8.28254848 C15.2964024,7.80470914 15.4540973,7.16759003 15.4540973,6.53047091 L15.4540973,6.53047091 Z" id="Shape"></path>
                                <path d="M29.6466356,2.70775623 L27.2812125,10.1939058 L25.7042638,10.1939058 L24.7580946,7.00831025 C24.4427049,6.21191136 24.28501,5.41551247 24.1273151,4.61911357 L24.1273151,4.61911357 C23.9696203,5.41551247 23.8119254,6.21191136 23.4965356,7.00831025 L22.5503664,10.1939058 L20.9734177,10.1939058 L18.7656895,2.70775623 L20.5003331,2.70775623 L21.2888075,6.21191136 C21.4465023,7.00831025 21.6041972,7.80470914 21.7618921,8.60110803 L21.7618921,8.60110803 C21.9195869,7.96398892 22.0772818,7.16759003 22.3926716,6.21191136 L23.4965356,2.70775623 L24.9157895,2.70775623 L25.8619587,6.21191136 C26.1773484,7.00831025 26.3350433,7.96398892 26.4927382,8.76038781 L26.4927382,8.76038781 C26.650433,7.96398892 26.8081279,7.16759003 26.9658228,6.21191136 L27.911992,2.70775623 L29.6466356,2.70775623 L29.6466356,2.70775623 Z" id="Shape"></path>
                                <path d="M38.1621586,10.1939058 L36.5852099,10.1939058 L36.5852099,5.8933518 C36.5852099,4.61911357 36.1121252,3.98199446 35.165956,3.98199446 C34.6928714,3.98199446 34.2197868,4.14127424 33.9043971,4.4598338 C33.5890073,4.77839335 33.4313125,5.25623269 33.4313125,5.73407202 L33.4313125,10.1939058 L31.8543638,10.1939058 L31.8543638,4.77839335 L31.8543638,2.70775623 L33.1159227,2.70775623 L33.1159227,3.82271468 C33.2736176,3.50415512 33.5890073,3.18559557 33.9043971,2.86703601 C34.3774817,2.54847645 34.8505663,2.38919668 35.3236509,2.38919668 C35.9544304,2.38919668 36.5852099,2.54847645 37.0582945,3.02631579 C37.689074,3.50415512 37.8467688,4.4598338 37.8467688,5.57479224 L37.8467688,10.1939058 L38.1621586,10.1939058 Z" id="Shape"></path>
                                <path d="M42.7353098,10.1939058 L41.1583611,10.1939058 L41.1583611,-0.637119114 L42.7353098,-0.637119114 L42.7353098,10.1939058 L42.7353098,10.1939058 Z" id="Shape"></path>
                                <path d="M52.5123917,6.37119114 C52.5123917,7.48614958 52.197002,8.44182825 51.5662225,9.23822715 C50.935443,10.034626 49.9892738,10.3531856 48.8854097,10.3531856 C47.7815456,10.3531856 46.9930713,10.034626 46.2045969,9.23822715 C45.5738175,8.44182825 45.2584277,7.64542936 45.2584277,6.53047091 C45.2584277,5.41551247 45.5738175,4.4598338 46.2045969,3.6634349 C46.8353764,2.86703601 47.7815456,2.54847645 48.8854097,2.54847645 C49.9892738,2.54847645 50.7777482,2.86703601 51.5662225,3.6634349 C52.197002,4.4598338 52.5123917,5.25623269 52.5123917,6.37119114 L52.5123917,6.37119114 Z M50.7777482,6.53047091 C50.7777482,5.8933518 50.6200533,5.25623269 50.3046636,4.77839335 C49.9892738,4.14127424 49.5161892,3.82271468 48.8854097,3.82271468 C48.2546302,3.82271468 47.7815456,4.14127424 47.308461,4.77839335 C46.9930713,5.25623269 46.8353764,5.8933518 46.8353764,6.53047091 C46.8353764,7.16759003 46.9930713,7.80470914 47.308461,8.28254848 C47.6238508,8.91966759 48.0969354,9.23822715 48.8854097,9.23822715 C49.5161892,9.23822715 49.9892738,8.91966759 50.3046636,8.28254848 C50.6200533,7.80470914 50.7777482,7.16759003 50.7777482,6.53047091 L50.7777482,6.53047091 Z" id="Shape"></path>
                                <path d="M60.3971352,10.1939058 L58.9778814,10.1939058 L58.8201865,9.39750693 C58.3471019,10.034626 57.5586276,10.3531856 56.6124584,10.3531856 C55.9816789,10.3531856 55.3508994,10.1939058 54.8778148,9.71606648 C54.562425,9.23822715 54.2470353,8.76038781 54.2470353,8.1232687 C54.2470353,7.16759003 54.562425,6.53047091 55.3508994,6.05263158 C56.1393738,5.57479224 57.2432378,5.25623269 58.5047968,5.41551247 L58.5047968,5.25623269 C58.5047968,4.30055402 58.0317122,3.82271468 56.9278481,3.82271468 C56.1393738,3.82271468 55.5085943,3.98199446 55.0355097,4.30055402 L54.8778148,3.18559557 C55.5085943,2.70775623 56.4547635,2.54847645 57.4009327,2.54847645 C59.2932712,2.54847645 60.2394404,3.50415512 60.2394404,5.57479224 L60.2394404,8.28254848 C60.3971352,9.23822715 60.3971352,9.87534626 60.3971352,10.1939058 L60.3971352,10.1939058 Z M58.6624917,7.64542936 L58.6624917,6.53047091 C56.7701532,6.53047091 55.9816789,7.00831025 55.9816789,7.96398892 C55.9816789,8.28254848 56.1393738,8.60110803 56.2970686,8.91966759 C56.4547635,9.07894737 56.7701532,9.23822715 57.085543,9.23822715 C57.4009327,9.23822715 57.7163225,9.07894737 58.0317122,8.91966759 C58.3471019,8.76038781 58.5047968,8.44182825 58.6624917,7.96398892 L58.6624917,7.64542936 L58.6624917,7.64542936 Z" id="Shape"></path>
                                <path d="M69.8588274,10.1939058 L68.4395736,10.1939058 L68.4395736,8.91966759 C67.966489,9.87534626 67.1780147,10.3531856 66.0741506,10.3531856 C65.1279813,10.3531856 64.4972019,10.034626 63.8664224,9.23822715 C63.2356429,8.44182825 62.9202532,7.64542936 62.9202532,6.53047091 C62.9202532,5.25623269 63.2356429,4.30055402 63.8664224,3.50415512 C64.4972019,2.86703601 65.2856762,2.38919668 66.2318454,2.38919668 C67.1780147,2.38919668 67.966489,2.70775623 68.2818787,3.34487535 L68.2818787,3.34487535 L68.2818787,-0.637119114 L69.8588274,-0.637119114 L69.8588274,8.28254848 C69.7011326,8.91966759 69.8588274,9.5567867 69.8588274,10.1939058 L69.8588274,10.1939058 Z M68.1241839,7.00831025 L68.1241839,5.73407202 L68.1241839,5.25623269 C67.966489,4.77839335 67.8087941,4.4598338 67.4934044,4.30055402 C67.1780147,3.98199446 66.8626249,3.82271468 66.3895403,3.82271468 C65.7587608,3.82271468 65.2856762,4.14127424 64.9702865,4.61911357 C64.6548967,5.09695291 64.4972019,5.73407202 64.4972019,6.53047091 C64.4972019,7.32686981 64.6548967,7.80470914 64.9702865,8.28254848 C65.2856762,8.76038781 65.7587608,9.07894737 66.3895403,9.07894737 C66.8626249,9.07894737 67.3357095,8.91966759 67.6510993,8.44182825 C67.966489,8.1232687 68.1241839,7.64542936 68.1241839,7.00831025 L68.1241839,7.00831025 Z" id="Shape"></path>
                                <path d="M83.8936709,6.37119114 C83.8936709,7.48614958 83.5782811,8.44182825 82.9475017,9.23822715 C82.3167222,10.034626 81.370553,10.3531856 80.2666889,10.3531856 C79.1628248,10.3531856 78.3743504,10.034626 77.5858761,9.23822715 C76.9550966,8.44182825 76.6397069,7.64542936 76.6397069,6.53047091 C76.6397069,5.41551247 76.9550966,4.4598338 77.5858761,3.6634349 C78.2166556,2.86703601 79.1628248,2.54847645 80.2666889,2.54847645 C81.370553,2.54847645 82.1590273,2.86703601 82.9475017,3.6634349 C83.5782811,4.4598338 83.8936709,5.25623269 83.8936709,6.37119114 L83.8936709,6.37119114 Z M82.3167222,6.53047091 C82.3167222,5.8933518 82.1590273,5.25623269 81.8436376,4.77839335 C81.5282478,4.14127424 81.0551632,3.82271468 80.4243837,3.82271468 C79.7936043,3.82271468 79.3205197,4.14127424 78.847435,4.77839335 C78.5320453,5.25623269 78.3743504,5.8933518 78.3743504,6.53047091 C78.3743504,7.16759003 78.5320453,7.80470914 78.847435,8.28254848 C79.1628248,8.91966759 79.6359094,9.23822715 80.4243837,9.23822715 C81.0551632,9.23822715 81.5282478,8.91966759 81.8436376,8.28254848 C82.1590273,7.80470914 82.3167222,7.16759003 82.3167222,6.53047091 L82.3167222,6.53047091 Z" id="Shape"></path>
                                <path d="M92.8822785,10.1939058 L91.3053298,10.1939058 L91.3053298,5.8933518 C91.3053298,4.61911357 90.8322452,3.98199446 89.7283811,3.98199446 C89.2552965,3.98199446 88.7822119,4.14127424 88.4668221,4.4598338 C88.1514324,4.77839335 87.9937375,5.25623269 87.9937375,5.73407202 L87.9937375,10.1939058 L86.4167888,10.1939058 L86.4167888,4.77839335 L86.4167888,2.70775623 L87.8360426,2.70775623 L87.8360426,3.82271468 C87.9937375,3.50415512 88.3091272,3.18559557 88.624517,2.86703601 C89.0976016,2.54847645 89.5706862,2.38919668 90.2014657,2.38919668 C90.8322452,2.38919668 91.4630247,2.54847645 91.9361093,3.02631579 C92.5668887,3.50415512 92.7245836,4.4598338 92.7245836,5.57479224 L92.7245836,10.1939058 L92.8822785,10.1939058 Z" id="Shape"></path>
                                <path d="M103.920919,3.98199446 L102.028581,3.98199446 L102.028581,7.64542936 C102.028581,8.60110803 102.343971,9.07894737 102.97475,9.07894737 L103.763225,9.07894737 L103.763225,10.3531856 C103.447835,10.5124654 102.97475,10.5124654 102.501666,10.5124654 C101.870886,10.5124654 101.397801,10.3531856 100.924717,9.87534626 C100.609327,9.39750693 100.451632,8.76038781 100.451632,7.80470914 L100.451632,3.98199446 L99.3477682,3.98199446 L99.3477682,2.70775623 L100.451632,2.70775623 L100.451632,1.43351801 L102.028581,0.95567867 L102.028581,2.86703601 L103.920919,2.86703601 L103.920919,3.98199446 L103.920919,3.98199446 Z" id="Shape"></path>
                                <path d="M112.751832,10.1939058 L111.174883,10.1939058 L111.174883,5.8933518 C111.174883,4.61911357 110.701799,3.82271468 109.75563,3.82271468 C108.967155,3.82271468 108.494071,4.14127424 108.178681,4.93767313 L108.178681,5.57479224 L108.178681,10.034626 L106.601732,10.034626 L106.601732,-0.637119114 L108.178681,-0.637119114 L108.178681,3.82271468 C108.651765,3.02631579 109.44024,2.54847645 110.386409,2.54847645 C111.017189,2.54847645 111.647968,2.70775623 112.121053,3.18559557 C112.751832,3.82271468 112.909527,4.61911357 112.909527,5.73407202 C112.751832,5.73407202 112.751832,10.1939058 112.751832,10.1939058 L112.751832,10.1939058 Z" id="Shape"></path>
                                <path d="M121.74044,6.21191136 L121.74044,7.00831025 L116.694204,7.00831025 C116.694204,7.80470914 117.009594,8.28254848 117.482678,8.76038781 C117.955763,9.07894737 118.428847,9.23822715 119.059627,9.23822715 C119.848101,9.23822715 120.478881,9.07894737 121.10966,8.91966759 L121.42505,10.034626 C120.79427,10.3531856 119.848101,10.5124654 118.901932,10.5124654 C117.798068,10.5124654 116.851899,10.1939058 116.221119,9.5567867 C115.59034,8.91966759 115.27495,7.96398892 115.27495,6.84903047 C115.27495,5.73407202 115.59034,4.77839335 116.221119,3.98199446 C116.851899,3.18559557 117.798068,2.70775623 118.744237,2.70775623 C119.848101,2.70775623 120.636576,3.18559557 121.10966,3.98199446 C121.582745,4.4598338 121.74044,5.25623269 121.74044,6.21191136 L121.74044,6.21191136 Z M120.163491,5.73407202 C120.163491,5.25623269 120.005796,4.77839335 119.848101,4.4598338 C119.532712,3.98199446 119.059627,3.82271468 118.586542,3.82271468 C118.113458,3.82271468 117.640373,3.98199446 117.324983,4.4598338 C117.009594,4.77839335 116.851899,5.25623269 116.851899,5.73407202 C116.694204,5.73407202 120.163491,5.73407202 120.163491,5.73407202 L120.163491,5.73407202 Z" id="Shape"></path>
                            </g>
                        </g>
                    </g>
                </g>
            </g>
        </g>
    </g>
</svg>