<?xml version="1.0" encoding="UTF-8" standalone="no"?>
<svg width="222px" height="75px" viewBox="0 0 222 75" version="1.1" xmlns="http://www.w3.org/2000/svg" xmlns:xlink="http://www.w3.org/1999/xlink" xmlns:sketch="http://www.bohemiancoding.com/sketch/ns">
    <!-- Generator: Sketch 3.1.1 (8761) - http://www.bohemiancoding.com/sketch -->
    <title>philips-tv-remote-cta-google_play</title>
    <desc>Created with Sketch.</desc>
    <defs>
        <linearGradient x1="60.2882603%" y1="92.1966527%" x2="33.702086%" y2="-58.9295855%" id="linearGradient-1">
            <stop stop-color="#D7E69D" offset="0%"></stop>
            <stop stop-color="#94C4AA" offset="44.56%"></stop>
            <stop stop-color="#01A4B6" offset="100%"></stop>
        </linearGradient>
        <linearGradient x1="-32.5279076%" y1="-131.136586%" x2="79.8328772%" y2="114.943365%" id="linearGradient-2">
            <stop stop-color="#ED277B" offset="0%"></stop>
            <stop stop-color="#EE2F7C" offset="1.92%"></stop>
            <stop stop-color="#F7BD81" offset="70.39%"></stop>
            <stop stop-color="#FEEB74" offset="100%"></stop>
        </linearGradient>
        <linearGradient x1="51.0439127%" y1="74.8845217%" x2="-0.00821965517%" y2="-29.3556958%" id="linearGradient-3">
            <stop stop-color="#89CFBD" offset="0%"></stop>
            <stop stop-color="#7DBEBB" offset="9.07%"></stop>
            <stop stop-color="#457CAC" offset="53.96%"></stop>
            <stop stop-color="#1C5AA2" offset="85.23%"></stop>
            <stop stop-color="#084D9F" offset="100%"></stop>
        </linearGradient>
        <linearGradient x1="119.623378%" y1="35.2223225%" x2="-22.9417308%" y2="60.7692366%" id="linearGradient-4">
            <stop stop-color="#F04A2B" offset="0%"></stop>
            <stop stop-color="#B54F6B" offset="47.04%"></stop>
            <stop stop-color="#8B5191" offset="83.53%"></stop>
            <stop stop-color="#7851A1" offset="100%"></stop>
        </linearGradient>
    </defs>
    <g id="Casepagina" stroke="none" stroke-width="1" fill="none" fill-rule="evenodd" sketch:type="MSPage">
        <g id="Desktop" sketch:type="MSArtboardGroup" transform="translate(-730.000000, -12869.000000)">
            <g id="One-family" sketch:type="MSLayerGroup" transform="translate(247.000000, 11960.000000)">
                <g id="philips-tv-remote-cta-google_play" transform="translate(483.000000, 909.000000)" sketch:type="MSShapeGroup">
                    <g id="Group">
                        <path d="M222,67.539267 C222,71.6623037 219.164538,75 215.661908,75 L6.33809166,75 C2.83546206,75 -6.11066753e-13,71.6623037 -6.11066753e-13,67.539267 L-6.11066753e-13,7.46073298 C-6.11066753e-13,3.33769634 2.83546206,-7.17648163e-13 6.33809166,-7.17648163e-13 L215.661908,-7.17648163e-13 C219.164538,-7.17648163e-13 222,3.33769634 222,7.46073298 L222,67.539267 L222,67.539267 Z" id="Shape-2" fill="#000000"></path>
                        <g transform="translate(51.535714, 31.578947)" id="Shape" fill="#FFFFFF">
                            <g>
                                <path d="M100.032143,22.5 L98.3142857,24.0789474 C97.9178571,24.3421053 97.5214286,24.4736842 97.125,24.7368421 C95.9357143,25.2631579 94.7464286,25.3947368 93.6892857,25.3947368 C92.6321429,25.3947368 90.7821429,25.2631579 89.0642857,24.0789474 C86.5535714,22.3684211 85.4964286,19.3421053 85.4964286,16.7105263 C85.4964286,11.3157895 89.8571429,8.68421053 93.5571429,8.68421053 C94.8785714,8.68421053 96.0678571,8.94736842 97.125,9.60526316 C98.8428571,10.7894737 99.3714286,12.2368421 99.6357143,13.0263158 L91.4428571,16.3157895 L88.8,16.5789474 C89.725,21.0526316 92.6321429,23.5526316 95.9357143,23.5526316 C97.6535714,23.5526316 98.8428571,23.0263158 100.032143,22.5 C100.032143,22.5 100.296429,22.3684211 100.032143,22.5 L100.032143,22.5 Z M95.1428571,13.6842105 C95.8035714,13.4210526 96.2,13.2894737 96.2,12.7631579 C96.2,11.3157895 94.6142857,9.73684211 92.7642857,9.73684211 C91.3107143,9.73684211 88.8,10.7894737 88.8,14.6052632 C88.8,15.1315789 88.9321429,15.7894737 88.9321429,16.4473684 L95.1428571,13.6842105 L95.1428571,13.6842105 Z"></path>
                                <path d="M82.8535714,22.2368421 C82.8535714,23.5526316 83.1178571,23.8157895 84.3071429,23.9473684 C84.9678571,24.0789474 85.4964286,24.0789474 86.1571429,24.0789474 L84.8357143,24.8684211 L78.625,24.8684211 C79.4178571,23.8157895 79.55,23.6842105 79.55,23.0263158 L79.55,22.2368421 L79.55,1.57894737 L76.775,1.57894737 L79.4178571,0.263157895 L84.4392857,0.263157895 C83.3821429,0.921052632 82.9857143,1.31578947 82.8535714,2.5 L82.8535714,22.2368421 L82.8535714,22.2368421 Z"></path>
                                <path d="M73.3392857,10.3947368 C74.1321429,11.0526316 75.85,12.5 75.85,15.1315789 C75.85,17.7631579 74.3964286,18.9473684 72.9428571,20.1315789 C72.5464286,20.5263158 72.0178571,21.0526316 72.0178571,21.8421053 C72.0178571,22.6315789 72.5464286,23.0263158 72.9428571,23.2894737 L74.2642857,24.2105263 C75.85,25.5263158 77.1714286,26.7105263 77.1714286,29.0789474 C77.1714286,32.3684211 74,35.6578947 67.9214286,35.6578947 C62.9,35.6578947 60.3892857,33.2894737 60.3892857,30.6578947 C60.3892857,29.3421053 61.05,27.6315789 63.0321429,26.4473684 C65.1464286,25.1315789 68.1857143,25 69.7714286,24.8684211 C69.2428571,24.2105263 68.7142857,23.5526316 68.7142857,22.5 C68.7142857,21.9736842 68.8464286,21.5789474 69.1107143,21.1842105 C68.7142857,21.1842105 68.3178571,21.3157895 68.0535714,21.3157895 C64.3535714,21.3157895 62.2392857,18.5526316 62.2392857,15.7894737 C62.2392857,14.2105263 63.0321429,12.3684211 64.4857143,11.1842105 C66.4678571,9.60526316 68.8464286,9.21052632 70.6964286,9.21052632 L77.9642857,9.21052632 L75.7178571,10.5263158 L73.3392857,10.3947368 L73.3392857,10.3947368 Z M70.8285714,25.7894737 L70.0357143,25.7894737 C69.7714286,25.7894737 67.7892857,25.9210526 66.3357143,26.3157895 C65.5428571,26.5789474 63.2964286,27.3684211 63.2964286,29.8684211 C63.2964286,32.3684211 65.675,34.0789474 69.5071429,34.0789474 C72.8107143,34.0789474 74.6607143,32.5 74.6607143,30.2631579 C74.6607143,28.6842105 73.4714286,27.7631579 70.8285714,25.7894737 L70.8285714,25.7894737 Z M71.8857143,19.2105263 C72.6785714,18.4210526 72.8107143,17.2368421 72.8107143,16.7105263 C72.8107143,14.2105263 71.3571429,10.2631579 68.45,10.2631579 C67.525,10.2631579 66.6,10.6578947 65.9392857,11.4473684 C65.4107143,12.2368421 65.1464286,13.1578947 65.1464286,14.0789474 C65.1464286,16.4473684 66.4678571,20.2631579 69.5071429,20.2631579 C70.4321429,20.1315789 71.3571429,19.7368421 71.8857143,19.2105263 L71.8857143,19.2105263 Z"></path>
                                <path d="M51.6678571,25.2631579 C46.1178571,25.2631579 43.0785714,20.9210526 43.0785714,17.1052632 C43.0785714,12.5 46.7785714,8.68421053 52.0642857,8.68421053 C57.2178571,8.68421053 60.3892857,12.6315789 60.3892857,16.8421053 C60.5214286,20.9210526 57.35,25.2631579 51.6678571,25.2631579 L51.6678571,25.2631579 Z M56.0285714,22.5 C56.8214286,21.4473684 57.0857143,20 57.0857143,18.6842105 C57.0857143,15.6578947 55.6321429,9.73684211 51.2714286,9.73684211 C50.0821429,9.73684211 48.8928571,10.1315789 48.1,10.9210526 C46.7785714,12.1052632 46.5142857,13.6842105 46.5142857,15.1315789 C46.5142857,18.5526316 48.2321429,24.2105263 52.4607143,24.2105263 C53.9142857,24.3421053 55.2357143,23.6842105 56.0285714,22.5 L56.0285714,22.5 Z"></path>
                                <path d="M33.0357143,25.2631579 C27.4857143,25.2631579 24.4464286,20.9210526 24.4464286,17.1052632 C24.4464286,12.5 28.1464286,8.68421053 33.5642857,8.68421053 C38.7178571,8.68421053 41.8892857,12.6315789 41.8892857,16.8421053 C41.8892857,20.9210526 38.7178571,25.2631579 33.0357143,25.2631579 L33.0357143,25.2631579 Z M37.3964286,22.5 C38.1892857,21.4473684 38.4535714,20 38.4535714,18.6842105 C38.4535714,15.6578947 37,9.73684211 32.6392857,9.73684211 C31.45,9.73684211 30.3928571,10.1315789 29.4678571,10.9210526 C28.1464286,12.1052632 27.8821429,13.6842105 27.8821429,15.1315789 C27.8821429,18.5526316 29.6,24.2105263 33.8285714,24.2105263 C35.2821429,24.3421053 36.6035714,23.6842105 37.3964286,22.5 L37.3964286,22.5 Z"></path>
                                <path d="M22.3321429,24.0789474 L17.7071429,25.1315789 C15.8571429,25.3947368 14.1392857,25.6578947 12.2892857,25.6578947 C3.30357143,25.6578947 -0.132142857,19.0789474 -0.132142857,13.8157895 C-0.132142857,7.5 4.75714286,1.57894737 13.0821429,1.57894737 C14.8,1.57894737 16.5178571,1.84210526 18.1035714,2.23684211 C20.6142857,2.89473684 21.6714286,3.81578947 22.4642857,4.21052632 L19.6892857,6.84210526 L18.5,7.10526316 L19.2928571,5.78947368 C18.2357143,4.73684211 16.1214286,2.76315789 12.2892857,2.76315789 C7.13571429,2.76315789 3.17142857,6.71052632 3.17142857,12.3684211 C3.17142857,18.5526316 7.66428571,24.2105263 14.8,24.2105263 C16.9142857,24.2105263 17.9714286,23.8157895 18.8964286,23.4210526 L18.8964286,18.1578947 L14.0071429,18.4210526 L16.65,16.9736842 L23.6535714,16.9736842 L22.8607143,17.7631579 C22.5964286,17.8947368 22.5964286,18.0263158 22.5964286,18.2894737 L22.5964286,19.8684211 L22.3321429,24.0789474 L22.3321429,24.0789474 Z"></path>
                            </g>
                            <g transform="translate(108.357143, 2.631579)">
                                <path d="M1.85,20 L1.85,28.8157895 L0.132142857,28.8157895 L0.132142857,6.31578947 L1.85,6.31578947 L1.85,8.94736842 C3.03928571,7.23684211 5.15357143,5.92105263 7.53214286,5.92105263 C11.8928571,5.92105263 14.9321429,9.21052632 14.9321429,14.4736842 C14.9321429,19.7368421 12.025,23.0263158 7.53214286,23.0263158 C5.15357143,23.1578947 3.17142857,21.9736842 1.85,20 L1.85,20 Z M12.95,14.4736842 C12.95,10.5263158 10.8357143,7.5 7.26785714,7.5 C5.02142857,7.5 2.775,9.34210526 1.85,10.7894737 L1.85,18.0263158 C2.775,19.6052632 5.02142857,21.4473684 7.26785714,21.4473684 C10.8357143,21.4473684 12.95,18.4210526 12.95,14.4736842 L12.95,14.4736842 Z"></path>
                                <path d="M17.3107143,22.6315789 L17.3107143,0.131578947 L19.0285714,0.131578947 L19.0285714,22.6315789 L17.3107143,22.6315789 L17.3107143,22.6315789 Z"></path>
                                <path d="M38.85,27.5 C39.2464286,27.6315789 39.9071429,27.7631579 40.3035714,27.7631579 C41.3607143,27.7631579 42.1535714,27.3684211 42.8142857,25.7894737 L44.1357143,22.8947368 L37.1321429,6.44736842 L39.1142857,6.44736842 L45.0607143,20.6578947 L51.0071429,6.44736842 L52.9892857,6.44736842 L44.5321429,26.3157895 C43.6071429,28.4210526 42.2857143,29.3421053 40.3035714,29.3421053 C39.775,29.3421053 38.9821429,29.2105263 38.5857143,29.0789474 L38.85,27.5 L38.85,27.5 Z"></path>
                                <path d="M33.6964286,22.6315789 C33.5642857,22.1052632 33.4321429,21.5789474 33.4321429,21.1842105 C33.4321429,20.7894737 33.3,20.3947368 33.3,19.8684211 C32.6392857,20.7894737 31.8464286,21.4473684 30.7892857,22.1052632 C29.7321429,22.6315789 28.675,23.0263158 27.2214286,23.0263158 C25.5035714,23.0263158 24.1821429,22.6315789 23.2571429,21.7105263 C22.3321429,20.9210526 21.8035714,19.7368421 21.8035714,18.2894737 C21.8035714,16.8421053 22.4642857,15.6578947 23.9178571,14.7368421 C25.2392857,13.8157895 27.0892857,13.4210526 29.3357143,13.4210526 L33.4321429,13.4210526 L33.4321429,11.4473684 C33.4321429,10.2631579 33.0357143,9.34210526 32.2428571,8.68421053 C31.45,8.02631579 30.2607143,7.63157895 28.8071429,7.63157895 C27.4857143,7.63157895 26.4285714,7.89473684 25.5035714,8.55263158 C24.7107143,9.21052632 24.3142857,9.86842105 24.3142857,10.7894737 L22.4642857,10.7894737 L22.4642857,10.6578947 C22.4642857,9.47368421 22.9928571,8.28947368 24.1821429,7.36842105 C25.3714286,6.44736842 26.9571429,5.92105263 28.9392857,5.92105263 C30.9214286,5.92105263 32.375,6.44736842 33.5642857,7.36842105 C34.7535714,8.28947368 35.2821429,9.60526316 35.2821429,11.3157895 L35.2821429,19.3421053 C35.2821429,19.8684211 35.2821429,20.5263158 35.4142857,21.0526316 C35.5464286,21.5789474 35.5464286,22.1052632 35.8107143,22.6315789 L33.6964286,22.6315789 L33.6964286,22.6315789 Z M27.4857143,21.3157895 C28.9392857,21.3157895 30.1285714,20.9210526 31.1857143,20.2631579 C32.2428571,19.6052632 33.0357143,18.8157895 33.4321429,17.7631579 L33.4321429,14.6052632 L29.3357143,14.6052632 C27.75,14.6052632 26.4285714,15 25.3714286,15.6578947 C24.3142857,16.3157895 23.7857143,17.2368421 23.7857143,18.1578947 C23.7857143,19.0789474 24.1821429,19.8684211 24.8428571,20.3947368 C25.3714286,21.0526316 26.2964286,21.3157895 27.4857143,21.3157895 L27.4857143,21.3157895 Z"></path>
                            </g>
                        </g>
                        <g transform="translate(51.535714, 10.526316)" id="Shape" fill="#FFFFFF">
                            <path d="M-0.132142857,5.26315789 C-0.132142857,1.84210526 2.51071429,-0.394736842 5.68214286,-0.394736842 C7.79642857,-0.394736842 9.25,0.657894737 10.175,1.84210526 L8.58928571,2.76315789 C7.92857143,1.97368421 7.00357143,1.31578947 5.68214286,1.31578947 C3.43571429,1.31578947 1.85,3.02631579 1.85,5.26315789 C1.85,7.5 3.43571429,9.21052632 5.68214286,9.21052632 C6.87142857,9.21052632 7.79642857,8.68421053 8.325,8.15789474 L8.325,6.57894737 L5.02142857,6.57894737 L5.02142857,4.86842105 L10.3071429,4.86842105 L10.3071429,8.94736842 C9.25,10.1315789 7.66428571,10.9210526 5.81428571,10.9210526 C2.37857143,11.0526316 -0.132142857,8.81578947 -0.132142857,5.26315789 L-0.132142857,5.26315789 Z"></path>
                            <path d="M12.5535714,10.7894737 L12.5535714,-0.263157895 L20.0857143,-0.263157895 L20.0857143,1.44736842 L14.4035714,1.44736842 L14.4035714,4.34210526 L19.9535714,4.34210526 L19.9535714,6.05263158 L14.4035714,6.05263158 L14.4035714,9.07894737 L20.0857143,9.07894737 L20.0857143,10.7894737 L12.5535714,10.7894737 L12.5535714,10.7894737 Z"></path>
                            <path d="M25.5035714,10.7894737 L25.5035714,1.44736842 L22.2,1.44736842 L22.2,-0.263157895 L30.7892857,-0.263157895 L30.7892857,1.44736842 L27.4857143,1.44736842 L27.4857143,10.7894737 L25.5035714,10.7894737 L25.5035714,10.7894737 Z"></path>
                            <path d="M37.5285714,10.7894737 L37.5285714,-0.263157895 L39.5107143,-0.263157895 L39.5107143,10.7894737 L37.5285714,10.7894737 L37.5285714,10.7894737 Z"></path>
                            <path d="M44.9285714,10.7894737 L44.9285714,1.44736842 L41.625,1.44736842 L41.625,-0.263157895 L50.2142857,-0.263157895 L50.2142857,1.44736842 L46.9107143,1.44736842 L46.9107143,10.7894737 L44.9285714,10.7894737 L44.9285714,10.7894737 Z"></path>
                            <path d="M56.425,5.26315789 C56.425,1.97368421 58.8035714,-0.394736842 62.1071429,-0.394736842 C65.4107143,-0.394736842 67.7892857,1.97368421 67.7892857,5.26315789 C67.7892857,8.55263158 65.4107143,10.9210526 62.1071429,10.9210526 C58.8035714,11.0526316 56.425,8.55263158 56.425,5.26315789 L56.425,5.26315789 Z M65.8071429,5.26315789 C65.8071429,3.02631579 64.3535714,1.31578947 62.1071429,1.31578947 C59.8607143,1.31578947 58.4071429,3.02631579 58.4071429,5.26315789 C58.4071429,7.5 59.8607143,9.21052632 62.1071429,9.21052632 C64.3535714,9.34210526 65.8071429,7.63157895 65.8071429,5.26315789 L65.8071429,5.26315789 Z"></path>
                            <path d="M77.7,10.7894737 L71.8857143,2.89473684 L71.8857143,10.7894737 L69.9035714,10.7894737 L69.9035714,-0.263157895 L71.8857143,-0.263157895 L77.5678571,7.36842105 L77.5678571,-0.263157895 L79.55,-0.263157895 L79.55,10.7894737 L77.7,10.7894737 L77.7,10.7894737 Z"></path>
                        </g>
                        <g transform="translate(9.250000, 30.263158)" id="Shape">
                            <path d="M18.8964286,17.5 L24.5785714,11.8421053 L18.8964286,17.5 L0.792857143,-0.526315789 L18.8964286,17.5 L0.792857143,35.6578947 L18.8964286,17.5 L24.7107143,23.1578947 L18.8964286,17.5 Z"></path>
                            <path d="M24.5785714,11.8421053 L2.51071429,-0.263157895 C1.85,-0.657894737 1.32142857,-0.657894737 0.792857143,-0.526315789 L18.8964286,17.5 L24.5785714,11.8421053 L24.5785714,11.8421053 Z" fill="url(#linearGradient-1)"></path>
                            <path d="M24.7107143,23.1578947 L32.2428571,19.0789474 C33.8285714,18.2894737 33.8285714,16.8421053 32.2428571,16.0526316 L24.7107143,11.9736842 L19.0285714,17.6315789 L24.7107143,23.1578947 L24.7107143,23.1578947 Z" fill="url(#linearGradient-2)"></path>
                            <path d="M0.792857143,-0.526315789 C0.132142857,-0.263157895 -0.264285714,0.394736842 -0.264285714,1.44736842 L-0.264285714,33.6842105 C-0.264285714,34.7368421 0.132142857,35.3947368 0.792857143,35.5263158 L18.8964286,17.5 L0.792857143,-0.526315789 L0.792857143,-0.526315789 Z" fill="url(#linearGradient-3)"></path>
                            <path d="M0.792857143,35.6578947 C1.32142857,35.7894737 1.85,35.7894737 2.51071429,35.3947368 L24.5785714,23.2894737 L18.8964286,17.6315789 L0.792857143,35.6578947 L0.792857143,35.6578947 Z" fill="url(#linearGradient-4)"></path>
                        </g>
                    </g>
                </g>
            </g>
        </g>
    </g>
</svg>