<?xml version="1.0" encoding="utf-8"?>
<!-- Generator: Adobe Illustrator 15.0.0, SVG Export Plug-In . SVG Version: 6.00 Build 0)  -->
<!DOCTYPE svg PUBLIC "-//W3C//DTD SVG 1.1//EN" "http://www.w3.org/Graphics/SVG/1.1/DTD/svg11.dtd">
<svg version="1.1" id="Layer_1" xmlns="http://www.w3.org/2000/svg" xmlns:xlink="http://www.w3.org/1999/xlink" x="0px" y="0px"
	 width="128px" height="128px" viewBox="0 0 128 128" enable-background="new 0 0 128 128" xml:space="preserve">
<g id="_x31_6x16_Spinner.psd" display="none">
	<g display="inline">
		<g>
			<defs>
				<rect id="SVGID_1_" width="128" height="128"/>
			</defs>
			<clipPath id="SVGID_2_">
				<use xlink:href="#SVGID_1_"  overflow="visible"/>
			</clipPath>
			<g clip-path="url(#SVGID_2_)">
				
					<image overflow="visible" enable-background="new    " width="16" height="16" id="Layer_1_1_" xlink:href="DA8ADC5F.png"  transform="matrix(8 0 0 8 4.882812e-04 -9.765625e-04)">
				</image>
			</g>
		</g>
	</g>
</g>
<path opacity="0.4" fill="#FFFFFF" d="M36.858,41.092L11.964,26.861c-2.748,3.841-5.09,7.99-6.941,12.398l25.015,14.302
	C31.46,48.929,33.807,44.705,36.858,41.092z"/>
<path opacity="0.5" fill="#FFFFFF" d="M25.926,13.017L40.35,37.5c3.531-3.152,7.695-5.605,12.278-7.153L38.168,5.804L25.926,13.017z
	"/>
<path opacity="0.3" fill="#FFFFFF" d="M28.476,64c0-2.433,0.247-4.81,0.713-7.105H0.459C0.2,59.229,0.057,61.597,0.057,64
	c0,2.403,0.143,4.771,0.402,7.105h28.73C28.723,68.81,28.476,66.433,28.476,64z"/>
<path opacity="0.8" fill="#FFFFFF" d="M88.336,38.134l14.653-24.802c-0.837-0.645-1.688-1.268-2.557-1.872l-8.154-4.814
	c-0.478-0.235-0.956-0.46-1.438-0.684L76.258,30.647C80.792,32.314,84.887,34.886,88.336,38.134z"/>
<path opacity="0.8" fill="#FFFFFF" d="M115.391,26.477L90.753,40.641c3.112,3.562,5.524,7.748,7.023,12.35l24.696-14.199
	L115.391,26.477z"/>
<path opacity="0.6" fill="#FFFFFF" d="M64.001,28.475c2.433,0,4.809,0.246,7.105,0.713V0.458C68.77,0.2,66.403,0.056,64.001,0.056
	s-4.77,0.145-7.105,0.403v28.729C59.191,28.721,61.568,28.475,64.001,28.475z"/>
<path opacity="0.2" fill="#FFFFFF" d="M30.345,75.368L5.441,89.685c1.923,4.378,4.314,8.498,7.122,12.298l24.935-14.337
	C34.345,84.115,31.893,79.952,30.345,75.368z"/>
<path opacity="0.1" fill="#FFFFFF" d="M90.219,87.967l25.015,14.302c0.577-0.772,1.136-1.56,1.678-2.358l4.907-8.587
	c0.207-0.435,0.399-0.877,0.598-1.318L97.52,75.771C95.918,80.335,93.416,84.473,90.219,87.967z"/>
<path opacity="0.8" fill="#FFFFFF" d="M98.813,56.895c0.464,2.295,0.711,4.672,0.711,7.105c0,2.433-0.247,4.81-0.711,7.105h28.729
	c0.258-2.334,0.401-4.702,0.401-7.105c0-2.403-0.144-4.771-0.401-7.105H98.813z"/>
<path opacity="0.1" fill="#FFFFFF" d="M75.719,97.536l14.579,24.747c4.355-1.968,8.455-4.397,12.223-7.247L87.925,90.26
	C84.425,93.45,80.284,95.941,75.719,97.536z"/>
<path opacity="0.1" fill="#FFFFFF" d="M40.713,90.814L26.124,115.51c3.802,2.803,7.926,5.188,12.308,7.103l14.652-24.806
	C48.476,96.321,44.283,93.918,40.713,90.814z"/>
<path opacity="0.1" fill="#FFFFFF" d="M64.001,99.524c-2.433,0-4.81-0.246-7.105-0.712v28.729c2.335,0.258,4.703,0.402,7.105,0.402
	s4.769-0.145,7.105-0.402V98.812C68.81,99.278,66.434,99.524,64.001,99.524z"/>
</svg>
