<?xml version="1.0" encoding="utf-8"?>
<!-- Generator: Adobe Illustrator 18.1.0, SVG Export Plug-In . SVG Version: 6.00 Build 0)  -->
<svg version="1.1" id="Layer_1" xmlns:sketch="http://www.bohemiancoding.com/sketch/ns"
	 xmlns="http://www.w3.org/2000/svg" xmlns:xlink="http://www.w3.org/1999/xlink" x="0px" y="0px" viewBox="-123 300 364 194"
	 enable-background="new -123 300 364 194" xml:space="preserve">
<title>responsive_design_groot</title>
<desc>Created with Sketch.</desc>
<g id="Casepagina" sketch:type="MSPage">
	<g id="Desktop" transform="translate(-534.000000, -3565.000000)" sketch:type="MSArtboardGroup">
		<g id="Group" transform="translate(258.000000, 3548.000000)" sketch:type="MSLayerGroup">
			<g id="responsive_design_groot" transform="translate(280.000000, 21.000000)" sketch:type="MSShapeGroup">
				<g id="Fill-1">
					<path fill="#FFFFFE" d="M0.5,463c-1.5,0-3.5-0.2-5-0.4c-2.8-0.3-4.4-0.5-4.7-2.3l0-0.2v-0.2c0-1.8,1.8-2.3,2.7-2.5
						c0.3-0.1,0.9-0.2,1.5-0.4c1-0.2,2.2-0.5,3.2-0.8c1.1-0.3,1.3-0.3,1.5-2.3c0.1-1.2,0.5-5.6,0.7-9.5c0.2-2.6,0.4-5.1,0.5-6.6
						l0.1-1.8h42.2l0.1,1.8c0.1,1.6,0.3,4,0.5,6.6c0.3,3.9,0.6,8.3,0.7,9.5c0.2,2,0.5,2.1,1.5,2.3c1,0.3,2.2,0.5,3.2,0.8
						c0.6,0.1,1.1,0.3,1.5,0.4c0.8,0.2,2.7,0.7,2.7,2.6l0,0.1l0,0.1c-0.3,1.7-1.7,1.8-4.7,2.2c-1.9,0.2-3.8,0.4-5,0.4H0.5z"/>
					<path fill="#353134" d="M41.4,438.1c0.3,4,1,14.2,1.2,16.2c0.3,2.8,1.1,3.5,3,4c1.6,0.4,3.8,0.9,4.7,1.1
						c0.9,0.2,1.2,0.4,1.2,0.6c0,0.2-5.2,0.9-7.7,0.9H0.5c-2.5,0-7.6-0.6-7.7-0.9c0-0.2,0.3-0.3,1.2-0.6c0.9-0.2,3.1-0.7,4.7-1.1
						c1.9-0.5,2.7-1.3,3-4c0.2-2.1,0.9-12.2,1.2-16.2H41.4 M45.1,434.1h-3.7H2.9h-3.7l-0.3,3.7c-0.1,1.6-0.3,4.1-0.5,6.6
						c-0.3,3.9-0.6,8.3-0.7,9.4c0,0.3-0.1,0.5-0.1,0.6c-0.9,0.2-2.1,0.5-3.1,0.8c-0.6,0.2-1.2,0.3-1.5,0.4c-1.9,0.5-4.2,1.7-4.2,4.4
						v0.3l0,0.3c0.5,3.2,3.5,3.6,6.4,3.9c0.7,0.1,3.3,0.4,5.2,0.4h43.4c1.9,0,4.5-0.3,5.2-0.4c3-0.4,5.9-0.7,6.4-3.9l0-0.3l0-0.3
						c0-1.6-0.7-3.7-4.2-4.6c-0.4-0.1-0.9-0.2-1.5-0.4c-1-0.2-2.1-0.5-3.1-0.8c0-0.2-0.1-0.4-0.1-0.6c-0.1-1.2-0.5-5.6-0.7-9.4
						c-0.2-2.6-0.4-5.1-0.5-6.6L45.1,434.1L45.1,434.1z"/>
				</g>
				<g id="Fill-2">
					<path fill="#FFFFFE" d="M-70.2,435c-3.5,0-6.4-2.9-6.4-6.4V304.4c0-3.5,2.9-6.4,6.4-6.4h184.7c3.5,0,6.4,2.9,6.4,6.4v124.2
						c0,3.5-2.9,6.4-6.4,6.4H-70.2z M108.7,404.9v-94.7h-173v94.7H108.7z"/>
					<path fill="#353134" d="M114.5,300c2.4,0,4.4,2,4.4,4.4v124.2c0,2.4-2,4.4-4.4,4.4H41.4v0H3v0h-73.1c-2.4,0-4.4-2-4.4-4.4
						V304.4c0-2.4,2-4.4,4.4-4.4H114.5 M-66.4,406.9h177v-98.7h-177V406.9 M114.5,296H-70.2c-4.6,0-8.4,3.7-8.4,8.4v124.2
						c0,4.6,3.7,8.4,8.4,8.4H3l38.4,0l73.1,0c4.6,0,8.4-3.7,8.4-8.4V304.4C122.9,299.8,119.1,296,114.5,296L114.5,296z M-62.4,312.2
						h169v90.7h-169V312.2L-62.4,312.2z"/>
				</g>
				<path id="Fill-4" fill="#FFFFFE" d="M82.3,370h117.8v73.2H82.3V370z"/>
				<path id="Fill-5" fill="#FFFFFE" d="M-111.5,364.7h59v82.1h-47.1h-11.9V364.7z"/>
				<g id="Fill-7">
					<path fill="#FFFFFE" d="M82.5,451.9v-85.3c0-3.5,2.9-6.4,6.4-6.4h123.9c3.5,0,6.4,2.9,6.4,6.4v85.3H82.5z M209.4,443.2v-73
						h-117v73H209.4z"/>
					<path fill="#353134" d="M212.8,362.2c2.4,0,4.4,2,4.4,4.4v83.3H84.5v-83.3c0-2.4,2-4.4,4.4-4.4H212.8 M150.9,366
						c0.5,0,0.9-0.4,0.9-0.9c0-0.5-0.4-0.9-0.9-0.9c-0.5,0-0.9,0.4-0.9,0.9C149.9,365.6,150.4,366,150.9,366 M90.4,445.2h121v-0.7
						v-76.3h-121V445.2 M212.8,358.2H88.9c-4.6,0-8.4,3.8-8.4,8.4v83.3v4h4h132.7h4v-4v-83.3C221.2,362,217.4,358.2,212.8,358.2
						L212.8,358.2z M94.4,372.2h113v69h-113V372.2L94.4,372.2z"/>
				</g>
				<g id="Fill-8">
					<path fill="#FFFFFE" d="M-119.8,458c-2.9,0-5.2-2.3-5.2-5.2v-94c0-2.9,2.3-5.2,5.2-5.2h71.5c2.9,0,5.2,2.3,5.2,5.2v94
						c0,2.9-2.3,5.2-5.2,5.2H-119.8z M-52,446.6v-84h-64v84H-52z"/>
					<path fill="#353134" d="M-48.3,355.6c1.8,0,3.2,1.4,3.2,3.2v94c0,1.8-1.4,3.2-3.2,3.2h-71.5c-1.8,0-3.2-1.4-3.2-3.2v-94
						c0-1.8,1.4-3.2,3.2-3.2H-48.3 M-84,359.1c0.5,0,0.9-0.4,0.9-0.9c0-0.5-0.4-0.9-0.9-0.9c-0.5,0-0.9,0.4-0.9,0.9
						C-84.9,358.8-84.5,359.1-84,359.1 M-118,448.6h68v-88h-68V448.6 M-84,454.1c1,0,1.7-0.8,1.7-1.7c0-1-0.8-1.7-1.7-1.7
						c-1,0-1.7,0.8-1.7,1.7C-85.8,453.4-85,454.1-84,454.1 M-48.3,351.6h-71.5c-4,0-7.2,3.2-7.2,7.2v94c0,4,3.2,7.2,7.2,7.2h71.5
						c4,0,7.2-3.2,7.2-7.2v-94C-41.1,354.9-44.3,351.6-48.3,351.6L-48.3,351.6z M-114,364.6h60v80h-60V364.6L-114,364.6z"/>
				</g>
				<path id="Fill-9" fill="#FFFFFE" d="M-57.9,420.5h26.3v46.3h-26.3V420.5z"/>
				<g id="Fill-10">
					<path fill="#FFFFFE" d="M-55.8,488c-1.9,0-6.8,0-6.8-4.9v-59.7c0-4.7,4.4-4.7,6.8-4.7h21.5c2.4,0,6.8,0,6.8,4.7v59.7
						c0,4.9-4.9,4.9-6.7,4.9H-55.8z M-34.4,477.8v-49.1h-21.2v49.1H-34.4z"/>
					<path fill="#353134" d="M-34.3,420.7c2.6,0,4.8,0,4.8,2.7v59.7c0,2.6-2.1,2.9-4.7,2.9h-21.5c-2.6,0-4.8-0.2-4.8-2.9v-59.7
						c0-2.6,2.2-2.7,4.8-2.7H-34.3 M-47.6,424.3h5c0.3,0,0.5-0.2,0.5-0.5c0-0.3-0.2-0.5-0.5-0.5h-5c-0.3,0-0.5,0.2-0.5,0.5
						C-48.1,424.1-47.9,424.3-47.6,424.3 M-57.7,479.8h25.2v-53.1h-25.2V479.8 M-45.1,484.5c0.9,0,1.6-0.7,1.6-1.6
						c0-0.9-0.7-1.6-1.6-1.6c-0.9,0-1.6,0.7-1.6,1.6C-46.7,483.8-46,484.5-45.1,484.5 M-34.3,416.7h-21.5c-1.5,0-3.2,0-4.8,0.6
						c-2.5,1-4,3.2-4,6.1v59.7c0,2.8,1.4,5,3.8,6.1c1.7,0.7,3.5,0.8,5,0.8h21.5c1.6,0,3.4-0.1,5-0.8c2.4-1.1,3.7-3.3,3.7-6.1v-59.7
						c0-2.9-1.4-5.1-3.9-6C-31,416.7-32.8,416.7-34.3,416.7L-34.3,416.7z M-53.7,430.7h17.2v45.1h-17.2V430.7L-53.7,430.7z"/>
				</g>
				<g id="Fill-6">
					<path fill="#FFFFFE" d="M76.4,470c-3.6,0-7.5-1-8.9-2.6l0,0c-0.4-0.4-0.7-1.1-0.7-1.7v-2.3c0-1.2,1-2.2,2.2-2.2h12.4l0,0h57.6
						l0.3,1.6c0,0.1,0.2,0.3,0.3,0.3h22.5c0.2,0,0.3-0.1,0.3-0.3l0.3-1.6h57.1l0,0h12.9c1.2,0,2.2,1,2.2,2.2v2.3
						c0,0.6-0.3,1.2-0.7,1.7c-0.4,0.4-2.7,2.6-9,2.6H76.4z"/>
					<path fill="#353134" d="M216.7,463.1C216.7,463.2,216.7,463.2,216.7,463.1l16.1,0c0.1,0,0.2,0.1,0.2,0.2v2.3
						c0,0.1,0,0.2-0.1,0.3c0,0-1.9,2-7.5,2H76.4c-5.7,0-7.5-2-7.5-2c-0.1-0.1-0.1-0.2-0.1-0.3v-2.3c0-0.1,0.1-0.2,0.2-0.2h16.1
						c0,0,0,0,0,0h52.3c0.2,1.1,1.2,1.9,2.3,1.9h22.5c1.1,0,2.1-0.8,2.3-1.9H216.7 M223.4,459.1h-6.7h-52.3h-3.3l-0.4,1.9H141
						l-0.4-1.9h-3.3H85h-6.7l0,0h-9.4c-2.3,0-4.2,1.9-4.2,4.2v2.3c0,1.2,0.5,2.3,1.3,3.1l0,0c1.4,1.5,4.7,3.2,10.4,3.2h148.9
						c6.7,0,9.6-2.4,10.4-3.2c0.8-0.8,1.2-1.9,1.2-3v-2.3c0-2.3-1.9-4.2-4.2-4.2L223.4,459.1L223.4,459.1L223.4,459.1z"/>
				</g>
			</g>
		</g>
	</g>
</g>
</svg>
