<?xml version="1.0" encoding="UTF-8" standalone="no"?>
<svg width="51px" height="51px" viewBox="0 0 51 51" version="1.1" xmlns="http://www.w3.org/2000/svg" xmlns:xlink="http://www.w3.org/1999/xlink" xmlns:sketch="http://www.bohemiancoding.com/sketch/ns">
    <!-- Generator: Sketch 3.1.1 (8761) - http://www.bohemiancoding.com/sketch -->
    <title>artikelen</title>
    <desc>Created with Sketch.</desc>
    <defs></defs>
    <g id="Casepagina" stroke="none" stroke-width="1" fill="none" fill-rule="evenodd" sketch:type="MSPage">
        <g id="Desktop" sketch:type="MSArtboardGroup" transform="translate(-328.000000, -2012.000000)" fill="#353134">
            <g id="artikelen" sketch:type="MSLayerGroup" transform="translate(329.000000, 2013.000000)">
                <path d="M17.4633333,32.4566667 L20.3488889,25.5055556 L45.9544444,-0.103333333 L50.0255556,3.96777778 L24.12,29.7722222 L17.4633333,32.4566667 L17.4633333,32.4566667 Z M20.7177778,29.2055556 L23.2766667,28.1722222 L47.4811111,3.96777778 L45.9544444,2.44111111 L21.75,26.6477778 L20.7177778,29.2055556 Z" id="Fill-2" sketch:type="MSShapeGroup"></path>
                <path d="M23.7811111,28.94 L19.09,30.8322222 L20.9822222,26.1411111 L23.7811111,28.94" id="Fill-3" sketch:type="MSShapeGroup"></path>
                <path d="M1.80974525,49.9544444 C0.707157394,49.9544444 -0.186666667,49.0638983 -0.186666667,47.9579782 L-0.186666667,11.1309107 C-0.186666667,10.0282928 0.713758315,9.13444444 1.81447246,9.13444444 L31.6111111,9.13444444 L31.6111111,11.9333333 L3.61042962,11.9333333 C3.0591349,11.9333333 2.61222222,12.3786724 2.61222222,12.9307291 L2.61222222,46.1581598 C2.61222222,46.7090063 3.05753316,47.1555556 3.60955506,47.1555556 L36.8348894,47.1555556 C37.3857011,47.1555556 37.8322222,46.7092923 37.8322222,46.1520318 L37.8322222,18.0022222 L40.6322222,18.0022222 L40.6322222,47.9556898 C40.6322222,49.0595715 39.7417003,49.9544444 38.6358103,49.9544444 L1.80974525,49.9544444 Z" id="Fill-4" sketch:type="MSShapeGroup"></path>
            </g>
        </g>
    </g>
</svg>