<?xml version="1.0" encoding="utf-8"?>
<!-- Generator: Adobe Illustrator 18.1.0, SVG Export Plug-In . SVG Version: 6.00 Build 0)  -->
<svg version="1.1" id="Layer_1" xmlns:sketch="http://www.bohemiancoding.com/sketch/ns"
	 xmlns="http://www.w3.org/2000/svg" xmlns:xlink="http://www.w3.org/1999/xlink" x="0px" y="0px" viewBox="-234 299 143 195"
	 enable-background="new -234 299 143 195" xml:space="preserve">
<title>Group</title>
<desc>Created with Sketch.</desc>
<path id="Rectangle-212" sketch:type="MSShapeGroup" fill="#353134" d="M-124.5,354L-124.5,354c1.4,0,2.5,3.6,2.5,8v23
	c0,4.4-1.1,8-2.5,8l0,0c-1.4,0-2.5-3.6-2.5-8v-23C-127,357.6-125.9,354-124.5,354z"/>
<path id="Rectangle-212_1_" sketch:type="MSShapeGroup" fill="#353134" d="M-106.5,354L-106.5,354c1.4,0,2.5,3.6,2.5,8v4
	c0,4.4-1.1,8-2.5,8l0,0c-1.4,0-2.5-3.6-2.5-8v-4C-109,357.6-107.9,354-106.5,354z"/>
<path id="Rectangle-212_2_" sketch:type="MSShapeGroup" fill="#353134" d="M-115.5,354L-115.5,354c1.4,0,2.5,3.6,2.5,8v52
	c0,4.4-1.1,8-2.5,8l0,0c-1.4,0-2.5-3.6-2.5-8v-52C-118,357.6-116.9,354-115.5,354z"/>
<path id="Rectangle-210_1_" sketch:type="MSShapeGroup" fill="#353134" d="M-220.6,493L-220.6,493c-1.4,0-2.5-3.6-2.5-8v-7
	c0-4.4,1.1-8,2.5-8l0,0c1.4,0,2.5,3.6,2.5,8v7C-218.1,489.4-219.2,493-220.6,493z"/>
<g>
	<circle fill="#353134" cx="-197.7" cy="362" r="2.5"/>
	<path fill="#353134" d="M-95,464.5V356.4c2.3-1.6,3.8-4.3,3.8-7.4c0-5-4-9-9-9h-0.9c-0.9-4.7-9.1-8.6-19.2-10.6V322
		c0-2.2-1.8-4-4-4h-0.9v-19H-145v19h-0.9c-2.2,0-4,1.8-4,4v7.4c-10,2-18.1,6-19,10.6h-1.1c-5,0-9,4-9,9c0,3.1,1.6,5.9,4,7.5V419h-12
		v-58.8c0-5.8-4.7-10.5-10.5-10.5c-5.8,0-10.5,4.7-10.5,10.5V419h-17.1c-4.4,0-8,3.6-8,8v14.8v2v1.9v44.3v3.8h4h6h5h3h5h43.8h4v-3.8
		V481H-91v-9C-91,468.9-92.6,466.1-95,464.5z M-141,302.8h11.9V318H-141V302.8z M-145.9,322c0,0,0.3,0,0.9,0l19.9,0
		c0.5,0,0.9,0,0.9,0c0,0,0,3.8,0,6.7c-3.4-0.5-7-0.7-10.7-0.7c-3.8,0-7.5,0.3-10.9,0.7V322z M-156.9,335.5
		c5.7-2.2,13.5-3.5,21.9-3.5s16.2,1.3,21.9,3.5c3.8,1.5,6,3.1,6.8,4.5h-57.3C-162.9,338.7-160.6,337-156.9,335.5z M-170,344h69.8
		c2.8,0,5,2.2,5,5s-2.2,5-5,5H-170c-2.8,0-5-2.2-5-5S-172.8,344-170,344z M-204,360.3c0-3.6,2.9-6.5,6.5-6.5c3.6,0,6.5,2.9,6.5,6.5
		V419h-13V360.3z M-166.2,490.2h-43.8v-12.4c0-1.4-1.1-2.5-2.5-2.5c-1.4,0-2.5,1.1-2.5,2.5v12.4h-3v-17.7c0-1.4-1.1-2.5-2.5-2.5
		c-1.4,0-2.5,1.1-2.5,2.5v17.7h-6v-44.3h62.8V490.2z M-166.2,441.9h-62.8V427c0-2.2,1.8-4,4-4h54.8c2.2,0,4,1.8,4,4V441.9z
		 M-170.3,419h-0.7v-61.1c0.3,0,0.7,0.1,1,0.1h43v32.5c0,1.4,1.1,2.5,2.5,2.5c1.4,0,2.5-1.1,2.5-2.5V358h4v61.5
		c0,1.4,1.1,2.5,2.5,2.5c1.4,0,2.5-1.1,2.5-2.5V358h4v13.5c0,1.4,1.1,2.5,2.5,2.5c1.4,0,2.5-1.1,2.5-2.5V358h3.8
		c0.4,0,0.8,0,1.2-0.1v105.1c-0.3,0-0.7-0.1-1-0.1h-62.2v-17.1v-4V427C-162.2,422.6-165.8,419-170.3,419z M-95,477h-67.2v-10h62.2
		c2.8,0,5,2.2,5,5V477z"/>
</g>
</svg>
